<?xml version='1.0' encoding='UTF-8'?>
<svg xmlns="http://www.w3.org/2000/svg" xmlns:xlink="http://www.w3.org/1999/xlink" width="397.371px" height="86.8316px" viewBox="0 0 397.371 86.8316" x="0px" y="0px" enable-background="new 0 0 397.371 86.8316"><defs><symbol overflow="visible" id="4222ed3fa"><path d="M31.58-33.13a47.22 47.22 0 014.1 11.4 33.18 33.18 0 01.6 12.9 15.34 15.34 0 01-2.14 5.88c-2.81 4.38-7.68 6.9-14.6 7.56-4.99.47-8.78-.51-11.38-2.94-2.6-2.42-3.8-5.79-3.57-10.1.24-4.3 1.72-8.32 4.44-12.07.38-.5.72-.64 1.05-.4.33.22.3.68-.1 1.35-2.94 5-3.5 9.06-1.68 12.2 1.83 3.12 5.45 4.67 10.86 4.65 6.3-.07 11.37-2.18 15.18-6.33.07-.1.11-.3.11-.61.05-2.25-.62-5.25-2.03-9.02-1.4-3.75-2.69-6.47-3.84-8.14-.33-.47-.42-.86-.28-1.18l2.18-5.38c.26-.66.63-.58 1.1.23zm-13.4-10.82c.12-.2.32-.24.6-.14a15 15 0 015.1 2.98c.21.19.25.4.1.64l-3.43 5.44c-.15.22-.4.19-.74-.1a85.1 85.1 0 00-5.04-3.17c-.2-.11-.22-.25-.1-.42zm0 0"/></symbol><symbol overflow="visible" id="4222ed3fb"><path d="M19.94-7.25c-.92-2-2.07-3-3.46-2.95-.84.12-1.5.5-2 1.12-.2.26-.15.6.18 1.03.75.96 2.4 1.42 4.96 1.36.3 0 .41-.18.32-.56zM23.37.78c-1.5 8.57-6.03 14.56-13.59 17.95-1.97.9-3.79 1.4-5.45 1.5-1.67.1-4.74-1.36-9.22-4.4-.5-.36-.66-.71-.45-1.06.2-.36.54-.42.98-.18 4.01 2.09 9.02 1.4 15.05-2.04C15.84 9.62 19.35 5.57 21.2.39c0-.17-.06-.29-.17-.36C17.5 0 14.9-.5 13.25-1.45c-1.64-.96-2.26-2.82-1.86-5.58.1-.63.29-1.4.6-2.28 1.03-2.98 2.51-5.01 4.46-6.1 1.95-1.09 3.6-.7 4.96 1.18 1.38 1.91 2.17 4.5 2.36 7.73l1.12-.08c.7-.02 1.13.53 1.27 1.66a8.16 8.16 0 01-.24 3.26C25.62-.56 25.3 0 24.9 0c-.35.02-.82.03-1.4.03-.03.24-.06.49-.11.75zm0 0"/></symbol><symbol overflow="visible" id="4222ed3fc"><path d="M17.58-6.5c.8.19 1.25.47 1.34.84.1.38.1.94 0 1.7-.35 2.64-.8 3.96-1.34 3.96-2.58.02-5.17-1.43-7.8-4.36C7.64-1.76 4.38-.3 0 0c-.45.02-.75-.34-.92-1.1l-.63-2.98a2.1 2.1 0 01.3-1.54c.31-.54.73-.84 1.25-.88 5.34-.4 8.9-1.98 10.69-4.72.26-.4.58-.6.98-.6s.61.23.64.68c.04.44.1.73.17.87 1.57 2.16 3.27 3.42 5.1 3.77zm0 0"/></symbol><symbol overflow="visible" id="4222ed3fd"><path d="M34.95-20.53c.2-.28.44-.14.77.42s.55 1.77.64 3.61a19.3 19.3 0 01-.5 5.45c-.98 3.9-2.23 5.87-3.77 5.9-3.5.16-6.5-1.05-8.95-3.6-1.69 3.96-4.01 6.32-6.97 7.1-2.95.77-5.95-.48-9-3.73C4.64-1.77 2.25 0 0 0c-.49.02-.91-1.02-1.28-3.14-.36-2.13.06-3.24 1.28-3.36 4.64-.47 8.24-2.9 10.8-7.28.11-.26.29-.38.53-.36.22 0 .41.1.56.28.25.36-.1 1.41-1.06 3.17.8 1.45 2.75 2.2 5.84 2.25 3.7.05 6.53-3.2 8.5-9.73.1-.26.26-.4.49-.44.23-.04.44.04.6.23.17.2.23.44.18.72l-.74 3.07a9.72 9.72 0 004.4 2.42c1.95.56 3.06.5 3.37-.19.3-.69.1-2.1-.63-4.23-.09-.24.61-1.55 2.11-3.94zm0 0"/></symbol><symbol overflow="visible" id="4222ed3fe"><path d="M11.4-23.45c.8-.57 1.76-.5 2.91.17 3.12 1.83 5.3 4.16 6.58 6.97 1.28 2.81 1.59 5.7.92 8.65s-1.89 5.25-3.67 6.9a9.16 9.16 0 01-6.3 2.48C8.6 1.77 6.44.62 5.4-1.7c-1.04-2.34-1.06-5.44-.06-9.33 1-3.9 2.84-7.4 5.53-10.49.1-.09.14-.39.14-.9 0-.52.13-.87.4-1.03zm6.82 15.47c.58-.45.46-1.16-.36-2.14-2.23-2.74-4.36-4.1-6.4-4.05-1.02.02-1.9.7-2.63 2.04s-1 2.44-.78 3.3c.4 1.76 1.8 2.64 4.17 2.64s4.37-.6 6-1.8zm0 0"/></symbol><symbol overflow="visible" id="4222ed3ff"><path d="M17.38-9.5c.25 0 .53.12.84.36.28.23.77.48 1.47.73 1.68.64 2.01 2.88.98 6.72-.23.98-.37 1.55-.42 1.69-.23 2.44-.9 4.85-2.03 7.25-2.12 4.54-5 8.03-8.63 10.47-1.91 1.31-3.38 1.9-4.39 1.8-2.53-.27-6.1-1.77-10.72-4.5-.37-.22-.52-.48-.45-.8.06-.31.27-.46.63-.44l5.17.78c.67.06 1.78.03 3.33-.1 1.55-.12 3.97-1.34 7.28-3.66 3.31-2.33 5.6-4.92 6.89-7.77.24-1.31-.26-2.78-1.5-4.4-.4-.5-.55-.96-.42-1.41l1.54-6.53c.02-.07.16-.14.43-.19zm0 0"/></symbol><symbol overflow="visible" id="4222ed3fg"><path d="M35.38-56l-1.46 4.17c-.12.36-.44.6-.98.75-21.75 5.31-34.62 9.44-38.6 12.38a66.52 66.52 0 017.33 6.3c3.01 2.9 7.27 7.35 12.78 13.38l8.33 9.1c1.74 1.72 3.38 2.84 4.92 3.37 1.55.53 1.96 2.28 1.2 5.28C28.7-.42 28.34 0 27.85 0c-2.2 0-4.6-1.55-7.23-4.64-6.75-7.99-10.66-12.42-11.72-13.3.99 8.23.31 13.62-2.03 16.17C5.77-.59 3.62 0 .39 0-.27 0-.88-1.27-1.47-3.81c-.6-2.54-.47-4.07.38-4.6.24-.13.53-.14.87-.03 2.92 1.01 5.52.69 7.81-.98-.07-2.98-1.78-6.76-5.12-11.35A76.24 76.24 0 00-9.28-33.5c-.19-2.3-.18-3.88.01-4.75.2-.86 1-2.32 2.38-4.36l.67-.98c.68-1.62 6.26-4.14 16.74-7.57 7.33-2.38 15.34-4.4 24.04-6.04.87-.17 1.14.23.81 1.2zM.74-52.4c-.73.25-.79-.02-.19-.8a12.7 12.7 0 012-2.07 6.32 6.32 0 011.77-1.09c8.36-3.13 19.3-6.08 32.81-8.83.28-.06.4.04.34.3-.04.25-.6.92-1.7 2.02-1.1 1.08-2.04 1.7-2.83 1.84-8.79 1.54-19.52 4.42-32.2 8.64zm0 0"/></symbol><symbol overflow="visible" id="4222ed3fh"><path d="M4.3-15.22l2.03-4.47c.42-.91.87-.92 1.34-.03 1.9 3.5 2.24 7.71 1.05 12.66C7.57-2.36 4.66 0 0 0c-.52 0-1.02-1.22-1.52-3.66-.37-1.94.14-2.9 1.52-2.84 2.83.12 4.97-.65 6.4-2.3.07-.1.08-.25.04-.48a11.02 11.02 0 00-1.94-4.19c-.42-.58-.48-1.16-.2-1.75zm0 0"/></symbol><symbol overflow="visible" id="4222ed3fi"><path d="M17.72-20.08c.14-.58.57-.52 1.26.17 1.88 1.93 3.29 4.51 4.22 7.74a26.2 26.2 0 01.99 9.67 23.85 23.85 0 01-5.03 11.63 19.82 19.82 0 01-10.93 7.12c-1.21.32-2.37.3-3.45-.08-5.62-1.9-9.12-3.26-10.48-4.1-.2-.12-.28-.27-.28-.46s.08-.36.25-.5a.63.63 0 01.59-.11c3.28 1 6.12 1.36 8.52 1.06 2.39-.3 5.14-1.45 8.23-3.45 4.6-2.97 7.92-6.43 9.98-10.38.2-.34.24-.71.14-1.12-.7-2.53-2.58-5.68-5.62-9.45-.15-.21-.2-.39-.14-.54zm0 0"/></symbol><symbol overflow="visible" id="4222ed3fk"><path d="M41.45-8.33c-.33 5.46-1.6 10.02-3.83 13.67-1.64 2.63-4.13 4.88-7.45 6.75a22.47 22.47 0 01-11.6 2.82c-9.27-.1-13.9-4.27-13.9-12.52 0-1.8.63-4.43 1.88-7.87 1.03-2.93 2.1-5.4 3.18-7.43.17-.25.4-.39.68-.39s.48.12.62.36c.15.23.13.51-.03.85C8.82-7.5 7.72-4.35 7.7-2.64c-.07 6.28 3.83 9.5 11.7 9.67 8.74.19 14.89-2.38 18.43-7.7.19-.28.3-.6.36-.95.56-3.98-.25-8.23-2.44-12.75a1.85 1.85 0 01-.03-1.6l2.19-4.64c.22-.49.48-.57.76-.23 2.13 2.83 3.06 7 2.78 12.51zM22.05-36.1c.11-.19.3-.23.6-.14a15 15 0 015.08 2.98c.22.2.26.4.11.65l-3.43 5.43c-.15.22-.4.19-.74-.1a85.1 85.1 0 00-5.05-3.16c-.18-.12-.21-.26-.09-.43zm0 0"/></symbol><symbol overflow="visible" id="4222ed3fl"><path d="M7.22-23.23c-.03-.59.2-.89.7-.91.51-.03.8.25.88.83.37 3.52 0 6.4-1.1 8.65s-3.02 3.6-5.76 4.05a7.84 7.84 0 01-4.92-.53c-.59-.3-.77-1.06-.57-2.28l1.1-5.49c.23-1.2.66-1.33 1.3-.42.63.9 1.65 1.44 3.07 1.6a4.61 4.61 0 003.74-1.2c1.08-.98 1.6-2.4 1.56-4.3zm0 0"/></symbol><symbol overflow="visible" id="4222ed3fm"><path d="M6.69-48.8c.7-1.68 1.14-1.73 1.33-.14l1.65 18.2C11.52-14.54 11.42-4.47 9.36-.5c-.28.54-.54.68-.77.4-.21-.26-.32-.65-.3-1.17a96.5 96.5 0 00-.48-13.6c-.43-3.4-.94-7.97-1.54-13.7L4.72-42.7c-.1-.79.03-1.6.37-2.42zm0 0"/></symbol><symbol overflow="visible" id="4222ed3fn"><path d="M21.13-14.1a10.88 10.88 0 012.26 4.2c.3 1.28.33 3.2.1 5.8-.42 4.5-2.35 8.65-5.79 12.46-3.43 3.82-6.6 5.8-9.51 5.92-4.9.19-9.43-1.07-13.6-3.76-.33-.2-.52-.42-.56-.68-.05-.26.02-.46.2-.6.2-.14.44-.15.74-.02 3.26 1.03 6.04 1.33 8.34.9 8.35-1.5 14.26-5.85 17.75-13.04.07-.19.11-.57.11-1.16 0-.37-.63-.98-1.9-1.83-.59-.46-.78-1.22-.57-2.28l1.1-5.48c.22-1.13.67-1.27 1.32-.42zM10.8-35.93c.11-.19.3-.23.6-.14a15 15 0 015.08 2.99c.22.18.26.4.11.64l-3.43 5.43c-.15.22-.4.2-.74-.09a85.1 85.1 0 00-5.04-3.17c-.2-.11-.22-.26-.1-.42zm0 0"/></symbol><symbol overflow="visible" id="4222ed3fo"><path d="M7.95-18c-.03-.58.2-.88.7-.9.51-.04.8.24.88.82.38 3.53 0 6.4-1.1 8.66-1.1 2.25-3.02 3.6-5.76 4.04a7.84 7.84 0 01-4.92-.53c-.58-.3-.77-1.06-.56-2.28l1.1-5.48c.22-1.2.66-1.34 1.29-.42.63.9 1.66 1.43 3.08 1.59a4.61 4.61 0 003.73-1.2c1.08-.97 1.6-2.4 1.56-4.3zm0 0"/></symbol><symbol overflow="visible" id="4222ed3fp"><path d="M12.27-23.17c.78-2.35 1.47-3.87 2.07-4.56.4-.47.94-.52 1.63-.14 6.4 3.53 10.13 8.25 11.2 14.15.62 3.34.47 6.27-.42 8.8a2.96 2.96 0 01-1.5 1.72A33.7 33.7 0 0110.12.42c-3.82.05-5.15-2.38-4-7.31.14-.56.43-.88.88-.95.28-.02.64.15 1.1.53.9.77 2.69.98 5.37.62 5.81-.75 9.62-1.66 11.42-2.73.16-.1.21-.38.14-.85-.89-4.8-4.79-8.55-11.7-11.25-.94-.37-1.3-.92-1.06-1.65zm0 0"/></symbol></defs><g fill="#231f20"><use xlink:href="#4222ed3fa" y="65.2339"/><use xlink:href="#4222ed3fb" x="41.256" y="65.2339"/><use xlink:href="#4222ed3fc" x="66.168" y="65.2339"/><use xlink:href="#4222ed3fd" x="83.736" y="65.2339"/><use xlink:href="#4222ed3fe" x="124.632" y="65.2339"/><use xlink:href="#4222ed3ff" x="151.2" y="65.2339"/><use xlink:href="#4222ed3fg" x="171.072" y="65.2339"/><use xlink:href="#4222ed3fh" x="198.936" y="65.2339"/><use xlink:href="#4222ed3fi" x="212.616" y="65.2339"/><use xlink:href="#4222ed3fj" x="241.416" y="65.2339"/><use xlink:href="#4222ed3fk" x="262.512" y="65.2339"/><use xlink:href="#4222ed3fl" x="303.048" y="65.2339"/><use xlink:href="#4222ed3fm" x="315" y="65.2339"/><use xlink:href="#4222ed3fn" x="330.696" y="65.2339"/><use xlink:href="#4222ed3fo" x="352.224" y="65.2339"/><use xlink:href="#4222ed3fp" x="364.968" y="65.2339"/></g></svg>