<svg id="Layer_1" data-name="Layer 1" xmlns="http://www.w3.org/2000/svg" viewBox="0 0 248 121"><path d="M18.23,52.27q1.57-1.8,8.46.11c1.37.39,3.78,1.11,7.23,2.18s6.78,2,10,2.69a50.53,50.53,0,0,0,11.35,1.06c.69,0,.87.39.55,1.17q-2.23,5.31-4,5.06Q41.7,62.92,35.3,64.1a70.23,70.23,0,0,0-10.24,3.59q-7.81,3.15-9.87,3.14c-.68,0-1.17-.46-1.46-1.39q-1.65-4.83,1.46-5.38a109.88,109.88,0,0,0,16.37-3.77,42.3,42.3,0,0,0-7.95-2.55,24.56,24.56,0,0,0-7-.82.83.83,0,0,1-.64-.17c-.16-.13,0-.69.46-1.68A12,12,0,0,1,18.23,52.27Z"/><path d="M25.92,36.59a3.56,3.56,0,0,1,1.76-.73q4-.81,17.83,4.51a97.84,97.84,0,0,0,14.76,3.55c.76.14.95.52.59,1.13l-2.49,4.29a.63.63,0,0,1-.74.33A51,51,0,0,0,44.3,48.2q-8.59.3-23.18,6.78-6.51,2.9-2.82-2.82.56-.81,5.52-3a69.56,69.56,0,0,1,9.24-3.4q4.29-1.22,5.46-1.69-5.82-2.93-14.58-2.74c-.48,0-.63-.27-.44-.81A9.9,9.9,0,0,1,25.92,36.59Z"/><path d="M38.85,13.52a.45.45,0,0,1,.51-.18.49.49,0,0,1,.4.4A14.33,14.33,0,0,0,43,19.67c.44.49.38,1.08-.18,1.76a11,11,0,0,0-1.79,2.42c.41,4.76.42,8.18,0,10.25a15.78,15.78,0,0,1-1.11,4q-1.37,2.22-9.16,2.78-9.15.69-4.91-4.29,1-1.1,5.75-1a26.36,26.36,0,0,0,6.67-.49,72.42,72.42,0,0,0-.44-8.79,56.35,56.35,0,0,0-1-6.36A6,6,0,0,1,36.61,17,25.88,25.88,0,0,1,38.85,13.52Z"/><path d="M98,47.43q1.71-.1,10.91,3.59A49.51,49.51,0,0,0,120,53.88a43.15,43.15,0,0,0,12.2.15c.7-.1,1,.26.76,1.09a33.1,33.1,0,0,1-1.61,5.31.75.75,0,0,1-.88.48q-3.77-.3-6.51-.37-1.14,2.2,1.81,3.06a20.81,20.81,0,0,0,7.56.46c2-.17,2.5,1.53,1.43,5.09-.32,1-.79,1.61-1.43,1.68a21.12,21.12,0,0,1-9.37-.51q-5-1.75-3.15-8.27c.19-.69.31-1.14.36-1.36a63,63,0,0,0-14.35,2.64,68.13,68.13,0,0,0-9.67,4.21c-4.4,2.2-7.59,3.29-9.6,3.29-.68,0-1.22-.48-1.61-1.46a5.53,5.53,0,0,1-.22-3.22c.27-1.25.88-1.94,1.83-2.09A45.64,45.64,0,0,0,97.88,61.2,56.77,56.77,0,0,1,105,58.31c.48-.15.7-.34.66-.59s-.2-.37-.59-.55a31.81,31.81,0,0,0-9-2.71A10.48,10.48,0,0,0,90,55.75a1.58,1.58,0,0,1-1.22.2c-.38-.11-.49-.47-.32-1.08Q90.38,47.91,98,47.43Z"/><path d="M143.73,47.43q1.72-.1,10.91,3.59a49.46,49.46,0,0,0,11.14,2.86A43.08,43.08,0,0,0,178,54c.71-.1,1,.26.77,1.09a34.15,34.15,0,0,1-1.61,5.31.75.75,0,0,1-.88.48c-2.51-.2-4.69-.32-6.52-.37q-1.12,2.2,1.81,3.06a20.88,20.88,0,0,0,7.57.46q3-.26,1.43,5.09c-.32,1-.8,1.61-1.43,1.68a21.17,21.17,0,0,1-9.38-.51q-5-1.75-3.15-8.27c.2-.69.32-1.14.37-1.36a63.07,63.07,0,0,0-14.36,2.64,68.14,68.14,0,0,0-9.66,4.21q-6.6,3.3-9.6,3.29c-.68,0-1.22-.48-1.61-1.46a5.53,5.53,0,0,1-.22-3.22c.27-1.25.88-1.94,1.83-2.09a45.64,45.64,0,0,0,10.33-2.86,57.44,57.44,0,0,1,7.1-2.89c.49-.15.71-.34.66-.59s-.19-.37-.58-.55a31.85,31.85,0,0,0-9-2.71,10.45,10.45,0,0,0-6.13,1.29,1.6,1.6,0,0,1-1.23.2c-.38-.11-.48-.47-.31-1.08Q136.14,47.91,143.73,47.43Z"/><path d="M180.28,21.32c.76-1.83,1.21-3,1.35-3.38a.81.81,0,0,1,.77-.65c.37,0,.64.26.81.77a13.89,13.89,0,0,0,3.26,5.46c.49.49.45,1.06-.11,1.72l-1.65,2.31c.32,2.81.63,5.42.95,7.84Q188.2,53.92,187.38,58,185,69.89,179.11,70.83q-1.32.19-1.14-4.94,0-1.73,1.14-1.83,4.06-.48,5.67-3.37-.21-5.89-1.85-18.42t-2-15.34l-.73-4.22A2.85,2.85,0,0,1,180.28,21.32Z"/></svg>