<?xml version='1.0' encoding='UTF-8'?>
<svg xmlns="http://www.w3.org/2000/svg" xmlns:xlink="http://www.w3.org/1999/xlink" width="280.81px" height="66.3354px" viewBox="0 0 280.81 66.3354" x="0px" y="0px" enable-background="new 0 0 280.81 66.3354"><defs><symbol overflow="visible" id="cdabcacaa"><path d="M45.02 0c-1.64 0-3.55-1.57-5.72-4.7-.67.87-1.17 1.46-1.52 1.75a8.1 8.1 0 01-2.06 1.6c-.75.4-3.06 1.06-6.9 1.98a60.25 60.25 0 01-13.88 1.89c-3.93 0-7.26-.7-9.99-2.08C1.65-1.24 0-3.66 0-6.84c0-1 .38-2.52 1.13-4.55.75-2.03 1.36-3.05 1.82-3.05l.2.13c.12.17.12.46 0 .87-.22.72-.32 1.1-.32 1.14a10.08 10.08 0 000 3.25c1.16 4.03 5.7 6.03 13.62 6.03 8.66 0 15.94-1.42 21.85-4.26.5-.25.85-.63 1.06-1.13.12-.37.27-.77.44-1.18.16-.43.33-.64.5-.64.2 0 .35.27.43.82.09.55.1.96.07 1.25l-.38 1.75c1.05.89 2.58 1.33 4.6 1.33zM31.2 9.42c0 .46-.25 1.35-.76 2.69-.55 1.55-1.03 2.18-1.44 1.89l-2.64-1.64c-.17-.13-.25-.54-.25-1.25.12-.67.27-1.27.44-1.81.38-1.22.76-1.92 1.14-2.08.37-.17 1.54.57 3.51 2.2zm-6.34 1.69l-.5 1.25c-.38 1-.69 1.93-.94 2.77-2.52-1.05-3.78-2.11-3.78-3.2 0-.26.21-.93.64-2 .5-1.31.94-1.96 1.31-1.96.3 0 .91.4 1.85 1.22.94.82 1.42 1.46 1.42 1.92zM29 16.77c-.3 1.2-.73 2.36-1.31 3.45 0 .37-.17.56-.5.56-.39 0-.87-.19-1.46-.56-1.29-.64-1.93-1.31-1.93-2.02 0-.66.2-1.54.62-2.64.42-1.08.83-1.62 1.25-1.62.08 0 .67.4 1.75 1.22 1.1.82 1.62 1.36 1.58 1.6zm0 0"/></symbol><symbol overflow="visible" id="cdabcacab"><path d="M13.38 0c-2.06 0-4.5-1.1-7.35-3.33C4.02-1.1 2.01 0 0 0v-5.08c1.43 0 2.72-.3 3.9-.89.9-.5 1.85-1 2.82-1.5.08 0 .94.4 2.56 1.2 1.63.8 3 1.2 4.1 1.2zm0 0"/></symbol><symbol overflow="visible" id="cdabcacac"><path d="M11.05 0a6.58 6.58 0 01-3.83-2.02C6.13-3.18 5.19-5.1 4.39-7.78a9.28 9.28 0 01-1.42 5.12C1.95-.88.96 0 0 0v-5.08c1.88 0 2.83-.9 2.83-2.7 0-.93-.21-2.75-.63-5.47-.5-3.68-.87-6.41-1.08-8.22C.8-23.77.43-27.95 0-34.02c0-1.25.16-2.43.47-3.51.31-1.1.61-1.64.9-1.64.3 0 .48.6.52 1.83.08 2.04.56 6.12 1.44 12.23a86.26 86.26 0 003.2 14c1.2 3.76 2.71 5.77 4.52 6.03zm0 0"/></symbol><symbol overflow="visible" id="cdabcacad"><path d="M8.66-30.95c0 .3-.2.93-.57 1.89-.46 1.2-.96 1.83-1.5 1.87-.5-.04-1.12-.4-1.86-1.06A7.94 7.94 0 013.2-30c1-2.3 1.7-3.55 2.07-3.77.21 0 .8.35 1.76 1.04.96.68 1.5 1.28 1.63 1.78zm-6.02 2.2a5.7 5.7 0 01-.44 2.02c-.38 1.08-.72 1.62-1.01 1.62-.38 0-1.1-.31-2.16-.94-1.07-.62-1.63-1.1-1.67-1.45-.08-.25.17-.96.75-2.13.55-1.05.89-1.64 1.01-1.76.88.3 2.05 1.17 3.52 2.64zm10.73 16.83c0 3.26-.71 5.69-2.14 7.28a17.8 17.8 0 01-5.76 3.33C3.2-.44 1.38 0 0 0v-5.08c2.76.04 5.25-.46 7.47-1.51a9.72 9.72 0 003.89-3.02c.25-1.83-.38-3.57-1.88-5.2.09 1.93-.23 3.29-.95 4.08-.42.46-1.23.77-2.44.93-2.46.38-3.7-1.38-3.7-5.26 0-1.26.41-2.73 1.25-4.4.96-1.96 2.05-2.99 3.27-3.07 1.46-.08 2.89.86 4.26 2.83a13.54 13.54 0 012.2 7.78zm-5.15-4.02a6.39 6.39 0 00-1.69-1.26c-.37.16-.8.48-1.3.95-.48.46-.71.84-.71 1.13 0 .12.06.2.18.24.46.22 1.1.2 1.94-.03.84-.22 1.37-.57 1.58-1.03zm0 0"/></symbol><clipPath id="e"><path d="M264 8h16.8v35H264zm0 0"/></clipPath></defs><g fill="#231f20"><use xlink:href="#cdabcacaa" y="42.0883"/><use xlink:href="#cdabcacab" x="45" y="42.0883"/><use xlink:href="#cdabcacac" x="58.392" y="42.0883"/><use xlink:href="#cdabcacab" x="69.408" y="42.0883"/><use xlink:href="#cdabcacad" x="82.8" y="42.0883"/></g><path d="M175.9 51.5c0 .46-.25 1.36-.75 2.7-.54 1.55-1.03 2.18-1.44 1.89l-2.64-1.64c-.17-.12-.25-.54-.25-1.25.13-.67.27-1.28.44-1.82.37-1.22.75-1.9 1.13-2.07.38-.17 1.54.56 3.51 2.2m-2.2 7.34c-.29 1.21-.73 2.36-1.31 3.45 0 .38-.17.57-.5.57-.38 0-.86-.2-1.45-.57-1.3-.63-1.94-1.3-1.94-2 0-.68.2-1.56.63-2.64.41-1.1.83-1.64 1.25-1.64.08 0 .67.41 1.76 1.23 1.08.81 1.6 1.35 1.57 1.6m-4.15-5.65l-.5 1.25c-.38 1.01-.69 1.93-.94 2.76-2.51-1.04-3.77-2.1-3.77-3.2 0-.24.21-.92.63-2 .5-1.3.94-1.95 1.32-1.95.29 0 .91.4 1.85 1.23.94.81 1.41 1.45 1.41 1.9m20.15-11.1c-1.63 0-3.53-1.57-5.71-4.71-.67.88-1.17 1.46-1.5 1.76a7.87 7.87 0 01-2.08 1.6c-.75.4-3.05 1.06-6.9 1.97a60.16 60.16 0 01-13.88 1.89c-3.93 0-7.26-.69-9.98-2.07-3.3-1.67-4.95-4.1-4.95-7.28 0-1 .37-2.52 1.13-4.55.75-2.03 1.36-3.05 1.82-3.05.08.04.14.08.18.13.13.17.13.46 0 .88-.2.7-.3 1.08-.3 1.13a10.18 10.18 0 000 3.26c1.16 4.02 5.7 6.02 13.61 6.02 8.66 0 15.94-1.42 21.85-4.27.5-.25.85-.62 1.06-1.12l.44-1.2c.17-.41.34-.62.5-.62.21 0 .36.27.45.81.08.54.1.97.06 1.26l-.38 1.75c1.05.88 2.57 1.32 4.58 1.32zm0 0M213.08 42.09c-2.05 0-4.5-1.11-7.34-3.33-2.01 2.22-4.02 3.33-6.03 3.33V37c1.43 0 2.72-.29 3.9-.88.91-.5 1.86-1 2.82-1.5.08 0 .94.4 2.57 1.2 1.64.79 3 1.18 4.08 1.18zm0 0M234.13 42.09a6.65 6.65 0 01-3.83-2.01c-1.09-1.17-2.03-3.1-2.82-5.78a9.32 9.32 0 01-1.41 5.12c-1.03 1.78-2.02 2.67-2.98 2.67V37c1.88 0 2.82-.9 2.82-2.7 0-.92-.21-2.74-.63-5.46-.5-3.68-.86-6.42-1.07-8.22-.33-2.3-.7-6.49-1.12-12.55 0-1.26.15-2.43.46-3.52.32-1.09.62-1.63.91-1.63.3 0 .47.6.5 1.82.1 2.05.57 6.13 1.45 12.24a86.94 86.94 0 003.2 14c1.21 3.77 2.72 5.77 4.52 6.02zm0 0M257.44 42.09c-2.05 0-4.5-1.11-7.35-3.33-2 2.22-4.01 3.33-6.02 3.33V37c1.42 0 2.72-.29 3.9-.88.9-.5 1.85-1 2.82-1.5.08 0 .94.4 2.57 1.2 1.63.79 3 1.18 4.08 1.18zm0 0" fill="#231f20"/><g clip-path="url(#e)"><path d="M275.66 26.14a6.61 6.61 0 00-1.7-1.25c-.37.17-.8.48-1.28.94-.48.46-.72.84-.72 1.13 0 .13.06.21.19.25.46.21 1.1.2 1.94-.03.84-.23 1.36-.57 1.57-1.04m.44-15c0 .3-.19.92-.56 1.88-.46 1.22-.97 1.85-1.5 1.89-.51-.04-1.13-.4-1.86-1.07a8.02 8.02 0 01-1.54-1.76c1-2.3 1.7-3.55 2.07-3.76.21 0 .8.34 1.76 1.03.96.7 1.5 1.3 1.63 1.8m4.7 19.01c0 3.27-.7 5.7-2.12 7.28a17.6 17.6 0 01-5.78 3.33c-2.26.88-4.08 1.32-5.46 1.32V37c2.76.05 5.25-.46 7.47-1.5a9.82 9.82 0 003.9-3.02c.24-1.84-.38-3.57-1.9-5.2.09 1.92-.22 3.28-.93 4.08-.42.46-1.24.77-2.45.94-2.47.37-3.7-1.39-3.7-5.28 0-1.25.41-2.72 1.25-4.4.96-1.96 2.05-2.98 3.26-3.07 1.47-.08 2.9.86 4.27 2.83a13.6 13.6 0 012.2 7.78m-10.73-16.82c.04.37-.1 1.05-.44 2-.38 1.1-.71 1.64-1 1.64-.38 0-1.1-.32-2.17-.94-1.07-.63-1.63-1.11-1.67-1.45-.08-.25.17-.96.76-2.13a12.7 12.7 0 011-1.76c.88.3 2.05 1.18 3.52 2.64" fill="#231f20"/></g></svg>