<svg xmlns="http://www.w3.org/2000/svg" viewBox="0 0 1500 750"><defs><style>.cls-1{isolation:isolate;}.cls-2{fill:#fff;}.cls-3{fill:#ccc;}.cls-4{mix-blend-mode:multiply;}.cls-5{fill:none;stroke:#000;stroke-miterlimit:10;stroke-width:2.5px;}</style></defs><g class="cls-1"><g id="Layer_1" data-name="Layer 1"><rect class="cls-2" width="1500" height="750"/><rect class="cls-3" width="179.76" height="750"/><g class="cls-4"><path class="cls-3" d="M239.88,352.75c0-3.94,2.25-5.88,7.49-6.54l7.32-.95v-1.51c0-3.4-1.63-4.86-5.17-4.86s-4.85,1.52-5.29,4.12l-3.46-.31c.62-4.12,3.07-6.7,8.79-6.7s8.54,2.37,8.54,7.59v14.77h-2.93l-.37-3.4h-.21c-1.2,2.47-3.65,4-7.3,4C242.46,359,239.88,356.65,239.88,352.75Zm14.81-2.81v-2.08l-7.05,1c-3,.41-4.19,1.61-4.19,3.67,0,2.23,1.36,3.57,4.54,3.57C252.16,356.09,254.69,353.49,254.69,349.94Z"/><path class="cls-3" d="M265.56,336.64h2.93l.5,3.81h.2a6.44,6.44,0,0,1,6.27-4.43,9.24,9.24,0,0,1,2.23.27l-.37,3.32a8.12,8.12,0,0,0-2-.25c-3.53,0-6.21,2.81-6.21,7.1v11.9h-3.51Z"/><path class="cls-3" d="M284.1,348.6c.27,4.93,2.58,7.37,6.65,7.37,3.38,0,4.91-1.43,5.61-3.45l3.46.33c-.92,3.59-3.52,6.13-9,6.13-6.6,0-10.27-4.19-10.27-11.41,0-7.53,3.94-11.57,10-11.57s9.72,3.81,9.72,10.62v2Zm0-2.7h12.6c-.19-4.66-2.29-7-6.25-7C286.75,338.93,284.54,341.13,284.15,345.9Z"/><path class="cls-3" d="M315.46,352.36l3.46-.29c.39,2.78,2.27,4,5.8,4,3.15,0,5.07-1.28,5.07-3.51s-1.32-2.8-4-3.36l-2.87-.6c-4.29-.9-6.43-2.64-6.43-6.1,0-4.33,3-6.6,8-6.6,5.32,0,8.09,2.08,8.42,6.35l-3.47.29c-.25-2.62-1.81-3.76-5-3.76-3,0-4.58,1.12-4.58,3.39,0,1.89,1.13,2.74,3.75,3.3l2.95.64c4.44,1,6.67,2.41,6.67,6,0,4.31-3.22,6.79-8.58,6.79C318.69,359,315.83,356.69,315.46,352.36Z"/><path class="cls-3" d="M339.15,327.42h3.51v13h.19a8,8,0,0,1,7.46-4.43c4.61,0,7.27,2.64,7.27,7.75v14.59h-3.51V345c0-4-1.59-5.73-4.83-5.73-3.75,0-6.58,2.88-6.58,7.22v11.9h-3.51Z"/><path class="cls-3" d="M363.31,347.47c0-7.37,3.75-11.45,10.29-11.45s10.34,4.08,10.34,11.45S380.16,359,373.6,359,363.31,354.87,363.31,347.47Zm17,0c0-5.61-2.23-8.4-6.75-8.4s-6.7,2.79-6.7,8.4,2.2,8.48,6.7,8.48S380.35,353.1,380.35,347.47Z"/><path class="cls-3" d="M390.06,336.64H393l.49,3.81h.21A6.44,6.44,0,0,1,400,336a9.24,9.24,0,0,1,2.23.27l-.37,3.32a8.18,8.18,0,0,0-2-.25c-3.53,0-6.21,2.81-6.21,7.1v11.9h-3.51Z"/><path class="cls-3" d="M411.49,351.78c0,3,1.3,4,3.84,4a10.4,10.4,0,0,0,2.78-.41l.39,2.91a14.14,14.14,0,0,1-3.87.58c-4.58,0-6.65-2.29-6.65-6.75V339.65h-4.47v-3H408l.77-6.75h2.74v6.75h6.91v3h-6.91Z"/><path class="cls-3" d="M425.25,348.6c.27,4.93,2.58,7.37,6.64,7.37,3.38,0,4.91-1.43,5.61-3.45l3.47.33c-.93,3.59-3.53,6.13-9,6.13-6.6,0-10.27-4.19-10.27-11.41,0-7.53,3.94-11.57,10-11.57s9.72,3.81,9.72,10.62v2Zm0-2.7h12.6c-.18-4.66-2.29-7-6.25-7C427.89,338.93,425.68,341.13,425.29,345.9Z"/><path class="cls-3" d="M447.46,336.64h2.93l.5,3.81h.2a6.44,6.44,0,0,1,6.27-4.43,9.24,9.24,0,0,1,2.23.27l-.37,3.32a8.12,8.12,0,0,0-2-.25c-3.53,0-6.21,2.81-6.21,7.1v11.9h-3.51Z"/><path class="cls-3" d="M480.17,351.78c0,3,1.3,4,3.84,4a10.54,10.54,0,0,0,2.79-.41l.39,2.91a14.21,14.21,0,0,1-3.88.58c-4.58,0-6.64-2.29-6.64-6.75V339.65h-4.48v-3h4.48l.76-6.75h2.74v6.75h6.92v3h-6.92Z"/><path class="cls-3" d="M492.49,327.42H496v13h.19a8,8,0,0,1,7.47-4.43c4.6,0,7.26,2.64,7.26,7.75v14.59H507.4V345c0-4-1.59-5.73-4.82-5.73-3.76,0-6.59,2.88-6.59,7.22v11.9h-3.5Z"/><path class="cls-3" d="M516.5,352.75c0-3.94,2.24-5.88,7.48-6.54l7.33-.95v-1.51c0-3.4-1.63-4.86-5.18-4.86s-4.85,1.52-5.28,4.12l-3.47-.31c.62-4.12,3.08-6.7,8.79-6.7s8.54,2.37,8.54,7.59v14.77h-2.93l-.37-3.4h-.2c-1.2,2.47-3.66,4-7.31,4C519.07,359,516.5,356.65,516.5,352.75Zm14.81-2.81v-2.08l-7.06,1c-3,.41-4.19,1.61-4.19,3.67,0,2.23,1.37,3.57,4.54,3.57C528.77,356.09,531.31,353.49,531.31,349.94Z"/><path class="cls-3" d="M542.18,336.64h2.92l.5,3.81h.21a8.15,8.15,0,0,1,7.51-4.43c4.74,0,7.28,2.76,7.28,7.77v14.57h-3.51V344.83c0-3.76-1.55-5.59-4.81-5.59-3.79,0-6.6,2.88-6.6,7.24v11.88h-3.5Z"/><path class="cls-3" d="M584.09,351.78c0,3,1.3,4,3.84,4a10.4,10.4,0,0,0,2.78-.41l.39,2.91a14.15,14.15,0,0,1-3.88.58c-4.58,0-6.64-2.29-6.64-6.75V339.65H576.1v-3h4.48l.76-6.75h2.75v6.75H591v3h-6.91Z"/><path class="cls-3" d="M596.4,327.42h3.51v13h.18a8,8,0,0,1,7.47-4.43c4.6,0,7.26,2.64,7.26,7.75v14.59h-3.5V345c0-4-1.59-5.73-4.83-5.73-3.76,0-6.58,2.88-6.58,7.22v11.9H596.4Z"/><path class="cls-3" d="M624.14,348.6c.27,4.93,2.58,7.37,6.65,7.37,3.38,0,4.91-1.43,5.61-3.45l3.46.33c-.92,3.59-3.52,6.13-9,6.13-6.6,0-10.28-4.19-10.28-11.41,0-7.53,3.94-11.57,10-11.57s9.72,3.81,9.72,10.62v2Zm.05-2.7h12.6c-.19-4.66-2.29-7-6.25-7C626.78,338.93,624.58,341.13,624.19,345.9Z"/><path class="cls-3" d="M655.49,352.36l3.47-.29c.39,2.78,2.27,4,5.8,4,3.15,0,5.07-1.28,5.07-3.51s-1.32-2.8-4-3.36l-2.87-.6c-4.29-.9-6.44-2.64-6.44-6.1,0-4.33,3-6.6,8-6.6,5.32,0,8.09,2.08,8.42,6.35l-3.47.29c-.25-2.62-1.81-3.76-5-3.76-3,0-4.58,1.12-4.58,3.39,0,1.89,1.13,2.74,3.75,3.3l3,.64c4.44,1,6.67,2.41,6.67,6,0,4.31-3.22,6.79-8.59,6.79C658.73,359,655.87,356.69,655.49,352.36Z"/><path class="cls-3" d="M677.36,352.75c0-3.94,2.25-5.88,7.49-6.54l7.32-.95v-1.51c0-3.4-1.63-4.86-5.18-4.86s-4.85,1.52-5.28,4.12l-3.46-.31c.61-4.12,3.07-6.7,8.78-6.7s8.54,2.37,8.54,7.59v14.77h-2.93l-.37-3.4h-.2c-1.2,2.47-3.65,4-7.31,4C679.94,359,677.36,356.65,677.36,352.75Zm14.81-2.81v-2.08l-7.06,1c-3,.41-4.18,1.61-4.18,3.67,0,2.23,1.36,3.57,4.54,3.57C689.63,356.09,692.17,353.49,692.17,349.94Z"/><path class="cls-3" d="M701.3,347.49c0-7.2,3.72-11.47,10.07-11.47,5.55,0,8.71,2.72,9.29,7.47l-3.53.28c-.44-3.09-2.25-4.7-5.76-4.7-4.35,0-6.48,2.89-6.48,8.42s2.17,8.46,6.52,8.46c3.55,0,5.26-1.55,5.74-4.65l3.51.31c-.6,4.71-3.53,7.37-9.29,7.37C705,359,701.3,354.75,701.3,347.49Z"/><path class="cls-3" d="M724.88,347.49c0-7.2,3.71-11.47,10.07-11.47,5.55,0,8.7,2.72,9.28,7.47l-3.53.28c-.43-3.09-2.25-4.7-5.75-4.7-4.36,0-6.48,2.89-6.48,8.42S730.64,356,735,356c3.55,0,5.26-1.55,5.73-4.65l3.51.31c-.6,4.71-3.53,7.37-9.28,7.37C728.61,359,724.88,354.75,724.88,347.49Z"/><path class="cls-3" d="M747.86,352.75c0-3.94,2.25-5.88,7.49-6.54l7.32-.95v-1.51c0-3.4-1.63-4.86-5.18-4.86s-4.85,1.52-5.28,4.12l-3.47-.31c.62-4.12,3.08-6.7,8.79-6.7s8.54,2.37,8.54,7.59v14.77h-2.93l-.37-3.4h-.2c-1.2,2.47-3.65,4-7.31,4C750.44,359,747.86,356.65,747.86,352.75Zm14.81-2.81v-2.08l-7.06,1c-3,.41-4.18,1.61-4.18,3.67,0,2.23,1.36,3.57,4.53,3.57C760.13,356.09,762.67,353.49,762.67,349.94Z"/><path class="cls-3" d="M771.8,347.49c0-7.22,3.47-11.47,9.37-11.47,3.51,0,5.82,1.52,7.08,4.17h.18V327.42h3.51v30.94H789l-.5-3.82h-.2a7.53,7.53,0,0,1-7.26,4.44C775.23,359,771.8,354.75,771.8,347.49Zm16.76,0c0-5-2.13-8.44-6.79-8.44-4.15,0-6.38,2.77-6.38,8.44s2.23,8.42,6.4,8.42C786.43,355.93,788.56,352.5,788.56,347.51Z"/><path class="cls-3" d="M801.67,348.6c.27,4.93,2.58,7.37,6.64,7.37,3.39,0,4.91-1.43,5.61-3.45l3.47.33c-.93,3.59-3.53,6.13-9,6.13-6.6,0-10.27-4.19-10.27-11.41,0-7.53,3.94-11.57,10-11.57s9.71,3.81,9.71,10.62v2Zm0-2.7h12.61c-.19-4.66-2.29-7-6.25-7C804.31,338.93,802.1,341.13,801.71,345.9Z"/><path class="cls-3" d="M833.29,352.75c0-3.94,2.25-5.88,7.49-6.54l7.32-.95v-1.51c0-3.4-1.63-4.86-5.18-4.86s-4.84,1.52-5.28,4.12l-3.46-.31c.61-4.12,3.07-6.7,8.78-6.7s8.54,2.37,8.54,7.59v14.77h-2.92l-.38-3.4H848c-1.2,2.47-3.65,4-7.3,4C835.87,359,833.29,356.65,833.29,352.75Zm14.81-2.81v-2.08l-7.05,1c-3,.41-4.19,1.61-4.19,3.67,0,2.23,1.36,3.57,4.54,3.57C845.56,356.09,848.1,353.49,848.1,349.94Z"/><path class="cls-3" d="M863.71,351.78c0,3,1.3,4,3.84,4a10.54,10.54,0,0,0,2.79-.41l.39,2.91a14.21,14.21,0,0,1-3.88.58c-4.58,0-6.64-2.29-6.64-6.75V339.65h-4.48v-3h4.48l.76-6.75h2.74v6.75h6.91v3h-6.91Z"/><path class="cls-3" d="M892.05,351.78c0,3,1.3,4,3.84,4a10.54,10.54,0,0,0,2.79-.41l.39,2.91a14.21,14.21,0,0,1-3.88.58c-4.58,0-6.64-2.29-6.64-6.75V339.65h-4.48v-3h4.48l.76-6.75h2.74v6.75H899v3h-6.91Z"/><path class="cls-3" d="M904.37,327.42h3.5v13h.19a8,8,0,0,1,7.47-4.43c4.6,0,7.26,2.64,7.26,7.75v14.59h-3.51V345c0-4-1.59-5.73-4.83-5.73-3.75,0-6.58,2.88-6.58,7.22v11.9h-3.5Z"/><path class="cls-3" d="M932.11,348.6c.27,4.93,2.58,7.37,6.64,7.37,3.38,0,4.91-1.43,5.61-3.45l3.47.33c-.93,3.59-3.53,6.13-9,6.13-6.6,0-10.27-4.19-10.27-11.41,0-7.53,3.94-11.57,10-11.57s9.72,3.81,9.72,10.62v2Zm0-2.7h12.6c-.18-4.66-2.29-7-6.25-7C934.75,338.93,932.54,341.13,932.15,345.9Z"/><path class="cls-3" d="M967.46,348.6c.27,4.93,2.58,7.37,6.64,7.37,3.39,0,4.91-1.43,5.61-3.45l3.47.33c-.93,3.59-3.53,6.13-9,6.13-6.61,0-10.28-4.19-10.28-11.41,0-7.53,3.94-11.57,10-11.57s9.71,3.81,9.71,10.62v2Zm0-2.7h12.61c-.19-4.66-2.29-7-6.25-7C970.1,338.93,967.89,341.13,967.5,345.9Z"/><path class="cls-3" d="M989.67,336.64h2.93l.5,3.81h.21a8.14,8.14,0,0,1,7.5-4.43c4.75,0,7.29,2.76,7.29,7.77v14.57h-3.51V344.83c0-3.76-1.55-5.59-4.81-5.59-3.79,0-6.6,2.88-6.6,7.24v11.88h-3.51Z"/><path class="cls-3" d="M1013.83,347.49c0-7.22,3.46-11.47,9.36-11.47,3.51,0,5.82,1.52,7.08,4.17h.19V327.42h3.5v30.94H1031l-.49-3.82h-.21a7.52,7.52,0,0,1-7.26,4.44C1017.25,359,1013.83,354.75,1013.83,347.49Zm16.75,0c0-5-2.13-8.44-6.79-8.44-4.14,0-6.37,2.77-6.37,8.44s2.23,8.42,6.39,8.42C1028.45,355.93,1030.58,352.5,1030.58,347.51Z"/><path class="cls-3" d="M1051.39,347.47c0-7.37,3.75-11.45,10.29-11.45S1072,340.1,1072,347.47,1068.24,359,1061.68,359,1051.39,354.87,1051.39,347.47Zm17,0c0-5.61-2.23-8.4-6.75-8.4s-6.7,2.79-6.7,8.4,2.2,8.48,6.7,8.48S1068.43,353.1,1068.43,347.47Z"/><path class="cls-3" d="M1083,334.66v2h5.81v3H1083v18.71h-3.51V339.65h-4.09v-3h4.09v-2.19c0-5.45,2.56-7.65,7-7.65a12.77,12.77,0,0,1,3.14.39l-.39,2.93a9.12,9.12,0,0,0-2.17-.25C1084.06,329.87,1083,331.17,1083,334.66Z"/><path class="cls-3" d="M1109.57,351.78c0,3,1.3,4,3.84,4a10.54,10.54,0,0,0,2.79-.41l.39,2.91a14.21,14.21,0,0,1-3.88.58c-4.58,0-6.64-2.29-6.64-6.75V339.65h-4.48v-3h4.48l.76-6.75h2.74v6.75h6.91v3h-6.91Z"/><path class="cls-3" d="M1121.89,327.42h3.5v13h.19a8,8,0,0,1,7.47-4.43c4.6,0,7.26,2.64,7.26,7.75v14.59h-3.51V345c0-4-1.59-5.73-4.83-5.73-3.75,0-6.58,2.88-6.58,7.22v11.9h-3.5Z"/><path class="cls-3" d="M1149.63,348.6c.27,4.93,2.58,7.37,6.64,7.37,3.38,0,4.91-1.43,5.61-3.45l3.47.33c-.93,3.59-3.53,6.13-9,6.13-6.6,0-10.27-4.19-10.27-11.41C1146,340,1150,336,1156,336s9.72,3.81,9.72,10.62v2Zm0-2.7h12.6c-.18-4.66-2.29-7-6.25-7C1152.27,338.93,1150.06,341.13,1149.67,345.9Z"/><path class="cls-3" d="M1183.12,327.42h3.51v30.94h-3.51Z"/><path class="cls-3" d="M1193.83,330.59a2.14,2.14,0,0,1,2.41-2.33,2.34,2.34,0,1,1-2.41,2.33Zm.66,6.05H1198v21.72h-3.51Z"/><path class="cls-3" d="M1205.85,336.64h2.93l.5,3.81h.2A8.17,8.17,0,0,1,1217,336c4.75,0,7.29,2.76,7.29,7.77v14.57h-3.51V344.83c0-3.76-1.55-5.59-4.81-5.59-3.79,0-6.6,2.88-6.6,7.24v11.88h-3.51Z"/><path class="cls-3" d="M1233.6,348.6c.26,4.93,2.57,7.37,6.64,7.37,3.38,0,4.91-1.43,5.61-3.45l3.47.33c-.93,3.59-3.53,6.13-9,6.13-6.6,0-10.27-4.19-10.27-11.41C1230,340,1234,336,1240,336s9.72,3.81,9.72,10.62v2Zm0-2.7h12.6c-.18-4.66-2.29-7-6.25-7C1236.24,338.93,1234,341.13,1233.64,345.9Z"/><path class="cls-3" d="M1254.16,356.24a2.66,2.66,0,0,1,5.32,0,2.66,2.66,0,0,1-5.32,0Z"/></g><path d="M441.12,264.2V265h3.07v2.3h-3.07v9.8h-2.86v-9.8h-2.12V265h2.12v-1.11c0-3.05,1.51-4.28,4.22-4.28a9.37,9.37,0,0,1,2.11.24l-.28,2.25a7.4,7.4,0,0,0-1.22-.11C441.67,262,441.12,262.63,441.12,264.2Z"/><path d="M446.18,261.48c0-1.12.7-1.64,1.8-1.64a1.65,1.65,0,1,1,0,3.3C446.88,263.14,446.18,262.6,446.18,261.48Zm.35,3.54h2.85v12.1h-2.85Z"/><path d="M455.74,271,451.81,265H455l2.77,4.26h.11l2.7-4.26h2.94l-4,6.05,4,6.05h-3.18l-2.9-4.33h-.12l-2.64,4.33h-2.95Z"/><path d="M464.69,273.9c0-2.19,1.22-3.34,4.19-3.69l3.95-.51v-.65c0-1.53-.72-2.23-2.37-2.23s-2.25.72-2.47,1.94l-2.78-.25c.39-2.44,1.74-3.87,5.3-3.87,3.33,0,5.1,1.38,5.1,4.36v8.12h-2.44l-.27-1.77h-.12a3.94,3.94,0,0,1-3.89,2.09C466.11,277.44,464.69,276.09,464.69,273.9Zm8.14-1.38v-.94l-3.33.46c-1.37.2-1.91.69-1.91,1.64s.62,1.65,2.14,1.65A2.77,2.77,0,0,0,472.83,272.52Z"/><path d="M482.7,273.06c0,1.49.58,2,1.89,2a6.18,6.18,0,0,0,1.39-.18l.28,2.22a9,9,0,0,1-2.43.35c-2.73,0-4-1.28-4-3.87v-6.24H477.6V265h2.26l.51-3.67h2.33V265h3.47v2.3H482.7Z"/><path d="M488.54,261.48c0-1.12.69-1.64,1.79-1.64a1.65,1.65,0,1,1,0,3.3C489.23,263.14,488.54,262.6,488.54,261.48Zm.34,3.54h2.86v12.1h-2.86Z"/><path d="M494.66,271.05c0-4.09,2.15-6.38,6.06-6.38s6.08,2.29,6.08,6.38-2.15,6.41-6.08,6.41S494.66,275.17,494.66,271.05Zm9.23,0c0-2.7-1-4.07-3.17-4.07s-3.14,1.37-3.14,4.07,1,4.1,3.14,4.1S503.89,273.76,503.89,271.05Z"/><path d="M509.71,265h2.47l.35,2.17h.11a4.34,4.34,0,0,1,4.11-2.52c2.74,0,4,1.6,4,4.36v8.09h-2.86V269.9c0-1.79-.69-2.7-2.25-2.7a3.07,3.07,0,0,0-3.1,3.35v6.57h-2.86Z"/><path d="M423.13,415.2V416h3.08v2.3h-3.08v9.8h-2.86v-9.8h-2.12V416h2.12v-1.11c0-3.05,1.51-4.28,4.22-4.28a9.54,9.54,0,0,1,2.12.24l-.29,2.25a7.29,7.29,0,0,0-1.22-.11C423.68,413,423.13,413.63,423.13,415.2Z"/><path d="M427.47,422.05c0-4.09,2.15-6.38,6.06-6.38s6.08,2.29,6.08,6.38-2.15,6.41-6.08,6.41S427.47,426.17,427.47,422.05Zm9.23,0c0-2.7-1-4.07-3.17-4.07s-3.14,1.37-3.14,4.07,1,4.1,3.14,4.1S436.7,424.76,436.7,422.05Z"/><path d="M440.65,416h3.11l3.2,9.38h.12l3.1-9.38h2.93l-4.41,12.1h-3.59Z"/><path d="M457.08,422.91c.19,2.25,1.23,3.32,3.13,3.32,1.54,0,2.3-.61,2.64-1.6l2.75.27c-.56,2.19-2.1,3.56-5.42,3.56-4,0-6-2.41-6-6.38,0-4.16,2.27-6.44,5.9-6.44s5.71,2.16,5.71,5.88v1.39Zm0-2H463c-.12-2.08-1-3.14-2.92-3.14S457.33,418.8,457.1,421Z"/><path d="M467.53,424.9c0-2.19,1.22-3.34,4.2-3.69l3.95-.51v-.65c0-1.53-.72-2.23-2.38-2.23s-2.25.72-2.47,1.94l-2.77-.25c.39-2.44,1.73-3.87,5.3-3.87,3.33,0,5.1,1.38,5.1,4.36v8.12H476l-.26-1.77h-.13a3.93,3.93,0,0,1-3.88,2.09C469,428.44,467.53,427.09,467.53,424.9Zm8.15-1.38v-.94l-3.34.46c-1.37.2-1.9.69-1.9,1.64s.61,1.65,2.13,1.65A2.78,2.78,0,0,0,475.68,423.52Z"/><path d="M482.09,411H485v17.14h-2.86Z"/><path d="M493.93,424.9c0-2.19,1.22-3.34,4.2-3.69l3.95-.51v-.65c0-1.53-.72-2.23-2.38-2.23s-2.25.72-2.47,1.94l-2.77-.25c.39-2.44,1.73-3.87,5.3-3.87,3.33,0,5.1,1.38,5.1,4.36v8.12h-2.45l-.26-1.77H502a3.93,3.93,0,0,1-3.88,2.09C495.36,428.44,493.93,427.09,493.93,424.9Zm8.15-1.38v-.94l-3.34.46c-1.37.2-1.91.69-1.91,1.64s.62,1.65,2.14,1.65A2.78,2.78,0,0,0,502.08,423.52Z"/><path d="M508.49,416H511l.34,2.21h.13a3.3,3.3,0,0,1,3.3-2.56,6.17,6.17,0,0,1,1.25.14l-.29,2.66a5,5,0,0,0-1.12-.12,3.13,3.13,0,0,0-3.22,3.36v6.41h-2.86Z"/><path d="M520.16,422.91c.19,2.25,1.23,3.32,3.13,3.32,1.54,0,2.31-.61,2.64-1.6l2.76.27c-.56,2.19-2.11,3.56-5.42,3.56-4,0-6-2.41-6-6.38,0-4.16,2.27-6.44,5.89-6.44s5.72,2.16,5.72,5.88v1.39Zm0-2h5.9c-.11-2.08-1-3.14-2.91-3.14S520.41,418.8,520.18,421Z"/><path d="M530.62,424.9c0-2.19,1.22-3.34,4.19-3.69l4-.51v-.65c0-1.53-.72-2.23-2.38-2.23s-2.25.72-2.47,1.94l-2.78-.25c.39-2.44,1.74-3.87,5.31-3.87,3.32,0,5.09,1.38,5.09,4.36v8.12H539.1l-.27-1.77h-.12a3.94,3.94,0,0,1-3.89,2.09C532.05,428.44,530.62,427.09,530.62,424.9Zm8.15-1.38v-.94l-3.34.46c-1.37.2-1.91.69-1.91,1.64s.62,1.65,2.14,1.65A2.78,2.78,0,0,0,538.77,423.52Z"/><path d="M183.14,416h2.47l.33,2.11h.13a4,4,0,0,1,3.9-2.46c3.18,0,5.07,2.39,5.07,6.4s-1.89,6.39-5.16,6.39a3.79,3.79,0,0,1-3.76-2.26H186v6.38h-2.86Zm9,6.05c0-2.73-1-4.07-3.09-4.07s-3.08,1.51-3.08,4.07,1,4.06,3.08,4.06S192.12,424.79,192.12,422.07Z"/><path d="M197,424.9c0-2.19,1.22-3.34,4.19-3.69l4-.51v-.65c0-1.53-.71-2.23-2.37-2.23s-2.25.72-2.47,1.94l-2.78-.25c.39-2.44,1.74-3.87,5.31-3.87,3.32,0,5.09,1.38,5.09,4.36v8.12h-2.44l-.27-1.77H205a3.94,3.94,0,0,1-3.89,2.09C198.38,428.44,197,427.09,197,424.9Zm8.14-1.38v-.94l-3.33.46c-1.37.2-1.91.69-1.91,1.64s.62,1.65,2.14,1.65A2.77,2.77,0,0,0,205.09,423.52Z"/><path d="M211.51,416H214l.35,2.21h.12a3.3,3.3,0,0,1,3.31-2.56,6.15,6.15,0,0,1,1.24.14l-.28,2.66a5.05,5.05,0,0,0-1.12-.12,3.14,3.14,0,0,0-3.23,3.36v6.41h-2.85Z"/><path d="M220.2,424.9c0-2.19,1.23-3.34,4.2-3.69l3.95-.51v-.65c0-1.53-.72-2.23-2.38-2.23s-2.25.72-2.46,1.94l-2.78-.25c.39-2.44,1.74-3.87,5.3-3.87,3.33,0,5.1,1.38,5.1,4.36v8.12h-2.45l-.26-1.77h-.13a3.93,3.93,0,0,1-3.88,2.09C221.63,428.44,220.2,427.09,220.2,424.9Zm8.15-1.38v-.94L225,423c-1.37.2-1.9.69-1.9,1.64s.61,1.65,2.13,1.65A2.78,2.78,0,0,0,228.35,423.52Z"/><path d="M238.44,415.2V416h3.08v2.3h-3.08v9.8h-2.86v-9.8h-2.12V416h2.12v-1.11c0-3.05,1.51-4.28,4.22-4.28a9.54,9.54,0,0,1,2.12.24l-.29,2.25a7.29,7.29,0,0,0-1.22-.11C239,413,238.44,413.63,238.44,415.2Z"/><path d="M242.79,422.05c0-4.09,2.14-6.38,6.05-6.38s6.08,2.29,6.08,6.38-2.15,6.41-6.08,6.41S242.79,426.17,242.79,422.05Zm9.22,0c0-2.7-1-4.07-3.17-4.07s-3.14,1.37-3.14,4.07,1,4.1,3.14,4.1S252,424.76,252,422.05Z"/><path d="M256,416h3.11l3.2,9.38h.12l3.1-9.38h2.93L264,428.12h-3.59Z"/><path d="M272.39,422.91c.19,2.25,1.23,3.32,3.13,3.32,1.54,0,2.31-.61,2.64-1.6l2.75.27c-.56,2.19-2.1,3.56-5.41,3.56-4,0-6-2.41-6-6.38,0-4.16,2.28-6.44,5.9-6.44s5.71,2.16,5.71,5.88v1.39Zm0-2h5.9c-.12-2.08-1-3.14-2.92-3.14S272.64,418.8,272.41,421Z"/><path d="M282.84,424.9c0-2.19,1.23-3.34,4.2-3.69l3.95-.51v-.65c0-1.53-.72-2.23-2.38-2.23s-2.25.72-2.46,1.94l-2.78-.25c.39-2.44,1.74-3.87,5.3-3.87,3.33,0,5.1,1.38,5.1,4.36v8.12h-2.45l-.26-1.77h-.13a3.93,3.93,0,0,1-3.88,2.09C284.27,428.44,282.84,427.09,282.84,424.9Zm8.15-1.38v-.94l-3.34.46c-1.37.2-1.9.69-1.9,1.64s.61,1.65,2.13,1.65A2.78,2.78,0,0,0,291,423.52Z"/><path d="M297.4,411h2.86v17.14H297.4Z"/><path d="M309.24,424.9c0-2.19,1.23-3.34,4.2-3.69l3.95-.51v-.65c0-1.53-.72-2.23-2.38-2.23s-2.25.72-2.46,1.94l-2.78-.25c.39-2.44,1.74-3.87,5.3-3.87,3.33,0,5.1,1.38,5.1,4.36v8.12h-2.45l-.26-1.77h-.13a3.93,3.93,0,0,1-3.88,2.09C310.67,428.44,309.24,427.09,309.24,424.9Zm8.15-1.38v-.94l-3.34.46c-1.37.2-1.9.69-1.9,1.64s.61,1.65,2.13,1.65A2.78,2.78,0,0,0,317.39,423.52Z"/><path d="M323.8,416h2.47l.34,2.21h.13a3.3,3.3,0,0,1,3.3-2.56,6.17,6.17,0,0,1,1.25.14l-.29,2.66a5,5,0,0,0-1.12-.12,3.13,3.13,0,0,0-3.22,3.36v6.41H323.8Z"/><path d="M335.47,422.91c.2,2.25,1.24,3.32,3.13,3.32,1.55,0,2.31-.61,2.64-1.6l2.76.27c-.56,2.19-2.11,3.56-5.42,3.56-4,0-6-2.41-6-6.38,0-4.16,2.27-6.44,5.89-6.44s5.72,2.16,5.72,5.88v1.39Zm0-2h5.9c-.11-2.08-1-3.14-2.91-3.14S335.72,418.8,335.49,421Z"/><path d="M345.93,424.9c0-2.19,1.22-3.34,4.19-3.69l4-.51v-.65c0-1.53-.72-2.23-2.38-2.23s-2.25.72-2.47,1.94l-2.78-.25c.39-2.44,1.74-3.87,5.31-3.87,3.32,0,5.09,1.38,5.09,4.36v8.12h-2.44l-.26-1.77H354a3.94,3.94,0,0,1-3.89,2.09C347.36,428.44,345.93,427.09,345.93,424.9Zm8.15-1.38v-.94l-3.34.46c-1.37.2-1.91.69-1.91,1.64s.62,1.65,2.14,1.65A2.78,2.78,0,0,0,354.08,423.52Z"/><path class="cls-3" d="M192.14,714h2.47l.34,2.17h.12a4.29,4.29,0,0,1,4-2.52,3.43,3.43,0,0,1,3.72,2.69h.13a4.4,4.4,0,0,1,4.15-2.69c2.63,0,3.93,1.6,3.93,4.36v8.09h-2.86V718.9c0-1.79-.69-2.7-2.15-2.7a3,3,0,0,0-3,3.35v6.57h-2.86V718.9c0-1.79-.69-2.7-2.16-2.7a3,3,0,0,0-3,3.35v6.57h-2.86Z"/><path class="cls-3" d="M216.61,720.91c.19,2.25,1.23,3.32,3.13,3.32,1.54,0,2.31-.61,2.64-1.6l2.75.27c-.55,2.19-2.1,3.56-5.41,3.56-4,0-6-2.41-6-6.38,0-4.16,2.28-6.44,5.9-6.44s5.72,2.16,5.72,5.88v1.39Zm0-1.95h5.9c-.11-2.08-1-3.14-2.91-3.14S216.86,716.8,216.63,719Z"/><path class="cls-3" d="M227.31,720.06c0-4,1.89-6.39,5.14-6.39a3.77,3.77,0,0,1,3.77,2.27h.13v-7h2.85v17.14h-2.46L236.4,724h-.11a4,4,0,0,1-3.91,2.46C229.19,726.46,227.31,724.07,227.31,720.06Zm9.08,0c0-2.55-1-4.06-3.13-4.06s-3,1.34-3,4.06,1,4.07,3,4.07S236.39,722.61,236.39,720.06Z"/><path class="cls-3" d="M242.72,710.48c0-1.12.7-1.64,1.8-1.64a1.65,1.65,0,1,1,0,3.3C243.42,712.14,242.72,711.6,242.72,710.48Zm.35,3.54h2.85v12.1h-2.85Z"/><path class="cls-3" d="M249.57,722.11V714h2.86v7.22c0,1.79.69,2.72,2.15,2.72a3.07,3.07,0,0,0,3-3.37V714h2.86v12.1H258l-.33-2.17h-.13a4.25,4.25,0,0,1-4,2.51C250.87,726.46,249.57,724.86,249.57,722.11Z"/><path class="cls-3" d="M264.3,714h2.47l.34,2.17h.12a4.29,4.29,0,0,1,4-2.52,3.43,3.43,0,0,1,3.72,2.69h.13a4.4,4.4,0,0,1,4.15-2.69c2.63,0,3.93,1.6,3.93,4.36v8.09h-2.86V718.9c0-1.79-.7-2.7-2.15-2.7a3,3,0,0,0-3,3.35v6.57h-2.86V718.9c0-1.79-.7-2.7-2.16-2.7a3,3,0,0,0-3,3.35v6.57H264.3Z"/><path class="cls-3" d="M294.88,720.91c.2,2.25,1.24,3.32,3.13,3.32,1.55,0,2.31-.61,2.64-1.6l2.76.27c-.56,2.19-2.1,3.56-5.42,3.56-4,0-6-2.41-6-6.38,0-4.16,2.27-6.44,5.9-6.44s5.71,2.16,5.71,5.88v1.39Zm0-1.95h5.89c-.11-2.08-1-3.14-2.91-3.14S295.13,716.8,294.91,719Z"/><path class="cls-3" d="M305.58,720.06c0-4,1.9-6.39,5.14-6.39a3.76,3.76,0,0,1,3.77,2.27h.13v-7h2.86v17.14H315l-.33-2.12h-.12a4,4,0,0,1-3.91,2.46C307.46,726.46,305.58,724.07,305.58,720.06Zm9.09,0c0-2.55-1-4.06-3.14-4.06s-3,1.34-3,4.06,1,4.07,3,4.07S314.67,722.61,314.67,720.06Z"/><path class="cls-3" d="M320.84,727.07l2.89-.29c.27,1.1.89,1.88,2.76,1.88,2.12,0,2.94-1.21,2.94-3.5v-1.58h-.14a4,4,0,0,1-3.79,2.22c-3.38,0-5.11-2.41-5.11-6s1.82-6.11,5.16-6.11a3.76,3.76,0,0,1,3.82,2.46h.12l.33-2.11h2.47v10.92c0,3.81-1.72,6-5.8,6C322.84,730.92,321.12,729.47,320.84,727.07Zm8.64-7.28c0-2.24-1-3.81-3.09-3.81s-3.07,1.44-3.07,3.81,1,3.84,3.07,3.84S329.48,722,329.48,719.79Z"/><path class="cls-3" d="M338.12,720.91c.19,2.25,1.23,3.32,3.13,3.32,1.54,0,2.31-.61,2.64-1.6l2.75.27c-.56,2.19-2.1,3.56-5.41,3.56-4,0-6-2.41-6-6.38,0-4.16,2.28-6.44,5.9-6.44s5.71,2.16,5.71,5.88v1.39Zm0-1.95H344c-.12-2.08-1-3.14-2.92-3.14S338.37,716.8,338.14,719Z"/><path d="M606.14,416h2.47l.33,2.11h.13a4,4,0,0,1,3.9-2.46c3.18,0,5.07,2.39,5.07,6.4s-1.89,6.39-5.16,6.39a3.79,3.79,0,0,1-3.76-2.26H609v6.38h-2.86Zm9,6.05c0-2.73-1-4.07-3.09-4.07s-3.08,1.51-3.08,4.07,1,4.06,3.08,4.06S615.12,424.79,615.12,422.07Z"/><path d="M620,424.9c0-2.19,1.22-3.34,4.19-3.69l4-.51v-.65c0-1.53-.71-2.23-2.37-2.23s-2.25.72-2.47,1.94l-2.78-.25c.39-2.44,1.74-3.87,5.31-3.87,3.32,0,5.09,1.38,5.09,4.36v8.12h-2.44l-.27-1.77H628a3.94,3.94,0,0,1-3.89,2.09C621.38,428.44,620,427.09,620,424.9Zm8.14-1.38v-.94l-3.33.46c-1.37.2-1.91.69-1.91,1.64s.62,1.65,2.14,1.65A2.77,2.77,0,0,0,628.09,423.52Z"/><path d="M634.51,416H637l.35,2.21h.12a3.3,3.3,0,0,1,3.31-2.56,6.15,6.15,0,0,1,1.24.14l-.28,2.66a5.05,5.05,0,0,0-1.12-.12,3.14,3.14,0,0,0-3.23,3.36v6.41h-2.85Z"/><path d="M643.2,424.9c0-2.19,1.23-3.34,4.2-3.69l4-.51v-.65c0-1.53-.72-2.23-2.38-2.23s-2.25.72-2.46,1.94l-2.78-.25c.39-2.44,1.74-3.87,5.3-3.87,3.33,0,5.1,1.38,5.1,4.36v8.12h-2.45l-.26-1.77h-.13a3.93,3.93,0,0,1-3.88,2.09C644.63,428.44,643.2,427.09,643.2,424.9Zm8.15-1.38v-.94L648,423c-1.37.2-1.9.69-1.9,1.64s.61,1.65,2.13,1.65A2.78,2.78,0,0,0,651.35,423.52Z"/><path d="M661.44,415.2V416h3.08v2.3h-3.08v9.8h-2.86v-9.8h-2.12V416h2.12v-1.11c0-3.05,1.51-4.28,4.22-4.28a9.54,9.54,0,0,1,2.12.24l-.29,2.25a7.29,7.29,0,0,0-1.22-.11C662,413,661.44,413.63,661.44,415.2Z"/><path d="M665.79,422.05c0-4.09,2.14-6.38,6.05-6.38s6.08,2.29,6.08,6.38-2.15,6.41-6.08,6.41S665.79,426.17,665.79,422.05Zm9.22,0c0-2.7-1-4.07-3.17-4.07s-3.14,1.37-3.14,4.07,1,4.1,3.14,4.1S675,424.76,675,422.05Z"/><path d="M679,416h3.11l3.2,9.38h.12l3.1-9.38h2.93L687,428.12h-3.59Z"/><path d="M695.39,422.91c.19,2.25,1.23,3.32,3.13,3.32,1.54,0,2.31-.61,2.64-1.6l2.75.27c-.56,2.19-2.1,3.56-5.41,3.56-4,0-6-2.41-6-6.38,0-4.16,2.28-6.44,5.9-6.44s5.71,2.16,5.71,5.88v1.39Zm0-2h5.9c-.12-2.08-1-3.14-2.92-3.14S695.64,418.8,695.41,421Z"/><path d="M705.84,424.9c0-2.19,1.23-3.34,4.2-3.69l4-.51v-.65c0-1.53-.72-2.23-2.38-2.23s-2.25.72-2.46,1.94l-2.78-.25c.39-2.44,1.74-3.87,5.3-3.87,3.33,0,5.1,1.38,5.1,4.36v8.12h-2.45l-.26-1.77h-.13a3.93,3.93,0,0,1-3.88,2.09C707.27,428.44,705.84,427.09,705.84,424.9Zm8.15-1.38v-.94l-3.34.46c-1.37.2-1.9.69-1.9,1.64s.61,1.65,2.13,1.65A2.78,2.78,0,0,0,714,423.52Z"/><path d="M720.4,411h2.86v17.14H720.4Z"/><path d="M732.24,424.9c0-2.19,1.23-3.34,4.2-3.69l3.95-.51v-.65c0-1.53-.72-2.23-2.38-2.23s-2.25.72-2.46,1.94l-2.78-.25c.39-2.44,1.74-3.87,5.3-3.87,3.33,0,5.1,1.38,5.1,4.36v8.12h-2.45l-.26-1.77h-.13a3.93,3.93,0,0,1-3.88,2.09C733.67,428.44,732.24,427.09,732.24,424.9Zm8.15-1.38v-.94l-3.34.46c-1.37.2-1.9.69-1.9,1.64s.61,1.65,2.13,1.65A2.78,2.78,0,0,0,740.39,423.52Z"/><path d="M746.8,416h2.47l.34,2.21h.13a3.3,3.3,0,0,1,3.3-2.56,6.17,6.17,0,0,1,1.25.14l-.29,2.66a5,5,0,0,0-1.12-.12,3.13,3.13,0,0,0-3.22,3.36v6.41H746.8Z"/><path d="M758.47,422.91c.2,2.25,1.24,3.32,3.13,3.32,1.55,0,2.31-.61,2.64-1.6l2.76.27c-.56,2.19-2.11,3.56-5.42,3.56-4,0-6-2.41-6-6.38,0-4.16,2.27-6.44,5.89-6.44s5.72,2.16,5.72,5.88v1.39Zm0-2h5.9c-.11-2.08-1-3.14-2.91-3.14S758.72,418.8,758.49,421Z"/><path d="M768.93,424.9c0-2.19,1.22-3.34,4.19-3.69l4-.51v-.65c0-1.53-.72-2.23-2.38-2.23s-2.25.72-2.47,1.94l-2.78-.25c.39-2.44,1.74-3.87,5.31-3.87,3.32,0,5.09,1.38,5.09,4.36v8.12h-2.44l-.26-1.77H777a3.94,3.94,0,0,1-3.89,2.09C770.36,428.44,768.93,427.09,768.93,424.9Zm8.15-1.38v-.94l-3.34.46c-1.37.2-1.91.69-1.91,1.64s.62,1.65,2.14,1.65A2.78,2.78,0,0,0,777.08,423.52Z"/><line class="cls-5" x1="479.5" y1="318.5" x2="479.5" y2="288.5"/><polyline class="cls-5" points="399.88 376.46 399.88 388.52 560.88 388.52 560.88 376.46"/><polyline class="cls-5" points="567.88 376.46 567.88 388.51 817.88 388.51 817.88 376.46"/><polyline class="cls-5" points="142.88 376.46 142.88 388.51 392.88 388.51 392.88 376.46"/></g></g></svg>