<svg id="Layer_1" data-name="Layer 1" xmlns="http://www.w3.org/2000/svg" viewBox="0 0 1500 750"><defs><style>.cls-1{fill:#fff;}.cls-2{fill:#ccc;}.cls-3,.cls-4,.cls-5,.cls-6,.cls-7{fill:none;stroke-miterlimit:10;stroke-width:2.5px;}.cls-3{stroke:#ed1c24;}.cls-4,.cls-5,.cls-6,.cls-7{stroke:#000;}.cls-5{stroke-dasharray:5.01 5.01;}.cls-6{stroke-dasharray:5.01 5.01;}.cls-7{stroke-dasharray:5 5;}.cls-8{fill:#ed1c24;}</style></defs><rect class="cls-1" width="1500" height="750"/><path class="cls-2" d="M27.14,713h2.47l.34,2.17h.12a4.29,4.29,0,0,1,4-2.52,3.43,3.43,0,0,1,3.72,2.69h.13a4.4,4.4,0,0,1,4.15-2.69c2.63,0,3.93,1.6,3.93,4.36v8.09H43.15V717.9c0-1.79-.69-2.7-2.15-2.7a3,3,0,0,0-3,3.35v6.57H35.15V717.9c0-1.79-.69-2.7-2.16-2.7a3,3,0,0,0-3,3.35v6.57H27.14Z"/><path class="cls-2" d="M51.61,719.91c.19,2.25,1.23,3.32,3.13,3.32,1.54,0,2.31-.61,2.64-1.6l2.75.27c-.55,2.19-2.1,3.56-5.41,3.56-4,0-6-2.41-6-6.38,0-4.16,2.28-6.44,5.9-6.44s5.72,2.16,5.72,5.88v1.39Zm0-1.95h5.9c-.11-2.08-1-3.14-2.91-3.14S51.86,715.8,51.63,718Z"/><path class="cls-2" d="M62.31,719.06c0-4,1.89-6.39,5.14-6.39a3.77,3.77,0,0,1,3.77,2.27h.13v-7H74.2v17.14H71.74L71.4,723h-.11a4,4,0,0,1-3.91,2.46C64.19,725.46,62.31,723.07,62.31,719.06Zm9.08,0c0-2.55-1-4.06-3.13-4.06s-3,1.34-3,4.06,1,4.07,3,4.07S71.39,721.61,71.39,719.06Z"/><path class="cls-2" d="M77.72,709.48c0-1.12.7-1.64,1.8-1.64a1.65,1.65,0,1,1,0,3.3C78.42,711.14,77.72,710.6,77.72,709.48Zm.35,3.54h2.85v12.1H78.07Z"/><path class="cls-2" d="M84.57,721.11V713h2.86v7.22c0,1.79.69,2.72,2.15,2.72a3.07,3.07,0,0,0,3-3.37V713h2.86v12.1H93L92.63,723H92.5a4.25,4.25,0,0,1-4,2.51C85.87,725.46,84.57,723.86,84.57,721.11Z"/><path class="cls-2" d="M99.3,713h2.47l.34,2.17h.12a4.29,4.29,0,0,1,4-2.52,3.43,3.43,0,0,1,3.72,2.69h.13a4.4,4.4,0,0,1,4.15-2.69c2.63,0,3.93,1.6,3.93,4.36v8.09h-2.86V717.9c0-1.79-.7-2.7-2.15-2.7a3,3,0,0,0-3,3.35v6.57h-2.86V717.9c0-1.79-.7-2.7-2.16-2.7a3,3,0,0,0-3,3.35v6.57H99.3Z"/><path class="cls-2" d="M129.88,719.91c.2,2.25,1.24,3.32,3.13,3.32,1.55,0,2.31-.61,2.64-1.6l2.76.27c-.56,2.19-2.1,3.56-5.42,3.56-4,0-6-2.41-6-6.38,0-4.16,2.27-6.44,5.9-6.44s5.71,2.16,5.71,5.88v1.39Zm0-1.95h5.89c-.11-2.08-1-3.14-2.91-3.14S130.13,715.8,129.91,718Z"/><path class="cls-2" d="M140.58,719.06c0-4,1.9-6.39,5.14-6.39a3.76,3.76,0,0,1,3.77,2.27h.13v-7h2.86v17.14H150l-.33-2.12h-.12a4,4,0,0,1-3.91,2.46C142.46,725.46,140.58,723.07,140.58,719.06Zm9.09,0c0-2.55-1-4.06-3.14-4.06s-3,1.34-3,4.06,1,4.07,3,4.07S149.67,721.61,149.67,719.06Z"/><path class="cls-2" d="M155.84,726.07l2.89-.29c.27,1.1.89,1.88,2.76,1.88,2.12,0,2.94-1.21,2.94-3.5v-1.58h-.14a4,4,0,0,1-3.79,2.22c-3.38,0-5.11-2.41-5.11-6s1.82-6.11,5.16-6.11a3.76,3.76,0,0,1,3.82,2.46h.12l.33-2.11h2.47v10.92c0,3.81-1.72,6-5.8,6C157.84,729.92,156.12,728.47,155.84,726.07Zm8.64-7.28c0-2.24-1-3.81-3.09-3.81s-3.07,1.44-3.07,3.81,1,3.84,3.07,3.84S164.48,721,164.48,718.79Z"/><path class="cls-2" d="M173.12,719.91c.19,2.25,1.23,3.32,3.13,3.32,1.54,0,2.31-.61,2.64-1.6l2.75.27c-.56,2.19-2.1,3.56-5.41,3.56-4,0-6-2.41-6-6.38,0-4.16,2.28-6.44,5.9-6.44s5.71,2.16,5.71,5.88v1.39Zm0-1.95H179c-.12-2.08-1-3.14-2.92-3.14S173.37,715.8,173.14,718Z"/><rect class="cls-2" width="14.98" height="750"/><path class="cls-2" d="M80.76,208H71.21v-3.16H93.92V208H84.39v26.14H80.76Z"/><path class="cls-2" d="M98.06,203.14h3.51v13h.18a8,8,0,0,1,7.47-4.44c4.6,0,7.26,2.64,7.26,7.76v14.59H113V220.7c0-4-1.59-5.74-4.83-5.74-3.76,0-6.58,2.89-6.58,7.22v11.91H98.06Z"/><path class="cls-2" d="M125.8,224.33c.27,4.93,2.58,7.36,6.65,7.36,3.38,0,4.91-1.42,5.61-3.44l3.46.33c-.92,3.59-3.52,6.13-9,6.13-6.6,0-10.28-4.19-10.28-11.41,0-7.53,3.94-11.58,10-11.58s9.72,3.82,9.72,10.63v2Zm0-2.7h12.6c-.19-4.67-2.29-7-6.25-7C128.44,214.65,126.24,216.86,125.85,221.63Z"/><path class="cls-2" d="M157.15,228.08l3.47-.29c.39,2.79,2.27,4.05,5.8,4.05,3.15,0,5.07-1.28,5.07-3.51s-1.32-2.81-4-3.36l-2.87-.6c-4.29-.91-6.44-2.64-6.44-6.11,0-4.33,3-6.6,8.05-6.6,5.32,0,8.09,2.09,8.42,6.36l-3.47.28c-.25-2.62-1.81-3.75-5-3.75-3,0-4.58,1.11-4.58,3.38,0,1.9,1.13,2.75,3.75,3.3l3,.64c4.44,1,6.67,2.42,6.67,6,0,4.31-3.22,6.79-8.59,6.79C160.39,234.71,157.53,232.42,157.15,228.08Z"/><path class="cls-2" d="M179,228.48c0-3.95,2.25-5.88,7.49-6.54l7.32-.95v-1.51c0-3.4-1.63-4.87-5.18-4.87s-4.85,1.53-5.28,4.13l-3.46-.31c.61-4.13,3.07-6.71,8.78-6.71s8.54,2.38,8.54,7.6v14.77H194.3l-.37-3.41h-.2c-1.2,2.48-3.65,4-7.31,4C181.6,234.68,179,232.37,179,228.48Zm14.81-2.81v-2.08l-7.06,1c-3,.41-4.18,1.61-4.18,3.67,0,2.23,1.36,3.57,4.54,3.57C191.29,231.82,193.83,229.22,193.83,225.67Z"/><path class="cls-2" d="M203,223.21c0-7.2,3.72-11.47,10.07-11.47,5.55,0,8.71,2.73,9.29,7.47l-3.53.29c-.44-3.09-2.25-4.7-5.76-4.7-4.35,0-6.48,2.89-6.48,8.41s2.17,8.46,6.52,8.46c3.55,0,5.26-1.54,5.74-4.64l3.51.31c-.6,4.7-3.53,7.37-9.29,7.37C206.7,234.71,203,230.48,203,223.21Z"/><path class="cls-2" d="M226.54,223.21c0-7.2,3.71-11.47,10.07-11.47,5.55,0,8.7,2.73,9.28,7.47l-3.53.29c-.43-3.09-2.25-4.7-5.75-4.7-4.36,0-6.48,2.89-6.48,8.41s2.17,8.46,6.52,8.46c3.55,0,5.26-1.54,5.73-4.64l3.51.31c-.6,4.7-3.53,7.37-9.28,7.37C230.27,234.71,226.54,230.48,226.54,223.21Z"/><path class="cls-2" d="M249.52,228.48c0-3.95,2.25-5.88,7.49-6.54l7.32-.95v-1.51c0-3.4-1.63-4.87-5.18-4.87s-4.85,1.53-5.28,4.13l-3.47-.31c.62-4.13,3.08-6.71,8.79-6.71s8.54,2.38,8.54,7.6v14.77H264.8l-.37-3.41h-.2c-1.2,2.48-3.65,4-7.31,4C252.1,234.68,249.52,232.37,249.52,228.48Zm14.81-2.81v-2.08l-7.06,1c-3,.41-4.18,1.61-4.18,3.67,0,2.23,1.36,3.57,4.53,3.57C261.79,231.82,264.33,229.22,264.33,225.67Z"/><path class="cls-2" d="M273.46,223.21c0-7.22,3.47-11.47,9.37-11.47,3.51,0,5.82,1.53,7.08,4.17h.18V203.14h3.51v31h-2.93l-.5-3.82H290a7.53,7.53,0,0,1-7.26,4.44C276.89,234.71,273.46,230.48,273.46,223.21Zm16.76,0c0-5-2.13-8.44-6.79-8.44-4.15,0-6.38,2.76-6.38,8.44s2.23,8.41,6.4,8.41C288.09,231.65,290.22,228.23,290.22,223.24Z"/><path class="cls-2" d="M303.33,224.33c.27,4.93,2.58,7.36,6.64,7.36,3.39,0,4.91-1.42,5.62-3.44l3.46.33c-.93,3.59-3.53,6.13-9,6.13-6.61,0-10.28-4.19-10.28-11.41,0-7.53,3.94-11.58,10-11.58s9.71,3.82,9.71,10.63v2Zm0-2.7H316c-.19-4.67-2.29-7-6.25-7C306,214.65,303.76,216.86,303.37,221.63Z"/><path class="cls-2" d="M323.4,228.08l3.47-.29c.39,2.79,2.26,4.05,5.79,4.05,3.16,0,5.08-1.28,5.08-3.51s-1.32-2.81-4.05-3.36l-2.86-.6c-4.29-.91-6.44-2.64-6.44-6.11,0-4.33,3-6.6,8.05-6.6,5.32,0,8.08,2.09,8.41,6.36l-3.46.28c-.25-2.62-1.82-3.75-5-3.75-3,0-4.58,1.11-4.58,3.38,0,1.9,1.14,2.75,3.76,3.3l2.95.64c4.43,1,6.66,2.42,6.66,6,0,4.31-3.22,6.79-8.58,6.79C326.64,234.71,323.77,232.42,323.4,228.08Z"/><path class="cls-2" d="M355.33,212.36h3.79l5.49,18h.21l5.28-18h4.21l5.32,18h.23l5.42-18h3.51l-7,21.73h-4.39l-5.26-17.6H372l-5.26,17.6h-4.4Z"/><path class="cls-2" d="M395.26,224.33c.27,4.93,2.58,7.36,6.64,7.36,3.39,0,4.91-1.42,5.61-3.44l3.47.33c-.93,3.59-3.53,6.13-9,6.13-6.6,0-10.27-4.19-10.27-11.41,0-7.53,3.94-11.58,10-11.58s9.71,3.82,9.71,10.63v2Zm0-2.7h12.61c-.19-4.67-2.29-7-6.25-7C397.9,214.65,395.69,216.86,395.3,221.63Z"/><path class="cls-2" d="M428.76,212.36h2.93l.49,3.82h.21a8,8,0,0,1,7.3-4.44c3.63,0,5.9,1.8,6.7,4.83h.19c1.51-2.76,3.86-4.83,7.61-4.83,4.54,0,7.08,2.77,7.08,7.78v14.57h-3.51V220.55c0-3.75-1.55-5.59-4.58-5.59-3.61,0-6.41,2.89-6.41,7.24v11.89h-3.51V220.55c0-3.75-1.55-5.59-4.6-5.59-3.59,0-6.4,2.89-6.4,7.24v11.89h-3.5Z"/><path class="cls-2" d="M466.85,228.48c0-3.95,2.25-5.88,7.49-6.54l7.32-.95v-1.51c0-3.4-1.63-4.87-5.17-4.87s-4.85,1.53-5.28,4.13l-3.47-.31c.62-4.13,3.07-6.71,8.79-6.71s8.54,2.38,8.54,7.6v14.77h-2.93l-.37-3.41h-.21c-1.2,2.48-3.65,4-7.3,4C469.43,234.68,466.85,232.37,466.85,228.48Zm14.81-2.81v-2.08l-7.05,1c-3,.41-4.19,1.61-4.19,3.67,0,2.23,1.36,3.57,4.54,3.57C479.13,231.82,481.66,229.22,481.66,225.67Z"/><path class="cls-2" d="M499.38,222.6l11,11.49H506l-9.84-10.22H496v10.22h-3.51v-31H496v18.47h.16l9.47-9.25H510Z"/><path class="cls-2" d="M515.9,224.33c.27,4.93,2.58,7.36,6.64,7.36,3.39,0,4.91-1.42,5.62-3.44l3.46.33c-.93,3.59-3.53,6.13-9,6.13-6.61,0-10.28-4.19-10.28-11.41,0-7.53,3.94-11.58,10-11.58s9.71,3.82,9.71,10.63v2Zm0-2.7h12.61c-.19-4.67-2.29-7-6.25-7C518.54,214.65,516.33,216.86,515.94,221.63Z"/><path class="cls-2" d="M547.52,228.48c0-3.95,2.25-5.88,7.49-6.54l7.32-.95v-1.51c0-3.4-1.63-4.87-5.18-4.87s-4.84,1.53-5.28,4.13l-3.46-.31c.62-4.13,3.07-6.71,8.79-6.71s8.54,2.38,8.54,7.6v14.77h-2.93l-.37-3.41h-.21c-1.2,2.48-3.65,4-7.3,4C550.1,234.68,547.52,232.37,547.52,228.48Zm14.81-2.81v-2.08l-7.05,1c-3,.41-4.19,1.61-4.19,3.67,0,2.23,1.36,3.57,4.54,3.57C559.79,231.82,562.33,229.22,562.33,225.67Z"/><path class="cls-2" d="M570.44,228.08l3.46-.29c.39,2.79,2.27,4.05,5.8,4.05,3.15,0,5.07-1.28,5.07-3.51s-1.32-2.81-4-3.36l-2.87-.6c-4.29-.91-6.43-2.64-6.43-6.11,0-4.33,3-6.6,8-6.6,5.32,0,8.09,2.09,8.42,6.36l-3.47.28c-.24-2.62-1.81-3.75-5-3.75-3,0-4.58,1.11-4.58,3.38,0,1.9,1.14,2.75,3.76,3.3l2.95.64c4.43,1,6.66,2.42,6.66,6,0,4.31-3.22,6.79-8.58,6.79C573.67,234.71,570.81,232.42,570.44,228.08Z"/><path class="cls-2" d="M602.36,212.36h3.8l5.49,18h.2l5.28-18h4.21l5.33,18h.22l5.43-18h3.51l-7,21.73h-4.39l-5.26-17.6H619l-5.26,17.6h-4.39Z"/><path class="cls-2" d="M642.3,224.33c.27,4.93,2.58,7.36,6.64,7.36,3.38,0,4.91-1.42,5.61-3.44l3.47.33c-.93,3.59-3.53,6.13-9,6.13-6.6,0-10.27-4.19-10.27-11.41,0-7.53,3.94-11.58,10-11.58s9.72,3.82,9.72,10.63v2Zm0-2.7h12.6c-.18-4.67-2.29-7-6.25-7C644.94,214.65,642.73,216.86,642.34,221.63Z"/><path class="cls-2" d="M675.79,212.36h2.93l.5,3.82h.2c1.16-2.83,3.24-4.44,6.27-4.44a9.7,9.7,0,0,1,2.23.27l-.37,3.32a8.69,8.69,0,0,0-2-.24c-3.53,0-6.21,2.8-6.21,7.09v11.91h-3.51Z"/><path class="cls-2" d="M694.34,224.33c.26,4.93,2.57,7.36,6.64,7.36,3.38,0,4.91-1.42,5.61-3.44l3.47.33c-.93,3.59-3.53,6.13-9,6.13-6.6,0-10.27-4.19-10.27-11.41,0-7.53,3.94-11.58,10-11.58s9.72,3.82,9.72,10.63v2Zm0-2.7H707c-.18-4.67-2.29-7-6.25-7C697,214.65,694.77,216.86,694.38,221.63Z"/><path class="cls-2" d="M714.34,228.48c0-3.95,2.25-5.88,7.49-6.54l7.32-.95v-1.51c0-3.4-1.63-4.87-5.17-4.87s-4.85,1.53-5.28,4.13l-3.47-.31c.62-4.13,3.07-6.71,8.79-6.71s8.54,2.38,8.54,7.6v14.77h-2.93l-.37-3.41h-.21c-1.2,2.48-3.65,4-7.3,4C716.92,234.68,714.34,232.37,714.34,228.48Zm14.81-2.81v-2.08l-7,1c-3,.41-4.19,1.61-4.19,3.67,0,2.23,1.36,3.57,4.54,3.57C726.62,231.82,729.15,229.22,729.15,225.67Z"/><path class="cls-2" d="M738.29,223.21c0-7.22,3.46-11.47,9.36-11.47,3.51,0,5.82,1.53,7.08,4.17h.19V203.14h3.5v31h-2.93l-.49-3.82h-.21a7.52,7.52,0,0,1-7.26,4.44C741.71,234.71,738.29,230.48,738.29,223.21Zm16.75,0c0-5-2.12-8.44-6.79-8.44-4.14,0-6.37,2.76-6.37,8.44s2.23,8.41,6.39,8.41C752.92,231.65,755,228.23,755,223.24Z"/><path class="cls-2" d="M775.7,228.48c0-3.95,2.25-5.88,7.49-6.54l7.33-.95v-1.51c0-3.4-1.63-4.87-5.18-4.87s-4.85,1.53-5.28,4.13l-3.47-.31c.62-4.13,3.07-6.71,8.79-6.71s8.54,2.38,8.54,7.6v14.77H791l-.37-3.41h-.21c-1.19,2.48-3.65,4-7.3,4C778.28,234.68,775.7,232.37,775.7,228.48Zm14.82-2.81v-2.08l-7.06,1c-3,.41-4.19,1.61-4.19,3.67,0,2.23,1.36,3.57,4.54,3.57C788,231.82,790.52,229.22,790.52,225.67Z"/><path class="cls-2" d="M801.38,203.14h3.51v31h-3.51Z"/><path class="cls-2" d="M811,223.19c0-7.36,3.76-11.45,10.3-11.45s10.33,4.09,10.33,11.45-3.77,11.52-10.33,11.52S811,230.6,811,223.19Zm17,0c0-5.61-2.23-8.39-6.75-8.39s-6.71,2.78-6.71,8.39,2.21,8.48,6.71,8.48S828.06,228.83,828.06,223.19Z"/><path class="cls-2" d="M837.77,212.36h2.93l.49,3.82h.21a8.14,8.14,0,0,1,7.51-4.44c4.74,0,7.28,2.77,7.28,7.78v14.57h-3.51V220.55c0-3.75-1.54-5.59-4.8-5.59-3.8,0-6.61,2.89-6.61,7.24v11.89h-3.5Z"/><path class="cls-2" d="M862.87,236.25l3.57-.37c.47,2.35,2,3.92,5.88,3.92,4.45,0,6.23-2.43,6.23-7.47v-2.82h-.21a7.29,7.29,0,0,1-7,4.35c-6.36,0-9.45-4.35-9.45-11.1,0-6.6,3.3-11,9.45-11a7.22,7.22,0,0,1,7,4.44h.21l.5-3.82h2.92v20c0,6.75-3,10.48-9.73,10.48C866.25,242.81,863.36,240.34,862.87,236.25Zm15.78-13.49c0-4.5-2.23-8-6.68-8-4.27,0-6.46,3-6.46,8,0,5.26,2.19,8.13,6.46,8.13S878.65,227.09,878.65,222.76Z"/><path class="cls-2" d="M899.33,228.48c0-3.95,2.25-5.88,7.49-6.54l7.33-.95v-1.51c0-3.4-1.63-4.87-5.18-4.87s-4.85,1.53-5.28,4.13l-3.47-.31c.62-4.13,3.07-6.71,8.79-6.71s8.54,2.38,8.54,7.6v14.77h-2.93l-.37-3.41H914c-1.19,2.48-3.65,4-7.3,4C901.91,234.68,899.33,232.37,899.33,228.48Zm14.82-2.81v-2.08l-7.06,1c-3,.41-4.19,1.61-4.19,3.67,0,2.23,1.36,3.57,4.54,3.57C911.61,231.82,914.15,229.22,914.15,225.67Z"/><path class="cls-2" d="M936.3,203.14h3.5v31h-3.5Z"/><path class="cls-2" d="M947,206.32a2.42,2.42,0,0,1,4.83,0,2.42,2.42,0,0,1-4.83,0Zm.66,6h3.51v21.73h-3.51Z"/><path class="cls-2" d="M959,212.36H962l.49,3.82h.21a8.14,8.14,0,0,1,7.51-4.44c4.74,0,7.28,2.77,7.28,7.78v14.57h-3.51V220.55c0-3.75-1.55-5.59-4.81-5.59-3.79,0-6.6,2.89-6.6,7.24v11.89H959Z"/><path class="cls-2" d="M986.77,224.33c.27,4.93,2.58,7.36,6.64,7.36,3.38,0,4.91-1.42,5.61-3.44l3.47.33c-.93,3.59-3.53,6.13-9,6.13-6.6,0-10.27-4.19-10.27-11.41,0-7.53,3.94-11.58,10-11.58s9.72,3.82,9.72,10.63v2Zm0-2.7h12.61c-.19-4.67-2.3-7-6.26-7C989.41,214.65,987.2,216.86,986.81,221.63Z"/><path class="cls-2" d="M1025.09,210.38v2h5.82v3h-5.82v18.71h-3.51V215.38h-4.08v-3h4.08v-2.18c0-5.45,2.56-7.66,7-7.66a13.25,13.25,0,0,1,3.13.39l-.39,2.93a9.64,9.64,0,0,0-2.17-.24C1026.18,205.6,1025.09,206.9,1025.09,210.38Z"/><path class="cls-2" d="M1035.67,212.36h2.93l.5,3.82h.2c1.16-2.83,3.24-4.44,6.27-4.44a9.77,9.77,0,0,1,2.23.27l-.37,3.32a8.76,8.76,0,0,0-2-.24c-3.53,0-6.21,2.8-6.21,7.09v11.91h-3.51Z"/><path class="cls-2" d="M1050.62,223.19c0-7.36,3.76-11.45,10.3-11.45s10.33,4.09,10.33,11.45-3.77,11.52-10.33,11.52S1050.62,230.6,1050.62,223.19Zm17.05,0c0-5.61-2.23-8.39-6.75-8.39s-6.71,2.78-6.71,8.39,2.21,8.48,6.71,8.48S1067.67,228.83,1067.67,223.19Z"/><path class="cls-2" d="M1077.38,212.36h2.93l.49,3.82h.21a8,8,0,0,1,7.3-4.44c3.63,0,5.9,1.8,6.71,4.83h.18c1.51-2.76,3.86-4.83,7.61-4.83,4.54,0,7.08,2.77,7.08,7.78v14.57h-3.51V220.55c0-3.75-1.55-5.59-4.58-5.59-3.61,0-6.41,2.89-6.41,7.24v11.89h-3.51V220.55c0-3.75-1.55-5.59-4.6-5.59-3.59,0-6.4,2.89-6.4,7.24v11.89h-3.5Z"/><path class="cls-2" d="M1128.63,203.14h3.51v31h-3.51Z"/><path class="cls-2" d="M1141.85,224.33c.27,4.93,2.58,7.36,6.65,7.36,3.38,0,4.91-1.42,5.61-3.44l3.46.33c-.92,3.59-3.52,6.13-9,6.13-6.6,0-10.28-4.19-10.28-11.41,0-7.53,3.94-11.58,10-11.58s9.72,3.82,9.72,10.63v2Zm0-2.7h12.61c-.19-4.67-2.29-7-6.25-7C1144.49,214.65,1142.29,216.86,1141.89,221.63Z"/><path class="cls-2" d="M1168.89,210.38v2h5.82v3h-5.82v18.71h-3.5V215.38h-4.09v-3h4.09v-2.18c0-5.45,2.56-7.66,7-7.66a13.34,13.34,0,0,1,3.14.39l-.4,2.93a9.55,9.55,0,0,0-2.16-.24C1170,205.6,1168.89,206.9,1168.89,210.38Z"/><path class="cls-2" d="M1184.22,227.51c0,3,1.3,4,3.84,4a10.81,10.81,0,0,0,2.78-.41l.39,2.9a14.14,14.14,0,0,1-3.87.58c-4.58,0-6.65-2.29-6.65-6.74V215.38h-4.47v-3h4.47l.77-6.74h2.74v6.74h6.91v3h-6.91Z"/><path class="cls-2" d="M1212.56,227.51c0,3,1.3,4,3.84,4a10.81,10.81,0,0,0,2.78-.41l.39,2.9a14.14,14.14,0,0,1-3.87.58c-4.58,0-6.65-2.29-6.65-6.74V215.38h-4.47v-3h4.47l.77-6.74h2.74v6.74h6.91v3h-6.91Z"/><path class="cls-2" d="M1222.73,223.19c0-7.36,3.75-11.45,10.29-11.45s10.34,4.09,10.34,11.45-3.78,11.52-10.34,11.52S1222.73,230.6,1222.73,223.19Zm17,0c0-5.61-2.23-8.39-6.75-8.39s-6.7,2.78-6.7,8.39,2.2,8.48,6.7,8.48S1239.77,228.83,1239.77,223.19Z"/><path class="cls-2" d="M1260.76,212.36h2.93l.5,3.82h.2c1.16-2.83,3.24-4.44,6.27-4.44a9.77,9.77,0,0,1,2.23.27l-.37,3.32a8.76,8.76,0,0,0-2-.24c-3.53,0-6.21,2.8-6.21,7.09v11.91h-3.51Z"/><path class="cls-2" d="M1276.79,206.32a2.41,2.41,0,0,1,4.82,0,2.41,2.41,0,0,1-4.82,0Zm.66,6h3.5v21.73h-3.5Z"/><path class="cls-2" d="M1288,236.25l3.57-.37c.47,2.35,2,3.92,5.88,3.92,4.45,0,6.23-2.43,6.23-7.47v-2.82h-.21a7.29,7.29,0,0,1-7,4.35c-6.36,0-9.45-4.35-9.45-11.1,0-6.6,3.3-11,9.45-11a7.22,7.22,0,0,1,7,4.44h.21l.5-3.82h2.92v20c0,6.75-3,10.48-9.73,10.48C1291.41,242.81,1288.52,240.34,1288,236.25Zm15.78-13.49c0-4.5-2.23-8-6.68-8-4.27,0-6.46,3-6.46,8,0,5.26,2.19,8.13,6.46,8.13S1303.81,227.09,1303.81,222.76Z"/><path class="cls-2" d="M1315.09,203.14h3.51v13h.18a8,8,0,0,1,7.47-4.44c4.6,0,7.26,2.64,7.26,7.76v14.59H1330V220.7c0-4-1.58-5.74-4.82-5.74-3.76,0-6.58,2.89-6.58,7.22v11.91h-3.51Z"/><path class="cls-2" d="M1345.72,227.51c0,3,1.3,4,3.84,4a10.81,10.81,0,0,0,2.78-.41l.39,2.9a14.14,14.14,0,0,1-3.87.58c-4.58,0-6.65-2.29-6.65-6.74V215.38h-4.47v-3h4.47l.77-6.74h2.74v6.74h6.91v3h-6.91Z"/><path class="cls-2" d="M73.06,315.1c0-3.94,2.25-5.88,7.49-6.54l7.33-.94v-1.51c0-3.4-1.63-4.87-5.18-4.87s-4.85,1.53-5.28,4.13L74,305.06c.62-4.13,3.07-6.71,8.79-6.71s8.54,2.38,8.54,7.59v14.78H88.35L88,317.31h-.21c-1.19,2.48-3.65,4-7.3,4C75.64,321.31,73.06,319,73.06,315.1Zm14.82-2.8v-2.09l-7.06,1c-3,.41-4.19,1.6-4.19,3.67,0,2.22,1.36,3.57,4.54,3.57C85.34,318.45,87.88,315.85,87.88,312.3Z"/><path class="cls-2" d="M98.74,299h2.93l.5,3.82h.2a6.44,6.44,0,0,1,6.28-4.44,9.68,9.68,0,0,1,2.22.27L110.5,302a8.62,8.62,0,0,0-2-.24c-3.53,0-6.21,2.8-6.21,7.09v11.91H98.74Z"/><path class="cls-2" d="M117.29,311c.26,4.93,2.57,7.36,6.64,7.36,3.38,0,4.91-1.42,5.61-3.44l3.47.33c-.93,3.59-3.53,6.12-9,6.12-6.6,0-10.27-4.18-10.27-11.4,0-7.53,3.94-11.58,10-11.58s9.72,3.82,9.72,10.63v2Zm0-2.71h12.6c-.18-4.66-2.29-7-6.25-7C119.93,301.28,117.72,303.49,117.33,308.25Z"/><path class="cls-2" d="M148.64,314.71l3.46-.29c.39,2.79,2.27,4.05,5.8,4.05,3.15,0,5.07-1.28,5.07-3.51s-1.32-2.81-4-3.36l-2.87-.6c-4.29-.91-6.43-2.64-6.43-6.11,0-4.33,3-6.6,8-6.6,5.32,0,8.09,2.08,8.42,6.35l-3.47.29c-.24-2.62-1.81-3.75-5-3.75-3,0-4.58,1.11-4.58,3.38,0,1.9,1.14,2.75,3.76,3.3l2.94.64c4.44,1,6.67,2.42,6.67,6.05,0,4.31-3.22,6.78-8.58,6.78C151.87,321.33,149,319,148.64,314.71Z"/><path class="cls-2" d="M172.33,289.77h3.51v13H176a8,8,0,0,1,7.47-4.44c4.6,0,7.26,2.64,7.26,7.76v14.59h-3.51V307.33c0-4-1.59-5.74-4.83-5.74-3.75,0-6.58,2.89-6.58,7.22v11.91h-3.51Z"/><path class="cls-2" d="M196.49,309.82c0-7.36,3.75-11.45,10.29-11.45s10.34,4.09,10.34,11.45-3.78,11.51-10.34,11.51S196.49,317.23,196.49,309.82Zm17,0c0-5.61-2.23-8.39-6.75-8.39s-6.7,2.78-6.7,8.39,2.2,8.48,6.7,8.48S213.53,315.45,213.53,309.82Z"/><path class="cls-2" d="M223.24,299h2.93l.49,3.82h.21c1.16-2.83,3.24-4.44,6.27-4.44a9.77,9.77,0,0,1,2.23.27L235,302a8.76,8.76,0,0,0-2-.24c-3.53,0-6.21,2.8-6.21,7.09v11.91h-3.51Z"/><path class="cls-2" d="M244.67,314.13c0,3,1.3,4,3.84,4a10.37,10.37,0,0,0,2.78-.42l.4,2.91a14.28,14.28,0,0,1-3.88.58c-4.58,0-6.65-2.29-6.65-6.75V302h-4.47v-3h4.47l.77-6.74h2.74V299h6.91v3h-6.91Z"/><path class="cls-2" d="M258.43,311c.27,4.93,2.58,7.36,6.64,7.36,3.38,0,4.91-1.42,5.61-3.44l3.47.33c-.93,3.59-3.53,6.12-9,6.12-6.6,0-10.27-4.18-10.27-11.4,0-7.53,3.94-11.58,10-11.58s9.72,3.82,9.72,10.63v2Zm0-2.71h12.6c-.18-4.66-2.29-7-6.25-7C261.07,301.28,258.86,303.49,258.47,308.25Z"/><path class="cls-2" d="M280.64,299h2.93l.5,3.82h.2c1.16-2.83,3.24-4.44,6.27-4.44a9.77,9.77,0,0,1,2.23.27L292.4,302a8.69,8.69,0,0,0-2-.24c-3.53,0-6.21,2.8-6.21,7.09v11.91h-3.51Z"/><path class="cls-2" d="M313.35,314.13c0,3,1.3,4,3.84,4a10.45,10.45,0,0,0,2.79-.42l.39,2.91a14.21,14.21,0,0,1-3.88.58c-4.58,0-6.64-2.29-6.64-6.75V302h-4.48v-3h4.48l.76-6.74h2.74V299h6.92v3h-6.92Z"/><path class="cls-2" d="M325.67,289.77h3.51v13h.18a8,8,0,0,1,7.47-4.44c4.6,0,7.26,2.64,7.26,7.76v14.59h-3.51V307.33c0-4-1.58-5.74-4.82-5.74-3.76,0-6.58,2.89-6.58,7.22v11.91h-3.51Z"/><path class="cls-2" d="M349.68,315.1c0-3.94,2.25-5.88,7.49-6.54l7.32-.94v-1.51c0-3.4-1.63-4.87-5.18-4.87s-4.85,1.53-5.28,4.13l-3.47-.31c.62-4.13,3.08-6.71,8.79-6.71s8.54,2.38,8.54,7.59v14.78H365l-.37-3.41h-.2c-1.2,2.48-3.66,4-7.31,4C352.26,321.31,349.68,319,349.68,315.1Zm14.81-2.8v-2.09l-7.06,1c-3,.41-4.18,1.6-4.18,3.67,0,2.22,1.36,3.57,4.53,3.57C362,318.45,364.49,315.85,364.49,312.3Z"/><path class="cls-2" d="M375.36,299h2.93l.49,3.82H379a8.14,8.14,0,0,1,7.51-4.44c4.74,0,7.28,2.77,7.28,7.78v14.57h-3.51V307.18c0-3.75-1.55-5.59-4.81-5.59-3.79,0-6.6,2.89-6.6,7.24v11.89h-3.5Z"/><path class="cls-2" d="M417.27,314.13c0,3,1.3,4,3.84,4a10.37,10.37,0,0,0,2.78-.42l.39,2.91a14.15,14.15,0,0,1-3.88.58c-4.57,0-6.64-2.29-6.64-6.75V302h-4.47v-3h4.47l.77-6.74h2.74V299h6.91v3h-6.91Z"/><path class="cls-2" d="M429.58,289.77h3.51v13h.18a8,8,0,0,1,7.47-4.44c4.6,0,7.26,2.64,7.26,7.76v14.59h-3.5V307.33c0-4-1.59-5.74-4.83-5.74-3.75,0-6.58,2.89-6.58,7.22v11.91h-3.51Z"/><path class="cls-2" d="M457.32,311c.27,4.93,2.58,7.36,6.65,7.36,3.38,0,4.91-1.42,5.61-3.44l3.46.33c-.92,3.59-3.52,6.12-9,6.12-6.6,0-10.28-4.18-10.28-11.4,0-7.53,3.94-11.58,10-11.58s9.72,3.82,9.72,10.63v2Zm.05-2.71H470c-.19-4.66-2.29-7-6.25-7C460,301.28,457.76,303.49,457.37,308.25Z"/><path class="cls-2" d="M488.67,314.71l3.47-.29c.39,2.79,2.27,4.05,5.8,4.05,3.15,0,5.07-1.28,5.07-3.51s-1.32-2.81-4-3.36l-2.87-.6c-4.29-.91-6.43-2.64-6.43-6.11,0-4.33,3-6.6,8-6.6,5.32,0,8.09,2.08,8.42,6.35l-3.47.29c-.25-2.62-1.81-3.75-5-3.75-3,0-4.58,1.11-4.58,3.38,0,1.9,1.13,2.75,3.75,3.3l3,.64c4.44,1,6.67,2.42,6.67,6.05,0,4.31-3.22,6.78-8.58,6.78C491.91,321.33,489.05,319,488.67,314.71Z"/><path class="cls-2" d="M510.54,315.1c0-3.94,2.25-5.88,7.49-6.54l7.32-.94v-1.51c0-3.4-1.63-4.87-5.18-4.87s-4.85,1.53-5.28,4.13l-3.46-.31c.61-4.13,3.07-6.71,8.78-6.71s8.54,2.38,8.54,7.59v14.78h-2.92l-.38-3.41h-.2c-1.2,2.48-3.65,4-7.31,4C513.12,321.31,510.54,319,510.54,315.1Zm14.81-2.8v-2.09l-7.05,1c-3,.41-4.19,1.6-4.19,3.67,0,2.22,1.36,3.57,4.54,3.57C522.81,318.45,525.35,315.85,525.35,312.3Z"/><path class="cls-2" d="M534.49,309.84c0-7.2,3.71-11.47,10.06-11.47,5.55,0,8.71,2.73,9.29,7.47l-3.53.29c-.43-3.09-2.25-4.7-5.76-4.7-4.35,0-6.48,2.88-6.48,8.41s2.17,8.46,6.52,8.46c3.55,0,5.26-1.55,5.74-4.64l3.51.31c-.6,4.7-3.53,7.36-9.29,7.36C538.22,321.33,534.49,317.1,534.49,309.84Z"/><path class="cls-2" d="M558.06,309.84c0-7.2,3.71-11.47,10.07-11.47,5.55,0,8.7,2.73,9.28,7.47l-3.53.29c-.43-3.09-2.25-4.7-5.75-4.7-4.36,0-6.48,2.88-6.48,8.41s2.17,8.46,6.52,8.46c3.55,0,5.26-1.55,5.73-4.64l3.51.31c-.6,4.7-3.53,7.36-9.28,7.36C561.79,321.33,558.06,317.1,558.06,309.84Z"/><path class="cls-2" d="M581,315.1c0-3.94,2.25-5.88,7.49-6.54l7.32-.94v-1.51c0-3.4-1.63-4.87-5.18-4.87s-4.85,1.53-5.28,4.13l-3.46-.31c.61-4.13,3.07-6.71,8.78-6.71s8.54,2.38,8.54,7.59v14.78h-2.93l-.37-3.41h-.2c-1.2,2.48-3.65,4-7.31,4C583.62,321.31,581,319,581,315.1Zm14.81-2.8v-2.09l-7.06,1c-3,.41-4.18,1.6-4.18,3.67,0,2.22,1.36,3.57,4.54,3.57C593.31,318.45,595.85,315.85,595.85,312.3Z"/><path class="cls-2" d="M605,309.84c0-7.22,3.47-11.47,9.37-11.47,3.51,0,5.82,1.53,7.08,4.17h.18V289.77h3.51v31h-2.93l-.5-3.82h-.2a7.52,7.52,0,0,1-7.26,4.43C608.41,321.33,605,317.1,605,309.84Zm16.76,0c0-5-2.13-8.43-6.79-8.43-4.15,0-6.38,2.76-6.38,8.43s2.23,8.42,6.4,8.42C619.61,318.28,621.74,314.86,621.74,309.86Z"/><path class="cls-2" d="M634.85,311c.27,4.93,2.58,7.36,6.64,7.36,3.39,0,4.91-1.42,5.62-3.44l3.46.33c-.93,3.59-3.53,6.12-9,6.12-6.61,0-10.28-4.18-10.28-11.4,0-7.53,3.94-11.58,10-11.58S651,302.17,651,309v2Zm0-2.71H647.5c-.19-4.66-2.29-7-6.25-7C637.49,301.28,635.29,303.49,634.89,308.25Z"/><path class="cls-2" d="M666.47,315.1c0-3.94,2.25-5.88,7.49-6.54l7.32-.94v-1.51c0-3.4-1.63-4.87-5.18-4.87s-4.84,1.53-5.28,4.13l-3.46-.31c.62-4.13,3.07-6.71,8.79-6.71s8.54,2.38,8.54,7.59v14.78h-2.93l-.37-3.41h-.21c-1.2,2.48-3.65,4-7.3,4C669.05,321.31,666.47,319,666.47,315.1Zm14.81-2.8v-2.09l-7,1c-3,.41-4.19,1.6-4.19,3.67,0,2.22,1.36,3.57,4.54,3.57C678.74,318.45,681.28,315.85,681.28,312.3Z"/><path class="cls-2" d="M696.89,314.13c0,3,1.3,4,3.84,4a10.51,10.51,0,0,0,2.79-.42l.39,2.91a14.21,14.21,0,0,1-3.88.58c-4.58,0-6.64-2.29-6.64-6.75V302h-4.48v-3h4.48l.76-6.74h2.74V299h6.92v3h-6.92Z"/><path class="cls-2" d="M725.23,314.13c0,3,1.3,4,3.84,4a10.51,10.51,0,0,0,2.79-.42l.39,2.91a14.21,14.21,0,0,1-3.88.58c-4.58,0-6.64-2.29-6.64-6.75V302h-4.48v-3h4.48l.76-6.74h2.74V299h6.92v3h-6.92Z"/><path class="cls-2" d="M737.55,289.77h3.5v13h.19a8,8,0,0,1,7.47-4.44c4.6,0,7.26,2.64,7.26,7.76v14.59h-3.51V307.33c0-4-1.59-5.74-4.82-5.74-3.76,0-6.59,2.89-6.59,7.22v11.91h-3.5Z"/><path class="cls-2" d="M765.29,311c.27,4.93,2.58,7.36,6.64,7.36,3.39,0,4.91-1.42,5.61-3.44l3.47.33c-.93,3.59-3.53,6.12-9,6.12-6.6,0-10.27-4.18-10.27-11.4,0-7.53,3.94-11.58,10-11.58s9.72,3.82,9.72,10.63v2Zm0-2.71h12.61c-.19-4.66-2.29-7-6.26-7C767.93,301.28,765.72,303.49,765.33,308.25Z"/><path class="cls-2" d="M800.64,311c.27,4.93,2.58,7.36,6.64,7.36,3.39,0,4.91-1.42,5.62-3.44l3.46.33c-.93,3.59-3.53,6.12-9,6.12-6.61,0-10.28-4.18-10.28-11.4,0-7.53,3.94-11.58,10-11.58s9.71,3.82,9.71,10.63v2Zm0-2.71h12.61c-.19-4.66-2.29-7-6.25-7C803.28,301.28,801.08,303.49,800.68,308.25Z"/><path class="cls-2" d="M822.86,299h2.93l.49,3.82h.21a8.14,8.14,0,0,1,7.51-4.44c4.74,0,7.28,2.77,7.28,7.78v14.57h-3.51V307.18c0-3.75-1.55-5.59-4.81-5.59-3.79,0-6.6,2.89-6.6,7.24v11.89h-3.5Z"/><path class="cls-2" d="M847,309.84c0-7.22,3.46-11.47,9.36-11.47,3.51,0,5.82,1.53,7.08,4.17h.19V289.77h3.5v31h-2.93l-.49-3.82h-.21a7.51,7.51,0,0,1-7.26,4.43C850.43,321.33,847,317.1,847,309.84Zm16.75,0c0-5-2.13-8.43-6.79-8.43-4.14,0-6.37,2.76-6.37,8.43s2.23,8.42,6.39,8.42C861.63,318.28,863.76,314.86,863.76,309.86Z"/><path class="cls-2" d="M884.57,309.82c0-7.36,3.75-11.45,10.29-11.45s10.34,4.09,10.34,11.45-3.78,11.51-10.34,11.51S884.57,317.23,884.57,309.82Zm17,0c0-5.61-2.23-8.39-6.75-8.39s-6.7,2.78-6.7,8.39,2.21,8.48,6.7,8.48S901.61,315.45,901.61,309.82Z"/><path class="cls-2" d="M916.15,297v2H922v3h-5.81v18.72h-3.51V302h-4.09v-3h4.09v-2.18c0-5.45,2.56-7.66,7-7.66a13.27,13.27,0,0,1,3.14.39l-.39,2.93a9.71,9.71,0,0,0-2.17-.24C917.24,292.23,916.15,293.53,916.15,297Z"/><path class="cls-2" d="M942.75,314.13c0,3,1.3,4,3.84,4a10.51,10.51,0,0,0,2.79-.42l.39,2.91a14.21,14.21,0,0,1-3.88.58c-4.58,0-6.64-2.29-6.64-6.75V302h-4.48v-3h4.48l.76-6.74h2.74V299h6.91v3h-6.91Z"/><path class="cls-2" d="M955.07,289.77h3.5v13h.19a8,8,0,0,1,7.47-4.44c4.6,0,7.26,2.64,7.26,7.76v14.59H970V307.33c0-4-1.59-5.74-4.82-5.74-3.76,0-6.59,2.89-6.59,7.22v11.91h-3.5Z"/><path class="cls-2" d="M982.81,311c.27,4.93,2.58,7.36,6.64,7.36,3.38,0,4.91-1.42,5.61-3.44l3.47.33c-.93,3.59-3.53,6.12-9,6.12-6.6,0-10.27-4.18-10.27-11.4,0-7.53,3.94-11.58,10-11.58s9.72,3.82,9.72,10.63v2Zm0-2.71h12.61c-.19-4.66-2.29-7-6.26-7C985.45,301.28,983.24,303.49,982.85,308.25Z"/><path class="cls-2" d="M1016.3,289.77h3.51v31h-3.51Z"/><path class="cls-2" d="M1027,293a2.42,2.42,0,0,1,4.83,0,2.42,2.42,0,0,1-4.83,0Zm.66,6h3.51v21.73h-3.51Z"/><path class="cls-2" d="M1039,299H1042l.5,3.82h.21a8.13,8.13,0,0,1,7.5-4.44c4.75,0,7.29,2.77,7.29,7.78v14.57H1054V307.18c0-3.75-1.55-5.59-4.81-5.59-3.79,0-6.6,2.89-6.6,7.24v11.89H1039Z"/><path class="cls-2" d="M1066.78,311c.26,4.93,2.58,7.36,6.64,7.36,3.38,0,4.91-1.42,5.61-3.44l3.47.33c-.93,3.59-3.53,6.12-9,6.12-6.6,0-10.27-4.18-10.27-11.4,0-7.53,3.94-11.58,10-11.58s9.72,3.82,9.72,10.63v2Zm0-2.71h12.6c-.18-4.66-2.29-7-6.25-7C1069.42,301.28,1067.21,303.49,1066.82,308.25Z"/><path class="cls-2" d="M1087.34,318.59a2.66,2.66,0,0,1,5.32,0,2.66,2.66,0,0,1-5.32,0Z"/><path class="cls-2" d="M1116.4,294.58h-9.55v-3.16h22.71v3.16H1120v26.14h-3.63Z"/><path class="cls-2" d="M1133.71,289.77h3.5v13h.19a8,8,0,0,1,7.47-4.44c4.6,0,7.26,2.64,7.26,7.76v14.59h-3.51V307.33c0-4-1.59-5.74-4.83-5.74-3.75,0-6.58,2.89-6.58,7.22v11.91h-3.5Z"/><path class="cls-2" d="M1161.45,311c.27,4.93,2.58,7.36,6.64,7.36,3.39,0,4.91-1.42,5.61-3.44l3.47.33c-.93,3.59-3.53,6.12-9,6.12-6.6,0-10.27-4.18-10.27-11.4,0-7.53,3.94-11.58,10-11.58s9.72,3.82,9.72,10.63v2Zm0-2.71h12.61c-.19-4.66-2.29-7-6.26-7C1164.09,301.28,1161.88,303.49,1161.49,308.25Z"/><path class="cls-2" d="M1194.94,299h2.93l.5,3.82h.21a6.42,6.42,0,0,1,6.27-4.44,9.68,9.68,0,0,1,2.22.27l-.37,3.32a8.62,8.62,0,0,0-2-.24c-3.53,0-6.21,2.8-6.21,7.09v11.91h-3.51Z"/><path class="cls-2" d="M1213.49,311c.27,4.93,2.58,7.36,6.64,7.36,3.38,0,4.91-1.42,5.61-3.44l3.47.33c-.93,3.59-3.53,6.12-9,6.12-6.6,0-10.27-4.18-10.27-11.4,0-7.53,3.94-11.58,10-11.58s9.72,3.82,9.72,10.63v2Zm0-2.71h12.6c-.18-4.66-2.29-7-6.25-7C1216.13,301.28,1213.92,303.49,1213.53,308.25Z"/><path class="cls-2" d="M1240.45,314.13c0,3,1.3,4,3.83,4a10.45,10.45,0,0,0,2.79-.42l.39,2.91a14.21,14.21,0,0,1-3.88.58c-4.58,0-6.64-2.29-6.64-6.75V302h-4.48v-3h4.48l.76-6.74h2.75V299h6.91v3h-6.91Z"/><path class="cls-2" d="M1252.35,313.56V299h3.5v13.54c0,3.79,1.53,5.65,4.56,5.65,3.57,0,6.42-2.93,6.42-7.3V299h3.5v21.73h-2.92l-.52-3.82h-.19a8,8,0,0,1-7.28,4.43C1254.88,321.33,1252.35,318.59,1252.35,313.56Z"/><path class="cls-2" d="M1278.19,299h2.93l.5,3.82h.2c1.16-2.83,3.24-4.44,6.27-4.44a9.77,9.77,0,0,1,2.23.27L1290,302a8.76,8.76,0,0,0-2-.24c-3.53,0-6.21,2.8-6.21,7.09v11.91h-3.51Z"/><path class="cls-2" d="M1294.88,299h2.93l.49,3.82h.21a8.15,8.15,0,0,1,7.51-4.44c4.74,0,7.28,2.77,7.28,7.78v14.57h-3.51V307.18c0-3.75-1.54-5.59-4.8-5.59-3.8,0-6.61,2.89-6.61,7.24v11.89h-3.5Z"/><path class="cls-2" d="M1329.9,314.71l3.47-.29c.39,2.79,2.26,4.05,5.79,4.05,3.16,0,5.08-1.28,5.08-3.51s-1.32-2.81-4-3.36l-2.86-.6c-4.29-.91-6.44-2.64-6.44-6.11,0-4.33,3-6.6,8-6.6,5.32,0,8.08,2.08,8.41,6.35l-3.46.29c-.25-2.62-1.82-3.75-5-3.75-3,0-4.58,1.11-4.58,3.38,0,1.9,1.14,2.75,3.76,3.3l3,.64c4.43,1,6.66,2.42,6.66,6.05,0,4.31-3.22,6.78-8.58,6.78C1333.14,321.33,1330.27,319,1329.9,314.71Z"/><path class="cls-2" d="M1350.55,299h3.79l5.49,18.05h.21l5.28-18.05h4.21l5.32,18.05h.23L1380.5,299H1384l-7,21.73h-4.39l-5.26-17.6h-.13l-5.26,17.6h-4.39Z"/><path class="cls-2" d="M1390.48,311c.27,4.93,2.58,7.36,6.64,7.36,3.38,0,4.91-1.42,5.61-3.44l3.47.33c-.93,3.59-3.53,6.12-9,6.12-6.6,0-10.27-4.18-10.27-11.4,0-7.53,3.94-11.58,10-11.58s9.72,3.82,9.72,10.63v2Zm0-2.71h12.6c-.18-4.66-2.29-7-6.25-7C1393.12,301.28,1390.91,303.49,1390.52,308.25Z"/><path class="cls-2" d="M1414.55,311c.27,4.93,2.58,7.36,6.64,7.36,3.39,0,4.91-1.42,5.61-3.44l3.47.33c-.93,3.59-3.53,6.12-9,6.12-6.6,0-10.27-4.18-10.27-11.4,0-7.53,3.94-11.58,10-11.58s9.72,3.82,9.72,10.63v2Zm0-2.71h12.61c-.19-4.66-2.29-7-6.26-7C1417.19,301.28,1415,303.49,1414.59,308.25Z"/><path class="cls-2" d="M1436.76,299h2.93l.5,3.82h.2a7.57,7.57,0,0,1,7.18-4.44c5.92,0,9.33,4.25,9.33,11.47s-3.41,11.49-9.45,11.49c-3.43,0-5.78-1.56-7-4.14h-.19v11.63h-3.51Zm16.55,10.85c0-5.65-2.17-8.41-6.52-8.41s-6.64,3.44-6.64,8.41,2.18,8.44,6.64,8.44S1453.31,315.52,1453.31,309.84Z"/><path class="cls-2" d="M1460.71,326.92a16.25,16.25,0,0,0,2.76-5.85,2.23,2.23,0,0,1-2.33-2.31,2.28,2.28,0,0,1,2.42-2.46c1.77,0,2.62,1.18,2.62,2.95,0,2.83-1.59,5.86-3.59,8.44Z"/><path class="cls-2" d="M79.68,400.76c0,3,1.3,4,3.84,4a10.54,10.54,0,0,0,2.79-.41l.39,2.91a14.21,14.21,0,0,1-3.88.58c-4.58,0-6.64-2.29-6.64-6.75V388.63H71.7v-3h4.48l.76-6.74h2.74v6.74H86.6v3H79.68Z"/><path class="cls-2" d="M92,376.4h3.5v13h.19a8,8,0,0,1,7.47-4.44c4.6,0,7.26,2.64,7.26,7.76v14.58h-3.51V394c0-4-1.59-5.74-4.82-5.74-3.76,0-6.59,2.89-6.59,7.22v11.9H92Z"/><path class="cls-2" d="M119.74,397.59c.27,4.93,2.58,7.36,6.64,7.36,3.39,0,4.91-1.42,5.61-3.44l3.47.33c-.93,3.58-3.53,6.12-9,6.12-6.6,0-10.27-4.19-10.27-11.41,0-7.53,3.94-11.57,10-11.57s9.71,3.82,9.71,10.63v2Zm0-2.71h12.61c-.19-4.66-2.29-7-6.25-7C122.38,387.91,120.17,390.12,119.78,394.88Z"/><path class="cls-2" d="M151.09,401.34l3.47-.29c.39,2.79,2.27,4,5.79,4,3.16,0,5.08-1.27,5.08-3.5s-1.32-2.81-4.05-3.36l-2.86-.6c-4.29-.91-6.44-2.64-6.44-6.11,0-4.33,3-6.6,8-6.6,5.32,0,8.08,2.08,8.41,6.35l-3.46.29c-.25-2.62-1.82-3.75-5-3.75-3,0-4.58,1.11-4.58,3.38,0,1.9,1.14,2.74,3.76,3.3l3,.64c4.44,1,6.66,2.41,6.66,6.05,0,4.31-3.22,6.78-8.58,6.78C154.33,408,151.46,405.67,151.09,401.34Z"/><path class="cls-2" d="M173,401.73c0-3.94,2.25-5.88,7.49-6.54l7.33-.95v-1.5c0-3.41-1.63-4.87-5.18-4.87s-4.85,1.53-5.28,4.13l-3.47-.31c.62-4.13,3.08-6.71,8.79-6.71s8.54,2.37,8.54,7.59v14.77h-2.93l-.37-3.4h-.21c-1.19,2.48-3.65,4-7.3,4C175.53,407.94,173,405.63,173,401.73Zm14.82-2.8v-2.09l-7.06,1c-3,.42-4.19,1.61-4.19,3.68,0,2.22,1.36,3.56,4.54,3.56C185.23,405.07,187.77,402.47,187.77,398.93Z"/><path class="cls-2" d="M196.9,396.47c0-7.2,3.71-11.47,10.07-11.47,5.55,0,8.7,2.72,9.28,7.47l-3.53.29c-.43-3.1-2.24-4.71-5.75-4.71-4.35,0-6.48,2.89-6.48,8.42s2.17,8.46,6.52,8.46c3.55,0,5.26-1.55,5.73-4.64l3.51.31c-.6,4.7-3.53,7.36-9.28,7.36C200.63,408,196.9,403.73,196.9,396.47Z"/><path class="cls-2" d="M220.48,396.47c0-7.2,3.71-11.47,10.06-11.47,5.55,0,8.71,2.72,9.29,7.47l-3.53.29c-.43-3.1-2.25-4.71-5.76-4.71-4.35,0-6.47,2.89-6.47,8.42s2.16,8.46,6.51,8.46c3.55,0,5.27-1.55,5.74-4.64l3.51.31c-.6,4.7-3.53,7.36-9.29,7.36C224.21,408,220.48,403.73,220.48,396.47Z"/><path class="cls-2" d="M243.45,401.73c0-3.94,2.25-5.88,7.49-6.54l7.33-.95v-1.5c0-3.41-1.63-4.87-5.18-4.87s-4.85,1.53-5.28,4.13l-3.47-.31c.62-4.13,3.07-6.71,8.79-6.71s8.54,2.37,8.54,7.59v14.77h-2.93l-.37-3.4h-.21c-1.19,2.48-3.65,4-7.3,4C246,407.94,243.45,405.63,243.45,401.73Zm14.82-2.8v-2.09l-7.06,1c-3,.42-4.19,1.61-4.19,3.68,0,2.22,1.36,3.56,4.54,3.56C255.73,405.07,258.27,402.47,258.27,398.93Z"/><path class="cls-2" d="M267.4,396.47c0-7.22,3.47-11.47,9.37-11.47,3.5,0,5.81,1.53,7.07,4.17H284V376.4h3.51v30.94h-2.93l-.5-3.81h-.21a7.53,7.53,0,0,1-7.26,4.43C270.82,408,267.4,403.73,267.4,396.47Zm16.75,0c0-5-2.12-8.44-6.79-8.44-4.14,0-6.37,2.77-6.37,8.44s2.23,8.42,6.4,8.42C282,404.91,284.15,401.48,284.15,396.49Z"/><path class="cls-2" d="M297.27,397.59c.27,4.93,2.58,7.36,6.64,7.36,3.38,0,4.91-1.42,5.61-3.44l3.47.33c-.93,3.58-3.53,6.12-9,6.12-6.6,0-10.27-4.19-10.27-11.41,0-7.53,3.94-11.57,10-11.57s9.72,3.82,9.72,10.63v2Zm0-2.71h12.6c-.18-4.66-2.29-7-6.25-7C299.91,387.91,297.7,390.12,297.31,394.88Z"/><path class="cls-2" d="M335.59,383.64v2h5.82v3h-5.82v18.71h-3.51V388.63H328v-3h4.08v-2.19c0-5.44,2.56-7.65,7-7.65a13.25,13.25,0,0,1,3.13.39l-.39,2.93a9.6,9.6,0,0,0-2.17-.25C336.68,378.85,335.59,380.15,335.59,383.64Z"/><path class="cls-2" d="M346.17,385.62h2.93l.49,3.82h.21C351,386.61,353,385,356.07,385a9.24,9.24,0,0,1,2.23.27l-.37,3.32a8.68,8.68,0,0,0-2-.25c-3.53,0-6.21,2.81-6.21,7.1v11.9h-3.51Z"/><path class="cls-2" d="M361.12,396.45c0-7.36,3.76-11.45,10.3-11.45s10.33,4.09,10.33,11.45S378,408,371.42,408,361.12,403.86,361.12,396.45Zm17,0c0-5.61-2.22-8.4-6.74-8.4s-6.71,2.79-6.71,8.4,2.21,8.48,6.71,8.48S378.16,402.08,378.16,396.45Z"/><path class="cls-2" d="M387.88,385.62h2.93l.49,3.82h.21a8,8,0,0,1,7.3-4.44c3.63,0,5.9,1.8,6.7,4.83h.19c1.51-2.77,3.86-4.83,7.61-4.83,4.54,0,7.08,2.77,7.08,7.78v14.56h-3.51V393.81c0-3.75-1.55-5.59-4.58-5.59-3.61,0-6.41,2.89-6.41,7.24v11.88h-3.51V393.81c0-3.75-1.55-5.59-4.6-5.59-3.59,0-6.4,2.89-6.4,7.24v11.88h-3.5Z"/><path class="cls-2" d="M439.13,385.62h2.93l.5,3.82h.2C443.92,386.61,446,385,449,385a9.24,9.24,0,0,1,2.23.27l-.37,3.32a8.61,8.61,0,0,0-2-.25c-3.53,0-6.21,2.81-6.21,7.1v11.9h-3.51Z"/><path class="cls-2" d="M455.16,379.58a2.41,2.41,0,0,1,4.82,0,2.41,2.41,0,0,1-4.82,0Zm.66,6h3.5v21.72h-3.5Z"/><path class="cls-2" d="M466.4,409.51l3.57-.37c.47,2.35,2,3.92,5.88,3.92,4.45,0,6.23-2.44,6.23-7.47v-2.83h-.21a7.3,7.3,0,0,1-7,4.36c-6.36,0-9.45-4.36-9.45-11.1s3.3-11,9.45-11a7.22,7.22,0,0,1,7.05,4.44h.21l.49-3.82h2.93v20c0,6.75-3,10.48-9.73,10.48C469.78,416.07,466.89,413.59,466.4,409.51ZM482.18,396c0-4.5-2.23-8-6.68-8-4.27,0-6.46,3-6.46,8,0,5.26,2.19,8.13,6.46,8.13S482.18,400.35,482.18,396Z"/><path class="cls-2" d="M493.46,376.4H497v13h.18a8,8,0,0,1,7.47-4.44c4.6,0,7.26,2.64,7.26,7.76v14.58h-3.5V394c0-4-1.59-5.74-4.83-5.74-3.76,0-6.58,2.89-6.58,7.22v11.9h-3.51Z"/><path class="cls-2" d="M524.09,400.76c0,3,1.3,4,3.84,4a10.4,10.4,0,0,0,2.78-.41l.39,2.91a14.14,14.14,0,0,1-3.87.58c-4.58,0-6.65-2.29-6.65-6.75V388.63h-4.47v-3h4.47l.77-6.74h2.74v6.74H531v3h-6.91Z"/><path class="cls-2" d="M552.43,400.76c0,3,1.3,4,3.84,4a10.4,10.4,0,0,0,2.78-.41l.39,2.91a14.14,14.14,0,0,1-3.87.58c-4.58,0-6.65-2.29-6.65-6.75V388.63h-4.47v-3h4.47l.77-6.74h2.74v6.74h6.91v3h-6.91Z"/><path class="cls-2" d="M562.6,396.45c0-7.36,3.75-11.45,10.29-11.45s10.34,4.09,10.34,11.45S579.45,408,572.89,408,562.6,403.86,562.6,396.45Zm17,0c0-5.61-2.23-8.4-6.75-8.4s-6.7,2.79-6.7,8.4,2.2,8.48,6.7,8.48S579.64,402.08,579.64,396.45Z"/><path class="cls-2" d="M600.63,376.4h3.51v30.94h-3.51Z"/><path class="cls-2" d="M613.85,397.59c.27,4.93,2.58,7.36,6.65,7.36,3.38,0,4.91-1.42,5.61-3.44l3.46.33c-.93,3.58-3.53,6.12-9,6.12-6.6,0-10.28-4.19-10.28-11.41,0-7.53,3.94-11.57,10-11.57S630,388.8,630,395.61v2Zm0-2.71H626.5c-.19-4.66-2.29-7-6.25-7C616.49,387.91,614.29,390.12,613.89,394.88Z"/><path class="cls-2" d="M640.89,383.64v2h5.82v3h-5.82v18.71h-3.5V388.63H633.3v-3h4.09v-2.19c0-5.44,2.55-7.65,7-7.65a13.41,13.41,0,0,1,3.14.39l-.4,2.93a9.5,9.5,0,0,0-2.16-.25C642,378.85,640.89,380.15,640.89,383.64Z"/><path class="cls-2" d="M656.22,400.76c0,3,1.3,4,3.84,4a10.4,10.4,0,0,0,2.78-.41l.39,2.91a14.15,14.15,0,0,1-3.88.58c-4.58,0-6.64-2.29-6.64-6.75V388.63h-4.48v-3h4.48l.76-6.74h2.75v6.74h6.91v3h-6.91Z"/><path class="cls-2" d="M667.27,413.55a16.48,16.48,0,0,0,2.77-5.86,2.22,2.22,0,0,1-2.33-2.31,2.27,2.27,0,0,1,2.41-2.45c1.77,0,2.62,1.17,2.62,2.95,0,2.83-1.59,5.86-3.59,8.44Z"/><path class="cls-2" d="M690.79,385.62h2.93l.49,3.82h.21a8,8,0,0,1,7.3-4.44c3.63,0,5.9,1.8,6.7,4.83h.19c1.51-2.77,3.86-4.83,7.61-4.83,4.54,0,7.08,2.77,7.08,7.78v14.56h-3.51V393.81c0-3.75-1.55-5.59-4.58-5.59-3.61,0-6.41,2.89-6.41,7.24v11.88h-3.51V393.81c0-3.75-1.55-5.59-4.6-5.59-3.59,0-6.4,2.89-6.4,7.24v11.88h-3.5Z"/><path class="cls-2" d="M728.88,401.73c0-3.94,2.25-5.88,7.49-6.54l7.32-.95v-1.5c0-3.41-1.63-4.87-5.17-4.87s-4.85,1.53-5.28,4.13l-3.47-.31c.62-4.13,3.07-6.71,8.79-6.71s8.54,2.37,8.54,7.59v14.77h-2.93l-.37-3.4h-.21c-1.19,2.48-3.65,4-7.3,4C731.46,407.94,728.88,405.63,728.88,401.73Zm14.81-2.8v-2.09l-7.05,1c-3,.42-4.19,1.61-4.19,3.68,0,2.22,1.36,3.56,4.54,3.56C741.16,405.07,743.69,402.47,743.69,398.93Z"/><path class="cls-2" d="M771.77,385.62l-7.9,21.72c-2,5.59-4.07,8.73-8.92,8.73a13.23,13.23,0,0,1-3.19-.41l.41-3a13.61,13.61,0,0,0,2.6.29c2.47,0,4.08-1.37,5.84-5.62h-1.36l-8.36-21.72h3.8l6.89,18.44h.18l6.36-18.44Z"/><path class="cls-2" d="M790.88,403.53h-.2l-.5,3.81h-2.93V376.4h3.51v12.77H791a7.17,7.17,0,0,1,7-4.17c6,0,9.45,4.25,9.45,11.49S804,408,798.06,408A7.54,7.54,0,0,1,790.88,403.53Zm12.92-7c0-5.67-2.17-8.44-6.52-8.44s-6.64,3.47-6.64,8.44,2.18,8.42,6.64,8.42S803.8,402.14,803.8,396.49Z"/><path class="cls-2" d="M815.39,397.59c.27,4.93,2.58,7.36,6.64,7.36,3.38,0,4.91-1.42,5.61-3.44l3.47.33c-.93,3.58-3.53,6.12-9,6.12-6.6,0-10.27-4.19-10.27-11.41,0-7.53,3.94-11.57,10-11.57s9.72,3.82,9.72,10.63v2Zm0-2.71H828c-.18-4.66-2.29-7-6.25-7C818,387.91,815.82,390.12,815.43,394.88Z"/><path class="cls-2" d="M848.22,379.58a2.42,2.42,0,1,1,2.42,2.35A2.15,2.15,0,0,1,848.22,379.58Zm.66,6h3.51v21.72h-3.51Z"/><path class="cls-2" d="M860.25,385.62h2.93l.49,3.82h.21a8.14,8.14,0,0,1,7.51-4.44c4.74,0,7.28,2.77,7.28,7.78v14.56h-3.51V393.81c0-3.75-1.54-5.59-4.8-5.59-3.8,0-6.61,2.89-6.61,7.24v11.88h-3.5Z"/><path class="cls-2" d="M884.26,401.73c0-3.94,2.24-5.88,7.48-6.54l7.33-.95v-1.5c0-3.41-1.63-4.87-5.18-4.87S889,389.4,888.61,392l-3.47-.31c.62-4.13,3.08-6.71,8.79-6.71s8.54,2.37,8.54,7.59v14.77h-2.93l-.37-3.4H899c-1.19,2.48-3.65,4-7.3,4C886.83,407.94,884.26,405.63,884.26,401.73Zm14.81-2.8v-2.09l-7.06,1c-3,.42-4.19,1.61-4.19,3.68,0,2.22,1.37,3.56,4.54,3.56C896.53,405.07,899.07,402.47,899.07,398.93Z"/><path class="cls-2" d="M908.2,396.47c0-7.2,3.72-11.47,10.07-11.47,5.55,0,8.71,2.72,9.28,7.47l-3.52.29c-.44-3.1-2.25-4.71-5.76-4.71-4.35,0-6.48,2.89-6.48,8.42s2.17,8.46,6.52,8.46c3.55,0,5.26-1.55,5.74-4.64l3.5.31C927,405.3,924,408,918.27,408,911.94,408,908.2,403.73,908.2,396.47Z"/><path class="cls-2" d="M931.78,396.47c0-7.2,3.71-11.47,10.06-11.47,5.55,0,8.71,2.72,9.29,7.47l-3.53.29c-.43-3.1-2.25-4.71-5.76-4.71-4.35,0-6.47,2.89-6.47,8.42s2.16,8.46,6.52,8.46c3.54,0,5.26-1.55,5.73-4.64l3.51.31c-.6,4.7-3.53,7.36-9.29,7.36C935.51,408,931.78,403.73,931.78,396.47Z"/><path class="cls-2" d="M956.67,400.19V385.62h3.51v13.53c0,3.8,1.53,5.66,4.56,5.66,3.57,0,6.42-2.93,6.42-7.31V385.62h3.5v21.72h-2.93l-.51-3.81H971a8,8,0,0,1-7.28,4.43C959.21,408,956.67,405.22,956.67,400.19Z"/><path class="cls-2" d="M982.52,385.62h2.93l.49,3.82h.21a6.43,6.43,0,0,1,6.27-4.44,9.24,9.24,0,0,1,2.23.27l-.37,3.32a8.71,8.71,0,0,0-2-.25c-3.52,0-6.21,2.81-6.21,7.1v11.9h-3.5Z"/><path class="cls-2" d="M997.33,401.73c0-3.94,2.25-5.88,7.49-6.54l7.32-.95v-1.5c0-3.41-1.63-4.87-5.18-4.87s-4.85,1.53-5.28,4.13l-3.47-.31c.62-4.13,3.08-6.71,8.79-6.71s8.54,2.37,8.54,7.59v14.77h-2.93l-.37-3.4h-.2c-1.2,2.48-3.66,4-7.31,4C999.91,407.94,997.33,405.63,997.33,401.73Zm14.81-2.8v-2.09l-7.06,1c-3,.42-4.18,1.61-4.18,3.68,0,2.22,1.36,3.56,4.53,3.56C1009.6,405.07,1012.14,402.47,1012.14,398.93Z"/><path class="cls-2" d="M1027.75,400.76c0,3,1.3,4,3.84,4a10.4,10.4,0,0,0,2.78-.41l.4,2.91a14.28,14.28,0,0,1-3.88.58c-4.58,0-6.65-2.29-6.65-6.75V388.63h-4.47v-3h4.47l.77-6.74h2.74v6.74h6.91v3h-6.91Z"/><path class="cls-2" d="M1041.51,397.59c.27,4.93,2.58,7.36,6.64,7.36,3.39,0,4.91-1.42,5.61-3.44l3.47.33c-.93,3.58-3.53,6.12-9,6.12-6.6,0-10.27-4.19-10.27-11.41,0-7.53,3.94-11.57,10-11.57s9.72,3.82,9.72,10.63v2Zm0-2.71h12.61c-.19-4.66-2.29-7-6.26-7C1044.15,387.91,1041.94,390.12,1041.55,394.88Z"/><path class="cls-2" d="M1073.13,401.73c0-3.94,2.25-5.88,7.49-6.54l7.32-.95v-1.5c0-3.41-1.63-4.87-5.18-4.87s-4.85,1.53-5.28,4.13l-3.47-.31c.62-4.13,3.08-6.71,8.79-6.71s8.54,2.37,8.54,7.59v14.77h-2.93l-.37-3.4h-.2c-1.2,2.48-3.66,4-7.31,4C1075.71,407.94,1073.13,405.63,1073.13,401.73Zm14.81-2.8v-2.09l-7.06,1c-3,.42-4.18,1.61-4.18,3.68,0,2.22,1.36,3.56,4.53,3.56C1085.4,405.07,1087.94,402.47,1087.94,398.93Z"/><path class="cls-2" d="M1098.81,385.62h2.93l.49,3.82h.21A8.14,8.14,0,0,1,1110,385c4.74,0,7.28,2.77,7.28,7.78v14.56h-3.51V393.81c0-3.75-1.55-5.59-4.8-5.59-3.8,0-6.61,2.89-6.61,7.24v11.88h-3.5Z"/><path class="cls-2" d="M1123,396.47c0-7.22,3.46-11.47,9.37-11.47,3.5,0,5.81,1.53,7.07,4.17h.19V376.4h3.5v30.94h-2.92l-.5-3.81h-.21a7.53,7.53,0,0,1-7.26,4.43C1126.38,408,1123,403.73,1123,396.47Zm16.75,0c0-5-2.12-8.44-6.79-8.44-4.14,0-6.37,2.77-6.37,8.44s2.23,8.42,6.39,8.42C1137.59,404.91,1139.71,401.48,1139.71,396.49Z"/><path class="cls-2" d="M1167.08,383.64v2h5.82v3h-5.82v18.71h-3.51V388.63h-4.08v-3h4.08v-2.19c0-5.44,2.56-7.65,7-7.65a13.27,13.27,0,0,1,3.14.39l-.39,2.93a9.6,9.6,0,0,0-2.17-.25C1168.17,378.85,1167.08,380.15,1167.08,383.64Z"/><path class="cls-2" d="M1175.72,396.45c0-7.36,3.75-11.45,10.29-11.45s10.34,4.09,10.34,11.45S1192.57,408,1186,408,1175.72,403.86,1175.72,396.45Zm17,0c0-5.61-2.23-8.4-6.75-8.4s-6.7,2.79-6.7,8.4,2.21,8.48,6.7,8.48S1192.76,402.08,1192.76,396.45Z"/><path class="cls-2" d="M1202.47,376.4H1206v30.94h-3.51Z"/><path class="cls-2" d="M1213.84,376.4h3.5v30.94h-3.5Z"/><path class="cls-2" d="M1223.47,396.45c0-7.36,3.75-11.45,10.29-11.45s10.34,4.09,10.34,11.45S1240.32,408,1233.76,408,1223.47,403.86,1223.47,396.45Zm17,0c0-5.61-2.23-8.4-6.75-8.4s-6.7,2.79-6.7,8.4,2.21,8.48,6.7,8.48S1240.51,402.08,1240.51,396.45Z"/><path class="cls-2" d="M1247,385.62h3.8l5.48,18.05h.21l5.28-18.05h4.21l5.32,18.05h.23l5.43-18.05h3.5l-7,21.72H1269l-5.26-17.59h-.12l-5.26,17.59H1254Z"/><path class="cls-2" d="M1286.89,397.59c.27,4.93,2.58,7.36,6.65,7.36,3.38,0,4.91-1.42,5.61-3.44l3.46.33c-.92,3.58-3.52,6.12-9,6.12-6.6,0-10.28-4.19-10.28-11.41,0-7.53,4-11.57,10-11.57s9.72,3.82,9.72,10.63v2Zm0-2.71h12.6c-.18-4.66-2.29-7-6.25-7C1289.54,387.91,1287.33,390.12,1286.94,394.88Z"/><path class="cls-2" d="M1307.37,396.47c0-7.22,3.47-11.47,9.37-11.47,3.51,0,5.82,1.53,7.08,4.17h.18V376.4h3.51v30.94h-2.93l-.5-3.81h-.2a7.54,7.54,0,0,1-7.26,4.43C1310.8,408,1307.37,403.73,1307.37,396.47Zm16.76,0c0-5-2.13-8.44-6.79-8.44-4.15,0-6.38,2.77-6.38,8.44s2.23,8.42,6.4,8.42C1322,404.91,1324.13,401.48,1324.13,396.49Z"/><path class="cls-2" d="M1350.3,403.53h-.21l-.49,3.81h-2.93V376.4h3.5v12.77h.19a7.19,7.19,0,0,1,7-4.17c6.05,0,9.45,4.25,9.45,11.49s-3.4,11.47-9.32,11.47A7.52,7.52,0,0,1,1350.3,403.53Zm12.91-7c0-5.67-2.16-8.44-6.52-8.44s-6.64,3.47-6.64,8.44,2.19,8.42,6.64,8.42S1363.21,402.14,1363.21,396.49Z"/><path class="cls-2" d="M1390.15,385.62l-7.9,21.72c-2,5.59-4.07,8.73-8.91,8.73a13.25,13.25,0,0,1-3.2-.41l.41-3a13.7,13.7,0,0,0,2.6.29c2.48,0,4.09-1.37,5.84-5.62h-1.36l-8.36-21.72h3.8l6.89,18.44h.18l6.36-18.44Z"/><path class="cls-2" d="M1403.76,401.73c0-3.94,2.25-5.88,7.49-6.54l7.32-.95v-1.5c0-3.41-1.63-4.87-5.18-4.87s-4.85,1.53-5.28,4.13l-3.46-.31c.61-4.13,3.07-6.71,8.78-6.71s8.54,2.37,8.54,7.59v14.77H1419l-.37-3.4h-.2c-1.2,2.48-3.65,4-7.31,4C1406.34,407.94,1403.76,405.63,1403.76,401.73Zm14.81-2.8v-2.09l-7,1c-3,.42-4.19,1.61-4.19,3.68,0,2.22,1.36,3.56,4.54,3.56C1416,405.07,1418.57,402.47,1418.57,398.93Z"/><path class="cls-2" d="M73.21,483.1c0-7.2,3.71-11.47,10.06-11.47,5.55,0,8.71,2.72,9.29,7.47l-3.53.29c-.43-3.1-2.25-4.71-5.76-4.71-4.35,0-6.47,2.89-6.47,8.42s2.16,8.46,6.52,8.46c3.54,0,5.26-1.55,5.73-4.64l3.51.31c-.6,4.7-3.53,7.36-9.29,7.36C76.94,494.59,73.21,490.36,73.21,483.1Z"/><path class="cls-2" d="M96.78,483.08c0-7.37,3.76-11.45,10.3-11.45s10.33,4.08,10.33,11.45-3.77,11.51-10.33,11.51S96.78,490.49,96.78,483.08Zm17,0c0-5.61-2.23-8.4-6.74-8.4s-6.71,2.79-6.71,8.4,2.21,8.48,6.71,8.48S113.82,488.71,113.82,483.08Z"/><path class="cls-2" d="M123.53,472.25h2.93l.5,3.82h.21a6.42,6.42,0,0,1,6.27-4.44,9.16,9.16,0,0,1,2.22.27l-.37,3.32a8.54,8.54,0,0,0-2-.25c-3.53,0-6.21,2.81-6.21,7.1V494h-3.51Z"/><path class="cls-2" d="M140.22,472.25h2.93l.5,3.82h.2c1.16-2.83,3.24-4.44,6.27-4.44a9.24,9.24,0,0,1,2.23.27l-.37,3.32a8.68,8.68,0,0,0-2-.25c-3.53,0-6.21,2.81-6.21,7.1V494h-3.51Z"/><path class="cls-2" d="M158.76,484.21c.27,4.94,2.58,7.37,6.65,7.37,3.38,0,4.91-1.42,5.61-3.45l3.46.33c-.92,3.59-3.52,6.13-9,6.13-6.6,0-10.28-4.19-10.28-11.41,0-7.53,3.94-11.57,10-11.57s9.72,3.82,9.72,10.62v2Zm.05-2.7h12.6c-.19-4.66-2.29-7-6.25-7C161.4,474.54,159.2,476.75,158.81,481.51Z"/><path class="cls-2" d="M179.24,483.1c0-7.2,3.72-11.47,10.07-11.47,5.55,0,8.71,2.72,9.29,7.47l-3.53.29c-.44-3.1-2.25-4.71-5.76-4.71-4.35,0-6.48,2.89-6.48,8.42s2.17,8.46,6.52,8.46c3.55,0,5.26-1.55,5.74-4.64l3.51.31c-.6,4.7-3.53,7.36-9.29,7.36C183,494.59,179.24,490.36,179.24,483.1Z"/><path class="cls-2" d="M209.3,487.39c0,3,1.3,4,3.83,4a10.41,10.41,0,0,0,2.79-.41l.39,2.91a14.15,14.15,0,0,1-3.88.58c-4.58,0-6.64-2.29-6.64-6.75V475.26h-4.48v-3h4.48l.76-6.75h2.75v6.75h6.91v3H209.3Z"/><path class="cls-2" d="M221,466.21a2.42,2.42,0,0,1,4.83,0,2.42,2.42,0,0,1-4.83,0Zm.66,6h3.51V494h-3.51Z"/><path class="cls-2" d="M229.3,472.25h3.8l6.68,18.13H240l6.56-18.13h3.65L241.93,494h-4.31Z"/><path class="cls-2" d="M256.24,484.21c.27,4.94,2.58,7.37,6.64,7.37,3.39,0,4.91-1.42,5.62-3.45l3.46.33c-.93,3.59-3.53,6.13-9,6.13-6.6,0-10.27-4.19-10.27-11.41,0-7.53,3.94-11.57,10-11.57s9.71,3.82,9.71,10.62v2Zm0-2.7h12.61c-.19-4.66-2.29-7-6.25-7C258.88,474.54,256.67,476.75,256.28,481.51Z"/><path class="cls-2" d="M287.59,488l3.47-.29c.39,2.79,2.27,4,5.79,4,3.16,0,5.08-1.27,5.08-3.5s-1.32-2.81-4.05-3.37l-2.86-.59c-4.29-.91-6.44-2.64-6.44-6.11,0-4.33,3-6.6,8.05-6.6,5.32,0,8.08,2.08,8.41,6.35l-3.46.29c-.25-2.62-1.82-3.75-5-3.75-3,0-4.58,1.11-4.58,3.38,0,1.9,1.13,2.74,3.75,3.3l2.95.64c4.44,1,6.66,2.41,6.66,6,0,4.32-3.21,6.79-8.58,6.79C290.83,494.59,288,492.3,287.59,488Z"/><path class="cls-2" d="M309.45,488.36c0-3.94,2.25-5.88,7.49-6.54l7.33-.95v-1.5c0-3.41-1.63-4.87-5.18-4.87s-4.85,1.52-5.28,4.12l-3.47-.31c.62-4.12,3.08-6.7,8.79-6.7s8.54,2.37,8.54,7.59V494h-2.93l-.37-3.4h-.21c-1.19,2.47-3.65,4-7.3,4C312,494.57,309.45,492.26,309.45,488.36Zm14.82-2.8v-2.09l-7.06,1c-3,.42-4.19,1.61-4.19,3.67,0,2.23,1.37,3.57,4.54,3.57C321.73,491.7,324.27,489.1,324.27,485.56Z"/><path class="cls-2" d="M333.4,483.1c0-7.2,3.72-11.47,10.07-11.47,5.55,0,8.7,2.72,9.28,7.47l-3.53.29c-.43-3.1-2.24-4.71-5.75-4.71-4.35,0-6.48,2.89-6.48,8.42s2.17,8.46,6.52,8.46c3.55,0,5.26-1.55,5.74-4.64l3.5.31c-.6,4.7-3.53,7.36-9.28,7.36C337.14,494.59,333.4,490.36,333.4,483.1Z"/><path class="cls-2" d="M357,483.1c0-7.2,3.71-11.47,10.06-11.47,5.55,0,8.71,2.72,9.29,7.47l-3.53.29c-.43-3.1-2.25-4.71-5.76-4.71-4.35,0-6.47,2.89-6.47,8.42s2.16,8.46,6.52,8.46c3.54,0,5.26-1.55,5.73-4.64l3.51.31c-.6,4.7-3.53,7.36-9.29,7.36C360.71,494.59,357,490.36,357,483.1Z"/><path class="cls-2" d="M380,488.36c0-3.94,2.25-5.88,7.49-6.54l7.33-.95v-1.5c0-3.41-1.63-4.87-5.18-4.87s-4.85,1.52-5.28,4.12l-3.47-.31c.62-4.12,3.08-6.7,8.79-6.7s8.54,2.37,8.54,7.59V494h-2.93l-.37-3.4h-.21c-1.19,2.47-3.65,4-7.3,4C382.53,494.57,380,492.26,380,488.36Zm14.82-2.8v-2.09l-7.06,1c-3,.42-4.19,1.61-4.19,3.67,0,2.23,1.36,3.57,4.54,3.57C392.23,491.7,394.77,489.1,394.77,485.56Z"/><path class="cls-2" d="M403.9,483.1c0-7.22,3.47-11.47,9.37-11.47,3.5,0,5.81,1.53,7.07,4.17h.19V463H424V494h-2.93l-.5-3.81h-.2a7.55,7.55,0,0,1-7.27,4.43C407.33,494.59,403.9,490.36,403.9,483.1Zm16.75,0c0-5-2.12-8.44-6.78-8.44-4.15,0-6.38,2.77-6.38,8.44s2.23,8.42,6.4,8.42C418.53,491.54,420.65,488.11,420.65,483.12Z"/><path class="cls-2" d="M433.77,484.21c.27,4.94,2.58,7.37,6.64,7.37,3.38,0,4.91-1.42,5.61-3.45l3.47.33c-.93,3.59-3.53,6.13-9,6.13-6.6,0-10.27-4.19-10.27-11.41,0-7.53,3.94-11.57,10-11.57s9.72,3.82,9.72,10.62v2Zm0-2.7h12.6c-.18-4.66-2.29-7-6.25-7C436.41,474.54,434.2,476.75,433.81,481.51Z"/><path class="cls-2" d="M454.33,491.85a2.66,2.66,0,0,1,5.32,0,2.66,2.66,0,0,1-5.32,0Z"/><circle class="cls-3" cx="234.59" cy="310.29" r="12.03"/><circle class="cls-3" cx="224.96" cy="483.55" r="12.03"/><path class="cls-4" d="M262.14,278l2.31-1"/><path class="cls-5" d="M269.15,275.3c148.51-50.9,900.13,19.51,954.19-35.84"/><path class="cls-4" d="M1224.92,237.52a9.8,9.8,0,0,0,1.08-2.24"/><polygon points="270.86 281.35 244.81 291.79 262.15 269.73 270.86 281.35"/><path class="cls-4" d="M186.26,364.52c.74-.33,1.51-.65,2.3-1"/><path class="cls-6" d="M193.24,361.77c154-54.46,959.35,18.6,1015.61-36.92"/><path class="cls-4" d="M1210.46,322.93a8.76,8.76,0,0,0,1.11-2.23"/><polygon points="194.99 367.8 169.01 378.42 186.2 356.24 194.99 367.8"/><path class="cls-4" d="M253.12,452c.75-.3,1.53-.59,2.33-.88"/><path class="cls-7" d="M260.18,449.55c163.51-51.79,1044.07,17.76,1103.22-38.12"/><path class="cls-4" d="M1365.05,409.55a8.28,8.28,0,0,0,1.12-2.22"/><polygon points="261.65 455.72 235.19 465.04 253.44 443.74 261.65 455.72"/><path class="cls-4" d="M182.85,212.37c40.29-31.51,117.43-36.53,163.06-12.67"/><polygon points="337.56 203.2 364.07 212.38 345.7 191.17 337.56 203.2"/><path class="cls-4" d="M379,212.37c40.16-31.42,107.9-36.5,151.18-12.89"/><polygon points="521.76 202.86 548.16 212.38 530.06 190.93 521.76 202.86"/><path class="cls-4" d="M566.66,212.37c40.16-31.42,107.91-36.5,151.19-12.89"/><polygon points="709.46 202.86 735.86 212.38 717.76 190.93 709.46 202.86"/><path class="cls-4" d="M758,212.37c40.16-31.42,107.9-36.5,151.18-12.89"/><polygon points="900.77 202.86 927.16 212.38 909.06 190.93 900.77 202.86"/><path class="cls-4" d="M946.87,212.37c39.62-31,74.4-36.36,108.58-13.82"/><polygon points="1046.93 201.38 1072.74 212.38 1055.89 189.95 1046.93 201.38"/><path class="cls-4" d="M1093.65,212.37c31-32.69,74-36.84,110.81-13.6"/><polygon points="1195.98 201.72 1221.94 212.38 1204.79 190.17 1195.98 201.72"/><path class="cls-4" d="M108.25,297.79c38.1-42,131-47.69,181.67-14.36"/><polygon points="281.29 286.07 306.78 297.8 290.57 274.9 281.29 286.07"/><path class="cls-4" d="M139.54,471c38-42,120.29-46.72,168.62-13.39"/><polygon points="299.51 460.15 324.82 472.25 308.95 449.12 299.51 460.15"/><path class="cls-4" d="M332,297.79c40.11-31.37,104.12-36.48,146.44-13"/><polygon points="470.08 288.14 496.42 297.8 478.44 276.26 470.08 288.14"/><path class="cls-4" d="M690.59,297.79c41.27-32.28,127.41-37.23,183.68-11"/><polygon points="866.29 290.85 893.47 297.8 873.41 278.19 866.29 290.85"/><path class="cls-4" d="M520.94,297.79c39.86-31.17,87.62-36.42,125.56-13.42"/><polygon points="638.05 287.44 664.12 297.8 646.73 275.79 638.05 287.44"/><path class="cls-4" d="M918,297.79c39.7-31.05,78.4-36.37,113.74-13.69"/><polygon points="1023.24 287 1049.14 297.8 1032.11 275.5 1023.24 287"/><path class="cls-4" d="M1067.18,297.79c39.8-31.12,83.92-36.4,120.84-13.53"/><polygon points="1179.55 287.26 1205.55 297.8 1188.3 275.67 1179.55 287.26"/><path class="cls-4" d="M167.21,385.62c40.15-31.4,107.31-36.49,150.45-12.9"/><polygon points="309.27 376.09 335.65 385.63 317.57 364.18 309.27 376.09"/><path class="cls-4" d="M360.92,385.62c19.32-19.9,48.71-25.38,74.49-12.69"/><polygon points="427.05 376.46 453.56 385.63 435.19 364.43 427.05 376.46"/><path class="cls-4" d="M477.63,385.62c37.28-30.67,86-36.27,124.31-13.36"/><polygon points="593.49 375.36 619.6 385.63 602.13 363.68 593.49 375.36"/><path class="cls-4" d="M644.87,385.62c40-31.27,96-36.45,136.22-13.19"/><polygon points="772.66 375.64 798.88 385.63 781.17 363.87 772.66 375.64"/><path class="cls-4" d="M824.14,385.62c32-27.48,75.28-35.36,112.09-13.38"/><polygon points="927.78 375.33 953.88 385.63 936.43 363.66 927.78 375.33"/><path class="cls-4" d="M1205.55,385.62c32.23-27.67,92.2-35.47,133.61-12.92"/><polygon points="1330.77 376.07 1357.15 385.63 1339.09 364.16 1330.77 376.07"/><path class="cls-4" d="M977,385.62c40.54-31.71,140-36.59,190.87-12.19"/><polygon points="1159.55 377.17 1186.3 385.63 1167.37 364.92 1159.55 377.17"/><path class="cls-3" d="M120.53,286c29.82-20.28,77-17.7,101.57,11.84"/><polygon class="cls-8" points="129.38 288.17 104.64 301.4 119.45 277.57 129.38 288.17"/><path class="cls-3" d="M151.19,458.63c23.52-15,50-9,66.1,10"/><polygon class="cls-8" points="159.94 461.15 134.72 473.46 150.4 450.19 159.94 461.15"/></svg>