<svg xmlns="http://www.w3.org/2000/svg" viewBox="0 0 1500 750"><defs><style>.cls-1{isolation:isolate;}.cls-2{fill:#fff;}.cls-3{mix-blend-mode:multiply;}.cls-4{fill:#ccc;}.cls-5{fill:none;stroke:#000;stroke-miterlimit:10;stroke-width:2.5px;}</style></defs><g class="cls-1"><g id="Layer_1" data-name="Layer 1"><rect class="cls-2" y="1" width="1500" height="750"/><circle cx="664.15" cy="358.29" r="4.81"/><g class="cls-3"><path class="cls-4" d="M62.78,362.75c0-3.94,2.25-5.88,7.49-6.54l7.32-.95v-1.51c0-3.4-1.63-4.86-5.18-4.86s-4.85,1.52-5.28,4.12l-3.47-.31c.62-4.12,3.08-6.7,8.79-6.7S81,348.37,81,353.59v14.77H78.06l-.37-3.4h-.2c-1.2,2.47-3.66,4-7.31,4C65.36,369,62.78,366.65,62.78,362.75Zm14.81-2.81v-2.08l-7.06,1c-3,.41-4.18,1.61-4.18,3.67,0,2.23,1.36,3.57,4.53,3.57C75.05,366.09,77.59,363.49,77.59,359.94Z"/><path class="cls-4" d="M88.46,346.64h2.93l.49,3.81h.21A6.43,6.43,0,0,1,98.36,346a9.24,9.24,0,0,1,2.23.27l-.37,3.32a8.21,8.21,0,0,0-2-.25c-3.52,0-6.21,2.81-6.21,7.1v11.9h-3.5Z"/><path class="cls-4" d="M107,358.6c.27,4.93,2.58,7.37,6.64,7.37,3.39,0,4.91-1.43,5.61-3.45l3.47.33c-.93,3.59-3.53,6.13-9,6.13-6.6,0-10.27-4.19-10.27-11.41,0-7.53,3.94-11.57,10-11.57s9.71,3.81,9.71,10.62v2Zm0-2.7h12.61c-.19-4.66-2.29-7-6.25-7C109.64,348.93,107.43,351.13,107,355.9Z"/><path class="cls-4" d="M138.35,362.36l3.47-.29c.39,2.78,2.27,4,5.79,4,3.16,0,5.08-1.28,5.08-3.51s-1.32-2.8-4.05-3.36l-2.86-.6c-4.29-.9-6.44-2.64-6.44-6.1,0-4.33,3-6.6,8-6.6,5.32,0,8.08,2.08,8.41,6.35l-3.46.29c-.25-2.62-1.82-3.76-5-3.76-3,0-4.58,1.12-4.58,3.39,0,1.89,1.13,2.74,3.75,3.3l2.95.64c4.44,1,6.66,2.41,6.66,6,0,4.31-3.21,6.79-8.58,6.79C141.59,369,138.72,366.69,138.35,362.36Z"/><path class="cls-4" d="M162.05,337.42h3.51v13h.18a8,8,0,0,1,7.47-4.43c4.6,0,7.26,2.64,7.26,7.75v14.59H177V355c0-4-1.58-5.73-4.82-5.73-3.76,0-6.58,2.88-6.58,7.22v11.9h-3.51Z"/><path class="cls-4" d="M186.2,357.47c0-7.37,3.76-11.45,10.3-11.45s10.33,4.08,10.33,11.45S203.06,369,196.5,369,186.2,364.87,186.2,357.47Zm17,0c0-5.61-2.23-8.4-6.74-8.4s-6.71,2.79-6.71,8.4S192,366,196.5,366,203.24,363.1,203.24,357.47Z"/><path class="cls-4" d="M213,346.64h2.92l.5,3.81h.21a6.42,6.42,0,0,1,6.27-4.43,9.31,9.31,0,0,1,2.23.27l-.38,3.32a8.05,8.05,0,0,0-2-.25c-3.53,0-6.21,2.81-6.21,7.1v11.9H213Z"/><path class="cls-4" d="M234.39,361.78c0,3,1.3,4,3.83,4a10.41,10.41,0,0,0,2.79-.41l.39,2.91a14.21,14.21,0,0,1-3.88.58c-4.58,0-6.64-2.29-6.64-6.75V349.65H226.4v-3h4.48l.76-6.75h2.75v6.75h6.91v3h-6.91Z"/><path class="cls-4" d="M248.14,358.6c.27,4.93,2.58,7.37,6.65,7.37,3.38,0,4.91-1.43,5.61-3.45l3.46.33c-.93,3.59-3.52,6.13-9,6.13-6.6,0-10.28-4.19-10.28-11.41,0-7.53,3.94-11.57,10-11.57s9.71,3.81,9.71,10.62v2Zm0-2.7h12.61c-.19-4.66-2.29-7-6.25-7C250.78,348.93,248.58,351.13,248.18,355.9Z"/><path class="cls-4" d="M270.36,346.64h2.93l.49,3.81H274a6.43,6.43,0,0,1,6.27-4.43,9.31,9.31,0,0,1,2.23.27l-.37,3.32a8.21,8.21,0,0,0-2.05-.25c-3.52,0-6.21,2.81-6.21,7.1v11.9h-3.5Z"/><path class="cls-4" d="M303.07,361.78c0,3,1.3,4,3.84,4a10.4,10.4,0,0,0,2.78-.41l.39,2.91a14.14,14.14,0,0,1-3.87.58c-4.58,0-6.65-2.29-6.65-6.75V349.65h-4.47v-3h4.47l.77-6.75h2.74v6.75H310v3h-6.91Z"/><path class="cls-4" d="M315.38,337.42h3.51v13h.19a8,8,0,0,1,7.46-4.43c4.6,0,7.27,2.64,7.27,7.75v14.59H330.3V355c0-4-1.59-5.73-4.83-5.73-3.75,0-6.58,2.88-6.58,7.22v11.9h-3.51Z"/><path class="cls-4" d="M339.39,362.75c0-3.94,2.25-5.88,7.49-6.54l7.32-.95v-1.51c0-3.4-1.63-4.86-5.17-4.86s-4.85,1.52-5.29,4.12l-3.46-.31c.62-4.12,3.07-6.7,8.79-6.7s8.54,2.37,8.54,7.59v14.77h-2.93l-.37-3.4h-.21c-1.2,2.47-3.65,4-7.3,4C342,369,339.39,366.65,339.39,362.75Zm14.81-2.81v-2.08l-7.05,1c-3,.41-4.19,1.61-4.19,3.67,0,2.23,1.36,3.57,4.54,3.57C351.67,366.09,354.2,363.49,354.2,359.94Z"/><path class="cls-4" d="M365.07,346.64H368l.5,3.81h.2a8.17,8.17,0,0,1,7.51-4.43c4.75,0,7.28,2.76,7.28,7.77v14.57H380V354.83c0-3.76-1.55-5.59-4.81-5.59-3.8,0-6.6,2.88-6.6,7.24v11.88h-3.51Z"/><path class="cls-4" d="M407,361.78c0,3,1.3,4,3.84,4a10.54,10.54,0,0,0,2.79-.41l.39,2.91a14.21,14.21,0,0,1-3.88.58c-4.58,0-6.64-2.29-6.64-6.75V349.65H399v-3h4.48l.76-6.75H407v6.75h6.92v3H407Z"/><path class="cls-4" d="M419.3,337.42h3.5v13H423a8,8,0,0,1,7.47-4.43c4.6,0,7.26,2.64,7.26,7.75v14.59h-3.51V355c0-4-1.59-5.73-4.83-5.73-3.75,0-6.58,2.88-6.58,7.22v11.9h-3.5Z"/><path class="cls-4" d="M447,358.6c.27,4.93,2.58,7.37,6.64,7.37,3.39,0,4.91-1.43,5.61-3.45l3.47.33c-.93,3.59-3.53,6.13-9,6.13-6.6,0-10.27-4.19-10.27-11.41,0-7.53,3.94-11.57,10-11.57s9.72,3.81,9.72,10.62v2Zm0-2.7h12.61c-.19-4.66-2.29-7-6.26-7C449.68,348.93,447.47,351.13,447.08,355.9Z"/><path class="cls-4" d="M478.39,362.36l3.47-.29c.39,2.78,2.26,4,5.79,4,3.16,0,5.08-1.28,5.08-3.51s-1.32-2.8-4.05-3.36l-2.86-.6c-4.29-.9-6.44-2.64-6.44-6.1,0-4.33,3-6.6,8.05-6.6,5.32,0,8.08,2.08,8.41,6.35l-3.46.29c-.25-2.62-1.82-3.76-5-3.76-3,0-4.58,1.12-4.58,3.39,0,1.89,1.14,2.74,3.76,3.3l2.95.64c4.43,1,6.66,2.41,6.66,6,0,4.31-3.22,6.79-8.58,6.79C481.63,369,478.76,366.69,478.39,362.36Z"/><path class="cls-4" d="M500.25,362.75c0-3.94,2.25-5.88,7.49-6.54l7.33-.95v-1.51c0-3.4-1.63-4.86-5.18-4.86s-4.85,1.52-5.28,4.12l-3.47-.31c.62-4.12,3.07-6.7,8.79-6.7s8.54,2.37,8.54,7.59v14.77h-2.93l-.37-3.4H515c-1.19,2.47-3.65,4-7.3,4C502.83,369,500.25,366.65,500.25,362.75Zm14.82-2.81v-2.08l-7.06,1c-3,.41-4.19,1.61-4.19,3.67,0,2.23,1.36,3.57,4.54,3.57C512.53,366.09,515.07,363.49,515.07,359.94Z"/><path class="cls-4" d="M524.2,357.49c0-7.2,3.71-11.47,10.07-11.47,5.55,0,8.7,2.72,9.28,7.47l-3.53.28c-.43-3.09-2.25-4.7-5.75-4.7-4.36,0-6.48,2.89-6.48,8.42S530,366,534.31,366c3.55,0,5.26-1.55,5.73-4.65l3.51.31c-.6,4.71-3.53,7.37-9.28,7.37C527.93,369,524.2,364.75,524.2,357.49Z"/><path class="cls-4" d="M547.78,357.49c0-7.2,3.71-11.47,10.06-11.47,5.55,0,8.71,2.72,9.29,7.47l-3.53.28c-.43-3.09-2.25-4.7-5.76-4.7-4.35,0-6.48,2.89-6.48,8.42s2.17,8.46,6.52,8.46c3.55,0,5.26-1.55,5.74-4.65l3.51.31c-.6,4.71-3.53,7.37-9.29,7.37C551.51,369,547.78,364.75,547.78,357.49Z"/><path class="cls-4" d="M570.75,362.75c0-3.94,2.25-5.88,7.49-6.54l7.33-.95v-1.51c0-3.4-1.63-4.86-5.18-4.86s-4.85,1.52-5.28,4.12l-3.47-.31c.62-4.12,3.07-6.7,8.79-6.7s8.54,2.37,8.54,7.59v14.77H586l-.37-3.4h-.21c-1.19,2.47-3.65,4-7.3,4C573.33,369,570.75,366.65,570.75,362.75Zm14.82-2.81v-2.08l-7.06,1c-3,.41-4.19,1.61-4.19,3.67,0,2.23,1.36,3.57,4.54,3.57C583,366.09,585.57,363.49,585.57,359.94Z"/><path class="cls-4" d="M594.7,357.49c0-7.22,3.47-11.47,9.37-11.47,3.5,0,5.81,1.52,7.07,4.17h.19V337.42h3.5v30.94H611.9l-.49-3.82h-.21a7.52,7.52,0,0,1-7.26,4.44C598.12,369,594.7,364.75,594.7,357.49Zm16.75,0c0-5-2.12-8.44-6.79-8.44-4.14,0-6.37,2.77-6.37,8.44s2.23,8.42,6.39,8.42C609.33,365.93,611.45,362.5,611.45,357.51Z"/><path class="cls-4" d="M624.57,358.6c.26,4.93,2.58,7.37,6.64,7.37,3.38,0,4.91-1.43,5.61-3.45l3.47.33c-.93,3.59-3.53,6.13-9,6.13-6.6,0-10.27-4.19-10.27-11.41C621,350,624.92,346,631,346s9.72,3.81,9.72,10.62v2Zm0-2.7h12.6c-.18-4.66-2.29-7-6.25-7C627.21,348.93,625,351.13,624.61,355.9Z"/><path class="cls-4" d="M656.18,362.75c0-3.94,2.25-5.88,7.49-6.54l7.33-.95v-1.51c0-3.4-1.63-4.86-5.18-4.86s-4.85,1.52-5.28,4.12l-3.47-.31c.62-4.12,3.08-6.7,8.79-6.7s8.54,2.37,8.54,7.59v14.77h-2.93l-.37-3.4h-.21c-1.19,2.47-3.65,4-7.3,4C658.76,369,656.18,366.65,656.18,362.75ZM671,359.94v-2.08l-7.06,1c-3,.41-4.19,1.61-4.19,3.67,0,2.23,1.37,3.57,4.54,3.57C668.46,366.09,671,363.49,671,359.94Z"/><path class="cls-4" d="M686.61,361.78c0,3,1.3,4,3.84,4a10.4,10.4,0,0,0,2.78-.41l.39,2.91a14.14,14.14,0,0,1-3.87.58c-4.58,0-6.65-2.29-6.65-6.75V349.65h-4.47v-3h4.47l.77-6.75h2.74v6.75h6.91v3h-6.91Z"/><path class="cls-4" d="M715,361.78c0,3,1.3,4,3.84,4a10.4,10.4,0,0,0,2.78-.41l.39,2.91a14.15,14.15,0,0,1-3.88.58c-4.57,0-6.64-2.29-6.64-6.75V349.65H707v-3h4.47l.77-6.75H715v6.75h6.91v3H715Z"/><path class="cls-4" d="M727.26,337.42h3.51v13H731a8,8,0,0,1,7.46-4.43c4.6,0,7.26,2.64,7.26,7.75v14.59h-3.5V355c0-4-1.59-5.73-4.83-5.73-3.75,0-6.58,2.88-6.58,7.22v11.9h-3.51Z"/><path class="cls-4" d="M755,358.6c.27,4.93,2.58,7.37,6.65,7.37,3.38,0,4.91-1.43,5.61-3.45l3.46.33c-.92,3.59-3.52,6.13-9,6.13-6.6,0-10.27-4.19-10.27-11.41,0-7.53,3.94-11.57,10-11.57s9.72,3.81,9.72,10.62v2Zm0-2.7h12.6c-.19-4.66-2.29-7-6.25-7C757.65,348.93,755.44,351.13,755.05,355.9Z"/><path class="cls-4" d="M790.36,358.6c.26,4.93,2.58,7.37,6.64,7.37,3.38,0,4.91-1.43,5.61-3.45l3.47.33c-.93,3.59-3.53,6.13-9,6.13-6.6,0-10.27-4.19-10.27-11.41,0-7.53,3.94-11.57,10-11.57s9.72,3.81,9.72,10.62v2Zm0-2.7H803c-.18-4.66-2.29-7-6.25-7C793,348.93,790.79,351.13,790.4,355.9Z"/><path class="cls-4" d="M812.57,346.64h2.93l.5,3.81h.2a8.17,8.17,0,0,1,7.51-4.43c4.75,0,7.28,2.76,7.28,7.77v14.57h-3.5V354.83c0-3.76-1.55-5.59-4.81-5.59-3.8,0-6.6,2.88-6.6,7.24v11.88h-3.51Z"/><path class="cls-4" d="M836.72,357.49c0-7.22,3.47-11.47,9.37-11.47,3.51,0,5.82,1.52,7.08,4.17h.18V337.42h3.51v30.94h-2.93l-.5-3.82h-.2A7.55,7.55,0,0,1,846,369C840.15,369,836.72,364.75,836.72,357.49Zm16.75,0c0-5-2.12-8.44-6.78-8.44-4.15,0-6.38,2.77-6.38,8.44s2.23,8.42,6.4,8.42C851.35,365.93,853.47,362.5,853.47,357.51Z"/><path class="cls-4" d="M874.28,357.47c0-7.37,3.76-11.45,10.3-11.45s10.33,4.08,10.33,11.45S891.14,369,884.58,369,874.28,364.87,874.28,357.47Zm17,0c0-5.61-2.23-8.4-6.74-8.4s-6.71,2.79-6.71,8.4,2.21,8.48,6.71,8.48S891.32,363.1,891.32,357.47Z"/><path class="cls-4" d="M905.86,344.66v2h5.82v3h-5.82v18.71h-3.51V349.65h-4.08v-3h4.08v-2.19c0-5.45,2.56-7.65,7-7.65a12.74,12.74,0,0,1,3.13.39l-.39,2.93a9,9,0,0,0-2.16-.25C907,339.87,905.86,341.17,905.86,344.66Z"/><path class="cls-4" d="M932.47,361.78c0,3,1.3,4,3.84,4a10.4,10.4,0,0,0,2.78-.41l.39,2.91a14.15,14.15,0,0,1-3.88.58c-4.58,0-6.64-2.29-6.64-6.75V349.65h-4.48v-3H929l.76-6.75h2.75v6.75h6.91v3h-6.91Z"/><path class="cls-4" d="M944.78,337.42h3.51v13h.18a8,8,0,0,1,7.47-4.43c4.6,0,7.27,2.64,7.27,7.75v14.59H959.7V355c0-4-1.59-5.73-4.83-5.73-3.75,0-6.58,2.88-6.58,7.22v11.9h-3.51Z"/><path class="cls-4" d="M972.52,358.6c.27,4.93,2.58,7.37,6.65,7.37,3.38,0,4.91-1.43,5.61-3.45l3.46.33c-.92,3.59-3.52,6.13-9,6.13-6.6,0-10.28-4.19-10.28-11.41,0-7.53,3.94-11.57,10-11.57s9.72,3.81,9.72,10.62v2Zm0-2.7h12.61c-.19-4.66-2.29-7-6.25-7C975.16,348.93,973,351.13,972.56,355.9Z"/><path class="cls-4" d="M1006,337.42h3.51v30.94H1006Z"/><path class="cls-4" d="M1016.72,340.59a2.42,2.42,0,0,1,4.83,0,2.42,2.42,0,0,1-4.83,0Zm.66,6.05h3.51v21.72h-3.51Z"/><path class="cls-4" d="M1028.75,346.64h2.93l.49,3.81h.21a8.16,8.16,0,0,1,7.51-4.43c4.74,0,7.28,2.76,7.28,7.77v14.57h-3.51V354.83c0-3.76-1.54-5.59-4.8-5.59-3.8,0-6.6,2.88-6.6,7.24v11.88h-3.51Z"/><path class="cls-4" d="M1056.49,358.6c.27,4.93,2.58,7.37,6.64,7.37,3.39,0,4.91-1.43,5.62-3.45l3.46.33c-.93,3.59-3.53,6.13-9,6.13-6.61,0-10.28-4.19-10.28-11.41,0-7.53,3.94-11.57,10-11.57s9.71,3.81,9.71,10.62v2Zm0-2.7h12.61c-.19-4.66-2.29-7-6.25-7C1059.13,348.93,1056.92,351.13,1056.53,355.9Z"/><path class="cls-4" d="M1077.05,366.24a2.67,2.67,0,0,1,5.33,0,2.67,2.67,0,0,1-5.33,0Z"/><path class="cls-4" d="M1106.12,342.22h-9.55v-3.15h22.71v3.15h-9.53v26.14h-3.63Z"/><path class="cls-4" d="M1123.42,337.42h3.51v13h.18a8,8,0,0,1,7.47-4.43c4.6,0,7.26,2.64,7.26,7.75v14.59h-3.5V355c0-4-1.59-5.73-4.83-5.73-3.76,0-6.58,2.88-6.58,7.22v11.9h-3.51Z"/><path class="cls-4" d="M1151.16,358.6c.27,4.93,2.58,7.37,6.65,7.37,3.38,0,4.91-1.43,5.61-3.45l3.46.33c-.92,3.59-3.52,6.13-9,6.13-6.6,0-10.28-4.19-10.28-11.41,0-7.53,3.94-11.57,10-11.57s9.72,3.81,9.72,10.62v2Zm0-2.7h12.6c-.19-4.66-2.29-7-6.25-7C1153.8,348.93,1151.6,351.13,1151.21,355.9Z"/><path class="cls-4" d="M1184.66,346.64h2.93l.49,3.81h.21a6.44,6.44,0,0,1,6.27-4.43,9.24,9.24,0,0,1,2.23.27l-.37,3.32a8.18,8.18,0,0,0-2-.25c-3.53,0-6.21,2.81-6.21,7.1v11.9h-3.51Z"/><path class="cls-4" d="M1203.2,358.6c.27,4.93,2.58,7.37,6.64,7.37,3.39,0,4.91-1.43,5.62-3.45l3.46.33c-.93,3.59-3.53,6.13-9,6.13-6.6,0-10.28-4.19-10.28-11.41,0-7.53,3.94-11.57,10-11.57s9.71,3.81,9.71,10.62v2Zm0-2.7h12.61c-.19-4.66-2.29-7-6.25-7C1205.84,348.93,1203.64,351.13,1203.24,355.9Z"/><path class="cls-4" d="M1230.16,361.78c0,3,1.3,4,3.84,4a10.4,10.4,0,0,0,2.78-.41l.39,2.91a14.14,14.14,0,0,1-3.87.58c-4.58,0-6.65-2.29-6.65-6.75V349.65h-4.47v-3h4.47l.77-6.75h2.74v6.75h6.91v3h-6.91Z"/><path class="cls-4" d="M1242.06,361.2V346.64h3.51v13.53c0,3.8,1.52,5.65,4.56,5.65,3.57,0,6.41-2.93,6.41-7.3V346.64h3.51v21.72h-2.93l-.51-3.82h-.19a8,8,0,0,1-7.28,4.44C1244.6,369,1242.06,366.24,1242.06,361.2Z"/><path class="cls-4" d="M1267.91,346.64h2.92l.5,3.81h.21a6.43,6.43,0,0,1,6.27-4.43,9.31,9.31,0,0,1,2.23.27l-.38,3.32a8.05,8.05,0,0,0-2-.25c-3.53,0-6.21,2.81-6.21,7.1v11.9h-3.5Z"/><path class="cls-4" d="M1284.59,346.64h2.93l.5,3.81h.2a8.17,8.17,0,0,1,7.51-4.43c4.75,0,7.29,2.76,7.29,7.77v14.57h-3.51V354.83c0-3.76-1.55-5.59-4.81-5.59-3.79,0-6.6,2.88-6.6,7.24v11.88h-3.51Z"/><path class="cls-4" d="M1319.61,362.36l3.47-.29c.39,2.78,2.27,4,5.8,4,3.15,0,5.07-1.28,5.07-3.51s-1.32-2.8-4-3.36l-2.87-.6c-4.29-.9-6.44-2.64-6.44-6.1,0-4.33,3-6.6,8.05-6.6,5.32,0,8.09,2.08,8.42,6.35l-3.47.29c-.25-2.62-1.81-3.76-5-3.76-3,0-4.58,1.12-4.58,3.39,0,1.89,1.13,2.74,3.75,3.3l3,.64c4.44,1,6.67,2.41,6.67,6,0,4.31-3.22,6.79-8.58,6.79C1322.85,369,1320,366.69,1319.61,362.36Z"/><path class="cls-4" d="M1340.26,346.64h3.8l5.48,18.05h.21l5.28-18.05h4.21l5.32,18.05h.23l5.43-18.05h3.5l-7,21.72h-4.4l-5.26-17.6h-.12l-5.26,17.6h-4.39Z"/><path class="cls-4" d="M1380.19,358.6c.27,4.93,2.58,7.37,6.65,7.37,3.38,0,4.91-1.43,5.61-3.45l3.46.33c-.92,3.59-3.52,6.13-9,6.13-6.6,0-10.28-4.19-10.28-11.41,0-7.53,3.94-11.57,10-11.57s9.72,3.81,9.72,10.62v2Zm0-2.7h12.61c-.19-4.66-2.29-7-6.25-7C1382.83,348.93,1380.63,351.13,1380.23,355.9Z"/><path class="cls-4" d="M1404.26,358.6c.27,4.93,2.58,7.37,6.65,7.37,3.38,0,4.91-1.43,5.61-3.45l3.46.33c-.92,3.59-3.52,6.13-9,6.13-6.6,0-10.28-4.19-10.28-11.41,0-7.53,3.94-11.57,10-11.57s9.72,3.81,9.72,10.62v2Zm0-2.7h12.61c-.19-4.66-2.29-7-6.25-7C1406.9,348.93,1404.7,351.13,1404.3,355.9Z"/><path class="cls-4" d="M1426.48,346.64h2.93l.49,3.81h.21a7.55,7.55,0,0,1,7.18-4.43c5.92,0,9.32,4.25,9.32,11.47s-3.4,11.49-9.45,11.49a7.2,7.2,0,0,1-7-4.15H1430v11.64h-3.5ZM1443,357.49c0-5.65-2.16-8.42-6.52-8.42s-6.64,3.45-6.64,8.42,2.19,8.44,6.64,8.44S1443,363.16,1443,357.49Z"/><path class="cls-4" d="M1450.42,374.57a16.31,16.31,0,0,0,2.77-5.86,2.23,2.23,0,0,1-2.33-2.31,2.27,2.27,0,0,1,2.41-2.45c1.77,0,2.62,1.17,2.62,2.95,0,2.82-1.59,5.85-3.59,8.43Z"/></g><circle class="cls-5" cx="664" cy="358" r="74.5"/><circle class="cls-5" cx="664" cy="358" r="304.5"/><path d="M626.12,388.2V389h3.07v2.3h-3.07v9.8h-2.86v-9.8h-2.12V389h2.12v-1.11c0-3.05,1.51-4.28,4.22-4.28a9.37,9.37,0,0,1,2.11.24l-.28,2.25a7.4,7.4,0,0,0-1.22-.11C626.67,386,626.12,386.63,626.12,388.2Z"/><path d="M631.18,385.48c0-1.12.7-1.64,1.8-1.64a1.65,1.65,0,1,1,0,3.3C631.88,387.14,631.18,386.6,631.18,385.48Zm.35,3.54h2.85v12.1h-2.85Z"/><path d="M640.74,395,636.81,389H640l2.77,4.26h.11l2.7-4.26h2.94l-4,6.05,4,6.05h-3.18l-2.9-4.33h-.12l-2.64,4.33h-3Z"/><path d="M649.69,397.9c0-2.19,1.22-3.34,4.19-3.69l4-.51v-.65c0-1.53-.72-2.23-2.37-2.23s-2.25.72-2.47,1.94l-2.78-.25c.39-2.44,1.74-3.87,5.3-3.87,3.33,0,5.1,1.38,5.1,4.36v8.12h-2.44l-.27-1.77h-.12a3.94,3.94,0,0,1-3.89,2.09C651.11,401.44,649.69,400.09,649.69,397.9Zm8.14-1.38v-.94l-3.33.46c-1.37.2-1.91.69-1.91,1.64s.62,1.65,2.14,1.65A2.77,2.77,0,0,0,657.83,396.52Z"/><path d="M667.7,397.06c0,1.49.58,2,1.89,2a6.18,6.18,0,0,0,1.39-.18l.28,2.22a9,9,0,0,1-2.43.35c-2.73,0-4-1.28-4-3.87v-6.24H662.6V389h2.26l.51-3.67h2.33V389h3.47v2.3H667.7Z"/><path d="M673.54,385.48c0-1.12.69-1.64,1.79-1.64a1.65,1.65,0,1,1,0,3.3C674.23,387.14,673.54,386.6,673.54,385.48Zm.34,3.54h2.86v12.1h-2.86Z"/><path d="M679.66,395.05c0-4.09,2.15-6.38,6.06-6.38s6.08,2.29,6.08,6.38-2.15,6.41-6.08,6.41S679.66,399.17,679.66,395.05Zm9.23,0c0-2.7-1-4.07-3.17-4.07s-3.14,1.37-3.14,4.07,1,4.1,3.14,4.1S688.89,397.76,688.89,395.05Z"/><path d="M694.71,389h2.47l.35,2.17h.11a4.34,4.34,0,0,1,4.11-2.52c2.74,0,4,1.6,4,4.36v8.09h-2.86V393.9c0-1.79-.69-2.7-2.25-2.7a3.07,3.07,0,0,0-3.1,3.35v6.57h-2.86Z"/><path d="M606.75,468.2V469h3.07v2.3h-3.07v9.8h-2.86v-9.8h-2.12V469h2.12v-1.11c0-3.05,1.51-4.28,4.22-4.28a9.44,9.44,0,0,1,2.11.24l-.28,2.25a7.54,7.54,0,0,0-1.23-.11C607.3,466,606.75,466.63,606.75,468.2Z"/><path d="M611.09,475.05c0-4.09,2.15-6.38,6.06-6.38s6.08,2.29,6.08,6.38-2.15,6.41-6.08,6.41S611.09,479.17,611.09,475.05Zm9.22,0c0-2.7-1-4.07-3.16-4.07s-3.14,1.37-3.14,4.07,1,4.1,3.14,4.1S620.31,477.76,620.31,475.05Z"/><path d="M624.27,469h3.11l3.2,9.38h.11L633.8,469h2.93l-4.42,12.1h-3.58Z"/><path d="M640.69,475.91c.2,2.25,1.24,3.32,3.13,3.32,1.55,0,2.31-.61,2.64-1.6l2.76.27c-.56,2.19-2.11,3.56-5.42,3.56-4,0-6-2.41-6-6.38,0-4.16,2.27-6.44,5.89-6.44s5.72,2.16,5.72,5.88v1.39Zm0-2h5.9c-.11-2.08-1-3.14-2.91-3.14S640.94,471.8,640.71,474Z"/><path d="M651.15,477.9c0-2.19,1.22-3.34,4.19-3.69l4-.51v-.65c0-1.53-.72-2.23-2.38-2.23s-2.25.72-2.47,1.94l-2.78-.25c.39-2.44,1.74-3.87,5.31-3.87,3.32,0,5.09,1.38,5.09,4.36v8.12h-2.44l-.26-1.77h-.13a3.94,3.94,0,0,1-3.89,2.09C652.58,481.44,651.15,480.09,651.15,477.9Zm8.15-1.38v-.94L656,476c-1.37.2-1.91.69-1.91,1.64s.62,1.65,2.14,1.65A2.78,2.78,0,0,0,659.3,476.52Z"/><path d="M665.71,464h2.86v17.14h-2.86Z"/><path d="M677.55,477.9c0-2.19,1.22-3.34,4.19-3.69l4-.51v-.65c0-1.53-.72-2.23-2.38-2.23s-2.25.72-2.47,1.94l-2.78-.25c.39-2.44,1.74-3.87,5.31-3.87,3.32,0,5.09,1.38,5.09,4.36v8.12H686l-.26-1.77h-.13a3.94,3.94,0,0,1-3.89,2.09C679,481.44,677.55,480.09,677.55,477.9Zm8.15-1.38v-.94l-3.34.46c-1.37.2-1.91.69-1.91,1.64s.62,1.65,2.14,1.65A2.78,2.78,0,0,0,685.7,476.52Z"/><path d="M692.11,469h2.47l.34,2.21h.13a3.28,3.28,0,0,1,3.3-2.56,6.07,6.07,0,0,1,1.24.14l-.28,2.66a5.05,5.05,0,0,0-1.12-.12,3.13,3.13,0,0,0-3.22,3.36v6.41h-2.86Z"/><path d="M703.78,475.91c.19,2.25,1.23,3.32,3.13,3.32,1.54,0,2.31-.61,2.64-1.6l2.75.27c-.56,2.19-2.1,3.56-5.41,3.56-4,0-6-2.41-6-6.38,0-4.16,2.28-6.44,5.9-6.44s5.71,2.16,5.71,5.88v1.39Zm0-2h5.9c-.12-2.08-1-3.14-2.92-3.14S704,471.8,703.8,474Z"/><path d="M714.23,477.9c0-2.19,1.23-3.34,4.2-3.69l4-.51v-.65c0-1.53-.72-2.23-2.37-2.23s-2.26.72-2.47,1.94l-2.78-.25c.39-2.44,1.74-3.87,5.3-3.87,3.33,0,5.1,1.38,5.1,4.36v8.12h-2.45l-.26-1.77h-.12a4,4,0,0,1-3.89,2.09C715.66,481.44,714.23,480.09,714.23,477.9Zm8.15-1.38v-.94l-3.33.46c-1.38.2-1.91.69-1.91,1.64s.61,1.65,2.13,1.65C721.29,479.33,722.38,478.11,722.38,476.52Z"/><path d="M577.26,699h2.47l.33,2.11h.12a4,4,0,0,1,3.91-2.46c3.18,0,5.07,2.39,5.07,6.4s-1.89,6.39-5.16,6.39a3.79,3.79,0,0,1-3.76-2.26h-.12v6.38h-2.86Zm9,6.05c0-2.73-1-4.07-3.1-4.07s-3.07,1.51-3.07,4.07,1,4.06,3.07,4.06S586.24,707.79,586.24,705.07Z"/><path d="M591.06,707.9c0-2.19,1.23-3.34,4.2-3.69l4-.51v-.65c0-1.53-.72-2.23-2.38-2.23s-2.25.72-2.46,1.94l-2.78-.25c.39-2.44,1.74-3.87,5.3-3.87,3.33,0,5.1,1.38,5.1,4.36v8.12h-2.45l-.26-1.77h-.12a4,4,0,0,1-3.89,2.09C592.49,711.44,591.06,710.09,591.06,707.9Zm8.15-1.38v-.94l-3.33.46c-1.38.2-1.91.69-1.91,1.64s.61,1.65,2.13,1.65C598.12,709.33,599.21,708.11,599.21,706.52Z"/><path d="M605.62,699h2.47l.34,2.21h.13a3.3,3.3,0,0,1,3.3-2.56,6.17,6.17,0,0,1,1.25.14l-.29,2.66a5,5,0,0,0-1.12-.12,3.13,3.13,0,0,0-3.22,3.36v6.41h-2.86Z"/><path d="M614.32,707.9c0-2.19,1.22-3.34,4.19-3.69l4-.51v-.65c0-1.53-.72-2.23-2.38-2.23s-2.25.72-2.47,1.94l-2.77-.25c.38-2.44,1.73-3.87,5.3-3.87,3.32,0,5.1,1.38,5.1,4.36v8.12H622.8l-.26-1.77h-.13a3.94,3.94,0,0,1-3.88,2.09C615.75,711.44,614.32,710.09,614.32,707.9Zm8.15-1.38v-.94l-3.34.46c-1.37.2-1.91.69-1.91,1.64s.62,1.65,2.14,1.65A2.78,2.78,0,0,0,622.47,706.52Z"/><path d="M632.56,698.2V699h3.07v2.3h-3.07v9.8H629.7v-9.8h-2.12V699h2.12v-1.11c0-3,1.51-4.28,4.22-4.28a9.37,9.37,0,0,1,2.11.24l-.28,2.25a7.4,7.4,0,0,0-1.22-.11C633.11,696,632.56,696.63,632.56,698.2Z"/><path d="M636.9,705.05c0-4.09,2.15-6.38,6.06-6.38S649,701,649,705.05s-2.15,6.41-6.08,6.41S636.9,709.17,636.9,705.05Zm9.23,0c0-2.7-1-4.07-3.17-4.07s-3.14,1.37-3.14,4.07,1,4.1,3.14,4.1S646.13,707.76,646.13,705.05Z"/><path d="M650.08,699h3.11l3.2,9.38h.11l3.11-9.38h2.93l-4.41,12.1h-3.59Z"/><path d="M666.5,705.91c.2,2.25,1.24,3.32,3.13,3.32,1.55,0,2.31-.61,2.65-1.6l2.75.27c-.56,2.19-2.1,3.56-5.42,3.56-4,0-6-2.41-6-6.38,0-4.16,2.27-6.44,5.9-6.44s5.71,2.16,5.71,5.88v1.39Zm0-1.95h5.89c-.11-2.08-1-3.14-2.91-3.14S666.75,701.8,666.53,704Z"/><path d="M677,707.9c0-2.19,1.22-3.34,4.19-3.69l4-.51v-.65c0-1.53-.72-2.23-2.38-2.23s-2.25.72-2.47,1.94l-2.77-.25c.38-2.44,1.73-3.87,5.3-3.87,3.32,0,5.1,1.38,5.1,4.36v8.12h-2.45l-.26-1.77h-.13a3.94,3.94,0,0,1-3.88,2.09C678.39,711.44,677,710.09,677,707.9Zm8.15-1.38v-.94l-3.34.46c-1.37.2-1.91.69-1.91,1.64s.62,1.65,2.14,1.65A2.78,2.78,0,0,0,685.11,706.52Z"/><path d="M691.52,694h2.86v17.14h-2.86Z"/><path d="M703.36,707.9c0-2.19,1.22-3.34,4.19-3.69l4-.51v-.65c0-1.53-.72-2.23-2.38-2.23s-2.25.72-2.47,1.94l-2.77-.25c.38-2.44,1.73-3.87,5.3-3.87,3.32,0,5.1,1.38,5.1,4.36v8.12h-2.45l-.26-1.77h-.13a3.94,3.94,0,0,1-3.88,2.09C704.79,711.44,703.36,710.09,703.36,707.9Zm8.15-1.38v-.94l-3.34.46c-1.37.2-1.91.69-1.91,1.64s.62,1.65,2.14,1.65A2.78,2.78,0,0,0,711.51,706.52Z"/><path d="M717.92,699h2.47l.34,2.21h.13a3.28,3.28,0,0,1,3.3-2.56,6.26,6.26,0,0,1,1.25.14l-.29,2.66a5,5,0,0,0-1.12-.12,3.13,3.13,0,0,0-3.22,3.36v6.41h-2.86Z"/><path d="M729.59,705.91c.19,2.25,1.23,3.32,3.13,3.32,1.54,0,2.31-.61,2.64-1.6l2.75.27c-.56,2.19-2.1,3.56-5.41,3.56-4,0-6-2.41-6-6.38,0-4.16,2.28-6.44,5.9-6.44s5.72,2.16,5.72,5.88v1.39Zm0-1.95h5.9c-.12-2.08-1-3.14-2.92-3.14S729.84,701.8,729.61,704Z"/><path d="M740.05,707.9c0-2.19,1.22-3.34,4.19-3.69l4-.51v-.65c0-1.53-.72-2.23-2.37-2.23s-2.25.72-2.47,1.94l-2.78-.25c.39-2.44,1.74-3.87,5.31-3.87,3.32,0,5.09,1.38,5.09,4.36v8.12h-2.44l-.27-1.77h-.12a3.94,3.94,0,0,1-3.89,2.09C741.47,711.44,740.05,710.09,740.05,707.9Zm8.14-1.38v-.94l-3.33.46c-1.37.2-1.91.69-1.91,1.64s.62,1.65,2.14,1.65A2.77,2.77,0,0,0,748.19,706.52Z"/><line class="cls-5" x1="664.5" y1="378" x2="664.5" y2="363"/><line class="cls-5" x1="664.5" y1="433" x2="664.5" y2="458"/><line class="cls-5" x1="664.5" y1="663" x2="664.5" y2="688"/></g></g></svg>