<svg id="Layer_1" data-name="Layer 1" xmlns="http://www.w3.org/2000/svg" viewBox="0 0 1500 750"><defs><style>.cls-1{fill:#fff;}.cls-2{fill:#ccc;}.cls-3,.cls-4,.cls-5,.cls-6,.cls-7{fill:none;stroke-miterlimit:10;stroke-width:2.5px;}.cls-3{stroke:#ed1c24;}.cls-4,.cls-5,.cls-6,.cls-7{stroke:#000;}.cls-5{stroke-dasharray:5.01 5.01;}.cls-6{stroke-dasharray:5.01 5.01;}.cls-7{stroke-dasharray:5 5;}.cls-8{fill:#ed1c24;}</style></defs><rect class="cls-1" width="1500" height="750"/><path class="cls-2" d="M60.76,208H51.21v-3.16H73.92V208H64.39v26.14H60.76Z"/><path class="cls-2" d="M78.06,203.14h3.51v13h.18a8,8,0,0,1,7.47-4.44c4.6,0,7.26,2.64,7.26,7.76v14.59H93V220.7c0-4-1.59-5.74-4.83-5.74-3.76,0-6.58,2.89-6.58,7.22v11.91H78.06Z"/><path class="cls-2" d="M105.8,224.33c.27,4.93,2.58,7.36,6.65,7.36,3.38,0,4.91-1.42,5.61-3.44l3.46.33c-.92,3.59-3.52,6.13-9,6.13-6.6,0-10.28-4.19-10.28-11.41,0-7.53,3.94-11.58,10-11.58s9.72,3.82,9.72,10.63v2Zm0-2.7h12.6c-.19-4.67-2.29-7-6.25-7C108.44,214.65,106.24,216.86,105.85,221.63Z"/><path class="cls-2" d="M137.15,228.08l3.47-.29c.39,2.79,2.27,4.05,5.8,4.05,3.15,0,5.07-1.28,5.07-3.51s-1.32-2.81-4-3.36l-2.87-.6c-4.29-.91-6.44-2.64-6.44-6.11,0-4.33,3-6.6,8.05-6.6,5.32,0,8.09,2.09,8.42,6.36l-3.47.28c-.25-2.62-1.81-3.75-5-3.75-3,0-4.58,1.11-4.58,3.38,0,1.9,1.13,2.75,3.75,3.3l3,.64c4.44,1,6.67,2.42,6.67,6,0,4.31-3.22,6.79-8.59,6.79C140.39,234.71,137.53,232.42,137.15,228.08Z"/><path class="cls-2" d="M159,228.48c0-3.95,2.25-5.88,7.49-6.54l7.32-.95v-1.51c0-3.4-1.63-4.87-5.18-4.87s-4.85,1.53-5.28,4.13l-3.46-.31c.61-4.13,3.07-6.71,8.78-6.71s8.54,2.38,8.54,7.6v14.77H174.3l-.37-3.41h-.2c-1.2,2.48-3.65,4-7.31,4C161.6,234.68,159,232.37,159,228.48Zm14.81-2.81v-2.08l-7.06,1c-3,.41-4.18,1.61-4.18,3.67,0,2.23,1.36,3.57,4.54,3.57C171.29,231.82,173.83,229.22,173.83,225.67Z"/><path class="cls-2" d="M183,223.21c0-7.2,3.72-11.47,10.07-11.47,5.55,0,8.71,2.73,9.29,7.47l-3.53.29c-.44-3.09-2.25-4.7-5.76-4.7-4.35,0-6.48,2.89-6.48,8.41s2.17,8.46,6.52,8.46c3.55,0,5.26-1.54,5.74-4.64l3.51.31c-.6,4.7-3.53,7.37-9.29,7.37C186.7,234.71,183,230.48,183,223.21Z"/><path class="cls-2" d="M206.54,223.21c0-7.2,3.71-11.47,10.07-11.47,5.55,0,8.7,2.73,9.28,7.47l-3.53.29c-.43-3.09-2.25-4.7-5.75-4.7-4.36,0-6.48,2.89-6.48,8.41s2.17,8.46,6.52,8.46c3.55,0,5.26-1.54,5.73-4.64l3.51.31c-.6,4.7-3.53,7.37-9.28,7.37C210.27,234.71,206.54,230.48,206.54,223.21Z"/><path class="cls-2" d="M229.52,228.48c0-3.95,2.25-5.88,7.49-6.54l7.32-.95v-1.51c0-3.4-1.63-4.87-5.18-4.87s-4.85,1.53-5.28,4.13l-3.47-.31c.62-4.13,3.08-6.71,8.79-6.71s8.54,2.38,8.54,7.6v14.77H244.8l-.37-3.41h-.2c-1.2,2.48-3.65,4-7.31,4C232.1,234.68,229.52,232.37,229.52,228.48Zm14.81-2.81v-2.08l-7.06,1c-3,.41-4.18,1.61-4.18,3.67,0,2.23,1.36,3.57,4.53,3.57C241.79,231.82,244.33,229.22,244.33,225.67Z"/><path class="cls-2" d="M253.46,223.21c0-7.22,3.47-11.47,9.37-11.47,3.51,0,5.82,1.53,7.08,4.17h.18V203.14h3.51v31h-2.93l-.5-3.82H270a7.53,7.53,0,0,1-7.26,4.44C256.89,234.71,253.46,230.48,253.46,223.21Zm16.76,0c0-5-2.13-8.44-6.79-8.44-4.15,0-6.38,2.76-6.38,8.44s2.23,8.41,6.4,8.41C268.09,231.65,270.22,228.23,270.22,223.24Z"/><path class="cls-2" d="M283.33,224.33c.27,4.93,2.58,7.36,6.64,7.36,3.39,0,4.91-1.42,5.62-3.44l3.46.33c-.93,3.59-3.53,6.13-9,6.13-6.61,0-10.28-4.19-10.28-11.41,0-7.53,3.94-11.58,10-11.58s9.71,3.82,9.71,10.63v2Zm0-2.7H296c-.19-4.67-2.29-7-6.25-7C286,214.65,283.76,216.86,283.37,221.63Z"/><path class="cls-2" d="M303.4,228.08l3.47-.29c.39,2.79,2.26,4.05,5.79,4.05,3.16,0,5.08-1.28,5.08-3.51s-1.32-2.81-4.05-3.36l-2.86-.6c-4.29-.91-6.44-2.64-6.44-6.11,0-4.33,3-6.6,8.05-6.6,5.32,0,8.08,2.09,8.41,6.36l-3.46.28c-.25-2.62-1.82-3.75-5-3.75-3,0-4.58,1.11-4.58,3.38,0,1.9,1.14,2.75,3.76,3.3l2.95.64c4.43,1,6.66,2.42,6.66,6,0,4.31-3.22,6.79-8.58,6.79C306.64,234.71,303.77,232.42,303.4,228.08Z"/><path class="cls-2" d="M335.33,212.36h3.79l5.49,18h.21l5.28-18h4.21l5.32,18h.23l5.42-18h3.51l-7,21.73h-4.39l-5.26-17.6H352l-5.26,17.6h-4.4Z"/><path class="cls-2" d="M375.26,224.33c.27,4.93,2.58,7.36,6.64,7.36,3.39,0,4.91-1.42,5.61-3.44l3.47.33c-.93,3.59-3.53,6.13-9,6.13-6.6,0-10.27-4.19-10.27-11.41,0-7.53,3.94-11.58,10-11.58s9.71,3.82,9.71,10.63v2Zm0-2.7h12.61c-.19-4.67-2.29-7-6.25-7C377.9,214.65,375.69,216.86,375.3,221.63Z"/><path class="cls-2" d="M408.76,212.36h2.93l.49,3.82h.21a8,8,0,0,1,7.3-4.44c3.63,0,5.9,1.8,6.7,4.83h.19c1.51-2.76,3.86-4.83,7.61-4.83,4.54,0,7.08,2.77,7.08,7.78v14.57h-3.51V220.55c0-3.75-1.55-5.59-4.58-5.59-3.61,0-6.41,2.89-6.41,7.24v11.89h-3.51V220.55c0-3.75-1.55-5.59-4.6-5.59-3.59,0-6.4,2.89-6.4,7.24v11.89h-3.5Z"/><path class="cls-2" d="M446.85,228.48c0-3.95,2.25-5.88,7.49-6.54l7.32-.95v-1.51c0-3.4-1.63-4.87-5.17-4.87s-4.85,1.53-5.28,4.13l-3.47-.31c.62-4.13,3.07-6.71,8.79-6.71s8.54,2.38,8.54,7.6v14.77h-2.93l-.37-3.41h-.21c-1.2,2.48-3.65,4-7.3,4C449.43,234.68,446.85,232.37,446.85,228.48Zm14.81-2.81v-2.08l-7.05,1c-3,.41-4.19,1.61-4.19,3.67,0,2.23,1.36,3.57,4.54,3.57C459.13,231.82,461.66,229.22,461.66,225.67Z"/><path class="cls-2" d="M479.38,222.6l11,11.49H486l-9.84-10.22H476v10.22h-3.51v-31H476v18.47h.16l9.47-9.25H490Z"/><path class="cls-2" d="M495.9,224.33c.27,4.93,2.58,7.36,6.64,7.36,3.39,0,4.91-1.42,5.62-3.44l3.46.33c-.93,3.59-3.53,6.13-9,6.13-6.61,0-10.28-4.19-10.28-11.41,0-7.53,3.94-11.58,10-11.58s9.71,3.82,9.71,10.63v2Zm0-2.7h12.61c-.19-4.67-2.29-7-6.25-7C498.54,214.65,496.33,216.86,495.94,221.63Z"/><path class="cls-2" d="M527.52,228.48c0-3.95,2.25-5.88,7.49-6.54l7.32-.95v-1.51c0-3.4-1.63-4.87-5.18-4.87s-4.84,1.53-5.28,4.13l-3.46-.31c.62-4.13,3.07-6.71,8.79-6.71s8.54,2.38,8.54,7.6v14.77h-2.93l-.37-3.41h-.21c-1.2,2.48-3.65,4-7.3,4C530.1,234.68,527.52,232.37,527.52,228.48Zm14.81-2.81v-2.08l-7.05,1c-3,.41-4.19,1.61-4.19,3.67,0,2.23,1.36,3.57,4.54,3.57C539.79,231.82,542.33,229.22,542.33,225.67Z"/><path class="cls-2" d="M550.44,228.08l3.46-.29c.39,2.79,2.27,4.05,5.8,4.05,3.15,0,5.07-1.28,5.07-3.51s-1.32-2.81-4-3.36l-2.87-.6c-4.29-.91-6.43-2.64-6.43-6.11,0-4.33,3-6.6,8-6.6,5.32,0,8.09,2.09,8.42,6.36l-3.47.28c-.24-2.62-1.81-3.75-5-3.75-3,0-4.58,1.11-4.58,3.38,0,1.9,1.14,2.75,3.76,3.3l2.95.64c4.43,1,6.66,2.42,6.66,6,0,4.31-3.22,6.79-8.58,6.79C553.67,234.71,550.81,232.42,550.44,228.08Z"/><path class="cls-2" d="M582.36,212.36h3.8l5.49,18h.2l5.28-18h4.21l5.33,18h.22l5.43-18h3.51l-7,21.73h-4.39l-5.26-17.6H599l-5.26,17.6h-4.39Z"/><path class="cls-2" d="M622.3,224.33c.27,4.93,2.58,7.36,6.64,7.36,3.38,0,4.91-1.42,5.61-3.44l3.47.33c-.93,3.59-3.53,6.13-9,6.13-6.6,0-10.27-4.19-10.27-11.41,0-7.53,3.94-11.58,10-11.58s9.72,3.82,9.72,10.63v2Zm0-2.7h12.6c-.18-4.67-2.29-7-6.25-7C624.94,214.65,622.73,216.86,622.34,221.63Z"/><path class="cls-2" d="M655.79,212.36h2.93l.5,3.82h.2c1.16-2.83,3.24-4.44,6.27-4.44a9.7,9.7,0,0,1,2.23.27l-.37,3.32a8.69,8.69,0,0,0-2-.24c-3.53,0-6.21,2.8-6.21,7.09v11.91h-3.51Z"/><path class="cls-2" d="M674.34,224.33c.26,4.93,2.57,7.36,6.64,7.36,3.38,0,4.91-1.42,5.61-3.44l3.47.33c-.93,3.59-3.53,6.13-9,6.13-6.6,0-10.27-4.19-10.27-11.41,0-7.53,3.94-11.58,10-11.58s9.72,3.82,9.72,10.63v2Zm0-2.7H687c-.18-4.67-2.29-7-6.25-7C677,214.65,674.77,216.86,674.38,221.63Z"/><path class="cls-2" d="M694.34,228.48c0-3.95,2.25-5.88,7.49-6.54l7.32-.95v-1.51c0-3.4-1.63-4.87-5.17-4.87s-4.85,1.53-5.28,4.13l-3.47-.31c.62-4.13,3.07-6.71,8.79-6.71s8.54,2.38,8.54,7.6v14.77h-2.93l-.37-3.41h-.21c-1.2,2.48-3.65,4-7.3,4C696.92,234.68,694.34,232.37,694.34,228.48Zm14.81-2.81v-2.08l-7,1c-3,.41-4.19,1.61-4.19,3.67,0,2.23,1.36,3.57,4.54,3.57C706.62,231.82,709.15,229.22,709.15,225.67Z"/><path class="cls-2" d="M718.29,223.21c0-7.22,3.46-11.47,9.36-11.47,3.51,0,5.82,1.53,7.08,4.17h.19V203.14h3.5v31h-2.93l-.49-3.82h-.21a7.52,7.52,0,0,1-7.26,4.44C721.71,234.71,718.29,230.48,718.29,223.21Zm16.75,0c0-5-2.12-8.44-6.79-8.44-4.14,0-6.37,2.76-6.37,8.44s2.23,8.41,6.39,8.41C732.92,231.65,735,228.23,735,223.24Z"/><path class="cls-2" d="M755.7,228.48c0-3.95,2.25-5.88,7.49-6.54l7.33-.95v-1.51c0-3.4-1.63-4.87-5.18-4.87s-4.85,1.53-5.28,4.13l-3.47-.31c.62-4.13,3.07-6.71,8.79-6.71s8.54,2.38,8.54,7.6v14.77H771l-.37-3.41h-.21c-1.19,2.48-3.65,4-7.3,4C758.28,234.68,755.7,232.37,755.7,228.48Zm14.82-2.81v-2.08l-7.06,1c-3,.41-4.19,1.61-4.19,3.67,0,2.23,1.36,3.57,4.54,3.57C768,231.82,770.52,229.22,770.52,225.67Z"/><path class="cls-2" d="M781.38,203.14h3.51v31h-3.51Z"/><path class="cls-2" d="M791,223.19c0-7.36,3.76-11.45,10.3-11.45s10.33,4.09,10.33,11.45-3.77,11.52-10.33,11.52S791,230.6,791,223.19Zm17,0c0-5.61-2.23-8.39-6.75-8.39s-6.71,2.78-6.71,8.39,2.21,8.48,6.71,8.48S808.06,228.83,808.06,223.19Z"/><path class="cls-2" d="M817.77,212.36h2.93l.49,3.82h.21a8.14,8.14,0,0,1,7.51-4.44c4.74,0,7.28,2.77,7.28,7.78v14.57h-3.51V220.55c0-3.75-1.54-5.59-4.8-5.59-3.8,0-6.61,2.89-6.61,7.24v11.89h-3.5Z"/><path class="cls-2" d="M842.87,236.25l3.57-.37c.47,2.35,2,3.92,5.88,3.92,4.45,0,6.23-2.43,6.23-7.47v-2.82h-.21a7.29,7.29,0,0,1-7,4.35c-6.36,0-9.45-4.35-9.45-11.1,0-6.6,3.3-11,9.45-11a7.22,7.22,0,0,1,7,4.44h.21l.5-3.82h2.92v20c0,6.75-3,10.48-9.73,10.48C846.25,242.81,843.36,240.34,842.87,236.25Zm15.78-13.49c0-4.5-2.23-8-6.68-8-4.27,0-6.46,3-6.46,8,0,5.26,2.19,8.13,6.46,8.13S858.65,227.09,858.65,222.76Z"/><path class="cls-2" d="M879.33,228.48c0-3.95,2.25-5.88,7.49-6.54l7.33-.95v-1.51c0-3.4-1.63-4.87-5.18-4.87s-4.85,1.53-5.28,4.13l-3.47-.31c.62-4.13,3.07-6.71,8.79-6.71s8.54,2.38,8.54,7.6v14.77h-2.93l-.37-3.41H894c-1.19,2.48-3.65,4-7.3,4C881.91,234.68,879.33,232.37,879.33,228.48Zm14.82-2.81v-2.08l-7.06,1c-3,.41-4.19,1.61-4.19,3.67,0,2.23,1.36,3.57,4.54,3.57C891.61,231.82,894.15,229.22,894.15,225.67Z"/><path class="cls-2" d="M916.3,203.14h3.5v31h-3.5Z"/><path class="cls-2" d="M927,206.32a2.42,2.42,0,0,1,4.83,0,2.42,2.42,0,0,1-4.83,0Zm.66,6h3.51v21.73h-3.51Z"/><path class="cls-2" d="M939,212.36H942l.49,3.82h.21a8.14,8.14,0,0,1,7.51-4.44c4.74,0,7.28,2.77,7.28,7.78v14.57h-3.51V220.55c0-3.75-1.55-5.59-4.81-5.59-3.79,0-6.6,2.89-6.6,7.24v11.89H939Z"/><path class="cls-2" d="M966.77,224.33c.27,4.93,2.58,7.36,6.64,7.36,3.38,0,4.91-1.42,5.61-3.44l3.47.33c-.93,3.59-3.53,6.13-9,6.13-6.6,0-10.27-4.19-10.27-11.41,0-7.53,3.94-11.58,10-11.58s9.72,3.82,9.72,10.63v2Zm0-2.7h12.61c-.19-4.67-2.3-7-6.26-7C969.41,214.65,967.2,216.86,966.81,221.63Z"/><path class="cls-2" d="M1005.09,210.38v2h5.82v3h-5.82v18.71h-3.51V215.38H997.5v-3h4.08v-2.18c0-5.45,2.56-7.66,7-7.66a13.25,13.25,0,0,1,3.13.39l-.39,2.93a9.64,9.64,0,0,0-2.17-.24C1006.18,205.6,1005.09,206.9,1005.09,210.38Z"/><path class="cls-2" d="M1015.67,212.36h2.93l.5,3.82h.2c1.16-2.83,3.24-4.44,6.27-4.44a9.77,9.77,0,0,1,2.23.27l-.37,3.32a8.76,8.76,0,0,0-2-.24c-3.53,0-6.21,2.8-6.21,7.09v11.91h-3.51Z"/><path class="cls-2" d="M1030.62,223.19c0-7.36,3.76-11.45,10.3-11.45s10.33,4.09,10.33,11.45-3.77,11.52-10.33,11.52S1030.62,230.6,1030.62,223.19Zm17.05,0c0-5.61-2.23-8.39-6.75-8.39s-6.71,2.78-6.71,8.39,2.21,8.48,6.71,8.48S1047.67,228.83,1047.67,223.19Z"/><path class="cls-2" d="M1057.38,212.36h2.93l.49,3.82h.21a8,8,0,0,1,7.3-4.44c3.63,0,5.9,1.8,6.71,4.83h.18c1.51-2.76,3.86-4.83,7.61-4.83,4.54,0,7.08,2.77,7.08,7.78v14.57h-3.51V220.55c0-3.75-1.55-5.59-4.58-5.59-3.61,0-6.41,2.89-6.41,7.24v11.89h-3.51V220.55c0-3.75-1.55-5.59-4.6-5.59-3.59,0-6.4,2.89-6.4,7.24v11.89h-3.5Z"/><path class="cls-2" d="M1108.63,203.14h3.51v31h-3.51Z"/><path class="cls-2" d="M1121.85,224.33c.27,4.93,2.58,7.36,6.65,7.36,3.38,0,4.91-1.42,5.61-3.44l3.46.33c-.92,3.59-3.52,6.13-9,6.13-6.6,0-10.28-4.19-10.28-11.41,0-7.53,3.94-11.58,10-11.58s9.72,3.82,9.72,10.63v2Zm0-2.7h12.61c-.19-4.67-2.29-7-6.25-7C1124.49,214.65,1122.29,216.86,1121.89,221.63Z"/><path class="cls-2" d="M1148.89,210.38v2h5.82v3h-5.82v18.71h-3.5V215.38h-4.09v-3h4.09v-2.18c0-5.45,2.56-7.66,7-7.66a13.34,13.34,0,0,1,3.14.39l-.4,2.93a9.55,9.55,0,0,0-2.16-.24C1150,205.6,1148.89,206.9,1148.89,210.38Z"/><path class="cls-2" d="M1164.22,227.51c0,3,1.3,4,3.84,4a10.81,10.81,0,0,0,2.78-.41l.39,2.9a14.14,14.14,0,0,1-3.87.58c-4.58,0-6.65-2.29-6.65-6.74V215.38h-4.47v-3h4.47l.77-6.74h2.74v6.74h6.91v3h-6.91Z"/><path class="cls-2" d="M1192.56,227.51c0,3,1.3,4,3.84,4a10.81,10.81,0,0,0,2.78-.41l.39,2.9a14.14,14.14,0,0,1-3.87.58c-4.58,0-6.65-2.29-6.65-6.74V215.38h-4.47v-3h4.47l.77-6.74h2.74v6.74h6.91v3h-6.91Z"/><path class="cls-2" d="M1202.73,223.19c0-7.36,3.75-11.45,10.29-11.45s10.34,4.09,10.34,11.45-3.78,11.52-10.34,11.52S1202.73,230.6,1202.73,223.19Zm17,0c0-5.61-2.23-8.39-6.75-8.39s-6.7,2.78-6.7,8.39,2.2,8.48,6.7,8.48S1219.77,228.83,1219.77,223.19Z"/><path class="cls-2" d="M1240.76,212.36h2.93l.5,3.82h.2c1.16-2.83,3.24-4.44,6.27-4.44a9.77,9.77,0,0,1,2.23.27l-.37,3.32a8.76,8.76,0,0,0-2-.24c-3.53,0-6.21,2.8-6.21,7.09v11.91h-3.51Z"/><path class="cls-2" d="M1256.79,206.32a2.41,2.41,0,0,1,4.82,0,2.41,2.41,0,0,1-4.82,0Zm.66,6h3.5v21.73h-3.5Z"/><path class="cls-2" d="M1268,236.25l3.57-.37c.47,2.35,2,3.92,5.88,3.92,4.45,0,6.23-2.43,6.23-7.47v-2.82h-.21a7.29,7.29,0,0,1-7,4.35c-6.36,0-9.45-4.35-9.45-11.1,0-6.6,3.3-11,9.45-11a7.22,7.22,0,0,1,7,4.44h.21l.5-3.82h2.92v20c0,6.75-3,10.48-9.73,10.48C1271.41,242.81,1268.52,240.34,1268,236.25Zm15.78-13.49c0-4.5-2.23-8-6.68-8-4.27,0-6.46,3-6.46,8,0,5.26,2.19,8.13,6.46,8.13S1283.81,227.09,1283.81,222.76Z"/><path class="cls-2" d="M1295.09,203.14h3.51v13h.18a8,8,0,0,1,7.47-4.44c4.6,0,7.26,2.64,7.26,7.76v14.59H1310V220.7c0-4-1.58-5.74-4.82-5.74-3.76,0-6.58,2.89-6.58,7.22v11.91h-3.51Z"/><path class="cls-2" d="M1325.72,227.51c0,3,1.3,4,3.84,4a10.81,10.81,0,0,0,2.78-.41l.39,2.9a14.14,14.14,0,0,1-3.87.58c-4.58,0-6.65-2.29-6.65-6.74V215.38h-4.47v-3h4.47l.77-6.74h2.74v6.74h6.91v3h-6.91Z"/><path class="cls-2" d="M53.06,315.1c0-3.94,2.25-5.88,7.49-6.54l7.33-.94v-1.51c0-3.4-1.63-4.87-5.18-4.87s-4.85,1.53-5.28,4.13L54,305.06c.62-4.13,3.07-6.71,8.79-6.71s8.54,2.38,8.54,7.59v14.78H68.35L68,317.31h-.21c-1.19,2.48-3.65,4-7.3,4C55.64,321.31,53.06,319,53.06,315.1Zm14.82-2.8v-2.09l-7.06,1c-3,.41-4.19,1.6-4.19,3.67,0,2.22,1.36,3.57,4.54,3.57C65.34,318.45,67.88,315.85,67.88,312.3Z"/><path class="cls-2" d="M78.74,299h2.93l.5,3.82h.2a6.44,6.44,0,0,1,6.28-4.44,9.68,9.68,0,0,1,2.22.27L90.5,302a8.62,8.62,0,0,0-2-.24c-3.53,0-6.21,2.8-6.21,7.09v11.91H78.74Z"/><path class="cls-2" d="M97.29,311c.26,4.93,2.57,7.36,6.64,7.36,3.38,0,4.91-1.42,5.61-3.44l3.47.33c-.93,3.59-3.53,6.12-9,6.12-6.6,0-10.27-4.18-10.27-11.4,0-7.53,3.94-11.58,10-11.58s9.72,3.82,9.72,10.63v2Zm0-2.71h12.6c-.18-4.66-2.29-7-6.25-7C99.93,301.28,97.72,303.49,97.33,308.25Z"/><path class="cls-2" d="M128.64,314.71l3.46-.29c.39,2.79,2.27,4.05,5.8,4.05,3.15,0,5.07-1.28,5.07-3.51s-1.32-2.81-4-3.36l-2.87-.6c-4.29-.91-6.43-2.64-6.43-6.11,0-4.33,3-6.6,8-6.6,5.32,0,8.09,2.08,8.42,6.35l-3.47.29c-.24-2.62-1.81-3.75-5-3.75-3,0-4.58,1.11-4.58,3.38,0,1.9,1.14,2.75,3.76,3.3l2.94.64c4.44,1,6.67,2.42,6.67,6.05,0,4.31-3.22,6.78-8.58,6.78C131.87,321.33,129,319,128.64,314.71Z"/><path class="cls-2" d="M152.33,289.77h3.51v13H156a8,8,0,0,1,7.47-4.44c4.6,0,7.26,2.64,7.26,7.76v14.59h-3.51V307.33c0-4-1.59-5.74-4.83-5.74-3.75,0-6.58,2.89-6.58,7.22v11.91h-3.51Z"/><path class="cls-2" d="M176.49,309.82c0-7.36,3.75-11.45,10.29-11.45s10.34,4.09,10.34,11.45-3.78,11.51-10.34,11.51S176.49,317.23,176.49,309.82Zm17,0c0-5.61-2.23-8.39-6.75-8.39s-6.7,2.78-6.7,8.39,2.2,8.48,6.7,8.48S193.53,315.45,193.53,309.82Z"/><path class="cls-2" d="M203.24,299h2.93l.49,3.82h.21c1.16-2.83,3.24-4.44,6.27-4.44a9.77,9.77,0,0,1,2.23.27L215,302a8.76,8.76,0,0,0-2-.24c-3.53,0-6.21,2.8-6.21,7.09v11.91h-3.51Z"/><path class="cls-2" d="M224.67,314.13c0,3,1.3,4,3.84,4a10.37,10.37,0,0,0,2.78-.42l.4,2.91a14.28,14.28,0,0,1-3.88.58c-4.58,0-6.65-2.29-6.65-6.75V302h-4.47v-3h4.47l.77-6.74h2.74V299h6.91v3h-6.91Z"/><path class="cls-2" d="M238.43,311c.27,4.93,2.58,7.36,6.64,7.36,3.38,0,4.91-1.42,5.61-3.44l3.47.33c-.93,3.59-3.53,6.12-9,6.12-6.6,0-10.27-4.18-10.27-11.4,0-7.53,3.94-11.58,10-11.58s9.72,3.82,9.72,10.63v2Zm0-2.71h12.6c-.18-4.66-2.29-7-6.25-7C241.07,301.28,238.86,303.49,238.47,308.25Z"/><path class="cls-2" d="M260.64,299h2.93l.5,3.82h.2c1.16-2.83,3.24-4.44,6.27-4.44a9.77,9.77,0,0,1,2.23.27L272.4,302a8.69,8.69,0,0,0-2-.24c-3.53,0-6.21,2.8-6.21,7.09v11.91h-3.51Z"/><path class="cls-2" d="M293.35,314.13c0,3,1.3,4,3.84,4a10.45,10.45,0,0,0,2.79-.42l.39,2.91a14.21,14.21,0,0,1-3.88.58c-4.58,0-6.64-2.29-6.64-6.75V302h-4.48v-3h4.48l.76-6.74h2.74V299h6.92v3h-6.92Z"/><path class="cls-2" d="M305.67,289.77h3.51v13h.18a8,8,0,0,1,7.47-4.44c4.6,0,7.26,2.64,7.26,7.76v14.59h-3.51V307.33c0-4-1.58-5.74-4.82-5.74-3.76,0-6.58,2.89-6.58,7.22v11.91h-3.51Z"/><path class="cls-2" d="M329.68,315.1c0-3.94,2.25-5.88,7.49-6.54l7.32-.94v-1.51c0-3.4-1.63-4.87-5.18-4.87s-4.85,1.53-5.28,4.13l-3.47-.31c.62-4.13,3.08-6.71,8.79-6.71s8.54,2.38,8.54,7.59v14.78H345l-.37-3.41h-.2c-1.2,2.48-3.66,4-7.31,4C332.26,321.31,329.68,319,329.68,315.1Zm14.81-2.8v-2.09l-7.06,1c-3,.41-4.18,1.6-4.18,3.67,0,2.22,1.36,3.57,4.53,3.57C342,318.45,344.49,315.85,344.49,312.3Z"/><path class="cls-2" d="M355.36,299h2.93l.49,3.82H359a8.14,8.14,0,0,1,7.51-4.44c4.74,0,7.28,2.77,7.28,7.78v14.57h-3.51V307.18c0-3.75-1.55-5.59-4.81-5.59-3.79,0-6.6,2.89-6.6,7.24v11.89h-3.5Z"/><path class="cls-2" d="M397.27,314.13c0,3,1.3,4,3.84,4a10.37,10.37,0,0,0,2.78-.42l.39,2.91a14.15,14.15,0,0,1-3.88.58c-4.57,0-6.64-2.29-6.64-6.75V302h-4.47v-3h4.47l.77-6.74h2.74V299h6.91v3h-6.91Z"/><path class="cls-2" d="M409.58,289.77h3.51v13h.18a8,8,0,0,1,7.47-4.44c4.6,0,7.26,2.64,7.26,7.76v14.59h-3.5V307.33c0-4-1.59-5.74-4.83-5.74-3.75,0-6.58,2.89-6.58,7.22v11.91h-3.51Z"/><path class="cls-2" d="M437.32,311c.27,4.93,2.58,7.36,6.65,7.36,3.38,0,4.91-1.42,5.61-3.44l3.46.33c-.92,3.59-3.52,6.12-9,6.12-6.6,0-10.28-4.18-10.28-11.4,0-7.53,3.94-11.58,10-11.58s9.72,3.82,9.72,10.63v2Zm.05-2.71H450c-.19-4.66-2.29-7-6.25-7C440,301.28,437.76,303.49,437.37,308.25Z"/><path class="cls-2" d="M468.67,314.71l3.47-.29c.39,2.79,2.27,4.05,5.8,4.05,3.15,0,5.07-1.28,5.07-3.51s-1.32-2.81-4-3.36l-2.87-.6c-4.29-.91-6.43-2.64-6.43-6.11,0-4.33,3-6.6,8-6.6,5.32,0,8.09,2.08,8.42,6.35l-3.47.29c-.25-2.62-1.81-3.75-5-3.75-3,0-4.58,1.11-4.58,3.38,0,1.9,1.13,2.75,3.75,3.3l3,.64c4.44,1,6.67,2.42,6.67,6.05,0,4.31-3.22,6.78-8.58,6.78C471.91,321.33,469.05,319,468.67,314.71Z"/><path class="cls-2" d="M490.54,315.1c0-3.94,2.25-5.88,7.49-6.54l7.32-.94v-1.51c0-3.4-1.63-4.87-5.18-4.87s-4.85,1.53-5.28,4.13l-3.46-.31c.61-4.13,3.07-6.71,8.78-6.71s8.54,2.38,8.54,7.59v14.78h-2.92l-.38-3.41h-.2c-1.2,2.48-3.65,4-7.31,4C493.12,321.31,490.54,319,490.54,315.1Zm14.81-2.8v-2.09l-7.05,1c-3,.41-4.19,1.6-4.19,3.67,0,2.22,1.36,3.57,4.54,3.57C502.81,318.45,505.35,315.85,505.35,312.3Z"/><path class="cls-2" d="M514.49,309.84c0-7.2,3.71-11.47,10.06-11.47,5.55,0,8.71,2.73,9.29,7.47l-3.53.29c-.43-3.09-2.25-4.7-5.76-4.7-4.35,0-6.48,2.88-6.48,8.41s2.17,8.46,6.52,8.46c3.55,0,5.26-1.55,5.74-4.64l3.51.31c-.6,4.7-3.53,7.36-9.29,7.36C518.22,321.33,514.49,317.1,514.49,309.84Z"/><path class="cls-2" d="M538.06,309.84c0-7.2,3.71-11.47,10.07-11.47,5.55,0,8.7,2.73,9.28,7.47l-3.53.29c-.43-3.09-2.25-4.7-5.75-4.7-4.36,0-6.48,2.88-6.48,8.41s2.17,8.46,6.52,8.46c3.55,0,5.26-1.55,5.73-4.64l3.51.31c-.6,4.7-3.53,7.36-9.28,7.36C541.79,321.33,538.06,317.1,538.06,309.84Z"/><path class="cls-2" d="M561,315.1c0-3.94,2.25-5.88,7.49-6.54l7.32-.94v-1.51c0-3.4-1.63-4.87-5.18-4.87s-4.85,1.53-5.28,4.13l-3.46-.31c.61-4.13,3.07-6.71,8.78-6.71s8.54,2.38,8.54,7.59v14.78h-2.93l-.37-3.41h-.2c-1.2,2.48-3.65,4-7.31,4C563.62,321.31,561,319,561,315.1Zm14.81-2.8v-2.09l-7.06,1c-3,.41-4.18,1.6-4.18,3.67,0,2.22,1.36,3.57,4.54,3.57C573.31,318.45,575.85,315.85,575.85,312.3Z"/><path class="cls-2" d="M585,309.84c0-7.22,3.47-11.47,9.37-11.47,3.51,0,5.82,1.53,7.08,4.17h.18V289.77h3.51v31h-2.93l-.5-3.82h-.2a7.52,7.52,0,0,1-7.26,4.43C588.41,321.33,585,317.1,585,309.84Zm16.76,0c0-5-2.13-8.43-6.79-8.43-4.15,0-6.38,2.76-6.38,8.43s2.23,8.42,6.4,8.42C599.61,318.28,601.74,314.86,601.74,309.86Z"/><path class="cls-2" d="M614.85,311c.27,4.93,2.58,7.36,6.64,7.36,3.39,0,4.91-1.42,5.62-3.44l3.46.33c-.93,3.59-3.53,6.12-9,6.12-6.61,0-10.28-4.18-10.28-11.4,0-7.53,3.94-11.58,10-11.58S631,302.17,631,309v2Zm0-2.71H627.5c-.19-4.66-2.29-7-6.25-7C617.49,301.28,615.29,303.49,614.89,308.25Z"/><path class="cls-2" d="M646.47,315.1c0-3.94,2.25-5.88,7.49-6.54l7.32-.94v-1.51c0-3.4-1.63-4.87-5.18-4.87s-4.84,1.53-5.28,4.13l-3.46-.31c.62-4.13,3.07-6.71,8.79-6.71s8.54,2.38,8.54,7.59v14.78h-2.93l-.37-3.41h-.21c-1.2,2.48-3.65,4-7.3,4C649.05,321.31,646.47,319,646.47,315.1Zm14.81-2.8v-2.09l-7,1c-3,.41-4.19,1.6-4.19,3.67,0,2.22,1.36,3.57,4.54,3.57C658.74,318.45,661.28,315.85,661.28,312.3Z"/><path class="cls-2" d="M676.89,314.13c0,3,1.3,4,3.84,4a10.51,10.51,0,0,0,2.79-.42l.39,2.91a14.21,14.21,0,0,1-3.88.58c-4.58,0-6.64-2.29-6.64-6.75V302h-4.48v-3h4.48l.76-6.74h2.74V299h6.92v3h-6.92Z"/><path class="cls-2" d="M705.23,314.13c0,3,1.3,4,3.84,4a10.51,10.51,0,0,0,2.79-.42l.39,2.91a14.21,14.21,0,0,1-3.88.58c-4.58,0-6.64-2.29-6.64-6.75V302h-4.48v-3h4.48l.76-6.74h2.74V299h6.92v3h-6.92Z"/><path class="cls-2" d="M717.55,289.77h3.5v13h.19a8,8,0,0,1,7.47-4.44c4.6,0,7.26,2.64,7.26,7.76v14.59h-3.51V307.33c0-4-1.59-5.74-4.82-5.74-3.76,0-6.59,2.89-6.59,7.22v11.91h-3.5Z"/><path class="cls-2" d="M745.29,311c.27,4.93,2.58,7.36,6.64,7.36,3.39,0,4.91-1.42,5.61-3.44l3.47.33c-.93,3.59-3.53,6.12-9,6.12-6.6,0-10.27-4.18-10.27-11.4,0-7.53,3.94-11.58,10-11.58s9.72,3.82,9.72,10.63v2Zm0-2.71h12.61c-.19-4.66-2.29-7-6.26-7C747.93,301.28,745.72,303.49,745.33,308.25Z"/><path class="cls-2" d="M780.64,311c.27,4.93,2.58,7.36,6.64,7.36,3.39,0,4.91-1.42,5.62-3.44l3.46.33c-.93,3.59-3.53,6.12-9,6.12-6.61,0-10.28-4.18-10.28-11.4,0-7.53,3.94-11.58,10-11.58s9.71,3.82,9.71,10.63v2Zm0-2.71h12.61c-.19-4.66-2.29-7-6.25-7C783.28,301.28,781.08,303.49,780.68,308.25Z"/><path class="cls-2" d="M802.86,299h2.93l.49,3.82h.21a8.14,8.14,0,0,1,7.51-4.44c4.74,0,7.28,2.77,7.28,7.78v14.57h-3.51V307.18c0-3.75-1.55-5.59-4.81-5.59-3.79,0-6.6,2.89-6.6,7.24v11.89h-3.5Z"/><path class="cls-2" d="M827,309.84c0-7.22,3.46-11.47,9.36-11.47,3.51,0,5.82,1.53,7.08,4.17h.19V289.77h3.5v31h-2.93l-.49-3.82h-.21a7.51,7.51,0,0,1-7.26,4.43C830.43,321.33,827,317.1,827,309.84Zm16.75,0c0-5-2.13-8.43-6.79-8.43-4.14,0-6.37,2.76-6.37,8.43s2.23,8.42,6.39,8.42C841.63,318.28,843.76,314.86,843.76,309.86Z"/><path class="cls-2" d="M864.57,309.82c0-7.36,3.75-11.45,10.29-11.45s10.34,4.09,10.34,11.45-3.78,11.51-10.34,11.51S864.57,317.23,864.57,309.82Zm17,0c0-5.61-2.23-8.39-6.75-8.39s-6.7,2.78-6.7,8.39,2.21,8.48,6.7,8.48S881.61,315.45,881.61,309.82Z"/><path class="cls-2" d="M896.15,297v2H902v3h-5.81v18.72h-3.51V302h-4.09v-3h4.09v-2.18c0-5.45,2.56-7.66,7-7.66a13.27,13.27,0,0,1,3.14.39l-.39,2.93a9.71,9.71,0,0,0-2.17-.24C897.24,292.23,896.15,293.53,896.15,297Z"/><path class="cls-2" d="M922.75,314.13c0,3,1.3,4,3.84,4a10.51,10.51,0,0,0,2.79-.42l.39,2.91a14.21,14.21,0,0,1-3.88.58c-4.58,0-6.64-2.29-6.64-6.75V302h-4.48v-3h4.48l.76-6.74h2.74V299h6.91v3h-6.91Z"/><path class="cls-2" d="M935.07,289.77h3.5v13h.19a8,8,0,0,1,7.47-4.44c4.6,0,7.26,2.64,7.26,7.76v14.59H950V307.33c0-4-1.59-5.74-4.82-5.74-3.76,0-6.59,2.89-6.59,7.22v11.91h-3.5Z"/><path class="cls-2" d="M962.81,311c.27,4.93,2.58,7.36,6.64,7.36,3.38,0,4.91-1.42,5.61-3.44l3.47.33c-.93,3.59-3.53,6.12-9,6.12-6.6,0-10.27-4.18-10.27-11.4,0-7.53,3.94-11.58,10-11.58s9.72,3.82,9.72,10.63v2Zm0-2.71h12.61c-.19-4.66-2.29-7-6.26-7C965.45,301.28,963.24,303.49,962.85,308.25Z"/><path class="cls-2" d="M996.3,289.77h3.51v31H996.3Z"/><path class="cls-2" d="M1007,293a2.42,2.42,0,0,1,4.83,0,2.42,2.42,0,0,1-4.83,0Zm.66,6h3.51v21.73h-3.51Z"/><path class="cls-2" d="M1019,299H1022l.5,3.82h.21a8.13,8.13,0,0,1,7.5-4.44c4.75,0,7.29,2.77,7.29,7.78v14.57H1034V307.18c0-3.75-1.55-5.59-4.81-5.59-3.79,0-6.6,2.89-6.6,7.24v11.89H1019Z"/><path class="cls-2" d="M1046.78,311c.26,4.93,2.58,7.36,6.64,7.36,3.38,0,4.91-1.42,5.61-3.44l3.47.33c-.93,3.59-3.53,6.12-9,6.12-6.6,0-10.27-4.18-10.27-11.4,0-7.53,3.94-11.58,10-11.58s9.72,3.82,9.72,10.63v2Zm0-2.71h12.6c-.18-4.66-2.29-7-6.25-7C1049.42,301.28,1047.21,303.49,1046.82,308.25Z"/><path class="cls-2" d="M1067.34,318.59a2.66,2.66,0,0,1,5.32,0,2.66,2.66,0,0,1-5.32,0Z"/><path class="cls-2" d="M1096.4,294.58h-9.55v-3.16h22.71v3.16H1100v26.14h-3.63Z"/><path class="cls-2" d="M1113.71,289.77h3.5v13h.19a8,8,0,0,1,7.47-4.44c4.6,0,7.26,2.64,7.26,7.76v14.59h-3.51V307.33c0-4-1.59-5.74-4.83-5.74-3.75,0-6.58,2.89-6.58,7.22v11.91h-3.5Z"/><path class="cls-2" d="M1141.45,311c.27,4.93,2.58,7.36,6.64,7.36,3.39,0,4.91-1.42,5.61-3.44l3.47.33c-.93,3.59-3.53,6.12-9,6.12-6.6,0-10.27-4.18-10.27-11.4,0-7.53,3.94-11.58,10-11.58s9.72,3.82,9.72,10.63v2Zm0-2.71h12.61c-.19-4.66-2.29-7-6.26-7C1144.09,301.28,1141.88,303.49,1141.49,308.25Z"/><path class="cls-2" d="M1174.94,299h2.93l.5,3.82h.21a6.42,6.42,0,0,1,6.27-4.44,9.68,9.68,0,0,1,2.22.27l-.37,3.32a8.62,8.62,0,0,0-2-.24c-3.53,0-6.21,2.8-6.21,7.09v11.91h-3.51Z"/><path class="cls-2" d="M1193.49,311c.27,4.93,2.58,7.36,6.64,7.36,3.38,0,4.91-1.42,5.61-3.44l3.47.33c-.93,3.59-3.53,6.12-9,6.12-6.6,0-10.27-4.18-10.27-11.4,0-7.53,3.94-11.58,10-11.58s9.72,3.82,9.72,10.63v2Zm0-2.71h12.6c-.18-4.66-2.29-7-6.25-7C1196.13,301.28,1193.92,303.49,1193.53,308.25Z"/><path class="cls-2" d="M1220.45,314.13c0,3,1.3,4,3.83,4a10.45,10.45,0,0,0,2.79-.42l.39,2.91a14.21,14.21,0,0,1-3.88.58c-4.58,0-6.64-2.29-6.64-6.75V302h-4.48v-3h4.48l.76-6.74h2.75V299h6.91v3h-6.91Z"/><path class="cls-2" d="M1232.35,313.56V299h3.5v13.54c0,3.79,1.53,5.65,4.56,5.65,3.57,0,6.42-2.93,6.42-7.3V299h3.5v21.73h-2.92l-.52-3.82h-.19a8,8,0,0,1-7.28,4.43C1234.88,321.33,1232.35,318.59,1232.35,313.56Z"/><path class="cls-2" d="M1258.19,299h2.93l.5,3.82h.2c1.16-2.83,3.24-4.44,6.27-4.44a9.77,9.77,0,0,1,2.23.27L1270,302a8.76,8.76,0,0,0-2-.24c-3.53,0-6.21,2.8-6.21,7.09v11.91h-3.51Z"/><path class="cls-2" d="M1274.88,299h2.93l.49,3.82h.21a8.15,8.15,0,0,1,7.51-4.44c4.74,0,7.28,2.77,7.28,7.78v14.57h-3.51V307.18c0-3.75-1.54-5.59-4.8-5.59-3.8,0-6.61,2.89-6.61,7.24v11.89h-3.5Z"/><path class="cls-2" d="M1309.9,314.71l3.47-.29c.39,2.79,2.26,4.05,5.79,4.05,3.16,0,5.08-1.28,5.08-3.51s-1.32-2.81-4-3.36l-2.86-.6c-4.29-.91-6.44-2.64-6.44-6.11,0-4.33,3-6.6,8-6.6,5.32,0,8.08,2.08,8.41,6.35l-3.46.29c-.25-2.62-1.82-3.75-5-3.75-3,0-4.58,1.11-4.58,3.38,0,1.9,1.14,2.75,3.76,3.3l3,.64c4.43,1,6.66,2.42,6.66,6.05,0,4.31-3.22,6.78-8.58,6.78C1313.14,321.33,1310.27,319,1309.9,314.71Z"/><path class="cls-2" d="M1330.55,299h3.79l5.49,18.05h.21l5.28-18.05h4.21l5.32,18.05h.23L1360.5,299H1364l-7,21.73h-4.39l-5.26-17.6h-.13l-5.26,17.6h-4.39Z"/><path class="cls-2" d="M1370.48,311c.27,4.93,2.58,7.36,6.64,7.36,3.38,0,4.91-1.42,5.61-3.44l3.47.33c-.93,3.59-3.53,6.12-9,6.12-6.6,0-10.27-4.18-10.27-11.4,0-7.53,3.94-11.58,10-11.58s9.72,3.82,9.72,10.63v2Zm0-2.71h12.6c-.18-4.66-2.29-7-6.25-7C1373.12,301.28,1370.91,303.49,1370.52,308.25Z"/><path class="cls-2" d="M1394.55,311c.27,4.93,2.58,7.36,6.64,7.36,3.39,0,4.91-1.42,5.61-3.44l3.47.33c-.93,3.59-3.53,6.12-9,6.12-6.6,0-10.27-4.18-10.27-11.4,0-7.53,3.94-11.58,10-11.58s9.72,3.82,9.72,10.63v2Zm0-2.71h12.61c-.19-4.66-2.29-7-6.26-7C1397.19,301.28,1395,303.49,1394.59,308.25Z"/><path class="cls-2" d="M1416.76,299h2.93l.5,3.82h.2a7.57,7.57,0,0,1,7.18-4.44c5.92,0,9.33,4.25,9.33,11.47s-3.41,11.49-9.45,11.49c-3.43,0-5.78-1.56-7-4.14h-.19v11.63h-3.51Zm16.55,10.85c0-5.65-2.17-8.41-6.52-8.41s-6.64,3.44-6.64,8.41,2.18,8.44,6.64,8.44S1433.31,315.52,1433.31,309.84Z"/><path class="cls-2" d="M1440.71,326.92a16.25,16.25,0,0,0,2.76-5.85,2.23,2.23,0,0,1-2.33-2.31,2.28,2.28,0,0,1,2.42-2.46c1.77,0,2.62,1.18,2.62,2.95,0,2.83-1.59,5.86-3.59,8.44Z"/><path class="cls-2" d="M59.68,400.76c0,3,1.3,4,3.84,4a10.54,10.54,0,0,0,2.79-.41l.39,2.91a14.21,14.21,0,0,1-3.88.58c-4.58,0-6.64-2.29-6.64-6.75V388.63H51.7v-3h4.48l.76-6.74h2.74v6.74H66.6v3H59.68Z"/><path class="cls-2" d="M72,376.4h3.5v13h.19A8,8,0,0,1,83.16,385c4.6,0,7.26,2.64,7.26,7.76v14.58H86.91V394c0-4-1.59-5.74-4.82-5.74-3.76,0-6.59,2.89-6.59,7.22v11.9H72Z"/><path class="cls-2" d="M99.74,397.59c.27,4.93,2.58,7.36,6.64,7.36,3.39,0,4.91-1.42,5.61-3.44l3.47.33c-.93,3.58-3.53,6.12-9,6.12-6.6,0-10.27-4.19-10.27-11.41,0-7.53,3.94-11.57,10-11.57s9.71,3.82,9.71,10.63v2Zm0-2.71h12.61c-.19-4.66-2.29-7-6.25-7C102.38,387.91,100.17,390.12,99.78,394.88Z"/><path class="cls-2" d="M131.09,401.34l3.47-.29c.39,2.79,2.27,4,5.79,4,3.16,0,5.08-1.27,5.08-3.5s-1.32-2.81-4.05-3.36l-2.86-.6c-4.29-.91-6.44-2.64-6.44-6.11,0-4.33,3-6.6,8-6.6,5.32,0,8.08,2.08,8.41,6.35l-3.46.29c-.25-2.62-1.82-3.75-5-3.75-3,0-4.58,1.11-4.58,3.38,0,1.9,1.14,2.74,3.76,3.3l3,.64c4.44,1,6.66,2.41,6.66,6.05,0,4.31-3.22,6.78-8.58,6.78C134.33,408,131.46,405.67,131.09,401.34Z"/><path class="cls-2" d="M153,401.73c0-3.94,2.25-5.88,7.49-6.54l7.33-.95v-1.5c0-3.41-1.63-4.87-5.18-4.87s-4.85,1.53-5.28,4.13l-3.47-.31c.62-4.13,3.08-6.71,8.79-6.71s8.54,2.37,8.54,7.59v14.77h-2.93l-.37-3.4h-.21c-1.19,2.48-3.65,4-7.3,4C155.53,407.94,153,405.63,153,401.73Zm14.82-2.8v-2.09l-7.06,1c-3,.42-4.19,1.61-4.19,3.68,0,2.22,1.36,3.56,4.54,3.56C165.23,405.07,167.77,402.47,167.77,398.93Z"/><path class="cls-2" d="M176.9,396.47c0-7.2,3.71-11.47,10.07-11.47,5.55,0,8.7,2.72,9.28,7.47l-3.53.29c-.43-3.1-2.24-4.71-5.75-4.71-4.35,0-6.48,2.89-6.48,8.42s2.17,8.46,6.52,8.46c3.55,0,5.26-1.55,5.73-4.64l3.51.31c-.6,4.7-3.53,7.36-9.28,7.36C180.63,408,176.9,403.73,176.9,396.47Z"/><path class="cls-2" d="M200.48,396.47c0-7.2,3.71-11.47,10.06-11.47,5.55,0,8.71,2.72,9.29,7.47l-3.53.29c-.43-3.1-2.25-4.71-5.76-4.71-4.35,0-6.47,2.89-6.47,8.42s2.16,8.46,6.51,8.46c3.55,0,5.27-1.55,5.74-4.64l3.51.31c-.6,4.7-3.53,7.36-9.29,7.36C204.21,408,200.48,403.73,200.48,396.47Z"/><path class="cls-2" d="M223.45,401.73c0-3.94,2.25-5.88,7.49-6.54l7.33-.95v-1.5c0-3.41-1.63-4.87-5.18-4.87s-4.85,1.53-5.28,4.13l-3.47-.31c.62-4.13,3.07-6.71,8.79-6.71s8.54,2.37,8.54,7.59v14.77h-2.93l-.37-3.4h-.21c-1.19,2.48-3.65,4-7.3,4C226,407.94,223.45,405.63,223.45,401.73Zm14.82-2.8v-2.09l-7.06,1c-3,.42-4.19,1.61-4.19,3.68,0,2.22,1.36,3.56,4.54,3.56C235.73,405.07,238.27,402.47,238.27,398.93Z"/><path class="cls-2" d="M247.4,396.47c0-7.22,3.47-11.47,9.37-11.47,3.5,0,5.81,1.53,7.07,4.17H264V376.4h3.51v30.94h-2.93l-.5-3.81h-.21a7.53,7.53,0,0,1-7.26,4.43C250.82,408,247.4,403.73,247.4,396.47Zm16.75,0c0-5-2.12-8.44-6.79-8.44-4.14,0-6.37,2.77-6.37,8.44s2.23,8.42,6.4,8.42C262,404.91,264.15,401.48,264.15,396.49Z"/><path class="cls-2" d="M277.27,397.59c.27,4.93,2.58,7.36,6.64,7.36,3.38,0,4.91-1.42,5.61-3.44l3.47.33c-.93,3.58-3.53,6.12-9,6.12-6.6,0-10.27-4.19-10.27-11.41,0-7.53,3.94-11.57,10-11.57s9.72,3.82,9.72,10.63v2Zm0-2.71h12.6c-.18-4.66-2.29-7-6.25-7C279.91,387.91,277.7,390.12,277.31,394.88Z"/><path class="cls-2" d="M315.59,383.64v2h5.82v3h-5.82v18.71h-3.51V388.63H308v-3h4.08v-2.19c0-5.44,2.56-7.65,7-7.65a13.25,13.25,0,0,1,3.13.39l-.39,2.93a9.6,9.6,0,0,0-2.17-.25C316.68,378.85,315.59,380.15,315.59,383.64Z"/><path class="cls-2" d="M326.17,385.62h2.93l.49,3.82h.21C331,386.61,333,385,336.07,385a9.24,9.24,0,0,1,2.23.27l-.37,3.32a8.68,8.68,0,0,0-2-.25c-3.53,0-6.21,2.81-6.21,7.1v11.9h-3.51Z"/><path class="cls-2" d="M341.12,396.45c0-7.36,3.76-11.45,10.3-11.45s10.33,4.09,10.33,11.45S358,408,351.42,408,341.12,403.86,341.12,396.45Zm17,0c0-5.61-2.22-8.4-6.74-8.4s-6.71,2.79-6.71,8.4,2.21,8.48,6.71,8.48S358.16,402.08,358.16,396.45Z"/><path class="cls-2" d="M367.88,385.62h2.93l.49,3.82h.21a8,8,0,0,1,7.3-4.44c3.63,0,5.9,1.8,6.7,4.83h.19c1.51-2.77,3.86-4.83,7.61-4.83,4.54,0,7.08,2.77,7.08,7.78v14.56h-3.51V393.81c0-3.75-1.55-5.59-4.58-5.59-3.61,0-6.41,2.89-6.41,7.24v11.88h-3.51V393.81c0-3.75-1.55-5.59-4.6-5.59-3.59,0-6.4,2.89-6.4,7.24v11.88h-3.5Z"/><path class="cls-2" d="M419.13,385.62h2.93l.5,3.82h.2C423.92,386.61,426,385,429,385a9.24,9.24,0,0,1,2.23.27l-.37,3.32a8.61,8.61,0,0,0-2-.25c-3.53,0-6.21,2.81-6.21,7.1v11.9h-3.51Z"/><path class="cls-2" d="M435.16,379.58a2.41,2.41,0,0,1,4.82,0,2.41,2.41,0,0,1-4.82,0Zm.66,6h3.5v21.72h-3.5Z"/><path class="cls-2" d="M446.4,409.51l3.57-.37c.47,2.35,2,3.92,5.88,3.92,4.45,0,6.23-2.44,6.23-7.47v-2.83h-.21a7.3,7.3,0,0,1-7,4.36c-6.36,0-9.45-4.36-9.45-11.1s3.3-11,9.45-11a7.22,7.22,0,0,1,7.05,4.44h.21l.49-3.82h2.93v20c0,6.75-3,10.48-9.73,10.48C449.78,416.07,446.89,413.59,446.4,409.51ZM462.18,396c0-4.5-2.23-8-6.68-8-4.27,0-6.46,3-6.46,8,0,5.26,2.19,8.13,6.46,8.13S462.18,400.35,462.18,396Z"/><path class="cls-2" d="M473.46,376.4H477v13h.18a8,8,0,0,1,7.47-4.44c4.6,0,7.26,2.64,7.26,7.76v14.58h-3.5V394c0-4-1.59-5.74-4.83-5.74-3.76,0-6.58,2.89-6.58,7.22v11.9h-3.51Z"/><path class="cls-2" d="M504.09,400.76c0,3,1.3,4,3.84,4a10.4,10.4,0,0,0,2.78-.41l.39,2.91a14.14,14.14,0,0,1-3.87.58c-4.58,0-6.65-2.29-6.65-6.75V388.63h-4.47v-3h4.47l.77-6.74h2.74v6.74H511v3h-6.91Z"/><path class="cls-2" d="M532.43,400.76c0,3,1.3,4,3.84,4a10.4,10.4,0,0,0,2.78-.41l.39,2.91a14.14,14.14,0,0,1-3.87.58c-4.58,0-6.65-2.29-6.65-6.75V388.63h-4.47v-3h4.47l.77-6.74h2.74v6.74h6.91v3h-6.91Z"/><path class="cls-2" d="M542.6,396.45c0-7.36,3.75-11.45,10.29-11.45s10.34,4.09,10.34,11.45S559.45,408,552.89,408,542.6,403.86,542.6,396.45Zm17,0c0-5.61-2.23-8.4-6.75-8.4s-6.7,2.79-6.7,8.4,2.2,8.48,6.7,8.48S559.64,402.08,559.64,396.45Z"/><path class="cls-2" d="M580.63,376.4h3.51v30.94h-3.51Z"/><path class="cls-2" d="M593.85,397.59c.27,4.93,2.58,7.36,6.65,7.36,3.38,0,4.91-1.42,5.61-3.44l3.46.33c-.93,3.58-3.53,6.12-9,6.12-6.6,0-10.28-4.19-10.28-11.41,0-7.53,3.94-11.57,10-11.57S610,388.8,610,395.61v2Zm0-2.71H606.5c-.19-4.66-2.29-7-6.25-7C596.49,387.91,594.29,390.12,593.89,394.88Z"/><path class="cls-2" d="M620.89,383.64v2h5.82v3h-5.82v18.71h-3.5V388.63H613.3v-3h4.09v-2.19c0-5.44,2.55-7.65,7-7.65a13.41,13.41,0,0,1,3.14.39l-.4,2.93a9.5,9.5,0,0,0-2.16-.25C622,378.85,620.89,380.15,620.89,383.64Z"/><path class="cls-2" d="M636.22,400.76c0,3,1.3,4,3.84,4a10.4,10.4,0,0,0,2.78-.41l.39,2.91a14.15,14.15,0,0,1-3.88.58c-4.58,0-6.64-2.29-6.64-6.75V388.63h-4.48v-3h4.48l.76-6.74h2.75v6.74h6.91v3h-6.91Z"/><path class="cls-2" d="M647.27,413.55a16.48,16.48,0,0,0,2.77-5.86,2.22,2.22,0,0,1-2.33-2.31,2.27,2.27,0,0,1,2.41-2.45c1.77,0,2.62,1.17,2.62,2.95,0,2.83-1.59,5.86-3.59,8.44Z"/><path class="cls-2" d="M670.79,385.62h2.93l.49,3.82h.21a8,8,0,0,1,7.3-4.44c3.63,0,5.9,1.8,6.7,4.83h.19c1.51-2.77,3.86-4.83,7.61-4.83,4.54,0,7.08,2.77,7.08,7.78v14.56h-3.51V393.81c0-3.75-1.55-5.59-4.58-5.59-3.61,0-6.41,2.89-6.41,7.24v11.88h-3.51V393.81c0-3.75-1.55-5.59-4.6-5.59-3.59,0-6.4,2.89-6.4,7.24v11.88h-3.5Z"/><path class="cls-2" d="M708.88,401.73c0-3.94,2.25-5.88,7.49-6.54l7.32-.95v-1.5c0-3.41-1.63-4.87-5.17-4.87s-4.85,1.53-5.28,4.13l-3.47-.31c.62-4.13,3.07-6.71,8.79-6.71s8.54,2.37,8.54,7.59v14.77h-2.93l-.37-3.4h-.21c-1.19,2.48-3.65,4-7.3,4C711.46,407.94,708.88,405.63,708.88,401.73Zm14.81-2.8v-2.09l-7.05,1c-3,.42-4.19,1.61-4.19,3.68,0,2.22,1.36,3.56,4.54,3.56C721.16,405.07,723.69,402.47,723.69,398.93Z"/><path class="cls-2" d="M751.77,385.62l-7.9,21.72c-2,5.59-4.07,8.73-8.92,8.73a13.23,13.23,0,0,1-3.19-.41l.41-3a13.61,13.61,0,0,0,2.6.29c2.47,0,4.08-1.37,5.84-5.62h-1.36l-8.36-21.72h3.8l6.89,18.44h.18l6.36-18.44Z"/><path class="cls-2" d="M770.88,403.53h-.2l-.5,3.81h-2.93V376.4h3.51v12.77H771a7.17,7.17,0,0,1,7-4.17c6,0,9.45,4.25,9.45,11.49S784,408,778.06,408A7.54,7.54,0,0,1,770.88,403.53Zm12.92-7c0-5.67-2.17-8.44-6.52-8.44s-6.64,3.47-6.64,8.44,2.18,8.42,6.64,8.42S783.8,402.14,783.8,396.49Z"/><path class="cls-2" d="M795.39,397.59c.27,4.93,2.58,7.36,6.64,7.36,3.38,0,4.91-1.42,5.61-3.44l3.47.33c-.93,3.58-3.53,6.12-9,6.12-6.6,0-10.27-4.19-10.27-11.41,0-7.53,3.94-11.57,10-11.57s9.72,3.82,9.72,10.63v2Zm0-2.71H808c-.18-4.66-2.29-7-6.25-7C798,387.91,795.82,390.12,795.43,394.88Z"/><path class="cls-2" d="M828.22,379.58a2.42,2.42,0,1,1,2.42,2.35A2.15,2.15,0,0,1,828.22,379.58Zm.66,6h3.51v21.72h-3.51Z"/><path class="cls-2" d="M840.25,385.62h2.93l.49,3.82h.21a8.14,8.14,0,0,1,7.51-4.44c4.74,0,7.28,2.77,7.28,7.78v14.56h-3.51V393.81c0-3.75-1.54-5.59-4.8-5.59-3.8,0-6.61,2.89-6.61,7.24v11.88h-3.5Z"/><path class="cls-2" d="M864.26,401.73c0-3.94,2.24-5.88,7.48-6.54l7.33-.95v-1.5c0-3.41-1.63-4.87-5.18-4.87S869,389.4,868.61,392l-3.47-.31c.62-4.13,3.08-6.71,8.79-6.71s8.54,2.37,8.54,7.59v14.77h-2.93l-.37-3.4H879c-1.19,2.48-3.65,4-7.3,4C866.83,407.94,864.26,405.63,864.26,401.73Zm14.81-2.8v-2.09l-7.06,1c-3,.42-4.19,1.61-4.19,3.68,0,2.22,1.37,3.56,4.54,3.56C876.53,405.07,879.07,402.47,879.07,398.93Z"/><path class="cls-2" d="M888.2,396.47c0-7.2,3.72-11.47,10.07-11.47,5.55,0,8.71,2.72,9.28,7.47l-3.52.29c-.44-3.1-2.25-4.71-5.76-4.71-4.35,0-6.48,2.89-6.48,8.42s2.17,8.46,6.52,8.46c3.55,0,5.26-1.55,5.74-4.64l3.5.31C907,405.3,904,408,898.27,408,891.94,408,888.2,403.73,888.2,396.47Z"/><path class="cls-2" d="M911.78,396.47c0-7.2,3.71-11.47,10.06-11.47,5.55,0,8.71,2.72,9.29,7.47l-3.53.29c-.43-3.1-2.25-4.71-5.76-4.71-4.35,0-6.47,2.89-6.47,8.42s2.16,8.46,6.52,8.46c3.54,0,5.26-1.55,5.73-4.64l3.51.31c-.6,4.7-3.53,7.36-9.29,7.36C915.51,408,911.78,403.73,911.78,396.47Z"/><path class="cls-2" d="M936.67,400.19V385.62h3.51v13.53c0,3.8,1.53,5.66,4.56,5.66,3.57,0,6.42-2.93,6.42-7.31V385.62h3.5v21.72h-2.93l-.51-3.81H951a8,8,0,0,1-7.28,4.43C939.21,408,936.67,405.22,936.67,400.19Z"/><path class="cls-2" d="M962.52,385.62h2.93l.49,3.82h.21a6.43,6.43,0,0,1,6.27-4.44,9.24,9.24,0,0,1,2.23.27l-.37,3.32a8.71,8.71,0,0,0-2-.25c-3.52,0-6.21,2.81-6.21,7.1v11.9h-3.5Z"/><path class="cls-2" d="M977.33,401.73c0-3.94,2.25-5.88,7.49-6.54l7.32-.95v-1.5c0-3.41-1.63-4.87-5.18-4.87s-4.85,1.53-5.28,4.13l-3.47-.31c.62-4.13,3.08-6.71,8.79-6.71s8.54,2.37,8.54,7.59v14.77h-2.93l-.37-3.4H992c-1.2,2.48-3.66,4-7.31,4C979.91,407.94,977.33,405.63,977.33,401.73Zm14.81-2.8v-2.09l-7.06,1c-3,.42-4.18,1.61-4.18,3.68,0,2.22,1.36,3.56,4.53,3.56C989.6,405.07,992.14,402.47,992.14,398.93Z"/><path class="cls-2" d="M1007.75,400.76c0,3,1.3,4,3.84,4a10.4,10.4,0,0,0,2.78-.41l.4,2.91a14.28,14.28,0,0,1-3.88.58c-4.58,0-6.65-2.29-6.65-6.75V388.63h-4.47v-3h4.47l.77-6.74h2.74v6.74h6.91v3h-6.91Z"/><path class="cls-2" d="M1021.51,397.59c.27,4.93,2.58,7.36,6.64,7.36,3.39,0,4.91-1.42,5.61-3.44l3.47.33c-.93,3.58-3.53,6.12-9,6.12-6.6,0-10.27-4.19-10.27-11.41,0-7.53,3.94-11.57,10-11.57s9.72,3.82,9.72,10.63v2Zm0-2.71h12.61c-.19-4.66-2.29-7-6.26-7C1024.15,387.91,1021.94,390.12,1021.55,394.88Z"/><path class="cls-2" d="M1053.13,401.73c0-3.94,2.25-5.88,7.49-6.54l7.32-.95v-1.5c0-3.41-1.63-4.87-5.18-4.87s-4.85,1.53-5.28,4.13l-3.47-.31c.62-4.13,3.08-6.71,8.79-6.71s8.54,2.37,8.54,7.59v14.77h-2.93l-.37-3.4h-.2c-1.2,2.48-3.66,4-7.31,4C1055.71,407.94,1053.13,405.63,1053.13,401.73Zm14.81-2.8v-2.09l-7.06,1c-3,.42-4.18,1.61-4.18,3.68,0,2.22,1.36,3.56,4.53,3.56C1065.4,405.07,1067.94,402.47,1067.94,398.93Z"/><path class="cls-2" d="M1078.81,385.62h2.93l.49,3.82h.21A8.14,8.14,0,0,1,1090,385c4.74,0,7.28,2.77,7.28,7.78v14.56h-3.51V393.81c0-3.75-1.55-5.59-4.8-5.59-3.8,0-6.61,2.89-6.61,7.24v11.88h-3.5Z"/><path class="cls-2" d="M1103,396.47c0-7.22,3.46-11.47,9.37-11.47,3.5,0,5.81,1.53,7.07,4.17h.19V376.4h3.5v30.94h-2.92l-.5-3.81h-.21a7.53,7.53,0,0,1-7.26,4.43C1106.38,408,1103,403.73,1103,396.47Zm16.75,0c0-5-2.12-8.44-6.79-8.44-4.14,0-6.37,2.77-6.37,8.44s2.23,8.42,6.39,8.42C1117.59,404.91,1119.71,401.48,1119.71,396.49Z"/><path class="cls-2" d="M1147.08,383.64v2h5.82v3h-5.82v18.71h-3.51V388.63h-4.08v-3h4.08v-2.19c0-5.44,2.56-7.65,7-7.65a13.27,13.27,0,0,1,3.14.39l-.39,2.93a9.6,9.6,0,0,0-2.17-.25C1148.17,378.85,1147.08,380.15,1147.08,383.64Z"/><path class="cls-2" d="M1155.72,396.45c0-7.36,3.75-11.45,10.29-11.45s10.34,4.09,10.34,11.45S1172.57,408,1166,408,1155.72,403.86,1155.72,396.45Zm17,0c0-5.61-2.23-8.4-6.75-8.4s-6.7,2.79-6.7,8.4,2.21,8.48,6.7,8.48S1172.76,402.08,1172.76,396.45Z"/><path class="cls-2" d="M1182.47,376.4H1186v30.94h-3.51Z"/><path class="cls-2" d="M1193.84,376.4h3.5v30.94h-3.5Z"/><path class="cls-2" d="M1203.47,396.45c0-7.36,3.75-11.45,10.29-11.45s10.34,4.09,10.34,11.45S1220.32,408,1213.76,408,1203.47,403.86,1203.47,396.45Zm17,0c0-5.61-2.23-8.4-6.75-8.4s-6.7,2.79-6.7,8.4,2.21,8.48,6.7,8.48S1220.51,402.08,1220.51,396.45Z"/><path class="cls-2" d="M1227,385.62h3.8l5.48,18.05h.21l5.28-18.05h4.21l5.32,18.05h.23l5.43-18.05h3.5l-7,21.72H1249l-5.26-17.59h-.12l-5.26,17.59H1234Z"/><path class="cls-2" d="M1266.89,397.59c.27,4.93,2.58,7.36,6.65,7.36,3.38,0,4.91-1.42,5.61-3.44l3.46.33c-.92,3.58-3.52,6.12-9,6.12-6.6,0-10.28-4.19-10.28-11.41,0-7.53,4-11.57,10-11.57s9.72,3.82,9.72,10.63v2Zm0-2.71h12.6c-.18-4.66-2.29-7-6.25-7C1269.54,387.91,1267.33,390.12,1266.94,394.88Z"/><path class="cls-2" d="M1287.37,396.47c0-7.22,3.47-11.47,9.37-11.47,3.51,0,5.82,1.53,7.08,4.17h.18V376.4h3.51v30.94h-2.93l-.5-3.81h-.2a7.54,7.54,0,0,1-7.26,4.43C1290.8,408,1287.37,403.73,1287.37,396.47Zm16.76,0c0-5-2.13-8.44-6.79-8.44-4.15,0-6.38,2.77-6.38,8.44s2.23,8.42,6.4,8.42C1302,404.91,1304.13,401.48,1304.13,396.49Z"/><path class="cls-2" d="M1330.3,403.53h-.21l-.49,3.81h-2.93V376.4h3.5v12.77h.19a7.19,7.19,0,0,1,7-4.17c6.05,0,9.45,4.25,9.45,11.49s-3.4,11.47-9.32,11.47A7.52,7.52,0,0,1,1330.3,403.53Zm12.91-7c0-5.67-2.16-8.44-6.52-8.44s-6.64,3.47-6.64,8.44,2.19,8.42,6.64,8.42S1343.21,402.14,1343.21,396.49Z"/><path class="cls-2" d="M1370.15,385.62l-7.9,21.72c-2,5.59-4.07,8.73-8.91,8.73a13.25,13.25,0,0,1-3.2-.41l.41-3a13.7,13.7,0,0,0,2.6.29c2.48,0,4.09-1.37,5.84-5.62h-1.36l-8.36-21.72h3.8l6.89,18.44h.18l6.36-18.44Z"/><path class="cls-2" d="M1383.76,401.73c0-3.94,2.25-5.88,7.49-6.54l7.32-.95v-1.5c0-3.41-1.63-4.87-5.18-4.87s-4.85,1.53-5.28,4.13l-3.46-.31c.61-4.13,3.07-6.71,8.78-6.71s8.54,2.37,8.54,7.59v14.77H1399l-.37-3.4h-.2c-1.2,2.48-3.65,4-7.31,4C1386.34,407.94,1383.76,405.63,1383.76,401.73Zm14.81-2.8v-2.09l-7,1c-3,.42-4.19,1.61-4.19,3.68,0,2.22,1.36,3.56,4.54,3.56C1396,405.07,1398.57,402.47,1398.57,398.93Z"/><path class="cls-2" d="M53.21,483.1c0-7.2,3.71-11.47,10.06-11.47,5.55,0,8.71,2.72,9.29,7.47l-3.53.29c-.43-3.1-2.25-4.71-5.76-4.71-4.35,0-6.47,2.89-6.47,8.42s2.16,8.46,6.52,8.46c3.54,0,5.26-1.55,5.73-4.64l3.51.31c-.6,4.7-3.53,7.36-9.29,7.36C56.94,494.59,53.21,490.36,53.21,483.1Z"/><path class="cls-2" d="M76.78,483.08c0-7.37,3.76-11.45,10.3-11.45s10.33,4.08,10.33,11.45-3.77,11.51-10.33,11.51S76.78,490.49,76.78,483.08Zm17,0c0-5.61-2.23-8.4-6.74-8.4s-6.71,2.79-6.71,8.4,2.21,8.48,6.71,8.48S93.82,488.71,93.82,483.08Z"/><path class="cls-2" d="M103.53,472.25h2.93l.5,3.82h.21a6.42,6.42,0,0,1,6.27-4.44,9.16,9.16,0,0,1,2.22.27l-.37,3.32a8.54,8.54,0,0,0-2-.25c-3.53,0-6.21,2.81-6.21,7.1V494h-3.51Z"/><path class="cls-2" d="M120.22,472.25h2.93l.5,3.82h.2c1.16-2.83,3.24-4.44,6.27-4.44a9.24,9.24,0,0,1,2.23.27l-.37,3.32a8.68,8.68,0,0,0-2-.25c-3.53,0-6.21,2.81-6.21,7.1V494h-3.51Z"/><path class="cls-2" d="M138.76,484.21c.27,4.94,2.58,7.37,6.65,7.37,3.38,0,4.91-1.42,5.61-3.45l3.46.33c-.92,3.59-3.52,6.13-9,6.13-6.6,0-10.28-4.19-10.28-11.41,0-7.53,3.94-11.57,10-11.57s9.72,3.82,9.72,10.62v2Zm.05-2.7h12.6c-.19-4.66-2.29-7-6.25-7C141.4,474.54,139.2,476.75,138.81,481.51Z"/><path class="cls-2" d="M159.24,483.1c0-7.2,3.72-11.47,10.07-11.47,5.55,0,8.71,2.72,9.29,7.47l-3.53.29c-.44-3.1-2.25-4.71-5.76-4.71-4.35,0-6.48,2.89-6.48,8.42s2.17,8.46,6.52,8.46c3.55,0,5.26-1.55,5.74-4.64l3.51.31c-.6,4.7-3.53,7.36-9.29,7.36C163,494.59,159.24,490.36,159.24,483.1Z"/><path class="cls-2" d="M189.3,487.39c0,3,1.3,4,3.83,4a10.41,10.41,0,0,0,2.79-.41l.39,2.91a14.15,14.15,0,0,1-3.88.58c-4.58,0-6.64-2.29-6.64-6.75V475.26h-4.48v-3h4.48l.76-6.75h2.75v6.75h6.91v3H189.3Z"/><path class="cls-2" d="M201,466.21a2.42,2.42,0,0,1,4.83,0,2.42,2.42,0,0,1-4.83,0Zm.66,6h3.51V494h-3.51Z"/><path class="cls-2" d="M209.3,472.25h3.8l6.68,18.13H220l6.56-18.13h3.65L221.93,494h-4.31Z"/><path class="cls-2" d="M236.24,484.21c.27,4.94,2.58,7.37,6.64,7.37,3.39,0,4.91-1.42,5.62-3.45l3.46.33c-.93,3.59-3.53,6.13-9,6.13-6.6,0-10.27-4.19-10.27-11.41,0-7.53,3.94-11.57,10-11.57s9.71,3.82,9.71,10.62v2Zm0-2.7h12.61c-.19-4.66-2.29-7-6.25-7C238.88,474.54,236.67,476.75,236.28,481.51Z"/><path class="cls-2" d="M267.59,488l3.47-.29c.39,2.79,2.27,4,5.79,4,3.16,0,5.08-1.27,5.08-3.5s-1.32-2.81-4.05-3.37l-2.86-.59c-4.29-.91-6.44-2.64-6.44-6.11,0-4.33,3-6.6,8.05-6.6,5.32,0,8.08,2.08,8.41,6.35l-3.46.29c-.25-2.62-1.82-3.75-5-3.75-3,0-4.58,1.11-4.58,3.38,0,1.9,1.13,2.74,3.75,3.3l2.95.64c4.44,1,6.66,2.41,6.66,6,0,4.32-3.21,6.79-8.58,6.79C270.83,494.59,268,492.3,267.59,488Z"/><path class="cls-2" d="M289.45,488.36c0-3.94,2.25-5.88,7.49-6.54l7.33-.95v-1.5c0-3.41-1.63-4.87-5.18-4.87s-4.85,1.52-5.28,4.12l-3.47-.31c.62-4.12,3.08-6.7,8.79-6.7s8.54,2.37,8.54,7.59V494h-2.93l-.37-3.4h-.21c-1.19,2.47-3.65,4-7.3,4C292,494.57,289.45,492.26,289.45,488.36Zm14.82-2.8v-2.09l-7.06,1c-3,.42-4.19,1.61-4.19,3.67,0,2.23,1.37,3.57,4.54,3.57C301.73,491.7,304.27,489.1,304.27,485.56Z"/><path class="cls-2" d="M313.4,483.1c0-7.2,3.72-11.47,10.07-11.47,5.55,0,8.7,2.72,9.28,7.47l-3.53.29c-.43-3.1-2.24-4.71-5.75-4.71-4.35,0-6.48,2.89-6.48,8.42s2.17,8.46,6.52,8.46c3.55,0,5.26-1.55,5.74-4.64l3.5.31c-.6,4.7-3.53,7.36-9.28,7.36C317.14,494.59,313.4,490.36,313.4,483.1Z"/><path class="cls-2" d="M337,483.1c0-7.2,3.71-11.47,10.06-11.47,5.55,0,8.71,2.72,9.29,7.47l-3.53.29c-.43-3.1-2.25-4.71-5.76-4.71-4.35,0-6.47,2.89-6.47,8.42s2.16,8.46,6.52,8.46c3.54,0,5.26-1.55,5.73-4.64l3.51.31c-.6,4.7-3.53,7.36-9.29,7.36C340.71,494.59,337,490.36,337,483.1Z"/><path class="cls-2" d="M360,488.36c0-3.94,2.25-5.88,7.49-6.54l7.33-.95v-1.5c0-3.41-1.63-4.87-5.18-4.87s-4.85,1.52-5.28,4.12l-3.47-.31c.62-4.12,3.08-6.7,8.79-6.7s8.54,2.37,8.54,7.59V494h-2.93l-.37-3.4h-.21c-1.19,2.47-3.65,4-7.3,4C362.53,494.57,360,492.26,360,488.36Zm14.82-2.8v-2.09l-7.06,1c-3,.42-4.19,1.61-4.19,3.67,0,2.23,1.36,3.57,4.54,3.57C372.23,491.7,374.77,489.1,374.77,485.56Z"/><path class="cls-2" d="M383.9,483.1c0-7.22,3.47-11.47,9.37-11.47,3.5,0,5.81,1.53,7.07,4.17h.19V463H404V494h-2.93l-.5-3.81h-.2a7.55,7.55,0,0,1-7.27,4.43C387.33,494.59,383.9,490.36,383.9,483.1Zm16.75,0c0-5-2.12-8.44-6.78-8.44-4.15,0-6.38,2.77-6.38,8.44s2.23,8.42,6.4,8.42C398.53,491.54,400.65,488.11,400.65,483.12Z"/><path class="cls-2" d="M413.77,484.21c.27,4.94,2.58,7.37,6.64,7.37,3.38,0,4.91-1.42,5.61-3.45l3.47.33c-.93,3.59-3.53,6.13-9,6.13-6.6,0-10.27-4.19-10.27-11.41,0-7.53,3.94-11.57,10-11.57s9.72,3.82,9.72,10.62v2Zm0-2.7h12.6c-.18-4.66-2.29-7-6.25-7C416.41,474.54,414.2,476.75,413.81,481.51Z"/><path class="cls-2" d="M434.33,491.85a2.66,2.66,0,0,1,5.32,0,2.66,2.66,0,0,1-5.32,0Z"/><circle cx="155.63" cy="223.66" r="4.81"/><circle cx="351.75" cy="223.66" r="4.81"/><circle cx="535.83" cy="223.66" r="4.81"/><circle cx="728.34" cy="223.66" r="4.81"/><circle cx="917.24" cy="223.66" r="4.81"/><circle cx="1061.62" cy="223.66" r="4.81"/><circle cx="1210.82" cy="223.66" r="4.81"/><circle cx="81.03" cy="310.29" r="4.81"/><circle cx="214.59" cy="310.29" r="4.81"/><circle class="cls-3" cx="214.59" cy="310.29" r="12.03"/><circle cx="298.81" cy="310.29" r="4.81"/><circle cx="488.91" cy="310.29" r="4.81"/><circle cx="656.15" cy="310.29" r="4.81"/><circle cx="888.37" cy="310.29" r="4.81"/><circle cx="1039.97" cy="310.29" r="4.81"/><circle cx="1198.79" cy="310.29" r="4.81"/><circle cx="139.99" cy="396.92" r="4.81"/><circle cx="326.48" cy="396.92" r="4.81"/><circle cx="444.39" cy="396.92" r="4.81"/><circle cx="611.63" cy="396.92" r="4.81"/><circle cx="790.91" cy="396.92" r="4.81"/><circle cx="944.91" cy="396.92" r="4.81"/><circle cx="1349.18" cy="396.92" r="4.81"/><circle cx="1178.33" cy="396.92" r="4.81"/><circle cx="108.71" cy="483.55" r="4.81"/><circle cx="313.25" cy="483.55" r="4.81"/><circle cx="204.96" cy="483.55" r="4.81"/><circle class="cls-3" cx="204.96" cy="483.55" r="12.03"/><path class="cls-4" d="M242.14,278l2.31-1"/><path class="cls-5" d="M249.15,275.3c148.51-50.9,900.13,19.51,954.19-35.84"/><path class="cls-4" d="M1204.92,237.52a9.8,9.8,0,0,0,1.08-2.24"/><polygon points="250.86 281.35 224.81 291.79 242.15 269.73 250.86 281.35"/><path class="cls-4" d="M166.26,364.52c.74-.33,1.51-.65,2.3-1"/><path class="cls-6" d="M173.24,361.77c154-54.46,959.35,18.6,1015.61-36.92"/><path class="cls-4" d="M1190.46,322.93a8.76,8.76,0,0,0,1.11-2.23"/><polygon points="174.99 367.8 149.01 378.42 166.2 356.24 174.99 367.8"/><path class="cls-4" d="M233.12,452c.75-.3,1.53-.59,2.33-.88"/><path class="cls-7" d="M240.18,449.55c163.51-51.79,1044.07,17.76,1103.22-38.12"/><path class="cls-4" d="M1345.05,409.55a8.28,8.28,0,0,0,1.12-2.22"/><polygon points="241.65 455.72 215.19 465.04 233.44 443.74 241.65 455.72"/><path class="cls-4" d="M162.85,212.37c40.29-31.51,117.43-36.53,163.06-12.67"/><polygon points="317.56 203.2 344.07 212.38 325.7 191.17 317.56 203.2"/><path class="cls-4" d="M359,212.37c40.16-31.42,107.9-36.5,151.18-12.89"/><polygon points="501.76 202.86 528.16 212.38 510.06 190.93 501.76 202.86"/><path class="cls-4" d="M546.66,212.37c40.16-31.42,107.91-36.5,151.19-12.89"/><polygon points="689.46 202.86 715.86 212.38 697.76 190.93 689.46 202.86"/><path class="cls-4" d="M738,212.37c40.16-31.42,107.9-36.5,151.18-12.89"/><polygon points="880.77 202.86 907.16 212.38 889.06 190.93 880.77 202.86"/><path class="cls-4" d="M926.87,212.37c39.62-31,74.4-36.36,108.58-13.82"/><polygon points="1026.93 201.38 1052.74 212.38 1035.89 189.95 1026.93 201.38"/><path class="cls-4" d="M1073.65,212.37c31-32.69,74-36.84,110.81-13.6"/><polygon points="1175.98 201.72 1201.94 212.38 1184.79 190.17 1175.98 201.72"/><path class="cls-4" d="M88.25,297.79c38.1-42,131-47.69,181.67-14.36"/><polygon points="261.29 286.07 286.78 297.8 270.57 274.9 261.29 286.07"/><path class="cls-4" d="M119.54,471c38-42,120.29-46.72,168.62-13.39"/><polygon points="279.51 460.15 304.82 472.25 288.95 449.12 279.51 460.15"/><path class="cls-4" d="M312,297.79c40.11-31.37,104.12-36.48,146.44-13"/><polygon points="450.08 288.14 476.42 297.8 458.44 276.26 450.08 288.14"/><path class="cls-4" d="M670.59,297.79c41.27-32.28,127.41-37.23,183.68-11"/><polygon points="846.29 290.85 873.47 297.8 853.41 278.19 846.29 290.85"/><path class="cls-4" d="M500.94,297.79c39.86-31.17,87.62-36.42,125.56-13.42"/><polygon points="618.05 287.44 644.12 297.8 626.73 275.79 618.05 287.44"/><path class="cls-4" d="M898,297.79c39.7-31.05,78.4-36.37,113.74-13.69"/><polygon points="1003.24 287 1029.14 297.8 1012.11 275.5 1003.24 287"/><path class="cls-4" d="M1047.18,297.79c39.8-31.12,83.92-36.4,120.84-13.53"/><polygon points="1159.55 287.26 1185.55 297.8 1168.3 275.67 1159.55 287.26"/><path class="cls-4" d="M147.21,385.62c40.15-31.4,107.31-36.49,150.45-12.9"/><polygon points="289.27 376.09 315.65 385.63 297.57 364.18 289.27 376.09"/><path class="cls-4" d="M340.92,385.62c19.32-19.9,48.71-25.38,74.49-12.69"/><polygon points="407.05 376.46 433.56 385.63 415.19 364.43 407.05 376.46"/><path class="cls-4" d="M457.63,385.62c37.28-30.67,86-36.27,124.31-13.36"/><polygon points="573.49 375.36 599.6 385.63 582.13 363.68 573.49 375.36"/><path class="cls-4" d="M624.87,385.62c40-31.27,96-36.45,136.22-13.19"/><polygon points="752.66 375.64 778.88 385.63 761.17 363.87 752.66 375.64"/><path class="cls-4" d="M804.14,385.62c32-27.48,75.28-35.36,112.09-13.38"/><polygon points="907.78 375.33 933.88 385.63 916.43 363.66 907.78 375.33"/><path class="cls-4" d="M1185.55,385.62c32.23-27.67,92.2-35.47,133.61-12.92"/><polygon points="1310.77 376.07 1337.15 385.63 1319.09 364.16 1310.77 376.07"/><path class="cls-4" d="M957,385.62c40.54-31.71,140-36.59,190.87-12.19"/><polygon points="1139.55 377.17 1166.3 385.63 1147.37 364.92 1139.55 377.17"/><path class="cls-3" d="M100.53,286c29.82-20.28,77-17.7,101.57,11.84"/><polygon class="cls-8" points="109.38 288.17 84.64 301.4 99.45 277.57 109.38 288.17"/><path class="cls-3" d="M131.19,458.63c23.52-15,50-9,66.1,10"/><polygon class="cls-8" points="139.94 461.15 114.72 473.46 130.4 450.19 139.94 461.15"/></svg>