<svg width="900" height="900" xmlns="http://www.w3.org/2000/svg" fill-rule="evenodd" clip-rule="evenodd" stroke-linejoin="round" stroke-miterlimit="2"><path d="M375.485 450L15.321 89.836c-20.428-20.443-20.428-54.071 0-74.515 20.444-20.428 54.072-20.428 74.515 0L450 375.485 810.164 15.321c20.443-20.428 54.071-20.428 74.515 0 20.428 20.444 20.428 54.072 0 74.515L524.515 450l360.164 360.164c20.428 20.443 20.428 54.071 0 74.515-20.444 20.428-54.072 20.428-74.515 0L450 524.515 89.836 884.679c-20.443 20.428-54.071 20.428-74.515 0-20.428-20.444-20.428-54.072 0-74.515L375.485 450z"/></svg>