<svg width="900" height="900" xmlns="http://www.w3.org/2000/svg" fill-rule="evenodd" clip-rule="evenodd" stroke-linejoin="round" stroke-miterlimit="2">
    <path d="M0 150c0-27.429 22.571-50 50-50h800c27.429 0 50 22.571 50 50s-22.571 50-50 50H50c-27.429 0-50-22.571-50-50zm0 300c0-27.429 22.571-50 50-50h650c27.429 0 50 22.571 50 50s-22.571 50-50 50H50c-27.429 0-50-22.571-50-50zm0 300c0-27.429 22.571-50 50-50h750c27.429 0 50 22.571 50 50s-22.571 50-50 50H50c-27.429 0-50-22.571-50-50z" fill="#fff" fill-rule="nonzero" />
</svg>