<svg width="900" height="901" xmlns="http://www.w3.org/2000/svg" fill-rule="evenodd" clip-rule="evenodd" stroke-linejoin="round" stroke-miterlimit="2"><path d="M871.381 871.381a97.483 97.483 0 01-69.092 28.729 97.482 97.482 0 01-69.092-28.729L450 588.184 166.803 871.381A97.746 97.746 0 0197.711 900C44.108 900 0 855.892 0 802.289a97.746 97.746 0 0128.619-69.092L311.816 450 28.619 166.803A97.746 97.746 0 010 97.711C0 44.108 44.108 0 97.711 0a97.746 97.746 0 0169.092 28.619L450 311.816 733.197 28.619A97.746 97.746 0 01802.289 0C855.892 0 900 44.108 900 97.711a97.746 97.746 0 01-28.619 69.092L588.184 450l283.197 283.197c37.018 38.297 37.018 99.887 0 138.184z" fill-rule="nonzero"/></svg>