<svg width="1000" height="1000" xmlns="http://www.w3.org/2000/svg" fill-rule="evenodd" clip-rule="evenodd" stroke-linejoin="round" stroke-miterlimit="2"><path d="M500 50C251.6 50 50 251.6 50 500s201.6 450 450 450 450-201.6 450-450S748.4 50 500 50zM140 500c0-198.675 161.325-360 360-360s360 161.325 360 360-161.325 360-360 360-360-161.325-360-360zm360 225c-24.75 0-45-20.25-45-45V500c0-24.75 20.25-45 45-45s45 20.25 45 45v180c0 24.75-20.25 45-45 45zm0-450c24.686 0 45 20.314 45 45s-20.314 45-45 45-45-20.314-45-45 20.314-45 45-45z" fill-rule="nonzero"/></svg>