<svg width="270" height="270" viewBox="0 0 270 270" fill="none" xmlns="http://www.w3.org/2000/svg">
<g clip-path="url(#clip0_7402_9362)">
<rect width="270" height="270" rx="20" fill="#302C0D"/>
<path d="M92.6248 87.1524H62.0971V171H91.4438C116.008 171 128.467 157.655 128.467 129.194C128.467 100.202 115.89 87.1524 92.6248 87.1524ZM90.7352 156.651H80.52V101.501H90.7352C103.49 101.501 109.571 108.528 109.571 129.194C109.571 149.625 103.49 156.651 90.7352 156.651ZM173.206 140.768L191.865 171H211.941L192.278 139.528C204.56 137.461 210.938 128.663 210.938 114.196C210.938 96.1867 202.198 87.1524 183.126 87.1524H144.804V171H163.168V140.768H173.206ZM178.698 100.615C189.09 100.615 193.164 104.276 193.164 114.373C193.164 124.47 188.854 128.19 178.52 128.19H163.168V100.615H178.698Z" fill="#F9F7EF"/>
</g>
<defs>
<clipPath id="clip0_7402_9362">
<rect width="270" height="270" fill="white"/>
</clipPath>
</defs>
</svg>
