<?xml version="1.0" encoding="UTF-8"?>
<svg xmlns="http://www.w3.org/2000/svg" xmlns:xlink="http://www.w3.org/1999/xlink" width="182.224pt" height="197.925pt" viewBox="0 0 182.224 197.925">
<defs>
<filter id="filter-remove-color" x="0%" y="0%" width="100%" height="100%">
<feColorMatrix color-interpolation-filters="sRGB" values="0 0 0 0 1 0 0 0 0 1 0 0 0 0 1 0 0 0 1 0" />
</filter>
<mask id="mask-0">
<g filter="url(#filter-remove-color)">
<rect x="-18.2224" y="-19.7925" width="218.6688" height="237.51" fill="rgb(0%, 0%, 0%)" fill-opacity="0.5"/>
</g>
</mask>
<clipPath id="clip-0">
<path clip-rule="nonzero" d="M 0.0117188 0.136719 L 56.3125 0.136719 L 56.3125 78.496094 L 0.0117188 78.496094 Z M 0.0117188 0.136719 "/>
</clipPath>
<clipPath id="clip-1">
<rect x="0" y="0" width="57" height="79"/>
</clipPath>
<g id="source-5" clip-path="url(#clip-1)">
<g clip-path="url(#clip-0)">
<path fill-rule="nonzero" fill="rgb(13.729858%, 12.159729%, 12.548828%)" fill-opacity="1" d="M 21.523438 37.453125 C 22.730469 34.378906 25.582031 31.964844 29.753906 31.964844 C 33.15625 31.964844 40.507812 34.269531 40.507812 50.183594 C 40.507812 64.558594 32.496094 69.828125 27.558594 69.9375 C 25.582031 69.9375 23.9375 69.609375 21.523438 68.070312 Z M 0.0117188 74.21875 C 2.644531 74.65625 12.742188 75.972656 21.523438 78.496094 L 21.523438 72.132812 C 23.496094 73.449219 26.242188 75.09375 28.214844 76.410156 C 30.851562 78.058594 32.496094 78.386719 33.703125 78.386719 C 43.03125 78.386719 56.3125 70.375 56.3125 54.023438 C 56.3125 38.988281 43.03125 27.027344 25.910156 27.027344 C 25.144531 27.027344 23.277344 27.027344 21.523438 27.355469 L 21.523438 14.734375 C 21.523438 8.917969 22.070312 8.367188 28.875 7.492188 L 28.875 3.871094 C 21.632812 3.101562 12.742188 1.675781 7.253906 0.136719 L 7.253906 63.242188 C 7.253906 69.167969 6.597656 69.71875 2.425781 70.265625 L 0.0117188 70.59375 Z M 0.0117188 74.21875 "/>
</g>
</g>
<mask id="mask-1">
<g filter="url(#filter-remove-color)">
<rect x="-18.2224" y="-19.7925" width="218.6688" height="237.51" fill="rgb(0%, 0%, 0%)" fill-opacity="0.5"/>
</g>
</mask>
<clipPath id="clip-2">
<path clip-rule="nonzero" d="M 0.695312 0.00390625 L 52.386719 0.00390625 L 52.386719 75.972656 L 0.695312 75.972656 Z M 0.695312 0.00390625 "/>
</clipPath>
<clipPath id="clip-3">
<rect x="0" y="0" width="53" height="76"/>
</clipPath>
<g id="source-8" clip-path="url(#clip-3)">
<g clip-path="url(#clip-2)">
<path fill-rule="nonzero" fill="rgb(13.729858%, 12.159729%, 12.548828%)" fill-opacity="1" d="M 26.515625 65.84375 C 23.371094 65.84375 20.796875 65.140625 18.796875 63.734375 C 16.792969 62.328125 15.3125 60.308594 14.351562 57.675781 C 13.390625 55.042969 12.910156 51.875 12.910156 48.167969 C 12.910156 44.492188 13.390625 41.339844 14.351562 38.707031 C 15.3125 36.078125 16.792969 34.058594 18.796875 32.652344 C 20.796875 31.246094 23.371094 30.539062 26.515625 30.539062 C 30.917969 30.539062 34.222656 32.007812 36.421875 34.933594 C 38.625 37.863281 39.726562 42.277344 39.726562 48.167969 C 39.726562 54.09375 38.625 58.519531 36.421875 61.449219 C 34.222656 64.378906 30.917969 65.84375 26.515625 65.84375 M 30.339844 75.972656 C 37.257812 75.972656 42.664062 73.515625 46.550781 68.601562 C 50.441406 63.683594 52.386719 56.875 52.386719 48.167969 C 52.386719 39.460938 50.425781 32.660156 46.503906 27.761719 C 42.578125 22.863281 37.09375 20.410156 30.042969 20.410156 C 27.292969 20.410156 24.855469 20.800781 22.71875 21.578125 C 20.582031 22.355469 18.769531 23.472656 17.28125 24.929688 C 15.792969 26.386719 14.582031 28.15625 13.65625 30.242188 L 13.109375 30.242188 L 13.109375 0.00390625 L 0.695312 0.00390625 L 0.695312 74.484375 L 11.421875 74.484375 L 12.863281 65.296875 L 13.359375 65.296875 C 14.449219 67.550781 15.777344 69.46875 17.332031 71.058594 C 18.886719 72.648438 20.734375 73.863281 22.867188 74.707031 C 25.003906 75.550781 27.492188 75.972656 30.339844 75.972656 "/>
</g>
</g>
</defs>
<path fill-rule="nonzero" fill="rgb(13.729858%, 12.159729%, 12.548828%)" fill-opacity="1" d="M 20.722656 69 C 20.722656 70.535156 21.050781 71.851562 21.378906 72.730469 C 22.039062 74.375 25.113281 77.777344 29.171875 77.777344 C 34.988281 77.777344 39.269531 71.304688 39.269531 57.804688 C 39.269531 43.757812 32.355469 38.269531 25.769531 38.269531 C 23.464844 38.269531 22.367188 38.597656 20.722656 39.035156 Z M 24.78125 33.109375 C 27.964844 31.683594 30.378906 31.027344 32.574219 31.027344 C 45.964844 31.027344 54.851562 41.890625 54.851562 54.183594 C 54.851562 69.765625 42.011719 82.386719 25.988281 82.386719 C 19.625 82.386719 14.027344 81.289062 6.457031 78.4375 C 6.566406 75.800781 6.566406 72.730469 6.566406 69.984375 L 6.566406 19.171875 C 6.566406 12.917969 5.90625 12.039062 -0.238281 11.601562 L -0.238281 7.871094 C 5.46875 7.320312 14.6875 5.785156 20.722656 4.136719 L 20.722656 34.976562 Z M 24.78125 33.109375 "/>
<path fill-rule="nonzero" fill="rgb(13.729858%, 12.159729%, 12.548828%)" fill-opacity="1" d="M 96.878906 41.453125 C 95.671875 38.378906 92.820312 35.964844 88.648438 35.964844 C 85.246094 35.964844 77.894531 38.269531 77.894531 54.183594 C 77.894531 68.558594 85.90625 73.828125 90.84375 73.9375 C 92.820312 73.9375 94.46875 73.609375 96.878906 72.070312 Z M 118.390625 78.21875 C 115.757812 78.65625 105.660156 79.972656 96.878906 82.496094 L 96.878906 76.132812 C 94.90625 77.449219 92.160156 79.09375 90.1875 80.410156 C 87.554688 82.058594 85.90625 82.386719 84.699219 82.386719 C 75.371094 82.386719 62.09375 74.375 62.09375 58.023438 C 62.09375 42.988281 75.371094 31.027344 92.492188 31.027344 C 93.257812 31.027344 95.125 31.027344 96.878906 31.355469 L 96.878906 18.734375 C 96.878906 12.917969 96.332031 12.367188 89.527344 11.492188 L 89.527344 7.871094 C 96.769531 7.101562 105.660156 5.675781 111.148438 4.136719 L 111.148438 67.242188 C 111.148438 73.167969 111.804688 73.71875 115.976562 74.265625 L 118.390625 74.59375 Z M 118.390625 78.21875 "/>
<g mask="url(#mask-0)">
<use xlink:href="#source-5" transform="matrix(1, 0, 0, 1, 125, 4)"/>
</g>
<path fill="none" stroke-width="0.75" stroke-linecap="butt" stroke-linejoin="miter" stroke="rgb(13.729858%, 12.159729%, 12.548828%)" stroke-opacity="1" stroke-miterlimit="10" d="M -0.00158125 -0.0016625 C -3.286738 -15.954787 25.471075 -15.466506 22.658575 0.326463 " transform="matrix(1, 0, 0, -1, 113.2008, 86.0999)"/>
<path fill-rule="nonzero" fill="rgb(13.729858%, 12.159729%, 12.548828%)" fill-opacity="1" d="M 138.1875 87.210938 L 137.855469 87.617188 L 135.851562 85.976562 L 134.363281 88.097656 L 133.933594 87.792969 L 135.75 85.214844 Z M 138.1875 87.210938 "/>
<path fill="none" stroke-width="0.75" stroke-linecap="butt" stroke-linejoin="miter" stroke="rgb(13.729858%, 12.159729%, 12.548828%)" stroke-opacity="1" stroke-miterlimit="10" d="M -0.00158125 -0.00186875 C -3.286738 15.955163 25.471075 15.466881 22.658575 -0.326087 " transform="matrix(1, 0, 0, -1, 113.2008, 113.3536)"/>
<path fill-rule="nonzero" fill="rgb(13.729858%, 12.159729%, 12.548828%)" fill-opacity="1" d="M 133.933594 111.660156 L 134.363281 111.359375 L 135.851562 113.476562 L 137.855469 111.835938 L 138.1875 112.242188 L 135.746094 114.238281 Z M 133.933594 111.660156 "/>
<path fill-rule="nonzero" fill="rgb(13.729858%, 12.159729%, 12.548828%)" fill-opacity="1" d="M 32.371094 183.84375 C 36.9375 183.84375 40.320312 182.378906 42.523438 179.449219 C 44.726562 176.519531 45.824219 172.09375 45.824219 166.167969 C 45.824219 160.277344 44.726562 155.863281 42.523438 152.933594 C 40.320312 150.007812 36.9375 148.539062 32.371094 148.539062 C 29.355469 148.539062 26.867188 149.253906 24.898438 150.675781 C 22.925781 152.101562 21.453125 154.125 20.476562 156.757812 C 19.5 159.390625 19.011719 162.527344 19.011719 166.167969 C 19.011719 169.875 19.5 173.042969 20.476562 175.675781 C 21.453125 178.308594 22.925781 180.328125 24.898438 181.734375 C 26.867188 183.140625 29.355469 183.84375 32.371094 183.84375 M 36.492188 193.972656 C 33.609375 193.972656 31.105469 193.550781 28.96875 192.707031 C 26.835938 191.863281 24.988281 190.648438 23.433594 189.058594 C 21.875 187.46875 20.570312 185.550781 19.511719 183.296875 L 18.964844 183.296875 L 17.523438 192.484375 L 6.796875 192.484375 L 6.796875 118.003906 L 19.210938 118.003906 L 19.210938 148.242188 L 19.757812 148.242188 C 20.683594 146.191406 21.894531 144.4375 23.382812 142.980469 C 24.871094 141.523438 26.667969 140.398438 28.769531 139.601562 C 30.871094 138.808594 33.3125 138.410156 36.09375 138.410156 C 43.210938 138.410156 48.722656 140.851562 52.628906 145.734375 C 56.535156 150.617188 58.488281 157.429688 58.488281 166.167969 C 58.488281 174.875 56.550781 181.683594 52.679688 186.601562 C 48.804688 191.515625 43.410156 193.972656 36.492188 193.972656 "/>
<path fill-rule="nonzero" fill="rgb(13.729858%, 12.159729%, 12.548828%)" fill-opacity="1" d="M 93.617188 183.84375 C 96.761719 183.84375 99.335938 183.140625 101.339844 181.734375 C 103.339844 180.328125 104.824219 178.308594 105.78125 175.675781 C 106.742188 173.042969 107.222656 169.875 107.222656 166.167969 C 107.222656 162.492188 106.742188 159.339844 105.78125 156.707031 C 104.824219 154.078125 103.339844 152.058594 101.339844 150.652344 C 99.335938 149.246094 96.761719 148.539062 93.617188 148.539062 C 89.214844 148.539062 85.914062 150.007812 83.710938 152.933594 C 81.507812 155.863281 80.410156 160.277344 80.410156 166.167969 C 80.410156 172.09375 81.507812 176.519531 83.710938 179.449219 C 85.914062 182.378906 89.214844 183.84375 93.617188 183.84375 M 89.792969 193.972656 C 82.875 193.972656 77.472656 191.515625 73.582031 186.601562 C 69.691406 181.683594 67.746094 174.875 67.746094 166.167969 C 67.746094 157.460938 69.710938 150.660156 73.632812 145.761719 C 77.554688 140.863281 83.042969 138.410156 90.09375 138.410156 C 92.839844 138.410156 95.28125 138.800781 97.417969 139.578125 C 99.550781 140.355469 101.363281 141.472656 102.851562 142.929688 C 104.34375 144.386719 105.550781 146.15625 106.476562 148.242188 L 107.023438 148.242188 L 107.023438 118.003906 L 119.4375 118.003906 L 119.4375 192.484375 L 108.710938 192.484375 L 107.273438 183.296875 L 106.773438 183.296875 C 105.683594 185.550781 104.359375 187.46875 102.804688 189.058594 C 101.246094 190.648438 99.402344 191.863281 97.265625 192.707031 C 95.132812 193.550781 92.640625 193.972656 89.792969 193.972656 "/>
<g mask="url(#mask-1)">
<use xlink:href="#source-8" transform="matrix(1, 0, 0, 1, 128, 118)"/>
</g>
</svg>
