<?xml version="1.0" encoding="UTF-8"?>
<svg xmlns="http://www.w3.org/2000/svg" xmlns:xlink="http://www.w3.org/1999/xlink" width="182.224pt" height="107.343pt" viewBox="0 0 182.224 107.343">
<defs>
<filter id="filter-remove-color" x="0%" y="0%" width="100%" height="100%">
<feColorMatrix color-interpolation-filters="sRGB" values="0 0 0 0 1 0 0 0 0 1 0 0 0 0 1 0 0 0 1 0" />
</filter>
<mask id="mask-0">
<g filter="url(#filter-remove-color)">
<rect x="-18.2224" y="-10.7343" width="218.6688" height="128.8116" fill="rgb(0%, 0%, 0%)" fill-opacity="0.5"/>
</g>
</mask>
<clipPath id="clip-0">
<path clip-rule="nonzero" d="M 0.0117188 0.519531 L 56.3125 0.519531 L 56.3125 78.878906 L 0.0117188 78.878906 Z M 0.0117188 0.519531 "/>
</clipPath>
<clipPath id="clip-1">
<rect x="0" y="0" width="57" height="79"/>
</clipPath>
<g id="source-5" clip-path="url(#clip-1)">
<g clip-path="url(#clip-0)">
<path fill-rule="nonzero" fill="rgb(13.729858%, 12.159729%, 12.548828%)" fill-opacity="1" d="M 21.523438 37.832031 C 22.730469 34.757812 25.582031 32.34375 29.753906 32.34375 C 33.15625 32.34375 40.507812 34.648438 40.507812 50.5625 C 40.507812 64.941406 32.496094 70.207031 27.558594 70.316406 C 25.582031 70.316406 23.9375 69.988281 21.523438 68.453125 Z M 0.0117188 74.597656 C 2.644531 75.035156 12.742188 76.355469 21.523438 78.878906 L 21.523438 72.511719 C 23.496094 73.828125 26.242188 75.476562 28.214844 76.792969 C 30.851562 78.4375 32.496094 78.769531 33.703125 78.769531 C 43.03125 78.769531 56.3125 70.757812 56.3125 54.40625 C 56.3125 39.367188 43.03125 27.40625 25.910156 27.40625 C 25.144531 27.40625 23.277344 27.40625 21.523438 27.734375 L 21.523438 15.117188 C 21.523438 9.296875 22.070312 8.75 28.875 7.871094 L 28.875 4.25 C 21.632812 3.484375 12.742188 2.054688 7.253906 0.519531 L 7.253906 63.621094 C 7.253906 69.550781 6.597656 70.097656 2.425781 70.648438 L 0.0117188 70.976562 Z M 0.0117188 74.597656 "/>
</g>
</g>
<clipPath id="clip-2">
<path clip-rule="nonzero" d="M 102 83 L 147 83 L 147 107.34375 L 102 107.34375 Z M 102 83 "/>
</clipPath>
</defs>
<path fill-rule="nonzero" fill="rgb(13.729858%, 12.159729%, 12.548828%)" fill-opacity="1" d="M 20.722656 77.378906 C 20.722656 78.914062 21.050781 80.230469 21.378906 81.109375 C 22.039062 82.757812 25.113281 86.160156 29.171875 86.160156 C 34.988281 86.160156 39.269531 79.683594 39.269531 66.183594 C 39.269531 52.136719 32.355469 46.648438 25.769531 46.648438 C 23.464844 46.648438 22.367188 46.980469 20.722656 47.417969 Z M 24.78125 41.492188 C 27.964844 40.066406 30.378906 39.40625 32.574219 39.40625 C 45.964844 39.40625 54.851562 50.273438 54.851562 62.5625 C 54.851562 78.148438 42.011719 90.769531 25.988281 90.769531 C 19.625 90.769531 14.027344 89.671875 6.457031 86.816406 C 6.566406 84.183594 6.566406 81.109375 6.566406 78.367188 L 6.566406 27.554688 C 6.566406 21.296875 5.90625 20.421875 -0.238281 19.980469 L -0.238281 16.25 C 5.46875 15.703125 14.6875 14.164062 20.722656 12.519531 L 20.722656 43.359375 Z M 24.78125 41.492188 "/>
<path fill-rule="nonzero" fill="rgb(13.729858%, 12.159729%, 12.548828%)" fill-opacity="1" d="M 96.878906 49.832031 C 95.671875 46.757812 92.820312 44.34375 88.648438 44.34375 C 85.246094 44.34375 77.894531 46.648438 77.894531 62.5625 C 77.894531 76.941406 85.90625 82.207031 90.84375 82.316406 C 92.820312 82.316406 94.46875 81.988281 96.878906 80.453125 Z M 118.390625 86.597656 C 115.757812 87.035156 105.660156 88.355469 96.878906 90.878906 L 96.878906 84.511719 C 94.90625 85.828125 92.160156 87.476562 90.1875 88.792969 C 87.554688 90.4375 85.90625 90.769531 84.699219 90.769531 C 75.371094 90.769531 62.09375 82.757812 62.09375 66.40625 C 62.09375 51.367188 75.371094 39.40625 92.492188 39.40625 C 93.257812 39.40625 95.125 39.40625 96.878906 39.734375 L 96.878906 27.117188 C 96.878906 21.296875 96.332031 20.75 89.527344 19.871094 L 89.527344 16.25 C 96.769531 15.484375 105.660156 14.054688 111.148438 12.519531 L 111.148438 75.621094 C 111.148438 81.550781 111.804688 82.097656 115.976562 82.648438 L 118.390625 82.976562 Z M 118.390625 86.597656 "/>
<g mask="url(#mask-0)">
<use xlink:href="#source-5" transform="matrix(1, 0, 0, 1, 125, 12)"/>
</g>
<g clip-path="url(#clip-2)">
<path fill="none" stroke-width="0.75" stroke-linecap="butt" stroke-linejoin="miter" stroke="rgb(13.729858%, 12.159729%, 12.548828%)" stroke-opacity="1" stroke-miterlimit="10" d="M -0.00158125 0.00013125 C -3.286738 -15.9569 25.471075 -15.468619 22.658575 0.32435 " transform="matrix(1, 0, 0, -1, 113.2008, 94.4806)"/>
</g>
<path fill-rule="nonzero" fill="rgb(13.729858%, 12.159729%, 12.548828%)" fill-opacity="1" d="M 138.1875 95.589844 L 137.855469 95.996094 L 135.851562 94.359375 L 134.363281 96.476562 L 133.933594 96.175781 L 135.75 93.59375 Z M 138.1875 95.589844 "/>
</svg>
