<?xml version="1.0" encoding="UTF-8"?>
<svg xmlns="http://www.w3.org/2000/svg" xmlns:xlink="http://www.w3.org/1999/xlink" width="348.951pt" height="96.5201pt" viewBox="0 0 348.951 96.5201">
<path fill-rule="nonzero" fill="rgb(13.729858%, 12.159729%, 12.548828%)" fill-opacity="1" d="M 18.101562 28.363281 L 1.292969 28.363281 L 1.292969 19.46875 L 45.636719 19.46875 L 45.636719 28.363281 L 28.789062 28.363281 L 28.789062 75.765625 L 18.101562 75.765625 Z M 18.101562 28.363281 "/>
<path fill-rule="nonzero" fill="rgb(13.729858%, 12.159729%, 12.548828%)" fill-opacity="1" d="M 124.136719 28.238281 L 124.136719 43.375 L 148.164062 43.375 L 148.164062 51.65625 L 124.136719 51.65625 L 124.136719 66.996094 L 153.550781 66.996094 L 153.550781 75.765625 L 113.53125 75.765625 L 113.53125 19.46875 L 153.550781 19.46875 L 153.550781 28.238281 Z M 124.136719 28.238281 "/>
<path fill-rule="nonzero" fill="rgb(13.729858%, 12.159729%, 12.548828%)" fill-opacity="1" d="M 179.707031 47.660156 C 179.707031 29.421875 189.535156 18.246094 205.8125 18.246094 C 219.765625 18.246094 227.640625 24.203125 230.738281 39.007812 L 220.253906 39.007812 C 217.644531 30.808594 214.21875 27.179688 205.8125 27.179688 C 196.023438 27.179688 190.597656 34.644531 190.597656 47.660156 C 190.597656 60.753906 196.023438 68.054688 205.855469 68.054688 C 214.667969 68.054688 217.683594 64.058594 220.335938 55.410156 L 230.902344 55.410156 C 227.515625 70.460938 220.09375 76.988281 205.8125 76.988281 C 189.414062 76.988281 179.707031 65.894531 179.707031 47.660156 "/>
<path fill-rule="nonzero" fill="rgb(13.729858%, 12.159729%, 12.548828%)" fill-opacity="1" d="M 300.710938 28.363281 L 283.90625 28.363281 L 283.90625 19.46875 L 328.25 19.46875 L 328.25 28.363281 L 311.402344 28.363281 L 311.402344 75.765625 L 300.710938 75.765625 Z M 300.710938 28.363281 "/>
<path fill-rule="nonzero" fill="rgb(13.729858%, 12.159729%, 12.548828%)" fill-opacity="1" d="M 245.8125 19.46875 L 256.5 19.46875 L 245.816406 75.765625 L 235.128906 75.765625 Z M 245.8125 19.46875 "/>
<path fill-rule="nonzero" fill="rgb(13.729858%, 12.159729%, 12.548828%)" fill-opacity="1" d="M 285.6875 75.765625 L 274.996094 75.765625 L 264.316406 19.46875 L 275.003906 19.46875 Z M 285.6875 75.765625 "/>
<path fill-rule="nonzero" fill="rgb(13.729858%, 12.159729%, 12.548828%)" fill-opacity="1" d="M 273.21875 56.148438 L 247.597656 56.148438 L 247.597656 47.253906 L 273.21875 47.253906 Z M 273.21875 56.148438 "/>
<path fill-rule="nonzero" fill="rgb(13.729858%, 12.159729%, 12.548828%)" fill-opacity="1" d="M 61.726562 19.46875 L 72.414062 19.46875 L 61.730469 75.765625 L 51.042969 75.765625 Z M 61.726562 19.46875 "/>
<path fill-rule="nonzero" fill="rgb(13.729858%, 12.159729%, 12.548828%)" fill-opacity="1" d="M 101.597656 75.765625 L 90.910156 75.765625 L 80.226562 19.46875 L 90.914062 19.46875 Z M 101.597656 75.765625 "/>
<path fill-rule="nonzero" fill="rgb(13.729858%, 12.159729%, 12.548828%)" fill-opacity="1" d="M 89.128906 56.148438 L 63.511719 56.148438 L 63.511719 47.253906 L 89.128906 47.253906 Z M 89.128906 56.148438 "/>
</svg>
