<?xml version="1.0" encoding="UTF-8"?>
<svg xmlns="http://www.w3.org/2000/svg" xmlns:xlink="http://www.w3.org/1999/xlink" width="713.398pt" height="360.199pt" viewBox="0 0 713.398 360.199">
<path fill-rule="nonzero" fill="rgb(0%, 0%, 0%)" fill-opacity="1" d="M 73.199219 340.933594 L 73.199219 334.933594 C 82.800781 333.734375 84 332.734375 84 318.734375 L 84 284.933594 C 84 270.734375 78 264.734375 68.597656 264.734375 C 62.398438 264.734375 56.800781 267.933594 51.199219 272.335938 L 51.199219 320.132812 C 51.199219 332.933594 52.398438 333.734375 61.800781 334.933594 L 61.800781 340.933594 L 15.398438 340.933594 L 15.398438 334.933594 C 28.199219 333.335938 29.199219 332.734375 29.199219 319.535156 L 29.199219 278.136719 C 29.199219 265.933594 28.199219 265.136719 18 263.136719 L 18 257.933594 C 28.597656 256.335938 40.398438 253.734375 51.199219 250.136719 L 51.199219 265.335938 C 55.199219 262.535156 59.398438 259.335938 64 256.335938 C 69.800781 252.535156 74.199219 250.535156 80 250.535156 C 96 250.535156 106 262.136719 106 281.933594 L 106 320.132812 C 106 332.933594 107.199219 333.535156 118 334.933594 L 118 340.933594 Z M 73.199219 340.933594 "/>
<path fill-rule="nonzero" fill="rgb(0%, 0%, 0%)" fill-opacity="1" d="M 283.195312 340.933594 L 283.195312 334.933594 C 292.996094 333.734375 294.792969 332.933594 294.792969 319.933594 L 294.792969 285.734375 C 294.792969 270.136719 287.996094 264.933594 279.394531 264.933594 C 274.394531 264.933594 268.394531 267.136719 261.59375 272.734375 C 261.792969 275.136719 261.996094 277.734375 261.996094 280.933594 L 261.996094 320.933594 C 261.996094 332.734375 263.59375 333.734375 273.394531 334.933594 L 273.394531 340.933594 L 228.394531 340.933594 L 228.394531 334.933594 C 238.796875 333.734375 239.996094 332.933594 239.996094 320.734375 L 239.996094 285.136719 C 239.996094 270.535156 233.996094 264.734375 224.796875 264.734375 C 218.796875 264.734375 212.796875 268.136719 207.195312 272.535156 L 207.195312 320.734375 C 207.195312 332.734375 208.597656 333.734375 216.996094 334.933594 L 216.996094 340.933594 L 171.796875 340.933594 L 171.796875 334.933594 C 183.796875 333.734375 185.195312 332.933594 185.195312 320.132812 L 185.195312 278.335938 C 185.195312 266.335938 184.398438 264.933594 174.398438 263.136719 L 174.398438 257.933594 C 183.398438 256.335938 195.796875 253.734375 206.796875 250.136719 L 206.796875 265.734375 C 211.195312 262.734375 214.996094 259.535156 220.195312 256.535156 C 225.996094 252.933594 231.195312 250.535156 237.195312 250.535156 C 247.796875 250.535156 255.996094 256.933594 259.792969 266.535156 C 264.996094 262.535156 269.996094 259.335938 274.792969 255.933594 C 279.394531 253.136719 284.59375 250.535156 290.394531 250.535156 C 307.195312 250.535156 316.792969 262.136719 316.792969 282.136719 L 316.792969 320.734375 C 316.792969 332.933594 317.792969 333.535156 328.59375 334.933594 L 328.59375 340.933594 Z M 283.195312 340.933594 "/>
<path fill-rule="nonzero" fill="rgb(0%, 0%, 0%)" fill-opacity="1" d="M 483.792969 336.132812 C 478.394531 336.734375 472.792969 337.933594 466.792969 339.335938 C 460.792969 340.535156 454.996094 342.132812 449.792969 343.335938 L 448.195312 341.933594 L 448.195312 329.132812 C 444.394531 332.132812 441.394531 334.933594 436.394531 337.734375 C 430.59375 341.335938 425.59375 343.335938 419.59375 343.335938 C 404.195312 343.335938 393.996094 333.535156 393.996094 314.335938 L 393.996094 273.933594 C 393.996094 264.136719 392.59375 263.136719 387.59375 261.933594 L 382.59375 260.535156 L 382.59375 255.136719 C 387.195312 254.933594 392.996094 254.335938 399.195312 253.734375 C 405.394531 253.136719 411.996094 252.335938 416.59375 251.535156 C 415.996094 259.136719 415.996094 269.136719 415.996094 281.335938 L 415.996094 309.535156 C 415.996094 324.335938 423.394531 328.933594 431.195312 328.933594 C 437.195312 328.933594 442.792969 327.132812 448.195312 321.933594 L 448.195312 274.136719 C 448.195312 264.335938 446.792969 262.933594 440.996094 261.933594 L 434.394531 260.535156 L 434.394531 255.136719 C 440.195312 254.933594 447.195312 254.335938 453.792969 253.734375 C 460.195312 253.136719 466.195312 252.335938 470.195312 251.535156 L 470.195312 317.132812 C 470.195312 327.335938 471.59375 329.132812 478.992188 329.734375 L 483.792969 330.132812 Z M 483.792969 336.132812 "/>
<path fill-rule="nonzero" fill="rgb(0%, 0%, 0%)" fill-opacity="1" d="M 532.59375 340.933594 L 532.59375 334.933594 C 544.792969 333.335938 546.191406 332.335938 546.191406 319.335938 L 546.191406 226.734375 C 546.191406 213.9375 545.191406 213.535156 533.390625 212.136719 L 533.390625 206.734375 C 544.59375 205.535156 558.59375 202.535156 568.191406 199.734375 L 568.191406 319.335938 C 568.191406 332.734375 569.589844 333.734375 581.992188 334.933594 L 581.992188 340.933594 Z M 532.59375 340.933594 "/>
<path fill-rule="nonzero" fill="rgb(0%, 0%, 0%)" fill-opacity="1" d="M 644.589844 223.535156 C 644.589844 216.335938 650.390625 210.734375 657.390625 210.734375 C 664.390625 210.734375 669.988281 216.335938 669.988281 223.535156 C 669.988281 230.335938 664.390625 236.136719 657.1875 236.136719 C 650.390625 236.136719 644.589844 230.335938 644.589844 223.535156 M 634.390625 340.933594 L 634.390625 334.933594 C 646.390625 333.734375 647.589844 332.734375 647.589844 318.734375 L 647.589844 278.535156 C 647.589844 265.734375 646.589844 264.933594 635.988281 263.335938 L 635.988281 257.734375 C 647.390625 256.335938 659.390625 253.734375 669.589844 250.335938 L 669.589844 318.734375 C 669.589844 332.332031 670.589844 333.535156 682.988281 334.933594 L 682.988281 340.933594 Z M 634.390625 340.933594 "/>
<path fill="none" stroke-width="2" stroke-linecap="butt" stroke-linejoin="miter" stroke="rgb(0%, 0%, 0%)" stroke-opacity="1" stroke-miterlimit="4" d="M 0 -0.0011875 L 0 5.998813 C -10.601562 7.401156 -12 7.998813 -12 20.799594 L -12 56.799594 C -12 79.401156 -22.601562 90.401156 -39.800781 90.401156 C -50 90.401156 -60.199219 83.799594 -67.199219 76.799594 L -67.199219 141.201938 C -77.601562 138.401156 -91 135.401156 -101.199219 134.201938 L -101.199219 128.799594 C -90 127.600375 -89.199219 127.201938 -89.199219 114.799594 L -89.199219 20.799594 C -89.199219 7.998813 -90.601562 6.998813 -102.199219 5.998813 L -102.199219 -0.0011875 L -56.601562 -0.0011875 L -56.601562 5.998813 C -66.199219 7.201938 -67.199219 8.600375 -67.199219 20.401156 L -67.199219 69.401156 C -62.398438 74.600375 -56.199219 76.799594 -50.398438 76.799594 C -40.601562 76.799594 -34 70.600375 -34 54.799594 L -34 20.401156 C -34 8.600375 -35 7.201938 -45.398438 5.998813 L -45.398438 -0.0011875 Z M 0 -0.0011875 " transform="matrix(1, 0, 0, -1, 115, 176.8035)"/>
<path fill="none" stroke-width="2" stroke-linecap="butt" stroke-linejoin="miter" stroke="rgb(0%, 0%, 0%)" stroke-opacity="1" stroke-miterlimit="4" d="M 0.00048125 -0.00000625 C 0.00048125 -12.800787 1.398919 -13.398444 12.000481 -14.800787 L 12.000481 -20.800787 L -33.397956 -20.800787 L -33.397956 -14.800787 C -22.999519 -13.601569 -21.999519 -12.199225 -21.999519 -0.398444 Z M -21.999519 -0.398444 L -21.999519 33.999994 C -21.999519 49.800775 -28.601081 55.999994 -38.397956 55.999994 C -44.198737 55.999994 -50.397956 53.800775 -55.198737 48.59765 L -55.198737 55.999994 C -48.198737 62.999994 -37.999519 69.59765 -27.8003 69.59765 C -10.601081 69.59765 0.00048125 58.59765 0.00048125 35.999994 L 0.00048125 -0.00000625 Z M -55.198737 -0.398444 L -55.198737 93.999994 L -77.198737 93.999994 L -77.198737 -0.00000625 Z M -55.198737 -0.398444 C -55.198737 -12.199225 -54.198737 -13.601569 -44.597175 -14.800787 L -44.597175 -20.800787 L -90.198737 -20.800787 L -90.198737 -14.800787 C -78.597175 -13.800787 -77.198737 -12.800787 -77.198737 -0.00000625 Z M -77.198737 93.999994 C -77.198737 106.398431 -77.999519 106.796869 -89.198737 107.996088 L -89.198737 113.398431 C -78.999519 114.59765 -65.597175 117.59765 -55.198737 120.398431 L -55.198737 93.999994 Z M -77.198737 93.999994 " transform="matrix(1, 0, 0, -1, 273.9253, 156.0039)"/>
<path fill="none" stroke-width="2" stroke-linecap="butt" stroke-linejoin="miter" stroke="rgb(0%, 0%, 0%)" stroke-opacity="1" stroke-miterlimit="4" d="M -0.00110625 0.00149375 C -0.00110625 12.399931 -0.801888 12.798369 -12.001106 14.001494 L -12.001106 19.399931 C -1.801888 20.59915 11.600456 23.59915 21.998894 26.399931 L 21.998894 0.00149375 Z M -0.00110625 0.00149375 " transform="matrix(1, 0, 0, -1, 372.3722, 42.0054)"/>
<path fill="none" stroke-width="2" stroke-linecap="butt" stroke-linejoin="miter" stroke="rgb(0%, 0%, 0%)" stroke-opacity="1" stroke-miterlimit="4" d="M -0.00060625 0.00145625 C -0.00060625 -11.799325 0.999394 -13.201669 10.600956 -14.400887 L 10.600956 -20.400887 L -35.000606 -20.400887 L -35.000606 -14.400887 C -23.399044 -13.400887 -22.000606 -12.400887 -22.000606 0.399894 Z M -0.00060625 0.00145625 " transform="matrix(1, 0, 0, -1, 394.3717, 156.4038)"/>
<path fill="none" stroke-width="2" stroke-linecap="butt" stroke-linejoin="miter" stroke="rgb(0%, 0%, 0%)" stroke-opacity="1" stroke-miterlimit="4" d="M -0.00060625 0.00145625 L -0.00060625 94.399894 L -22.000606 94.399894 L -22.000606 0.399894 Z M -0.00060625 0.00145625 " transform="matrix(1, 0, 0, -1, 394.3717, 146.4038)"/>
<path fill="none" stroke-width="2" stroke-linecap="butt" stroke-linejoin="miter" stroke="rgb(0%, 0%, 0%)" stroke-opacity="1" stroke-miterlimit="4" d="M -0.0010875 0.00145625 L -0.0010875 34.399894 C -0.0010875 50.200675 -6.598744 56.399894 -16.399525 56.399894 C -22.200306 56.399894 -28.399525 54.200675 -33.200306 48.99755 L -33.200306 56.399894 C -26.200306 63.399894 -16.001087 69.99755 -5.801869 69.99755 C 11.401256 69.99755 21.998913 58.99755 21.998913 36.399894 L 21.998913 0.399894 Z M -0.0010875 0.00145625 " transform="matrix(1, 0, 0, -1, 437.5714, 146.4038)"/>
<path fill="none" stroke-width="2" stroke-linecap="butt" stroke-linejoin="miter" stroke="rgb(0%, 0%, 0%)" stroke-opacity="1" stroke-miterlimit="4" d="M -0.0006875 -0.00000625 C -0.0006875 -12.800787 1.401656 -13.398444 11.999313 -14.800787 L 11.999313 -20.800787 L -33.399125 -20.800787 L -33.399125 -14.800787 C -23.000687 -13.601569 -22.000687 -12.199225 -22.000687 -0.398444 Z M -0.0006875 -0.00000625 " transform="matrix(1, 0, 0, -1, 459.571, 156.0039)"/>
<path fill="none" stroke-width="1" stroke-linecap="butt" stroke-linejoin="miter" stroke="rgb(0%, 0%, 0%)" stroke-opacity="1" stroke-miterlimit="4" d="M -0.00189375 0.00135625 L 40.896544 0.00135625 " transform="matrix(1, 0, 0, -1, 126.6308, 129.7787)"/>
<path fill-rule="nonzero" fill="rgb(0%, 0%, 0%)" fill-opacity="1" d="M 166.066406 134.765625 L 174.703125 129.777344 L 166.066406 124.792969 Z M 166.066406 134.765625 "/>
<path fill="none" stroke-width="1" stroke-linecap="butt" stroke-linejoin="miter" stroke="rgb(0%, 0%, 0%)" stroke-opacity="1" stroke-miterlimit="4" d="M 0.00021875 0.00135625 L 40.89475 0.00135625 " transform="matrix(1, 0, 0, -1, 294.949, 129.7787)"/>
<path fill-rule="nonzero" fill="rgb(0%, 0%, 0%)" fill-opacity="1" d="M 334.386719 134.765625 L 343.019531 129.777344 L 334.386719 124.792969 Z M 334.386719 134.765625 "/>
</svg>
