<?xml version="1.0" encoding="UTF-8"?>
<svg xmlns="http://www.w3.org/2000/svg" xmlns:xlink="http://www.w3.org/1999/xlink" width="182.224pt" height="99.581pt" viewBox="0 0 182.224 99.581">
<defs>
<filter id="filter-remove-color" x="0%" y="0%" width="100%" height="100%">
<feColorMatrix color-interpolation-filters="sRGB" values="0 0 0 0 1 0 0 0 0 1 0 0 0 0 1 0 0 0 1 0" />
</filter>
<mask id="mask-0">
<g filter="url(#filter-remove-color)">
<rect x="-18.2224" y="-9.9581" width="218.6688" height="119.4972" fill="rgb(0%, 0%, 0%)" fill-opacity="0.5"/>
</g>
</mask>
<clipPath id="clip-0">
<path clip-rule="nonzero" d="M 0.0117188 0.757812 L 56.3125 0.757812 L 56.3125 79.117188 L 0.0117188 79.117188 Z M 0.0117188 0.757812 "/>
</clipPath>
<clipPath id="clip-1">
<rect x="0" y="0" width="57" height="80"/>
</clipPath>
<g id="source-5" clip-path="url(#clip-1)">
<g clip-path="url(#clip-0)">
<path fill-rule="nonzero" fill="rgb(13.729858%, 12.159729%, 12.548828%)" fill-opacity="1" d="M 21.523438 38.070312 C 22.730469 34.996094 25.582031 32.582031 29.753906 32.582031 C 33.15625 32.582031 40.507812 34.886719 40.507812 50.800781 C 40.507812 65.175781 32.496094 70.445312 27.558594 70.554688 C 25.582031 70.554688 23.9375 70.226562 21.523438 68.691406 Z M 0.0117188 74.835938 C 2.644531 75.273438 12.742188 76.589844 21.523438 79.117188 L 21.523438 72.75 C 23.496094 74.066406 26.242188 75.714844 28.214844 77.03125 C 30.851562 78.675781 32.496094 79.003906 33.703125 79.003906 C 43.03125 79.003906 56.3125 70.996094 56.3125 54.644531 C 56.3125 39.605469 43.03125 27.644531 25.910156 27.644531 C 25.144531 27.644531 23.277344 27.644531 21.523438 27.972656 L 21.523438 15.355469 C 21.523438 9.535156 22.070312 8.988281 28.875 8.109375 L 28.875 4.488281 C 21.632812 3.71875 12.742188 2.292969 7.253906 0.757812 L 7.253906 63.859375 C 7.253906 69.789062 6.597656 70.335938 2.425781 70.882812 L 0.0117188 71.214844 Z M 0.0117188 74.835938 "/>
</g>
</g>
<clipPath id="clip-2">
<path clip-rule="nonzero" d="M 102 75 L 147 75 L 147 99.582031 L 102 99.582031 Z M 102 75 "/>
</clipPath>
</defs>
<path fill-rule="nonzero" fill="rgb(13.729858%, 12.159729%, 12.548828%)" fill-opacity="1" d="M 20.722656 69.617188 C 20.722656 71.152344 21.050781 72.46875 21.378906 73.347656 C 22.039062 74.996094 25.113281 78.398438 29.171875 78.398438 C 34.988281 78.398438 39.269531 71.921875 39.269531 58.421875 C 39.269531 44.375 32.355469 38.886719 25.769531 38.886719 C 23.464844 38.886719 22.367188 39.21875 20.722656 39.65625 Z M 24.78125 33.730469 C 27.964844 32.304688 30.378906 31.644531 32.574219 31.644531 C 45.964844 31.644531 54.851562 42.511719 54.851562 54.800781 C 54.851562 70.386719 42.011719 83.003906 25.988281 83.003906 C 19.625 83.003906 14.027344 81.910156 6.457031 79.054688 C 6.566406 76.421875 6.566406 73.347656 6.566406 70.605469 L 6.566406 19.792969 C 6.566406 13.535156 5.90625 12.660156 -0.238281 12.21875 L -0.238281 8.488281 C 5.46875 7.941406 14.6875 6.402344 20.722656 4.757812 L 20.722656 35.597656 Z M 24.78125 33.730469 "/>
<path fill-rule="nonzero" fill="rgb(13.729858%, 12.159729%, 12.548828%)" fill-opacity="1" d="M 96.878906 42.070312 C 95.671875 38.996094 92.820312 36.582031 88.648438 36.582031 C 85.246094 36.582031 77.894531 38.886719 77.894531 54.800781 C 77.894531 69.175781 85.90625 74.445312 90.84375 74.554688 C 92.820312 74.554688 94.46875 74.226562 96.878906 72.691406 Z M 118.390625 78.835938 C 115.757812 79.273438 105.660156 80.589844 96.878906 83.117188 L 96.878906 76.75 C 94.90625 78.066406 92.160156 79.714844 90.1875 81.03125 C 87.554688 82.675781 85.90625 83.003906 84.699219 83.003906 C 75.371094 83.003906 62.09375 74.996094 62.09375 58.644531 C 62.09375 43.605469 75.371094 31.644531 92.492188 31.644531 C 93.257812 31.644531 95.125 31.644531 96.878906 31.972656 L 96.878906 19.355469 C 96.878906 13.535156 96.332031 12.988281 89.527344 12.109375 L 89.527344 8.488281 C 96.769531 7.71875 105.660156 6.292969 111.148438 4.757812 L 111.148438 67.859375 C 111.148438 73.789062 111.804688 74.335938 115.976562 74.882812 L 118.390625 75.214844 Z M 118.390625 78.835938 "/>
<g mask="url(#mask-0)">
<use xlink:href="#source-5" transform="matrix(1, 0, 0, 1, 125, 4)"/>
</g>
<g clip-path="url(#clip-2)">
<path fill="none" stroke-width="0.75" stroke-linecap="butt" stroke-linejoin="miter" stroke="rgb(13.729858%, 12.159729%, 12.548828%)" stroke-opacity="1" stroke-miterlimit="10" d="M -0.00158125 -0.00015 C -3.286738 -15.953275 25.471075 -15.4689 22.658575 0.324069 " transform="matrix(1, 0, 0, -1, 113.2008, 86.7186)"/>
</g>
<path fill-rule="nonzero" fill="rgb(13.729858%, 12.159729%, 12.548828%)" fill-opacity="1" d="M 138.1875 87.828125 L 137.855469 88.234375 L 135.851562 86.597656 L 134.363281 88.714844 L 133.933594 88.410156 L 135.75 85.832031 Z M 138.1875 87.828125 "/>
</svg>
