<?xml version="1.0" encoding="UTF-8"?>
<svg xmlns="http://www.w3.org/2000/svg" xmlns:xlink="http://www.w3.org/1999/xlink" width="182.224pt" height="107.343pt" viewBox="0 0 182.224 107.343">
<defs>
<clipPath id="clip-0">
<path clip-rule="nonzero" d="M 110 0 L 182.222656 0 L 182.222656 106 L 110 106 Z M 110 0 "/>
</clipPath>
<clipPath id="clip-1">
<path clip-rule="nonzero" d="M 105 87 L 144 87 L 144 107.34375 L 105 107.34375 Z M 105 87 "/>
</clipPath>
</defs>
<path fill-rule="nonzero" fill="rgb(13.729858%, 12.159729%, 12.548828%)" fill-opacity="1" d="M 20.722656 77.378906 C 20.722656 78.914062 21.050781 80.230469 21.378906 81.109375 C 22.039062 82.757812 25.113281 86.160156 29.171875 86.160156 C 34.988281 86.160156 39.269531 79.683594 39.269531 66.183594 C 39.269531 52.136719 32.355469 46.648438 25.769531 46.648438 C 23.464844 46.648438 22.367188 46.980469 20.722656 47.417969 Z M 24.78125 41.492188 C 27.964844 40.066406 30.378906 39.40625 32.574219 39.40625 C 45.964844 39.40625 54.851562 50.273438 54.851562 62.5625 C 54.851562 78.148438 42.011719 90.769531 25.988281 90.769531 C 19.625 90.769531 14.027344 89.671875 6.457031 86.816406 C 6.566406 84.183594 6.566406 81.109375 6.566406 78.367188 L 6.566406 27.554688 C 6.566406 21.296875 5.90625 20.421875 -0.238281 19.980469 L -0.238281 16.25 C 5.46875 15.703125 14.6875 14.164062 20.722656 12.519531 L 20.722656 43.359375 Z M 24.78125 41.492188 "/>
<path fill-rule="nonzero" fill="rgb(13.729858%, 12.159729%, 12.548828%)" fill-opacity="1" d="M 96.878906 49.832031 C 95.671875 46.757812 92.820312 44.34375 88.648438 44.34375 C 85.246094 44.34375 77.894531 46.648438 77.894531 62.5625 C 77.894531 76.941406 85.90625 82.207031 90.84375 82.316406 C 92.820312 82.316406 94.46875 81.988281 96.878906 80.453125 Z M 118.390625 86.597656 C 115.757812 87.035156 105.660156 88.355469 96.878906 90.878906 L 96.878906 84.511719 C 94.90625 85.828125 92.160156 87.476562 90.1875 88.792969 C 87.554688 90.4375 85.90625 90.769531 84.699219 90.769531 C 75.371094 90.769531 62.09375 82.757812 62.09375 66.40625 C 62.09375 51.367188 75.371094 39.40625 92.492188 39.40625 C 93.257812 39.40625 95.125 39.40625 96.878906 39.734375 L 96.878906 27.117188 C 96.878906 21.296875 96.332031 20.75 89.527344 19.871094 L 89.527344 16.25 C 96.769531 15.484375 105.660156 14.054688 111.148438 12.519531 L 111.148438 75.621094 C 111.148438 81.550781 111.804688 82.097656 115.976562 82.648438 L 118.390625 82.976562 Z M 118.390625 86.597656 "/>
<g clip-path="url(#clip-0)">
<path fill="none" stroke-width="1" stroke-linecap="butt" stroke-linejoin="miter" stroke="rgb(13.729858%, 12.159729%, 12.548828%)" stroke-opacity="1" stroke-miterlimit="10" d="M 0.0015375 0.00056875 C 1.208569 3.074788 4.060131 5.48885 8.232006 5.48885 C 11.63435 5.48885 18.985912 3.184163 18.985912 -12.7299 C 18.985912 -27.108806 10.974194 -32.374431 6.036694 -32.483806 C 4.060131 -32.483806 2.4156 -32.155681 0.0015375 -30.620525 Z M -21.510181 -36.765056 C -18.877369 -37.202556 -8.779713 -38.522869 0.0015375 -41.046306 L 0.0015375 -34.679119 C 1.974194 -35.995525 4.720287 -37.643962 6.692944 -38.960369 C 9.329662 -40.6049 10.974194 -40.936931 12.181225 -40.936931 C 21.50935 -40.936931 34.7906 -32.925212 34.7906 -16.57365 C 34.7906 -1.534587 21.50935 10.42635 4.388256 10.42635 C 3.622631 10.42635 1.755444 10.42635 0.0015375 10.098225 L 0.0015375 22.715413 C 0.0015375 28.535725 0.548412 29.0826 7.3531 29.961506 L 7.3531 33.5826 C 0.110912 34.348225 -8.779713 35.777913 -14.267994 37.313069 L -14.267994 -25.788494 C -14.267994 -31.718181 -14.924244 -32.265056 -19.096119 -32.815837 L -21.510181 -33.143962 Z M -21.510181 -36.765056 " transform="matrix(1, 0, 0, -1, 146.5219, 49.8326)"/>
</g>
<g clip-path="url(#clip-1)">
<path fill="none" stroke-width="0.5" stroke-linecap="butt" stroke-linejoin="miter" stroke="rgb(13.729858%, 12.159729%, 12.548828%)" stroke-opacity="1" stroke-miterlimit="10" d="M -0.00158125 0.00013125 C -3.146113 -15.273306 23.076544 -15.480338 22.849981 -1.609244 " transform="matrix(1, 0, 0, -1, 113.2008, 94.4806)"/>
</g>
<path fill-rule="nonzero" fill="rgb(13.729858%, 12.159729%, 12.548828%)" fill-opacity="1" d="M 137.800781 96.417969 L 135.746094 93.59375 L 134.328125 96.785156 Z M 137.800781 96.417969 "/>
</svg>
