<?xml version="1.0" encoding="UTF-8"?>
<svg xmlns="http://www.w3.org/2000/svg" xmlns:xlink="http://www.w3.org/1999/xlink" width="1420" height="1420" viewBox="0 0 1420 1420">
<defs>
<filter id="filter-remove-color" x="0%" y="0%" width="100%" height="100%">
<feColorMatrix color-interpolation-filters="sRGB" values="0 0 0 0 1 0 0 0 0 1 0 0 0 0 1 0 0 0 1 0" />
</filter>
<clipPath id="clip-0">
<path clip-rule="nonzero" d="M 360 0 L 700 0 L 700 180.558594 L 360 180.558594 Z M 360 0 "/>
</clipPath>
<clipPath id="clip-1">
<path clip-rule="nonzero" d="M 108 101 L 238 101 L 238 180.558594 L 108 180.558594 Z M 108 101 "/>
</clipPath>
<clipPath id="clip-2">
<rect x="0" y="0" width="340" height="181"/>
</clipPath>
<g id="source-5" clip-path="url(#clip-2)">
<g clip-path="url(#clip-1)">
<path fill-rule="nonzero" fill="rgb(0%, 0%, 0%)" fill-opacity="1" d="M 108.375 255 L 132.464844 255 L 132.464844 175.101562 C 132.464844 144.074219 152.015625 123.964844 179.640625 123.964844 C 202.453125 123.964844 213.214844 136 213.214844 162.078125 L 213.214844 255.015625 L 237.304688 255.015625 L 237.304688 156.6875 C 237.304688 120.851562 219.742188 101.863281 187.289062 101.863281 C 159.664062 101.863281 142.527344 115.464844 133.738281 133.738281 L 132.039062 133.738281 L 128.640625 106.113281 L 108.375 106.113281 Z M 108.375 255 "/>
</g>
</g>
<clipPath id="clip-3">
<path clip-rule="nonzero" d="M 360 180.558594 L 700 180.558594 L 700 340 L 360 340 Z M 360 180.558594 "/>
</clipPath>
<clipPath id="clip-4">
<path clip-rule="nonzero" d="M 103 0.558594 L 242 0.558594 L 242 75 L 103 75 Z M 103 0.558594 "/>
</clipPath>
<clipPath id="clip-5">
<rect x="0" y="0" width="340" height="160"/>
</clipPath>
<g id="source-8" clip-path="url(#clip-5)">
<g clip-path="url(#clip-4)">
<path fill-rule="nonzero" fill="rgb(0%, 0%, 0%)" fill-opacity="1" d="M 103.835938 73.164062 L 103.835938 75 L 137.121094 75 L 137.121094 73.164062 C 134.011719 61.824219 132.445312 47.101562 132.445312 29.679688 L 132.445312 -4.882812 C 132.445312 -37.046875 151.148438 -57.871094 179.332031 -57.871094 C 202.28125 -57.871094 213.195312 -45.257812 213.195312 -17.921875 L 213.195312 29.679688 C 213.195312 47.101562 211.632812 61.84375 208.65625 73.164062 L 208.65625 75 L 241.945312 75 L 241.945312 73.164062 C 238.832031 61.824219 237.269531 47.101562 237.269531 29.679688 L 237.269531 -23.3125 C 237.269531 -59.148438 219.707031 -78.136719 187.253906 -78.136719 C 159.628906 -78.136719 142.492188 -63.6875 133.703125 -44.273438 L 132.003906 -44.273438 L 128.605469 -74.3125 L 103.820312 -73.886719 L 103.820312 -72.1875 C 106.792969 -61.851562 108.359375 -48.945312 108.359375 -32.660156 L 108.359375 29.679688 C 108.359375 47.101562 106.792969 61.84375 103.820312 73.164062 Z M 103.835938 73.164062 "/>
</g>
</g>
<clipPath id="clip-6">
<path clip-rule="nonzero" d="M 360 179 L 700 179 L 700 182 L 360 182 Z M 360 179 "/>
</clipPath>
<clipPath id="clip-7">
<path clip-rule="nonzero" d="M 720 0 L 1060 0 L 1060 180.558594 L 720 180.558594 Z M 720 0 "/>
</clipPath>
<clipPath id="clip-8">
<path clip-rule="nonzero" d="M 108 101 L 238 101 L 238 180.558594 L 108 180.558594 Z M 108 101 "/>
</clipPath>
<clipPath id="clip-9">
<rect x="0" y="0" width="340" height="181"/>
</clipPath>
<g id="source-11" clip-path="url(#clip-9)">
<g clip-path="url(#clip-8)">
<path fill-rule="nonzero" fill="rgb(0%, 0%, 0%)" fill-opacity="1" d="M 108.375 255 L 132.464844 255 L 132.464844 175.101562 C 132.464844 144.074219 152.015625 123.964844 179.640625 123.964844 C 202.453125 123.964844 213.214844 136 213.214844 162.078125 L 213.214844 255.015625 L 237.304688 255.015625 L 237.304688 156.6875 C 237.304688 120.851562 219.742188 101.863281 187.289062 101.863281 C 159.664062 101.863281 142.527344 115.464844 133.738281 133.738281 L 132.039062 133.738281 L 128.640625 106.113281 L 108.375 106.113281 Z M 108.375 255 "/>
</g>
</g>
<clipPath id="clip-10">
<path clip-rule="nonzero" d="M 720 180.558594 L 1060 180.558594 L 1060 340 L 720 340 Z M 720 180.558594 "/>
</clipPath>
<clipPath id="clip-11">
<path clip-rule="nonzero" d="M 99 0.558594 L 247 0.558594 L 247 75 L 99 75 Z M 99 0.558594 "/>
</clipPath>
<clipPath id="clip-12">
<rect x="0" y="0" width="340" height="160"/>
</clipPath>
<g id="source-14" clip-path="url(#clip-12)">
<g clip-path="url(#clip-11)">
<path fill-rule="nonzero" fill="rgb(0%, 0%, 0%)" fill-opacity="1" d="M 99.160156 71.464844 L 99.160156 75 L 141.660156 75 L 141.660156 71.464844 C 135.710938 63.8125 132.445312 49.226562 132.445312 29.679688 L 132.445312 -4.882812 C 132.445312 -38.03125 150.296875 -59.707031 178.90625 -59.707031 C 202.28125 -59.707031 213.195312 -46.398438 213.195312 -17.921875 L 213.195312 29.679688 C 213.195312 49.226562 210.085938 63.8125 203.984375 71.464844 L 203.984375 75 L 246.484375 75 L 246.484375 71.464844 C 240.53125 63.8125 237.269531 49.226562 237.269531 29.679688 L 237.269531 -23.3125 C 237.269531 -59.148438 219.707031 -78.136719 187.253906 -78.136719 C 159.628906 -78.136719 142.492188 -62.972656 133.703125 -42.4375 L 132.003906 -42.4375 L 128.605469 -74.871094 L 99.144531 -73.886719 L 99.144531 -70.351562 C 105.230469 -63.550781 108.359375 -51.648438 108.359375 -32.660156 L 108.359375 29.679688 C 108.359375 49.226562 105.246094 63.8125 99.144531 71.464844 Z M 99.160156 71.464844 "/>
</g>
</g>
<clipPath id="clip-13">
<path clip-rule="nonzero" d="M 720 179 L 1060 179 L 1060 182 L 720 182 Z M 720 179 "/>
</clipPath>
<clipPath id="clip-14">
<path clip-rule="nonzero" d="M 1080 0 L 1420 0 L 1420 180.558594 L 1080 180.558594 Z M 1080 0 "/>
</clipPath>
<clipPath id="clip-15">
<path clip-rule="nonzero" d="M 108 101 L 238 101 L 238 180.558594 L 108 180.558594 Z M 108 101 "/>
</clipPath>
<clipPath id="clip-16">
<rect x="0" y="0" width="340" height="181"/>
</clipPath>
<g id="source-17" clip-path="url(#clip-16)">
<g clip-path="url(#clip-15)">
<path fill-rule="nonzero" fill="rgb(0%, 0%, 0%)" fill-opacity="1" d="M 108.375 255 L 132.464844 255 L 132.464844 175.101562 C 132.464844 144.074219 152.015625 123.964844 179.640625 123.964844 C 202.453125 123.964844 213.214844 136 213.214844 162.078125 L 213.214844 255.015625 L 237.304688 255.015625 L 237.304688 156.6875 C 237.304688 120.851562 219.742188 101.863281 187.289062 101.863281 C 159.664062 101.863281 142.527344 115.464844 133.738281 133.738281 L 132.039062 133.738281 L 128.640625 106.113281 L 108.375 106.113281 Z M 108.375 255 "/>
</g>
</g>
<clipPath id="clip-17">
<path clip-rule="nonzero" d="M 1080 180.558594 L 1420 180.558594 L 1420 340 L 1080 340 Z M 1080 180.558594 "/>
</clipPath>
<clipPath id="clip-18">
<path clip-rule="nonzero" d="M 94 0.558594 L 252 0.558594 L 252 75 L 94 75 Z M 94 0.558594 "/>
</clipPath>
<clipPath id="clip-19">
<rect x="0" y="0" width="340" height="160"/>
</clipPath>
<g id="source-20" clip-path="url(#clip-19)">
<g clip-path="url(#clip-18)">
<path fill-rule="nonzero" fill="rgb(0%, 0%, 0%)" fill-opacity="1" d="M 94.640625 69.609375 L 94.640625 75 L 146.351562 75 L 146.351562 69.609375 C 137.292969 65.921875 132.464844 51.472656 132.464844 29.660156 L 132.464844 -4.898438 C 132.464844 -39.1875 149.464844 -61.425781 178.652344 -61.425781 C 202.164062 -61.425781 213.214844 -47.6875 213.214844 -17.9375 L 213.214844 29.660156 C 213.214844 51.472656 208.402344 65.921875 199.476562 69.609375 L 199.476562 75 L 251.191406 75 L 251.191406 69.609375 C 242.132812 65.921875 237.304688 51.472656 237.304688 29.660156 L 237.304688 -23.328125 C 237.304688 -59.164062 219.742188 -78.152344 187.289062 -78.152344 C 159.664062 -78.152344 142.527344 -62.140625 133.738281 -40.464844 L 132.039062 -40.464844 L 128.640625 -75.3125 L 94.640625 -73.902344 L 94.640625 -68.667969 C 103.5625 -65.132812 108.375 -54.21875 108.375 -32.679688 L 108.375 29.660156 C 108.375 51.472656 103.5625 65.921875 94.640625 69.609375 "/>
</g>
</g>
<clipPath id="clip-20">
<path clip-rule="nonzero" d="M 1080 179 L 1420 179 L 1420 182 L 1080 182 Z M 1080 179 "/>
</clipPath>
<clipPath id="clip-21">
<path clip-rule="nonzero" d="M 0 360 L 340 360 L 340 540.558594 L 0 540.558594 Z M 0 360 "/>
</clipPath>
<clipPath id="clip-22">
<path clip-rule="nonzero" d="M 103 101 L 242 101 L 242 180.558594 L 103 180.558594 Z M 103 101 "/>
</clipPath>
<clipPath id="clip-23">
<rect x="0" y="0" width="340" height="181"/>
</clipPath>
<g id="source-23" clip-path="url(#clip-23)">
<g clip-path="url(#clip-22)">
<path fill-rule="nonzero" fill="rgb(0%, 0%, 0%)" fill-opacity="1" d="M 103.835938 253.164062 L 103.835938 255 L 137.121094 255 L 137.121094 253.164062 C 134.011719 241.824219 132.445312 227.101562 132.445312 209.679688 L 132.445312 175.117188 C 132.445312 142.953125 151.148438 122.128906 179.332031 122.128906 C 202.28125 122.128906 213.195312 134.742188 213.195312 162.078125 L 213.195312 209.679688 C 213.195312 227.101562 211.632812 241.84375 208.65625 253.164062 L 208.65625 255 L 241.945312 255 L 241.945312 253.164062 C 238.832031 241.824219 237.269531 227.101562 237.269531 209.679688 L 237.269531 156.6875 C 237.269531 120.851562 219.707031 101.863281 187.253906 101.863281 C 159.628906 101.863281 142.492188 116.3125 133.703125 135.726562 L 132.003906 135.726562 L 128.605469 105.6875 L 103.820312 106.113281 L 103.820312 107.8125 C 106.792969 118.148438 108.359375 131.054688 108.359375 147.339844 L 108.359375 209.679688 C 108.359375 227.101562 106.792969 241.84375 103.820312 253.164062 Z M 103.835938 253.164062 "/>
</g>
</g>
<clipPath id="clip-24">
<path clip-rule="nonzero" d="M 0 540.558594 L 340 540.558594 L 340 700 L 0 700 Z M 0 540.558594 "/>
</clipPath>
<clipPath id="clip-25">
<path clip-rule="nonzero" d="M 108 0.558594 L 238 0.558594 L 238 76 L 108 76 Z M 108 0.558594 "/>
</clipPath>
<clipPath id="clip-26">
<rect x="0" y="0" width="340" height="160"/>
</clipPath>
<g id="source-26" clip-path="url(#clip-26)">
<g clip-path="url(#clip-25)">
<path fill-rule="nonzero" fill="rgb(0%, 0%, 0%)" fill-opacity="1" d="M 108.375 75 L 132.464844 75 L 132.464844 -4.898438 C 132.464844 -35.925781 152.015625 -56.035156 179.640625 -56.035156 C 202.453125 -56.035156 213.214844 -44 213.214844 -17.921875 L 213.214844 75.015625 L 237.304688 75.015625 L 237.304688 -23.3125 C 237.304688 -59.148438 219.742188 -78.136719 187.289062 -78.136719 C 159.664062 -78.136719 142.527344 -64.535156 133.738281 -46.261719 L 132.039062 -46.261719 L 128.640625 -73.886719 L 108.375 -73.886719 Z M 108.375 75 "/>
</g>
</g>
<clipPath id="clip-27">
<path clip-rule="nonzero" d="M 0 539 L 340 539 L 340 542 L 0 542 Z M 0 539 "/>
</clipPath>
<clipPath id="clip-28">
<path clip-rule="nonzero" d="M 360 360 L 700 360 L 700 540.558594 L 360 540.558594 Z M 360 360 "/>
</clipPath>
<clipPath id="clip-29">
<path clip-rule="nonzero" d="M 103 101 L 242 101 L 242 180.558594 L 103 180.558594 Z M 103 101 "/>
</clipPath>
<clipPath id="clip-30">
<rect x="0" y="0" width="340" height="181"/>
</clipPath>
<g id="source-29" clip-path="url(#clip-30)">
<g clip-path="url(#clip-29)">
<path fill-rule="nonzero" fill="rgb(0%, 0%, 0%)" fill-opacity="1" d="M 103.835938 253.164062 L 103.835938 255 L 137.121094 255 L 137.121094 253.164062 C 134.011719 241.824219 132.445312 227.101562 132.445312 209.679688 L 132.445312 175.117188 C 132.445312 142.953125 151.148438 122.128906 179.332031 122.128906 C 202.28125 122.128906 213.195312 134.742188 213.195312 162.078125 L 213.195312 209.679688 C 213.195312 227.101562 211.632812 241.84375 208.65625 253.164062 L 208.65625 255 L 241.945312 255 L 241.945312 253.164062 C 238.832031 241.824219 237.269531 227.101562 237.269531 209.679688 L 237.269531 156.6875 C 237.269531 120.851562 219.707031 101.863281 187.253906 101.863281 C 159.628906 101.863281 142.492188 116.3125 133.703125 135.726562 L 132.003906 135.726562 L 128.605469 105.6875 L 103.820312 106.113281 L 103.820312 107.8125 C 106.792969 118.148438 108.359375 131.054688 108.359375 147.339844 L 108.359375 209.679688 C 108.359375 227.101562 106.792969 241.84375 103.820312 253.164062 Z M 103.835938 253.164062 "/>
</g>
</g>
<clipPath id="clip-31">
<path clip-rule="nonzero" d="M 360 540.558594 L 700 540.558594 L 700 700 L 360 700 Z M 360 540.558594 "/>
</clipPath>
<clipPath id="clip-32">
<path clip-rule="nonzero" d="M 103 0.558594 L 242 0.558594 L 242 75 L 103 75 Z M 103 0.558594 "/>
</clipPath>
<clipPath id="clip-33">
<rect x="0" y="0" width="340" height="160"/>
</clipPath>
<g id="source-32" clip-path="url(#clip-33)">
<g clip-path="url(#clip-32)">
<path fill-rule="nonzero" fill="rgb(0%, 0%, 0%)" fill-opacity="1" d="M 103.835938 73.164062 L 103.835938 75 L 137.121094 75 L 137.121094 73.164062 C 134.011719 61.824219 132.445312 47.101562 132.445312 29.679688 L 132.445312 -4.882812 C 132.445312 -37.046875 151.148438 -57.871094 179.332031 -57.871094 C 202.28125 -57.871094 213.195312 -45.257812 213.195312 -17.921875 L 213.195312 29.679688 C 213.195312 47.101562 211.632812 61.84375 208.65625 73.164062 L 208.65625 75 L 241.945312 75 L 241.945312 73.164062 C 238.832031 61.824219 237.269531 47.101562 237.269531 29.679688 L 237.269531 -23.3125 C 237.269531 -59.148438 219.707031 -78.136719 187.253906 -78.136719 C 159.628906 -78.136719 142.492188 -63.6875 133.703125 -44.273438 L 132.003906 -44.273438 L 128.605469 -74.3125 L 103.820312 -73.886719 L 103.820312 -72.1875 C 106.792969 -61.851562 108.359375 -48.945312 108.359375 -32.660156 L 108.359375 29.679688 C 108.359375 47.101562 106.792969 61.84375 103.820312 73.164062 Z M 103.835938 73.164062 "/>
</g>
</g>
<clipPath id="clip-34">
<path clip-rule="nonzero" d="M 360 539 L 700 539 L 700 542 L 360 542 Z M 360 539 "/>
</clipPath>
<clipPath id="clip-35">
<path clip-rule="nonzero" d="M 720 360 L 1060 360 L 1060 540.558594 L 720 540.558594 Z M 720 360 "/>
</clipPath>
<clipPath id="clip-36">
<path clip-rule="nonzero" d="M 103 101 L 242 101 L 242 180.558594 L 103 180.558594 Z M 103 101 "/>
</clipPath>
<clipPath id="clip-37">
<rect x="0" y="0" width="340" height="181"/>
</clipPath>
<g id="source-35" clip-path="url(#clip-37)">
<g clip-path="url(#clip-36)">
<path fill-rule="nonzero" fill="rgb(0%, 0%, 0%)" fill-opacity="1" d="M 103.835938 253.164062 L 103.835938 255 L 137.121094 255 L 137.121094 253.164062 C 134.011719 241.824219 132.445312 227.101562 132.445312 209.679688 L 132.445312 175.117188 C 132.445312 142.953125 151.148438 122.128906 179.332031 122.128906 C 202.28125 122.128906 213.195312 134.742188 213.195312 162.078125 L 213.195312 209.679688 C 213.195312 227.101562 211.632812 241.84375 208.65625 253.164062 L 208.65625 255 L 241.945312 255 L 241.945312 253.164062 C 238.832031 241.824219 237.269531 227.101562 237.269531 209.679688 L 237.269531 156.6875 C 237.269531 120.851562 219.707031 101.863281 187.253906 101.863281 C 159.628906 101.863281 142.492188 116.3125 133.703125 135.726562 L 132.003906 135.726562 L 128.605469 105.6875 L 103.820312 106.113281 L 103.820312 107.8125 C 106.792969 118.148438 108.359375 131.054688 108.359375 147.339844 L 108.359375 209.679688 C 108.359375 227.101562 106.792969 241.84375 103.820312 253.164062 Z M 103.835938 253.164062 "/>
</g>
</g>
<clipPath id="clip-38">
<path clip-rule="nonzero" d="M 720 540.558594 L 1060 540.558594 L 1060 700 L 720 700 Z M 720 540.558594 "/>
</clipPath>
<clipPath id="clip-39">
<path clip-rule="nonzero" d="M 99 0.558594 L 247 0.558594 L 247 75 L 99 75 Z M 99 0.558594 "/>
</clipPath>
<clipPath id="clip-40">
<rect x="0" y="0" width="340" height="160"/>
</clipPath>
<g id="source-38" clip-path="url(#clip-40)">
<g clip-path="url(#clip-39)">
<path fill-rule="nonzero" fill="rgb(0%, 0%, 0%)" fill-opacity="1" d="M 99.160156 71.464844 L 99.160156 75 L 141.660156 75 L 141.660156 71.464844 C 135.710938 63.8125 132.445312 49.226562 132.445312 29.679688 L 132.445312 -4.882812 C 132.445312 -38.03125 150.296875 -59.707031 178.90625 -59.707031 C 202.28125 -59.707031 213.195312 -46.398438 213.195312 -17.921875 L 213.195312 29.679688 C 213.195312 49.226562 210.085938 63.8125 203.984375 71.464844 L 203.984375 75 L 246.484375 75 L 246.484375 71.464844 C 240.53125 63.8125 237.269531 49.226562 237.269531 29.679688 L 237.269531 -23.3125 C 237.269531 -59.148438 219.707031 -78.136719 187.253906 -78.136719 C 159.628906 -78.136719 142.492188 -62.972656 133.703125 -42.4375 L 132.003906 -42.4375 L 128.605469 -74.871094 L 99.144531 -73.886719 L 99.144531 -70.351562 C 105.230469 -63.550781 108.359375 -51.648438 108.359375 -32.660156 L 108.359375 29.679688 C 108.359375 49.226562 105.246094 63.8125 99.144531 71.464844 Z M 99.160156 71.464844 "/>
</g>
</g>
<clipPath id="clip-41">
<path clip-rule="nonzero" d="M 720 539 L 1060 539 L 1060 542 L 720 542 Z M 720 539 "/>
</clipPath>
<clipPath id="clip-42">
<path clip-rule="nonzero" d="M 1080 360 L 1420 360 L 1420 540.558594 L 1080 540.558594 Z M 1080 360 "/>
</clipPath>
<clipPath id="clip-43">
<path clip-rule="nonzero" d="M 103 101 L 242 101 L 242 180.558594 L 103 180.558594 Z M 103 101 "/>
</clipPath>
<clipPath id="clip-44">
<rect x="0" y="0" width="340" height="181"/>
</clipPath>
<g id="source-41" clip-path="url(#clip-44)">
<g clip-path="url(#clip-43)">
<path fill-rule="nonzero" fill="rgb(0%, 0%, 0%)" fill-opacity="1" d="M 103.835938 253.164062 L 103.835938 255 L 137.121094 255 L 137.121094 253.164062 C 134.011719 241.824219 132.445312 227.101562 132.445312 209.679688 L 132.445312 175.117188 C 132.445312 142.953125 151.148438 122.128906 179.332031 122.128906 C 202.28125 122.128906 213.195312 134.742188 213.195312 162.078125 L 213.195312 209.679688 C 213.195312 227.101562 211.632812 241.84375 208.65625 253.164062 L 208.65625 255 L 241.945312 255 L 241.945312 253.164062 C 238.832031 241.824219 237.269531 227.101562 237.269531 209.679688 L 237.269531 156.6875 C 237.269531 120.851562 219.707031 101.863281 187.253906 101.863281 C 159.628906 101.863281 142.492188 116.3125 133.707031 135.726562 L 132.003906 135.726562 L 128.605469 105.6875 L 103.820312 106.113281 L 103.820312 107.8125 C 106.792969 118.148438 108.359375 131.054688 108.359375 147.339844 L 108.359375 209.679688 C 108.359375 227.101562 106.792969 241.84375 103.820312 253.164062 Z M 103.835938 253.164062 "/>
</g>
</g>
<clipPath id="clip-45">
<path clip-rule="nonzero" d="M 1080 540.558594 L 1420 540.558594 L 1420 700 L 1080 700 Z M 1080 540.558594 "/>
</clipPath>
<clipPath id="clip-46">
<path clip-rule="nonzero" d="M 94 0.558594 L 252 0.558594 L 252 75 L 94 75 Z M 94 0.558594 "/>
</clipPath>
<clipPath id="clip-47">
<rect x="0" y="0" width="340" height="160"/>
</clipPath>
<g id="source-44" clip-path="url(#clip-47)">
<g clip-path="url(#clip-46)">
<path fill-rule="nonzero" fill="rgb(0%, 0%, 0%)" fill-opacity="1" d="M 94.640625 69.609375 L 94.640625 75 L 146.351562 75 L 146.351562 69.609375 C 137.292969 65.921875 132.464844 51.472656 132.464844 29.660156 L 132.464844 -4.898438 C 132.464844 -39.1875 149.464844 -61.425781 178.652344 -61.425781 C 202.164062 -61.425781 213.214844 -47.6875 213.214844 -17.9375 L 213.214844 29.660156 C 213.214844 51.472656 208.402344 65.921875 199.476562 69.609375 L 199.476562 75 L 251.191406 75 L 251.191406 69.609375 C 242.132812 65.921875 237.304688 51.472656 237.304688 29.660156 L 237.304688 -23.328125 C 237.304688 -59.164062 219.742188 -78.152344 187.289062 -78.152344 C 159.664062 -78.152344 142.527344 -62.140625 133.738281 -40.464844 L 132.039062 -40.464844 L 128.640625 -75.3125 L 94.640625 -73.902344 L 94.640625 -68.667969 C 103.5625 -65.132812 108.375 -54.21875 108.375 -32.679688 L 108.375 29.660156 C 108.375 51.472656 103.5625 65.921875 94.640625 69.609375 "/>
</g>
</g>
<clipPath id="clip-48">
<path clip-rule="nonzero" d="M 1080 539 L 1420 539 L 1420 542 L 1080 542 Z M 1080 539 "/>
</clipPath>
<clipPath id="clip-49">
<path clip-rule="nonzero" d="M 0 720 L 340 720 L 340 900.558594 L 0 900.558594 Z M 0 720 "/>
</clipPath>
<clipPath id="clip-50">
<path clip-rule="nonzero" d="M 99 101 L 247 101 L 247 180.558594 L 99 180.558594 Z M 99 101 "/>
</clipPath>
<clipPath id="clip-51">
<rect x="0" y="0" width="340" height="181"/>
</clipPath>
<g id="source-47" clip-path="url(#clip-51)">
<g clip-path="url(#clip-50)">
<path fill-rule="nonzero" fill="rgb(0%, 0%, 0%)" fill-opacity="1" d="M 99.160156 251.464844 L 99.160156 255 L 141.660156 255 L 141.660156 251.464844 C 135.710938 243.8125 132.445312 229.226562 132.445312 209.679688 L 132.445312 175.117188 C 132.445312 141.96875 150.296875 120.292969 178.90625 120.292969 C 202.28125 120.292969 213.195312 133.601562 213.195312 162.078125 L 213.195312 209.679688 C 213.195312 229.226562 210.085938 243.8125 203.984375 251.464844 L 203.984375 255 L 246.484375 255 L 246.484375 251.464844 C 240.53125 243.8125 237.269531 229.226562 237.269531 209.679688 L 237.269531 156.6875 C 237.269531 120.851562 219.707031 101.863281 187.253906 101.863281 C 159.628906 101.863281 142.492188 117.027344 133.703125 137.5625 L 132.003906 137.5625 L 128.605469 105.128906 L 99.144531 106.113281 L 99.144531 109.648438 C 105.230469 116.449219 108.359375 128.351562 108.359375 147.339844 L 108.359375 209.679688 C 108.359375 229.226562 105.246094 243.8125 99.144531 251.464844 Z M 99.160156 251.464844 "/>
</g>
</g>
<clipPath id="clip-52">
<path clip-rule="nonzero" d="M 0 900.558594 L 340 900.558594 L 340 1060 L 0 1060 Z M 0 900.558594 "/>
</clipPath>
<clipPath id="clip-53">
<path clip-rule="nonzero" d="M 108 0.558594 L 238 0.558594 L 238 76 L 108 76 Z M 108 0.558594 "/>
</clipPath>
<clipPath id="clip-54">
<rect x="0" y="0" width="340" height="160"/>
</clipPath>
<g id="source-50" clip-path="url(#clip-54)">
<g clip-path="url(#clip-53)">
<path fill-rule="nonzero" fill="rgb(0%, 0%, 0%)" fill-opacity="1" d="M 108.375 75 L 132.464844 75 L 132.464844 -4.898438 C 132.464844 -35.925781 152.015625 -56.035156 179.640625 -56.035156 C 202.453125 -56.035156 213.214844 -44 213.214844 -17.921875 L 213.214844 75.015625 L 237.304688 75.015625 L 237.304688 -23.3125 C 237.304688 -59.148438 219.742188 -78.136719 187.289062 -78.136719 C 159.664062 -78.136719 142.527344 -64.535156 133.738281 -46.261719 L 132.039062 -46.261719 L 128.640625 -73.886719 L 108.375 -73.886719 Z M 108.375 75 "/>
</g>
</g>
<clipPath id="clip-55">
<path clip-rule="nonzero" d="M 0 899 L 340 899 L 340 902 L 0 902 Z M 0 899 "/>
</clipPath>
<clipPath id="clip-56">
<path clip-rule="nonzero" d="M 360 720 L 700 720 L 700 900.558594 L 360 900.558594 Z M 360 720 "/>
</clipPath>
<clipPath id="clip-57">
<path clip-rule="nonzero" d="M 99 101 L 247 101 L 247 180.558594 L 99 180.558594 Z M 99 101 "/>
</clipPath>
<clipPath id="clip-58">
<rect x="0" y="0" width="340" height="181"/>
</clipPath>
<g id="source-53" clip-path="url(#clip-58)">
<g clip-path="url(#clip-57)">
<path fill-rule="nonzero" fill="rgb(0%, 0%, 0%)" fill-opacity="1" d="M 99.160156 251.464844 L 99.160156 255 L 141.660156 255 L 141.660156 251.464844 C 135.710938 243.8125 132.445312 229.226562 132.445312 209.679688 L 132.445312 175.117188 C 132.445312 141.96875 150.296875 120.292969 178.90625 120.292969 C 202.28125 120.292969 213.195312 133.601562 213.195312 162.078125 L 213.195312 209.679688 C 213.195312 229.226562 210.085938 243.8125 203.984375 251.464844 L 203.984375 255 L 246.484375 255 L 246.484375 251.464844 C 240.53125 243.8125 237.269531 229.226562 237.269531 209.679688 L 237.269531 156.6875 C 237.269531 120.851562 219.707031 101.863281 187.253906 101.863281 C 159.628906 101.863281 142.492188 117.027344 133.703125 137.5625 L 132.003906 137.5625 L 128.605469 105.128906 L 99.144531 106.113281 L 99.144531 109.648438 C 105.230469 116.449219 108.359375 128.351562 108.359375 147.339844 L 108.359375 209.679688 C 108.359375 229.226562 105.246094 243.8125 99.144531 251.464844 Z M 99.160156 251.464844 "/>
</g>
</g>
<clipPath id="clip-59">
<path clip-rule="nonzero" d="M 360 900.558594 L 700 900.558594 L 700 1060 L 360 1060 Z M 360 900.558594 "/>
</clipPath>
<clipPath id="clip-60">
<path clip-rule="nonzero" d="M 103 0.558594 L 242 0.558594 L 242 75 L 103 75 Z M 103 0.558594 "/>
</clipPath>
<clipPath id="clip-61">
<rect x="0" y="0" width="340" height="160"/>
</clipPath>
<g id="source-56" clip-path="url(#clip-61)">
<g clip-path="url(#clip-60)">
<path fill-rule="nonzero" fill="rgb(0%, 0%, 0%)" fill-opacity="1" d="M 103.835938 73.164062 L 103.835938 75 L 137.121094 75 L 137.121094 73.164062 C 134.011719 61.824219 132.445312 47.101562 132.445312 29.679688 L 132.445312 -4.882812 C 132.445312 -37.046875 151.148438 -57.871094 179.332031 -57.871094 C 202.28125 -57.871094 213.195312 -45.257812 213.195312 -17.921875 L 213.195312 29.679688 C 213.195312 47.101562 211.632812 61.84375 208.65625 73.164062 L 208.65625 75 L 241.945312 75 L 241.945312 73.164062 C 238.832031 61.824219 237.269531 47.101562 237.269531 29.679688 L 237.269531 -23.3125 C 237.269531 -59.148438 219.707031 -78.136719 187.253906 -78.136719 C 159.628906 -78.136719 142.492188 -63.6875 133.703125 -44.273438 L 132.003906 -44.273438 L 128.605469 -74.3125 L 103.820312 -73.886719 L 103.820312 -72.1875 C 106.792969 -61.851562 108.359375 -48.945312 108.359375 -32.660156 L 108.359375 29.679688 C 108.359375 47.101562 106.792969 61.84375 103.820312 73.164062 Z M 103.835938 73.164062 "/>
</g>
</g>
<clipPath id="clip-62">
<path clip-rule="nonzero" d="M 360 899 L 700 899 L 700 902 L 360 902 Z M 360 899 "/>
</clipPath>
<clipPath id="clip-63">
<path clip-rule="nonzero" d="M 720 720 L 1060 720 L 1060 900.558594 L 720 900.558594 Z M 720 720 "/>
</clipPath>
<clipPath id="clip-64">
<path clip-rule="nonzero" d="M 99 101 L 247 101 L 247 180.558594 L 99 180.558594 Z M 99 101 "/>
</clipPath>
<clipPath id="clip-65">
<rect x="0" y="0" width="340" height="181"/>
</clipPath>
<g id="source-59" clip-path="url(#clip-65)">
<g clip-path="url(#clip-64)">
<path fill-rule="nonzero" fill="rgb(0%, 0%, 0%)" fill-opacity="1" d="M 99.160156 251.464844 L 99.160156 255 L 141.660156 255 L 141.660156 251.464844 C 135.710938 243.8125 132.445312 229.226562 132.445312 209.679688 L 132.445312 175.117188 C 132.445312 141.96875 150.296875 120.292969 178.90625 120.292969 C 202.28125 120.292969 213.195312 133.601562 213.195312 162.078125 L 213.195312 209.679688 C 213.195312 229.226562 210.085938 243.8125 203.984375 251.464844 L 203.984375 255 L 246.484375 255 L 246.484375 251.464844 C 240.53125 243.8125 237.269531 229.226562 237.269531 209.679688 L 237.269531 156.6875 C 237.269531 120.851562 219.707031 101.863281 187.253906 101.863281 C 159.628906 101.863281 142.492188 117.027344 133.703125 137.5625 L 132.003906 137.5625 L 128.605469 105.128906 L 99.144531 106.113281 L 99.144531 109.648438 C 105.230469 116.449219 108.359375 128.351562 108.359375 147.339844 L 108.359375 209.679688 C 108.359375 229.226562 105.246094 243.8125 99.144531 251.464844 Z M 99.160156 251.464844 "/>
</g>
</g>
<clipPath id="clip-66">
<path clip-rule="nonzero" d="M 720 900.558594 L 1060 900.558594 L 1060 1060 L 720 1060 Z M 720 900.558594 "/>
</clipPath>
<clipPath id="clip-67">
<path clip-rule="nonzero" d="M 99 0.558594 L 247 0.558594 L 247 75 L 99 75 Z M 99 0.558594 "/>
</clipPath>
<clipPath id="clip-68">
<rect x="0" y="0" width="340" height="160"/>
</clipPath>
<g id="source-62" clip-path="url(#clip-68)">
<g clip-path="url(#clip-67)">
<path fill-rule="nonzero" fill="rgb(0%, 0%, 0%)" fill-opacity="1" d="M 99.160156 71.464844 L 99.160156 75 L 141.660156 75 L 141.660156 71.464844 C 135.710938 63.8125 132.445312 49.226562 132.445312 29.679688 L 132.445312 -4.882812 C 132.445312 -38.03125 150.296875 -59.707031 178.90625 -59.707031 C 202.28125 -59.707031 213.195312 -46.398438 213.195312 -17.921875 L 213.195312 29.679688 C 213.195312 49.226562 210.085938 63.8125 203.984375 71.464844 L 203.984375 75 L 246.484375 75 L 246.484375 71.464844 C 240.53125 63.8125 237.269531 49.226562 237.269531 29.679688 L 237.269531 -23.3125 C 237.269531 -59.148438 219.707031 -78.136719 187.253906 -78.136719 C 159.628906 -78.136719 142.492188 -62.972656 133.703125 -42.4375 L 132.003906 -42.4375 L 128.605469 -74.871094 L 99.144531 -73.886719 L 99.144531 -70.351562 C 105.230469 -63.550781 108.359375 -51.648438 108.359375 -32.660156 L 108.359375 29.679688 C 108.359375 49.226562 105.246094 63.8125 99.144531 71.464844 Z M 99.160156 71.464844 "/>
</g>
</g>
<clipPath id="clip-69">
<path clip-rule="nonzero" d="M 720 899 L 1060 899 L 1060 902 L 720 902 Z M 720 899 "/>
</clipPath>
<clipPath id="clip-70">
<path clip-rule="nonzero" d="M 1080 720 L 1420 720 L 1420 900.558594 L 1080 900.558594 Z M 1080 720 "/>
</clipPath>
<clipPath id="clip-71">
<path clip-rule="nonzero" d="M 99 101 L 247 101 L 247 180.558594 L 99 180.558594 Z M 99 101 "/>
</clipPath>
<clipPath id="clip-72">
<rect x="0" y="0" width="340" height="181"/>
</clipPath>
<g id="source-65" clip-path="url(#clip-72)">
<g clip-path="url(#clip-71)">
<path fill-rule="nonzero" fill="rgb(0%, 0%, 0%)" fill-opacity="1" d="M 99.160156 251.464844 L 99.160156 255 L 141.660156 255 L 141.660156 251.464844 C 135.710938 243.8125 132.445312 229.226562 132.445312 209.679688 L 132.445312 175.117188 C 132.445312 141.96875 150.296875 120.292969 178.90625 120.292969 C 202.28125 120.292969 213.195312 133.601562 213.195312 162.078125 L 213.195312 209.679688 C 213.195312 229.226562 210.085938 243.8125 203.984375 251.464844 L 203.984375 255 L 246.484375 255 L 246.484375 251.464844 C 240.53125 243.8125 237.269531 229.226562 237.269531 209.679688 L 237.269531 156.6875 C 237.269531 120.851562 219.707031 101.863281 187.253906 101.863281 C 159.628906 101.863281 142.492188 117.027344 133.703125 137.5625 L 132.003906 137.5625 L 128.605469 105.128906 L 99.144531 106.113281 L 99.144531 109.648438 C 105.230469 116.449219 108.359375 128.351562 108.359375 147.339844 L 108.359375 209.679688 C 108.359375 229.226562 105.246094 243.8125 99.144531 251.464844 Z M 99.160156 251.464844 "/>
</g>
</g>
<clipPath id="clip-73">
<path clip-rule="nonzero" d="M 1080 900.558594 L 1420 900.558594 L 1420 1060 L 1080 1060 Z M 1080 900.558594 "/>
</clipPath>
<clipPath id="clip-74">
<path clip-rule="nonzero" d="M 94 0.558594 L 252 0.558594 L 252 75 L 94 75 Z M 94 0.558594 "/>
</clipPath>
<clipPath id="clip-75">
<rect x="0" y="0" width="340" height="160"/>
</clipPath>
<g id="source-68" clip-path="url(#clip-75)">
<g clip-path="url(#clip-74)">
<path fill-rule="nonzero" fill="rgb(0%, 0%, 0%)" fill-opacity="1" d="M 94.640625 69.609375 L 94.640625 75 L 146.351562 75 L 146.351562 69.609375 C 137.292969 65.921875 132.464844 51.472656 132.464844 29.660156 L 132.464844 -4.898438 C 132.464844 -39.1875 149.464844 -61.425781 178.652344 -61.425781 C 202.164062 -61.425781 213.214844 -47.6875 213.214844 -17.9375 L 213.214844 29.660156 C 213.214844 51.472656 208.402344 65.921875 199.476562 69.609375 L 199.476562 75 L 251.191406 75 L 251.191406 69.609375 C 242.132812 65.921875 237.304688 51.472656 237.304688 29.660156 L 237.304688 -23.328125 C 237.304688 -59.164062 219.742188 -78.152344 187.289062 -78.152344 C 159.664062 -78.152344 142.527344 -62.140625 133.738281 -40.464844 L 132.039062 -40.464844 L 128.640625 -75.3125 L 94.640625 -73.902344 L 94.640625 -68.667969 C 103.5625 -65.132812 108.375 -54.21875 108.375 -32.679688 L 108.375 29.660156 C 108.375 51.472656 103.5625 65.921875 94.640625 69.609375 "/>
</g>
</g>
<clipPath id="clip-76">
<path clip-rule="nonzero" d="M 1080 899 L 1420 899 L 1420 902 L 1080 902 Z M 1080 899 "/>
</clipPath>
<clipPath id="clip-77">
<path clip-rule="nonzero" d="M 0 1080 L 340 1080 L 340 1260.558594 L 0 1260.558594 Z M 0 1080 "/>
</clipPath>
<clipPath id="clip-78">
<path clip-rule="nonzero" d="M 94 101 L 252 101 L 252 180.558594 L 94 180.558594 Z M 94 101 "/>
</clipPath>
<clipPath id="clip-79">
<rect x="0" y="0" width="340" height="181"/>
</clipPath>
<g id="source-71" clip-path="url(#clip-79)">
<g clip-path="url(#clip-78)">
<path fill-rule="nonzero" fill="rgb(0%, 0%, 0%)" fill-opacity="1" d="M 94.640625 249.609375 L 94.640625 255 L 146.351562 255 L 146.351562 249.609375 C 137.292969 245.921875 132.464844 231.472656 132.464844 209.660156 L 132.464844 175.101562 C 132.464844 140.8125 149.464844 118.574219 178.652344 118.574219 C 202.164062 118.574219 213.214844 132.3125 213.214844 162.0625 L 213.214844 209.660156 C 213.214844 231.472656 208.402344 245.921875 199.476562 249.609375 L 199.476562 255 L 251.191406 255 L 251.191406 249.609375 C 242.132812 245.921875 237.304688 231.472656 237.304688 209.660156 L 237.304688 156.671875 C 237.304688 120.835938 219.742188 101.847656 187.289062 101.847656 C 159.664062 101.847656 142.527344 117.859375 133.738281 139.535156 L 132.039062 139.535156 L 128.640625 104.6875 L 94.640625 106.097656 L 94.640625 111.332031 C 103.5625 114.867188 108.375 125.78125 108.375 147.320312 L 108.375 209.660156 C 108.375 231.472656 103.5625 245.921875 94.640625 249.609375 "/>
</g>
</g>
<clipPath id="clip-80">
<path clip-rule="nonzero" d="M 0 1260.558594 L 340 1260.558594 L 340 1420 L 0 1420 Z M 0 1260.558594 "/>
</clipPath>
<clipPath id="clip-81">
<path clip-rule="nonzero" d="M 108 0.558594 L 238 0.558594 L 238 76 L 108 76 Z M 108 0.558594 "/>
</clipPath>
<clipPath id="clip-82">
<rect x="0" y="0" width="340" height="160"/>
</clipPath>
<g id="source-74" clip-path="url(#clip-82)">
<g clip-path="url(#clip-81)">
<path fill-rule="nonzero" fill="rgb(0%, 0%, 0%)" fill-opacity="1" d="M 108.375 75 L 132.464844 75 L 132.464844 -4.898438 C 132.464844 -35.925781 152.015625 -56.035156 179.640625 -56.035156 C 202.453125 -56.035156 213.214844 -44 213.214844 -17.921875 L 213.214844 75.015625 L 237.304688 75.015625 L 237.304688 -23.3125 C 237.304688 -59.148438 219.742188 -78.136719 187.289062 -78.136719 C 159.664062 -78.136719 142.527344 -64.535156 133.738281 -46.261719 L 132.039062 -46.261719 L 128.640625 -73.886719 L 108.375 -73.886719 Z M 108.375 75 "/>
</g>
</g>
<clipPath id="clip-83">
<path clip-rule="nonzero" d="M 0 1259 L 340 1259 L 340 1262 L 0 1262 Z M 0 1259 "/>
</clipPath>
<clipPath id="clip-84">
<path clip-rule="nonzero" d="M 360 1080 L 700 1080 L 700 1260.558594 L 360 1260.558594 Z M 360 1080 "/>
</clipPath>
<clipPath id="clip-85">
<path clip-rule="nonzero" d="M 94 101 L 252 101 L 252 180.558594 L 94 180.558594 Z M 94 101 "/>
</clipPath>
<clipPath id="clip-86">
<rect x="0" y="0" width="340" height="181"/>
</clipPath>
<g id="source-77" clip-path="url(#clip-86)">
<g clip-path="url(#clip-85)">
<path fill-rule="nonzero" fill="rgb(0%, 0%, 0%)" fill-opacity="1" d="M 94.640625 249.609375 L 94.640625 255 L 146.351562 255 L 146.351562 249.609375 C 137.292969 245.921875 132.464844 231.472656 132.464844 209.660156 L 132.464844 175.101562 C 132.464844 140.8125 149.464844 118.574219 178.652344 118.574219 C 202.164062 118.574219 213.214844 132.3125 213.214844 162.0625 L 213.214844 209.660156 C 213.214844 231.472656 208.402344 245.921875 199.476562 249.609375 L 199.476562 255 L 251.191406 255 L 251.191406 249.609375 C 242.132812 245.921875 237.304688 231.472656 237.304688 209.660156 L 237.304688 156.671875 C 237.304688 120.835938 219.742188 101.847656 187.289062 101.847656 C 159.664062 101.847656 142.527344 117.859375 133.738281 139.535156 L 132.039062 139.535156 L 128.640625 104.6875 L 94.640625 106.097656 L 94.640625 111.332031 C 103.5625 114.867188 108.375 125.78125 108.375 147.320312 L 108.375 209.660156 C 108.375 231.472656 103.5625 245.921875 94.640625 249.609375 "/>
</g>
</g>
<clipPath id="clip-87">
<path clip-rule="nonzero" d="M 360 1260.558594 L 700 1260.558594 L 700 1420 L 360 1420 Z M 360 1260.558594 "/>
</clipPath>
<clipPath id="clip-88">
<path clip-rule="nonzero" d="M 103 0.558594 L 242 0.558594 L 242 75 L 103 75 Z M 103 0.558594 "/>
</clipPath>
<clipPath id="clip-89">
<rect x="0" y="0" width="340" height="160"/>
</clipPath>
<g id="source-80" clip-path="url(#clip-89)">
<g clip-path="url(#clip-88)">
<path fill-rule="nonzero" fill="rgb(0%, 0%, 0%)" fill-opacity="1" d="M 103.835938 73.164062 L 103.835938 75 L 137.121094 75 L 137.121094 73.164062 C 134.011719 61.824219 132.445312 47.101562 132.445312 29.679688 L 132.445312 -4.882812 C 132.445312 -37.046875 151.148438 -57.871094 179.332031 -57.871094 C 202.28125 -57.871094 213.195312 -45.257812 213.195312 -17.921875 L 213.195312 29.679688 C 213.195312 47.101562 211.632812 61.84375 208.65625 73.164062 L 208.65625 75 L 241.945312 75 L 241.945312 73.164062 C 238.832031 61.824219 237.269531 47.101562 237.269531 29.679688 L 237.269531 -23.3125 C 237.269531 -59.148438 219.707031 -78.136719 187.253906 -78.136719 C 159.628906 -78.136719 142.492188 -63.6875 133.703125 -44.273438 L 132.003906 -44.273438 L 128.605469 -74.3125 L 103.820312 -73.886719 L 103.820312 -72.1875 C 106.792969 -61.851562 108.359375 -48.945312 108.359375 -32.660156 L 108.359375 29.679688 C 108.359375 47.101562 106.792969 61.84375 103.820312 73.164062 Z M 103.835938 73.164062 "/>
</g>
</g>
<clipPath id="clip-90">
<path clip-rule="nonzero" d="M 360 1259 L 700 1259 L 700 1262 L 360 1262 Z M 360 1259 "/>
</clipPath>
<clipPath id="clip-91">
<path clip-rule="nonzero" d="M 720 1080 L 1060 1080 L 1060 1260.558594 L 720 1260.558594 Z M 720 1080 "/>
</clipPath>
<clipPath id="clip-92">
<path clip-rule="nonzero" d="M 94 101 L 252 101 L 252 180.558594 L 94 180.558594 Z M 94 101 "/>
</clipPath>
<clipPath id="clip-93">
<rect x="0" y="0" width="340" height="181"/>
</clipPath>
<g id="source-83" clip-path="url(#clip-93)">
<g clip-path="url(#clip-92)">
<path fill-rule="nonzero" fill="rgb(0%, 0%, 0%)" fill-opacity="1" d="M 94.640625 249.609375 L 94.640625 255 L 146.351562 255 L 146.351562 249.609375 C 137.292969 245.921875 132.464844 231.472656 132.464844 209.660156 L 132.464844 175.101562 C 132.464844 140.8125 149.464844 118.574219 178.652344 118.574219 C 202.164062 118.574219 213.214844 132.3125 213.214844 162.0625 L 213.214844 209.660156 C 213.214844 231.472656 208.402344 245.921875 199.476562 249.609375 L 199.476562 255 L 251.191406 255 L 251.191406 249.609375 C 242.132812 245.921875 237.304688 231.472656 237.304688 209.660156 L 237.304688 156.671875 C 237.304688 120.835938 219.742188 101.847656 187.289062 101.847656 C 159.664062 101.847656 142.527344 117.859375 133.738281 139.535156 L 132.039062 139.535156 L 128.640625 104.6875 L 94.640625 106.097656 L 94.640625 111.332031 C 103.5625 114.867188 108.375 125.78125 108.375 147.320312 L 108.375 209.660156 C 108.375 231.472656 103.5625 245.921875 94.640625 249.609375 "/>
</g>
</g>
<clipPath id="clip-94">
<path clip-rule="nonzero" d="M 720 1260.558594 L 1060 1260.558594 L 1060 1420 L 720 1420 Z M 720 1260.558594 "/>
</clipPath>
<clipPath id="clip-95">
<path clip-rule="nonzero" d="M 99 0.558594 L 247 0.558594 L 247 75 L 99 75 Z M 99 0.558594 "/>
</clipPath>
<clipPath id="clip-96">
<rect x="0" y="0" width="340" height="160"/>
</clipPath>
<g id="source-86" clip-path="url(#clip-96)">
<g clip-path="url(#clip-95)">
<path fill-rule="nonzero" fill="rgb(0%, 0%, 0%)" fill-opacity="1" d="M 99.160156 71.464844 L 99.160156 75 L 141.660156 75 L 141.660156 71.464844 C 135.710938 63.8125 132.445312 49.226562 132.445312 29.679688 L 132.445312 -4.882812 C 132.445312 -38.03125 150.296875 -59.707031 178.90625 -59.707031 C 202.28125 -59.707031 213.195312 -46.398438 213.195312 -17.921875 L 213.195312 29.679688 C 213.195312 49.226562 210.085938 63.8125 203.984375 71.464844 L 203.984375 75 L 246.484375 75 L 246.484375 71.464844 C 240.53125 63.8125 237.269531 49.226562 237.269531 29.679688 L 237.269531 -23.3125 C 237.269531 -59.148438 219.707031 -78.136719 187.253906 -78.136719 C 159.628906 -78.136719 142.492188 -62.972656 133.703125 -42.4375 L 132.003906 -42.4375 L 128.605469 -74.871094 L 99.144531 -73.886719 L 99.144531 -70.351562 C 105.230469 -63.550781 108.359375 -51.648438 108.359375 -32.660156 L 108.359375 29.679688 C 108.359375 49.226562 105.246094 63.8125 99.144531 71.464844 Z M 99.160156 71.464844 "/>
</g>
</g>
<clipPath id="clip-97">
<path clip-rule="nonzero" d="M 720 1259 L 1060 1259 L 1060 1262 L 720 1262 Z M 720 1259 "/>
</clipPath>
<clipPath id="clip-98">
<path clip-rule="nonzero" d="M 1080 1080 L 1420 1080 L 1420 1260.558594 L 1080 1260.558594 Z M 1080 1080 "/>
</clipPath>
<clipPath id="clip-99">
<path clip-rule="nonzero" d="M 94 101 L 252 101 L 252 180.558594 L 94 180.558594 Z M 94 101 "/>
</clipPath>
<clipPath id="clip-100">
<rect x="0" y="0" width="340" height="181"/>
</clipPath>
<g id="source-89" clip-path="url(#clip-100)">
<g clip-path="url(#clip-99)">
<path fill-rule="nonzero" fill="rgb(0%, 0%, 0%)" fill-opacity="1" d="M 94.640625 249.609375 L 94.640625 255 L 146.351562 255 L 146.351562 249.609375 C 137.292969 245.921875 132.464844 231.472656 132.464844 209.660156 L 132.464844 175.101562 C 132.464844 140.8125 149.464844 118.574219 178.652344 118.574219 C 202.164062 118.574219 213.214844 132.3125 213.214844 162.0625 L 213.214844 209.660156 C 213.214844 231.472656 208.402344 245.921875 199.476562 249.609375 L 199.476562 255 L 251.191406 255 L 251.191406 249.609375 C 242.132812 245.921875 237.304688 231.472656 237.304688 209.660156 L 237.304688 156.671875 C 237.304688 120.835938 219.742188 101.847656 187.289062 101.847656 C 159.664062 101.847656 142.527344 117.859375 133.738281 139.535156 L 132.039062 139.535156 L 128.640625 104.6875 L 94.640625 106.097656 L 94.640625 111.332031 C 103.5625 114.867188 108.375 125.78125 108.375 147.320312 L 108.375 209.660156 C 108.375 231.472656 103.5625 245.921875 94.640625 249.609375 "/>
</g>
</g>
<clipPath id="clip-101">
<path clip-rule="nonzero" d="M 1080 1260.558594 L 1420 1260.558594 L 1420 1420 L 1080 1420 Z M 1080 1260.558594 "/>
</clipPath>
<clipPath id="clip-102">
<path clip-rule="nonzero" d="M 94 0.558594 L 252 0.558594 L 252 75 L 94 75 Z M 94 0.558594 "/>
</clipPath>
<clipPath id="clip-103">
<rect x="0" y="0" width="340" height="160"/>
</clipPath>
<g id="source-92" clip-path="url(#clip-103)">
<g clip-path="url(#clip-102)">
<path fill-rule="nonzero" fill="rgb(0%, 0%, 0%)" fill-opacity="1" d="M 94.640625 69.609375 L 94.640625 75 L 146.351562 75 L 146.351562 69.609375 C 137.292969 65.921875 132.464844 51.472656 132.464844 29.660156 L 132.464844 -4.898438 C 132.464844 -39.1875 149.464844 -61.425781 178.652344 -61.425781 C 202.164062 -61.425781 213.214844 -47.6875 213.214844 -17.9375 L 213.214844 29.660156 C 213.214844 51.472656 208.402344 65.921875 199.476562 69.609375 L 199.476562 75 L 251.191406 75 L 251.191406 69.609375 C 242.132812 65.921875 237.304688 51.472656 237.304688 29.660156 L 237.304688 -23.328125 C 237.304688 -59.164062 219.742188 -78.152344 187.289062 -78.152344 C 159.664062 -78.152344 142.527344 -62.140625 133.738281 -40.464844 L 132.039062 -40.464844 L 128.640625 -75.3125 L 94.640625 -73.902344 L 94.640625 -68.667969 C 103.5625 -65.132812 108.375 -54.21875 108.375 -32.679688 L 108.375 29.660156 C 108.375 51.472656 103.5625 65.921875 94.640625 69.609375 "/>
</g>
</g>
<clipPath id="clip-104">
<path clip-rule="nonzero" d="M 1080 1259 L 1420 1259 L 1420 1262 L 1080 1262 Z M 1080 1259 "/>
</clipPath>
<clipPath id="clip-105">
<path clip-rule="nonzero" d="M 0 0 L 340 0 L 340 180.558594 L 0 180.558594 Z M 0 0 "/>
</clipPath>
<clipPath id="clip-106">
<path clip-rule="nonzero" d="M 108 101 L 238 101 L 238 180.558594 L 108 180.558594 Z M 108 101 "/>
</clipPath>
<clipPath id="clip-107">
<rect x="0" y="0" width="340" height="181"/>
</clipPath>
<g id="source-95" clip-path="url(#clip-107)">
<g clip-path="url(#clip-106)">
<path fill-rule="nonzero" fill="rgb(0%, 0%, 0%)" fill-opacity="1" d="M 108.375 255 L 132.464844 255 L 132.464844 175.101562 C 132.464844 144.074219 152.015625 123.964844 179.640625 123.964844 C 202.453125 123.964844 213.214844 136 213.214844 162.078125 L 213.214844 255.015625 L 237.304688 255.015625 L 237.304688 156.6875 C 237.304688 120.851562 219.742188 101.863281 187.289062 101.863281 C 159.664062 101.863281 142.527344 115.464844 133.738281 133.738281 L 132.039062 133.738281 L 128.640625 106.113281 L 108.375 106.113281 Z M 108.375 255 "/>
</g>
</g>
<clipPath id="clip-108">
<path clip-rule="nonzero" d="M 0 180.558594 L 340 180.558594 L 340 340 L 0 340 Z M 0 180.558594 "/>
</clipPath>
<clipPath id="clip-109">
<path clip-rule="nonzero" d="M 108 0.558594 L 238 0.558594 L 238 76 L 108 76 Z M 108 0.558594 "/>
</clipPath>
<clipPath id="clip-110">
<rect x="0" y="0" width="340" height="160"/>
</clipPath>
<g id="source-98" clip-path="url(#clip-110)">
<g clip-path="url(#clip-109)">
<path fill-rule="nonzero" fill="rgb(0%, 0%, 0%)" fill-opacity="1" d="M 108.375 75 L 132.464844 75 L 132.464844 -4.898438 C 132.464844 -35.925781 152.015625 -56.035156 179.640625 -56.035156 C 202.453125 -56.035156 213.214844 -44 213.214844 -17.921875 L 213.214844 75.015625 L 237.304688 75.015625 L 237.304688 -23.3125 C 237.304688 -59.148438 219.742188 -78.136719 187.289062 -78.136719 C 159.664062 -78.136719 142.527344 -64.535156 133.738281 -46.261719 L 132.039062 -46.261719 L 128.640625 -73.886719 L 108.375 -73.886719 Z M 108.375 75 "/>
</g>
</g>
<clipPath id="clip-111">
<path clip-rule="nonzero" d="M 0 179 L 340 179 L 340 182 L 0 182 Z M 0 179 "/>
</clipPath>
<mask id="mask-0">
<g filter="url(#filter-remove-color)">
<rect x="-142" y="-142" width="1704" height="1704" fill="rgb(0%, 0%, 0%)" fill-opacity="0.100006"/>
</g>
</mask>
<clipPath id="clip-112">
<rect x="0" y="0" width="341" height="341"/>
</clipPath>
<g id="source-101" clip-path="url(#clip-112)">
<path fill-rule="nonzero" fill="rgb(0%, 0%, 0%)" fill-opacity="1" d="M 0 340 L 340 340 L 340 0 L 0 0 Z M 0 340 "/>
</g>
<mask id="mask-1">
<g filter="url(#filter-remove-color)">
<rect x="-142" y="-142" width="1704" height="1704" fill="rgb(0%, 0%, 0%)" fill-opacity="0.100006"/>
</g>
</mask>
<clipPath id="clip-113">
<rect x="0" y="0" width="341" height="341"/>
</clipPath>
<g id="source-104" clip-path="url(#clip-113)">
<path fill-rule="nonzero" fill="rgb(0%, 0%, 0%)" fill-opacity="1" d="M 1 340 L 341 340 L 341 0 L 1 0 Z M 1 340 "/>
</g>
<mask id="mask-2">
<g filter="url(#filter-remove-color)">
<rect x="-142" y="-142" width="1704" height="1704" fill="rgb(0%, 0%, 0%)" fill-opacity="0.100006"/>
</g>
</mask>
<clipPath id="clip-114">
<rect x="0" y="0" width="342" height="341"/>
</clipPath>
<g id="source-107" clip-path="url(#clip-114)">
<path fill-rule="nonzero" fill="rgb(0%, 0%, 0%)" fill-opacity="1" d="M 1 340 L 341 340 L 341 0 L 1 0 Z M 1 340 "/>
</g>
<mask id="mask-3">
<g filter="url(#filter-remove-color)">
<rect x="-142" y="-142" width="1704" height="1704" fill="rgb(0%, 0%, 0%)" fill-opacity="0.100006"/>
</g>
</mask>
<clipPath id="clip-115">
<rect x="0" y="0" width="342" height="342"/>
</clipPath>
<g id="source-110" clip-path="url(#clip-115)">
<path fill-rule="nonzero" fill="rgb(0%, 0%, 0%)" fill-opacity="1" d="M 1 341 L 341 341 L 341 1 L 1 1 Z M 1 341 "/>
</g>
<mask id="mask-4">
<g filter="url(#filter-remove-color)">
<rect x="-142" y="-142" width="1704" height="1704" fill="rgb(0%, 0%, 0%)" fill-opacity="0.100006"/>
</g>
</mask>
<clipPath id="clip-116">
<rect x="0" y="0" width="341" height="342"/>
</clipPath>
<g id="source-113" clip-path="url(#clip-116)">
<path fill-rule="nonzero" fill="rgb(0%, 0%, 0%)" fill-opacity="1" d="M 1 341 L 341 341 L 341 1 L 1 1 Z M 1 341 "/>
</g>
<mask id="mask-5">
<g filter="url(#filter-remove-color)">
<rect x="-142" y="-142" width="1704" height="1704" fill="rgb(0%, 0%, 0%)" fill-opacity="0.100006"/>
</g>
</mask>
<clipPath id="clip-117">
<rect x="0" y="0" width="341" height="341"/>
</clipPath>
<g id="source-116" clip-path="url(#clip-117)">
<path fill-rule="nonzero" fill="rgb(0%, 0%, 0%)" fill-opacity="1" d="M 1 341 L 341 341 L 341 1 L 1 1 Z M 1 341 "/>
</g>
</defs>
<path fill-rule="nonzero" fill="rgb(100%, 100%, 100%)" fill-opacity="1" d="M 360 340 L 700 340 L 700 0 L 360 0 Z M 360 340 "/>
<g clip-path="url(#clip-0)">
<use xlink:href="#source-5" transform="matrix(1, 0, 0, 1, 360, 0)"/>
</g>
<g clip-path="url(#clip-3)">
<use xlink:href="#source-8" transform="matrix(1, 0, 0, 1, 360, 180)"/>
</g>
<g clip-path="url(#clip-6)">
<path fill="none" stroke-width="1.7" stroke-linecap="butt" stroke-linejoin="miter" stroke="rgb(100%, 0%, 0%)" stroke-opacity="1" stroke-miterlimit="4" d="M 0 -0.00159375 L 340 -0.00159375 " transform="matrix(1, 0, 0, -1, 360, 180.557)"/>
</g>
<path fill="none" stroke-width="1" stroke-linecap="butt" stroke-linejoin="miter" stroke="rgb(0%, 0%, 0%)" stroke-opacity="1" stroke-miterlimit="4" d="M 360.5 1080.5 L 699.5 1080.5 L 699.5 1419.5 L 360.5 1419.5 Z M 360.5 1080.5 " transform="matrix(1, 0, 0, -1, 0, 1420)"/>
<path fill-rule="nonzero" fill="rgb(100%, 100%, 100%)" fill-opacity="1" d="M 720 340 L 1060 340 L 1060 0 L 720 0 Z M 720 340 "/>
<g clip-path="url(#clip-7)">
<use xlink:href="#source-11" transform="matrix(1, 0, 0, 1, 720, 0)"/>
</g>
<g clip-path="url(#clip-10)">
<use xlink:href="#source-14" transform="matrix(1, 0, 0, 1, 720, 180)"/>
</g>
<g clip-path="url(#clip-13)">
<path fill="none" stroke-width="1.7" stroke-linecap="butt" stroke-linejoin="miter" stroke="rgb(100%, 0%, 0%)" stroke-opacity="1" stroke-miterlimit="4" d="M 0 -0.00159375 L 340 -0.00159375 " transform="matrix(1, 0, 0, -1, 720, 180.557)"/>
</g>
<path fill="none" stroke-width="1" stroke-linecap="butt" stroke-linejoin="miter" stroke="rgb(0%, 0%, 0%)" stroke-opacity="1" stroke-miterlimit="4" d="M 720.5 1080.5 L 1059.5 1080.5 L 1059.5 1419.5 L 720.5 1419.5 Z M 720.5 1080.5 " transform="matrix(1, 0, 0, -1, 0, 1420)"/>
<path fill-rule="nonzero" fill="rgb(100%, 100%, 100%)" fill-opacity="1" d="M 1080 340 L 1420 340 L 1420 0 L 1080 0 Z M 1080 340 "/>
<g clip-path="url(#clip-14)">
<use xlink:href="#source-17" transform="matrix(1, 0, 0, 1, 1080, 0)"/>
</g>
<g clip-path="url(#clip-17)">
<use xlink:href="#source-20" transform="matrix(1, 0, 0, 1, 1080, 180)"/>
</g>
<g clip-path="url(#clip-20)">
<path fill="none" stroke-width="1.7" stroke-linecap="butt" stroke-linejoin="miter" stroke="rgb(100%, 0%, 0%)" stroke-opacity="1" stroke-miterlimit="4" d="M 0 -0.00159375 L 340 -0.00159375 " transform="matrix(1, 0, 0, -1, 1080, 180.557)"/>
</g>
<path fill="none" stroke-width="1" stroke-linecap="butt" stroke-linejoin="miter" stroke="rgb(0%, 0%, 0%)" stroke-opacity="1" stroke-miterlimit="4" d="M 1080.5 1080.5 L 1419.5 1080.5 L 1419.5 1419.5 L 1080.5 1419.5 Z M 1080.5 1080.5 " transform="matrix(1, 0, 0, -1, 0, 1420)"/>
<path fill-rule="nonzero" fill="rgb(100%, 100%, 100%)" fill-opacity="1" d="M 0 700 L 340 700 L 340 360 L 0 360 Z M 0 700 "/>
<g clip-path="url(#clip-21)">
<use xlink:href="#source-23" transform="matrix(1, 0, 0, 1, 0, 360)"/>
</g>
<g clip-path="url(#clip-24)">
<use xlink:href="#source-26" transform="matrix(1, 0, 0, 1, 0, 540)"/>
</g>
<g clip-path="url(#clip-27)">
<path fill="none" stroke-width="1.7" stroke-linecap="butt" stroke-linejoin="miter" stroke="rgb(100%, 0%, 0%)" stroke-opacity="1" stroke-miterlimit="4" d="M 0 -0.00159375 L 340 -0.00159375 " transform="matrix(1, 0, 0, -1, 0, 540.557)"/>
</g>
<path fill="none" stroke-width="1" stroke-linecap="butt" stroke-linejoin="miter" stroke="rgb(0%, 0%, 0%)" stroke-opacity="1" stroke-miterlimit="4" d="M 0.5 720.5 L 339.5 720.5 L 339.5 1059.5 L 0.5 1059.5 Z M 0.5 720.5 " transform="matrix(1, 0, 0, -1, 0, 1420)"/>
<path fill-rule="nonzero" fill="rgb(100%, 100%, 100%)" fill-opacity="1" d="M 360 700 L 700 700 L 700 360 L 360 360 Z M 360 700 "/>
<g clip-path="url(#clip-28)">
<use xlink:href="#source-29" transform="matrix(1, 0, 0, 1, 360, 360)"/>
</g>
<g clip-path="url(#clip-31)">
<use xlink:href="#source-32" transform="matrix(1, 0, 0, 1, 360, 540)"/>
</g>
<g clip-path="url(#clip-34)">
<path fill="none" stroke-width="1.7" stroke-linecap="butt" stroke-linejoin="miter" stroke="rgb(100%, 0%, 0%)" stroke-opacity="1" stroke-miterlimit="4" d="M 0 -0.00159375 L 340 -0.00159375 " transform="matrix(1, 0, 0, -1, 360, 540.557)"/>
</g>
<path fill="none" stroke-width="1" stroke-linecap="butt" stroke-linejoin="miter" stroke="rgb(0%, 0%, 0%)" stroke-opacity="1" stroke-miterlimit="4" d="M 360.5 720.5 L 699.5 720.5 L 699.5 1059.5 L 360.5 1059.5 Z M 360.5 720.5 " transform="matrix(1, 0, 0, -1, 0, 1420)"/>
<path fill-rule="nonzero" fill="rgb(100%, 100%, 100%)" fill-opacity="1" d="M 720 700 L 1060 700 L 1060 360 L 720 360 Z M 720 700 "/>
<g clip-path="url(#clip-35)">
<use xlink:href="#source-35" transform="matrix(1, 0, 0, 1, 720, 360)"/>
</g>
<g clip-path="url(#clip-38)">
<use xlink:href="#source-38" transform="matrix(1, 0, 0, 1, 720, 540)"/>
</g>
<g clip-path="url(#clip-41)">
<path fill="none" stroke-width="1.7" stroke-linecap="butt" stroke-linejoin="miter" stroke="rgb(100%, 0%, 0%)" stroke-opacity="1" stroke-miterlimit="4" d="M 0 -0.00159375 L 340 -0.00159375 " transform="matrix(1, 0, 0, -1, 720, 540.557)"/>
</g>
<path fill="none" stroke-width="1" stroke-linecap="butt" stroke-linejoin="miter" stroke="rgb(0%, 0%, 0%)" stroke-opacity="1" stroke-miterlimit="4" d="M 720.5 720.5 L 1059.5 720.5 L 1059.5 1059.5 L 720.5 1059.5 Z M 720.5 720.5 " transform="matrix(1, 0, 0, -1, 0, 1420)"/>
<path fill-rule="nonzero" fill="rgb(100%, 100%, 100%)" fill-opacity="1" d="M 1080 700 L 1420 700 L 1420 360 L 1080 360 Z M 1080 700 "/>
<g clip-path="url(#clip-42)">
<use xlink:href="#source-41" transform="matrix(1, 0, 0, 1, 1080, 360)"/>
</g>
<g clip-path="url(#clip-45)">
<use xlink:href="#source-44" transform="matrix(1, 0, 0, 1, 1080, 540)"/>
</g>
<g clip-path="url(#clip-48)">
<path fill="none" stroke-width="1.7" stroke-linecap="butt" stroke-linejoin="miter" stroke="rgb(100%, 0%, 0%)" stroke-opacity="1" stroke-miterlimit="4" d="M 0 -0.00159375 L 340 -0.00159375 " transform="matrix(1, 0, 0, -1, 1080, 540.557)"/>
</g>
<path fill="none" stroke-width="1" stroke-linecap="butt" stroke-linejoin="miter" stroke="rgb(0%, 0%, 0%)" stroke-opacity="1" stroke-miterlimit="4" d="M 1080.5 720.5 L 1419.5 720.5 L 1419.5 1059.5 L 1080.5 1059.5 Z M 1080.5 720.5 " transform="matrix(1, 0, 0, -1, 0, 1420)"/>
<path fill-rule="nonzero" fill="rgb(100%, 100%, 100%)" fill-opacity="1" d="M 0 1060 L 340 1060 L 340 720 L 0 720 Z M 0 1060 "/>
<g clip-path="url(#clip-49)">
<use xlink:href="#source-47" transform="matrix(1, 0, 0, 1, 0, 720)"/>
</g>
<g clip-path="url(#clip-52)">
<use xlink:href="#source-50" transform="matrix(1, 0, 0, 1, 0, 900)"/>
</g>
<g clip-path="url(#clip-55)">
<path fill="none" stroke-width="1.7" stroke-linecap="butt" stroke-linejoin="miter" stroke="rgb(100%, 0%, 0%)" stroke-opacity="1" stroke-miterlimit="4" d="M 0 -0.00159375 L 340 -0.00159375 " transform="matrix(1, 0, 0, -1, 0, 900.557)"/>
</g>
<path fill="none" stroke-width="1" stroke-linecap="butt" stroke-linejoin="miter" stroke="rgb(0%, 0%, 0%)" stroke-opacity="1" stroke-miterlimit="4" d="M 0.5 360.5 L 339.5 360.5 L 339.5 699.5 L 0.5 699.5 Z M 0.5 360.5 " transform="matrix(1, 0, 0, -1, 0, 1420)"/>
<path fill-rule="nonzero" fill="rgb(100%, 100%, 100%)" fill-opacity="1" d="M 360 1060 L 700 1060 L 700 720 L 360 720 Z M 360 1060 "/>
<g clip-path="url(#clip-56)">
<use xlink:href="#source-53" transform="matrix(1, 0, 0, 1, 360, 720)"/>
</g>
<g clip-path="url(#clip-59)">
<use xlink:href="#source-56" transform="matrix(1, 0, 0, 1, 360, 900)"/>
</g>
<g clip-path="url(#clip-62)">
<path fill="none" stroke-width="1.7" stroke-linecap="butt" stroke-linejoin="miter" stroke="rgb(100%, 0%, 0%)" stroke-opacity="1" stroke-miterlimit="4" d="M 0 -0.00159375 L 340 -0.00159375 " transform="matrix(1, 0, 0, -1, 360, 900.557)"/>
</g>
<path fill="none" stroke-width="1" stroke-linecap="butt" stroke-linejoin="miter" stroke="rgb(0%, 0%, 0%)" stroke-opacity="1" stroke-miterlimit="4" d="M 360.5 360.5 L 699.5 360.5 L 699.5 699.5 L 360.5 699.5 Z M 360.5 360.5 " transform="matrix(1, 0, 0, -1, 0, 1420)"/>
<path fill-rule="nonzero" fill="rgb(100%, 100%, 100%)" fill-opacity="1" d="M 720 1060 L 1060 1060 L 1060 720 L 720 720 Z M 720 1060 "/>
<g clip-path="url(#clip-63)">
<use xlink:href="#source-59" transform="matrix(1, 0, 0, 1, 720, 720)"/>
</g>
<g clip-path="url(#clip-66)">
<use xlink:href="#source-62" transform="matrix(1, 0, 0, 1, 720, 900)"/>
</g>
<g clip-path="url(#clip-69)">
<path fill="none" stroke-width="1.7" stroke-linecap="butt" stroke-linejoin="miter" stroke="rgb(100%, 0%, 0%)" stroke-opacity="1" stroke-miterlimit="4" d="M 0 -0.00159375 L 340 -0.00159375 " transform="matrix(1, 0, 0, -1, 720, 900.557)"/>
</g>
<path fill="none" stroke-width="1" stroke-linecap="butt" stroke-linejoin="miter" stroke="rgb(0%, 0%, 0%)" stroke-opacity="1" stroke-miterlimit="4" d="M 720.5 360.5 L 1059.5 360.5 L 1059.5 699.5 L 720.5 699.5 Z M 720.5 360.5 " transform="matrix(1, 0, 0, -1, 0, 1420)"/>
<path fill-rule="nonzero" fill="rgb(100%, 100%, 100%)" fill-opacity="1" d="M 1080 1060 L 1420 1060 L 1420 720 L 1080 720 Z M 1080 1060 "/>
<g clip-path="url(#clip-70)">
<use xlink:href="#source-65" transform="matrix(1, 0, 0, 1, 1080, 720)"/>
</g>
<g clip-path="url(#clip-73)">
<use xlink:href="#source-68" transform="matrix(1, 0, 0, 1, 1080, 900)"/>
</g>
<g clip-path="url(#clip-76)">
<path fill="none" stroke-width="1.7" stroke-linecap="butt" stroke-linejoin="miter" stroke="rgb(100%, 0%, 0%)" stroke-opacity="1" stroke-miterlimit="4" d="M 0 -0.00159375 L 340 -0.00159375 " transform="matrix(1, 0, 0, -1, 1080, 900.557)"/>
</g>
<path fill="none" stroke-width="1" stroke-linecap="butt" stroke-linejoin="miter" stroke="rgb(0%, 0%, 0%)" stroke-opacity="1" stroke-miterlimit="4" d="M 1080.5 360.5 L 1419.5 360.5 L 1419.5 699.5 L 1080.5 699.5 Z M 1080.5 360.5 " transform="matrix(1, 0, 0, -1, 0, 1420)"/>
<path fill-rule="nonzero" fill="rgb(100%, 100%, 100%)" fill-opacity="1" d="M 0 1420 L 340 1420 L 340 1080 L 0 1080 Z M 0 1420 "/>
<g clip-path="url(#clip-77)">
<use xlink:href="#source-71" transform="matrix(1, 0, 0, 1, 0, 1080)"/>
</g>
<g clip-path="url(#clip-80)">
<use xlink:href="#source-74" transform="matrix(1, 0, 0, 1, 0, 1260)"/>
</g>
<g clip-path="url(#clip-83)">
<path fill="none" stroke-width="1.7" stroke-linecap="butt" stroke-linejoin="miter" stroke="rgb(100%, 0%, 0%)" stroke-opacity="1" stroke-miterlimit="4" d="M 0 -0.00159375 L 340 -0.00159375 " transform="matrix(1, 0, 0, -1, 0, 1260.557)"/>
</g>
<path fill="none" stroke-width="1" stroke-linecap="butt" stroke-linejoin="miter" stroke="rgb(0%, 0%, 0%)" stroke-opacity="1" stroke-miterlimit="4" d="M 0.5 0.5 L 339.5 0.5 L 339.5 339.5 L 0.5 339.5 Z M 0.5 0.5 " transform="matrix(1, 0, 0, -1, 0, 1420)"/>
<path fill-rule="nonzero" fill="rgb(100%, 100%, 100%)" fill-opacity="1" d="M 360 1420 L 700 1420 L 700 1080 L 360 1080 Z M 360 1420 "/>
<g clip-path="url(#clip-84)">
<use xlink:href="#source-77" transform="matrix(1, 0, 0, 1, 360, 1080)"/>
</g>
<g clip-path="url(#clip-87)">
<use xlink:href="#source-80" transform="matrix(1, 0, 0, 1, 360, 1260)"/>
</g>
<g clip-path="url(#clip-90)">
<path fill="none" stroke-width="1.7" stroke-linecap="butt" stroke-linejoin="miter" stroke="rgb(100%, 0%, 0%)" stroke-opacity="1" stroke-miterlimit="4" d="M 0 -0.00159375 L 340 -0.00159375 " transform="matrix(1, 0, 0, -1, 360, 1260.557)"/>
</g>
<path fill="none" stroke-width="1" stroke-linecap="butt" stroke-linejoin="miter" stroke="rgb(0%, 0%, 0%)" stroke-opacity="1" stroke-miterlimit="4" d="M 360.5 0.5 L 699.5 0.5 L 699.5 339.5 L 360.5 339.5 Z M 360.5 0.5 " transform="matrix(1, 0, 0, -1, 0, 1420)"/>
<path fill-rule="nonzero" fill="rgb(100%, 100%, 100%)" fill-opacity="1" d="M 720 1420 L 1060 1420 L 1060 1080 L 720 1080 Z M 720 1420 "/>
<g clip-path="url(#clip-91)">
<use xlink:href="#source-83" transform="matrix(1, 0, 0, 1, 720, 1080)"/>
</g>
<g clip-path="url(#clip-94)">
<use xlink:href="#source-86" transform="matrix(1, 0, 0, 1, 720, 1260)"/>
</g>
<g clip-path="url(#clip-97)">
<path fill="none" stroke-width="1.7" stroke-linecap="butt" stroke-linejoin="miter" stroke="rgb(100%, 0%, 0%)" stroke-opacity="1" stroke-miterlimit="4" d="M 0 -0.00159375 L 340 -0.00159375 " transform="matrix(1, 0, 0, -1, 720, 1260.557)"/>
</g>
<path fill="none" stroke-width="1" stroke-linecap="butt" stroke-linejoin="miter" stroke="rgb(0%, 0%, 0%)" stroke-opacity="1" stroke-miterlimit="4" d="M 720.5 0.5 L 1059.5 0.5 L 1059.5 339.5 L 720.5 339.5 Z M 720.5 0.5 " transform="matrix(1, 0, 0, -1, 0, 1420)"/>
<path fill-rule="nonzero" fill="rgb(100%, 100%, 100%)" fill-opacity="1" d="M 1080 1420 L 1420 1420 L 1420 1080 L 1080 1080 Z M 1080 1420 "/>
<g clip-path="url(#clip-98)">
<use xlink:href="#source-89" transform="matrix(1, 0, 0, 1, 1080, 1080)"/>
</g>
<g clip-path="url(#clip-101)">
<use xlink:href="#source-92" transform="matrix(1, 0, 0, 1, 1080, 1260)"/>
</g>
<g clip-path="url(#clip-104)">
<path fill="none" stroke-width="1.7" stroke-linecap="butt" stroke-linejoin="miter" stroke="rgb(100%, 0%, 0%)" stroke-opacity="1" stroke-miterlimit="4" d="M 0 -0.00159375 L 340 -0.00159375 " transform="matrix(1, 0, 0, -1, 1080, 1260.557)"/>
</g>
<path fill="none" stroke-width="1" stroke-linecap="butt" stroke-linejoin="miter" stroke="rgb(0%, 0%, 0%)" stroke-opacity="1" stroke-miterlimit="4" d="M 1080.5 0.5 L 1419.5 0.5 L 1419.5 339.5 L 1080.5 339.5 Z M 1080.5 0.5 " transform="matrix(1, 0, 0, -1, 0, 1420)"/>
<path fill-rule="nonzero" fill="rgb(100%, 100%, 100%)" fill-opacity="1" d="M 0 340 L 340 340 L 340 0 L 0 0 Z M 0 340 "/>
<g clip-path="url(#clip-105)">
<use xlink:href="#source-95"/>
</g>
<g clip-path="url(#clip-108)">
<use xlink:href="#source-98" transform="matrix(1, 0, 0, 1, 0, 180)"/>
</g>
<g clip-path="url(#clip-111)">
<path fill="none" stroke-width="1.7" stroke-linecap="butt" stroke-linejoin="miter" stroke="rgb(100%, 0%, 0%)" stroke-opacity="1" stroke-miterlimit="4" d="M 0 -0.00159375 L 340 -0.00159375 " transform="matrix(1, 0, 0, -1, 0, 180.557)"/>
</g>
<path fill="none" stroke-width="1" stroke-linecap="butt" stroke-linejoin="miter" stroke="rgb(0%, 0%, 0%)" stroke-opacity="1" stroke-miterlimit="4" d="M 0.5 1080.5 L 339.5 1080.5 L 339.5 1419.5 L 0.5 1419.5 Z M 0.5 1080.5 " transform="matrix(1, 0, 0, -1, 0, 1420)"/>
<g mask="url(#mask-0)">
<use xlink:href="#source-101"/>
</g>
<g mask="url(#mask-1)">
<use xlink:href="#source-104" transform="matrix(1, 0, 0, 1, 1079, 0)"/>
</g>
<g mask="url(#mask-2)">
<use xlink:href="#source-107" transform="matrix(1, 0, 0, 1, 359, 0)"/>
</g>
<g mask="url(#mask-3)">
<use xlink:href="#source-110" transform="matrix(1, 0, 0, 1, 719, 359)"/>
</g>
<g mask="url(#mask-4)">
<use xlink:href="#source-113" transform="matrix(1, 0, 0, 1, 1079, 359)"/>
</g>
<g mask="url(#mask-5)">
<use xlink:href="#source-116" transform="matrix(1, 0, 0, 1, 1079, 1079)"/>
</g>
</svg>
