<?xml version="1.0" encoding="UTF-8"?>
<svg xmlns="http://www.w3.org/2000/svg" xmlns:xlink="http://www.w3.org/1999/xlink" width="1420" height="345" viewBox="0 0 1420 345">
<defs>
<clipPath id="clip-0">
<path clip-rule="nonzero" d="M 0.757812 2.5 L 340.757812 2.5 L 340.757812 183.058594 L 0.757812 183.058594 Z M 0.757812 2.5 "/>
</clipPath>
<clipPath id="clip-1">
<path clip-rule="nonzero" d="M 109 102 L 239 102 L 239 181.058594 L 109 181.058594 Z M 109 102 "/>
</clipPath>
<clipPath id="clip-2">
<rect x="0" y="0" width="341" height="182"/>
</clipPath>
<g id="source-5" clip-path="url(#clip-2)">
<g clip-path="url(#clip-1)">
<path fill-rule="nonzero" fill="rgb(0%, 0%, 0%)" fill-opacity="1" d="M 109.132812 255.5 L 133.222656 255.5 L 133.222656 175.601562 C 133.222656 144.574219 152.773438 124.464844 180.398438 124.464844 C 203.210938 124.464844 213.972656 136.5 213.972656 162.578125 L 213.972656 255.515625 L 238.0625 255.515625 L 238.0625 157.1875 C 238.0625 121.351562 220.5 102.363281 188.046875 102.363281 C 160.421875 102.363281 143.285156 115.964844 134.496094 134.238281 L 132.796875 134.238281 L 129.398438 106.613281 L 109.132812 106.613281 Z M 109.132812 255.5 "/>
</g>
</g>
<clipPath id="clip-3">
<path clip-rule="nonzero" d="M 0.757812 183.058594 L 340.757812 183.058594 L 340.757812 342.5 L 0.757812 342.5 Z M 0.757812 183.058594 "/>
</clipPath>
<clipPath id="clip-4">
<path clip-rule="nonzero" d="M 104 0.0585938 L 243 0.0585938 L 243 75 L 104 75 Z M 104 0.0585938 "/>
</clipPath>
<clipPath id="clip-5">
<rect x="0" y="0" width="341" height="160"/>
</clipPath>
<g id="source-8" clip-path="url(#clip-5)">
<g clip-path="url(#clip-4)">
<path fill-rule="nonzero" fill="rgb(0%, 0%, 0%)" fill-opacity="1" d="M 104.59375 72.664062 L 104.59375 74.5 L 137.878906 74.5 L 137.878906 72.664062 C 134.769531 61.324219 133.207031 46.601562 133.207031 29.179688 L 133.207031 -5.382812 C 133.207031 -37.546875 151.90625 -58.371094 180.089844 -58.371094 C 203.042969 -58.371094 213.957031 -45.757812 213.957031 -18.421875 L 213.957031 29.179688 C 213.957031 46.601562 212.390625 61.34375 209.417969 72.664062 L 209.417969 74.5 L 242.703125 74.5 L 242.703125 72.664062 C 239.589844 61.324219 238.027344 46.601562 238.027344 29.179688 L 238.027344 -23.8125 C 238.027344 -59.648438 220.464844 -78.636719 188.011719 -78.636719 C 160.386719 -78.636719 143.253906 -64.1875 134.464844 -44.773438 L 132.761719 -44.773438 L 129.363281 -74.8125 L 104.578125 -74.386719 L 104.578125 -72.6875 C 107.550781 -62.351562 109.117188 -49.445312 109.117188 -33.160156 L 109.117188 29.179688 C 109.117188 46.601562 107.550781 61.34375 104.578125 72.664062 Z M 104.59375 72.664062 "/>
</g>
</g>
<clipPath id="clip-6">
<path clip-rule="nonzero" d="M 0.757812 182 L 340.757812 182 L 340.757812 184 L 0.757812 184 Z M 0.757812 182 "/>
</clipPath>
<clipPath id="clip-7">
<path clip-rule="nonzero" d="M 339.757812 2.5 L 679.757812 2.5 L 679.757812 183.058594 L 339.757812 183.058594 Z M 339.757812 2.5 "/>
</clipPath>
<clipPath id="clip-8">
<path clip-rule="nonzero" d="M 109 102 L 239 102 L 239 181.058594 L 109 181.058594 Z M 109 102 "/>
</clipPath>
<clipPath id="clip-9">
<rect x="0" y="0" width="341" height="182"/>
</clipPath>
<g id="source-11" clip-path="url(#clip-9)">
<g clip-path="url(#clip-8)">
<path fill-rule="nonzero" fill="rgb(0%, 0%, 0%)" fill-opacity="1" d="M 109.132812 255.5 L 133.222656 255.5 L 133.222656 175.601562 C 133.222656 144.574219 152.773438 124.464844 180.398438 124.464844 C 203.210938 124.464844 213.972656 136.5 213.972656 162.578125 L 213.972656 255.515625 L 238.0625 255.515625 L 238.0625 157.1875 C 238.0625 121.351562 220.5 102.363281 188.046875 102.363281 C 160.421875 102.363281 143.285156 115.964844 134.496094 134.238281 L 132.796875 134.238281 L 129.398438 106.613281 L 109.132812 106.613281 Z M 109.132812 255.5 "/>
</g>
</g>
<clipPath id="clip-10">
<path clip-rule="nonzero" d="M 339.757812 183.058594 L 679.757812 183.058594 L 679.757812 342.5 L 339.757812 342.5 Z M 339.757812 183.058594 "/>
</clipPath>
<clipPath id="clip-11">
<path clip-rule="nonzero" d="M 99 0.0585938 L 248 0.0585938 L 248 75 L 99 75 Z M 99 0.0585938 "/>
</clipPath>
<clipPath id="clip-12">
<rect x="0" y="0" width="341" height="160"/>
</clipPath>
<g id="source-14" clip-path="url(#clip-12)">
<g clip-path="url(#clip-11)">
<path fill-rule="nonzero" fill="rgb(0%, 0%, 0%)" fill-opacity="1" d="M 99.917969 70.964844 L 99.917969 74.5 L 142.417969 74.5 L 142.417969 70.964844 C 136.46875 63.3125 133.207031 48.726562 133.207031 29.179688 L 133.207031 -5.382812 C 133.207031 -38.53125 151.054688 -60.207031 179.667969 -60.207031 C 203.042969 -60.207031 213.957031 -46.898438 213.957031 -18.421875 L 213.957031 29.179688 C 213.957031 48.726562 210.84375 63.3125 204.742188 70.964844 L 204.742188 74.5 L 247.242188 74.5 L 247.242188 70.964844 C 241.292969 63.3125 238.027344 48.726562 238.027344 29.179688 L 238.027344 -23.8125 C 238.027344 -59.648438 220.464844 -78.636719 188.011719 -78.636719 C 160.386719 -78.636719 143.253906 -63.472656 134.464844 -42.9375 L 132.761719 -42.9375 L 129.363281 -75.371094 L 99.902344 -74.386719 L 99.902344 -70.851562 C 105.988281 -64.050781 109.117188 -52.148438 109.117188 -33.160156 L 109.117188 29.179688 C 109.117188 48.726562 106.003906 63.3125 99.902344 70.964844 Z M 99.917969 70.964844 "/>
</g>
</g>
<clipPath id="clip-13">
<path clip-rule="nonzero" d="M 339.757812 182 L 679.757812 182 L 679.757812 184 L 339.757812 184 Z M 339.757812 182 "/>
</clipPath>
</defs>
<path fill-rule="nonzero" fill="rgb(100%, 100%, 100%)" fill-opacity="1" d="M 0.757812 342.5 L 340.757812 342.5 L 340.757812 2.5 L 0.757812 2.5 Z M 0.757812 342.5 "/>
<g clip-path="url(#clip-0)">
<use xlink:href="#source-5" transform="matrix(1, 0, 0, 1, 0, 2)"/>
</g>
<g clip-path="url(#clip-3)">
<use xlink:href="#source-8" transform="matrix(1, 0, 0, 1, 0, 183)"/>
</g>
<g clip-path="url(#clip-6)">
<path fill="none" stroke-width="1.7" stroke-linecap="butt" stroke-linejoin="miter" stroke="rgb(100%, 0%, 0%)" stroke-opacity="1" stroke-miterlimit="4" d="M -0.0007875 -0.00159375 L 339.999212 -0.00159375 " transform="matrix(1, 0, 0, -1, 0.7586, 183.057)"/>
</g>
<path fill-rule="nonzero" fill="rgb(100%, 100%, 100%)" fill-opacity="1" d="M 339.757812 342.5 L 679.757812 342.5 L 679.757812 2.5 L 339.757812 2.5 Z M 339.757812 342.5 "/>
<g clip-path="url(#clip-7)">
<use xlink:href="#source-11" transform="matrix(1, 0, 0, 1, 339, 2)"/>
</g>
<g clip-path="url(#clip-10)">
<use xlink:href="#source-14" transform="matrix(1, 0, 0, 1, 339, 183)"/>
</g>
<g clip-path="url(#clip-13)">
<path fill="none" stroke-width="1.7" stroke-linecap="butt" stroke-linejoin="miter" stroke="rgb(100%, 0%, 0%)" stroke-opacity="1" stroke-miterlimit="4" d="M -0.0007875 -0.00159375 L 339.999212 -0.00159375 " transform="matrix(1, 0, 0, -1, 339.7586, 183.057)"/>
</g>
<path fill="none" stroke-width="1" stroke-linecap="butt" stroke-linejoin="miter" stroke="rgb(0%, 0%, 0%)" stroke-opacity="1" stroke-miterlimit="4" d="M 0.5 3 L 679.5 3 L 679.5 342 L 0.5 342 Z M 0.5 3 " transform="matrix(1, 0, 0, -1, 0, 345)"/>
</svg>
