<?xml version="1.0" encoding="UTF-8"?>
<svg xmlns="http://www.w3.org/2000/svg" xmlns:xlink="http://www.w3.org/1999/xlink" width="1420" height="345" viewBox="0 0 1420 345">
<defs>
<clipPath id="clip-0">
<path clip-rule="nonzero" d="M 339.515625 2.878906 L 679.515625 2.878906 L 679.515625 183.4375 L 339.515625 183.4375 Z M 339.515625 2.878906 "/>
</clipPath>
<clipPath id="clip-1">
<path clip-rule="nonzero" d="M 99 102 L 247 102 L 247 181.4375 L 99 181.4375 Z M 99 102 "/>
</clipPath>
<clipPath id="clip-2">
<rect x="0" y="0" width="341" height="182"/>
</clipPath>
<g id="source-5" clip-path="url(#clip-2)">
<g clip-path="url(#clip-1)">
<path fill-rule="nonzero" fill="rgb(0%, 0%, 0%)" fill-opacity="1" d="M 99.679688 252.34375 L 99.679688 255.878906 L 142.179688 255.878906 L 142.179688 252.34375 C 136.226562 244.691406 132.964844 230.105469 132.964844 210.558594 L 132.964844 175.996094 C 132.964844 142.847656 150.8125 121.171875 179.425781 121.171875 C 202.800781 121.171875 213.714844 134.480469 213.714844 162.957031 L 213.714844 210.558594 C 213.714844 230.105469 210.601562 244.691406 204.5 252.34375 L 204.5 255.878906 L 247 255.878906 L 247 252.34375 C 241.050781 244.691406 237.785156 230.105469 237.785156 210.558594 L 237.785156 157.566406 C 237.785156 121.730469 220.226562 102.742188 187.773438 102.742188 C 160.148438 102.742188 143.011719 117.90625 134.222656 138.441406 L 132.523438 138.441406 L 129.121094 106.007812 L 99.660156 106.992188 L 99.660156 110.53125 C 105.746094 117.328125 108.875 129.230469 108.875 148.21875 L 108.875 210.558594 C 108.875 230.105469 105.765625 244.691406 99.660156 252.34375 Z M 99.679688 252.34375 "/>
</g>
</g>
<clipPath id="clip-3">
<path clip-rule="nonzero" d="M 339.515625 183.4375 L 679.515625 183.4375 L 679.515625 342.878906 L 339.515625 342.878906 Z M 339.515625 183.4375 "/>
</clipPath>
<clipPath id="clip-4">
<path clip-rule="nonzero" d="M 104 0.4375 L 243 0.4375 L 243 75 L 104 75 Z M 104 0.4375 "/>
</clipPath>
<clipPath id="clip-5">
<rect x="0" y="0" width="341" height="160"/>
</clipPath>
<g id="source-8" clip-path="url(#clip-5)">
<g clip-path="url(#clip-4)">
<path fill-rule="nonzero" fill="rgb(0%, 0%, 0%)" fill-opacity="1" d="M 104.351562 73.042969 L 104.351562 74.878906 L 137.640625 74.878906 L 137.640625 73.042969 C 134.527344 61.703125 132.964844 46.980469 132.964844 29.558594 L 132.964844 -5.003906 C 132.964844 -37.167969 151.664062 -57.992188 179.851562 -57.992188 C 202.800781 -57.992188 213.714844 -45.378906 213.714844 -18.042969 L 213.714844 29.558594 C 213.714844 46.980469 212.148438 61.722656 209.175781 73.042969 L 209.175781 74.878906 L 242.460938 74.878906 L 242.460938 73.042969 C 239.351562 61.703125 237.785156 46.980469 237.785156 29.558594 L 237.785156 -23.433594 C 237.785156 -59.269531 220.226562 -78.257812 187.773438 -78.257812 C 160.148438 -78.257812 143.011719 -63.808594 134.222656 -44.394531 L 132.523438 -44.394531 L 129.121094 -74.433594 L 104.335938 -74.007812 L 104.335938 -72.308594 C 107.3125 -61.96875 108.875 -49.066406 108.875 -32.78125 L 108.875 29.558594 C 108.875 46.980469 107.3125 61.722656 104.335938 73.042969 Z M 104.351562 73.042969 "/>
</g>
</g>
<clipPath id="clip-6">
<path clip-rule="nonzero" d="M 339.515625 182 L 679.515625 182 L 679.515625 185 L 339.515625 185 Z M 339.515625 182 "/>
</clipPath>
<clipPath id="clip-7">
<path clip-rule="nonzero" d="M 0.757812 2.878906 L 340.757812 2.878906 L 340.757812 183.4375 L 0.757812 183.4375 Z M 0.757812 2.878906 "/>
</clipPath>
<clipPath id="clip-8">
<path clip-rule="nonzero" d="M 109 102 L 239 102 L 239 181.4375 L 109 181.4375 Z M 109 102 "/>
</clipPath>
<clipPath id="clip-9">
<rect x="0" y="0" width="341" height="182"/>
</clipPath>
<g id="source-11" clip-path="url(#clip-9)">
<g clip-path="url(#clip-8)">
<path fill-rule="nonzero" fill="rgb(0%, 0%, 0%)" fill-opacity="1" d="M 109.132812 255.878906 L 133.222656 255.878906 L 133.222656 175.980469 C 133.222656 144.953125 152.773438 124.84375 180.398438 124.84375 C 203.210938 124.84375 213.972656 136.878906 213.972656 162.957031 L 213.972656 255.894531 L 238.0625 255.894531 L 238.0625 157.566406 C 238.0625 121.730469 220.5 102.742188 188.046875 102.742188 C 160.421875 102.742188 143.285156 116.34375 134.496094 134.617188 L 132.796875 134.617188 L 129.398438 106.992188 L 109.132812 106.992188 Z M 109.132812 255.878906 "/>
</g>
</g>
<clipPath id="clip-10">
<path clip-rule="nonzero" d="M 0.757812 183.4375 L 340.757812 183.4375 L 340.757812 342.878906 L 0.757812 342.878906 Z M 0.757812 183.4375 "/>
</clipPath>
<clipPath id="clip-11">
<path clip-rule="nonzero" d="M 104 0.4375 L 243 0.4375 L 243 75 L 104 75 Z M 104 0.4375 "/>
</clipPath>
<clipPath id="clip-12">
<rect x="0" y="0" width="341" height="160"/>
</clipPath>
<g id="source-14" clip-path="url(#clip-12)">
<g clip-path="url(#clip-11)">
<path fill-rule="nonzero" fill="rgb(0%, 0%, 0%)" fill-opacity="1" d="M 104.59375 73.042969 L 104.59375 74.878906 L 137.878906 74.878906 L 137.878906 73.042969 C 134.769531 61.703125 133.207031 46.980469 133.207031 29.558594 L 133.207031 -5.003906 C 133.207031 -37.167969 151.90625 -57.992188 180.089844 -57.992188 C 203.042969 -57.992188 213.957031 -45.378906 213.957031 -18.042969 L 213.957031 29.558594 C 213.957031 46.980469 212.390625 61.722656 209.417969 73.042969 L 209.417969 74.878906 L 242.703125 74.878906 L 242.703125 73.042969 C 239.589844 61.703125 238.027344 46.980469 238.027344 29.558594 L 238.027344 -23.433594 C 238.027344 -59.269531 220.464844 -78.257812 188.011719 -78.257812 C 160.386719 -78.257812 143.253906 -63.808594 134.464844 -44.394531 L 132.761719 -44.394531 L 129.363281 -74.433594 L 104.578125 -74.007812 L 104.578125 -72.308594 C 107.550781 -61.96875 109.117188 -49.066406 109.117188 -32.78125 L 109.117188 29.558594 C 109.117188 46.980469 107.550781 61.722656 104.578125 73.042969 Z M 104.59375 73.042969 "/>
</g>
</g>
<clipPath id="clip-13">
<path clip-rule="nonzero" d="M 0.757812 182 L 340.757812 182 L 340.757812 185 L 0.757812 185 Z M 0.757812 182 "/>
</clipPath>
</defs>
<path fill-rule="nonzero" fill="rgb(100%, 100%, 100%)" fill-opacity="1" d="M 339.515625 342.878906 L 679.515625 342.878906 L 679.515625 2.878906 L 339.515625 2.878906 Z M 339.515625 342.878906 "/>
<g clip-path="url(#clip-0)">
<use xlink:href="#source-5" transform="matrix(1, 0, 0, 1, 339, 2)"/>
</g>
<g clip-path="url(#clip-3)">
<use xlink:href="#source-8" transform="matrix(1, 0, 0, 1, 339, 183)"/>
</g>
<g clip-path="url(#clip-6)">
<path fill="none" stroke-width="1.7" stroke-linecap="butt" stroke-linejoin="miter" stroke="rgb(100%, 0%, 0%)" stroke-opacity="1" stroke-miterlimit="4" d="M -0.001575 -0.0012 L 339.998425 -0.0012 " transform="matrix(1, 0, 0, -1, 339.5172, 183.4363)"/>
</g>
<path fill-rule="nonzero" fill="rgb(100%, 100%, 100%)" fill-opacity="1" d="M 0.757812 342.878906 L 340.757812 342.878906 L 340.757812 2.878906 L 0.757812 2.878906 Z M 0.757812 342.878906 "/>
<g clip-path="url(#clip-7)">
<use xlink:href="#source-11" transform="matrix(1, 0, 0, 1, 0, 2)"/>
</g>
<g clip-path="url(#clip-10)">
<use xlink:href="#source-14" transform="matrix(1, 0, 0, 1, 0, 183)"/>
</g>
<g clip-path="url(#clip-13)">
<path fill="none" stroke-width="1.7" stroke-linecap="butt" stroke-linejoin="miter" stroke="rgb(100%, 0%, 0%)" stroke-opacity="1" stroke-miterlimit="4" d="M -0.0007875 -0.0012 L 339.999212 -0.0012 " transform="matrix(1, 0, 0, -1, 0.7586, 183.4363)"/>
</g>
<path fill="none" stroke-width="1" stroke-linecap="butt" stroke-linejoin="miter" stroke="rgb(0%, 0%, 0%)" stroke-opacity="1" stroke-miterlimit="4" d="M 0.5 3 L 679.5 3 L 679.5 342 L 0.5 342 Z M 0.5 3 " transform="matrix(1, 0, 0, -1, 0, 345)"/>
</svg>
