<?xml version="1.0" encoding="UTF-8"?>
<svg xmlns="http://www.w3.org/2000/svg" xmlns:xlink="http://www.w3.org/1999/xlink" width="1420" height="340" viewBox="0 0 1420 340">
<defs>
<clipPath id="clip-0">
<path clip-rule="nonzero" d="M 0 0 L 340 0 L 340 180.558594 L 0 180.558594 Z M 0 0 "/>
</clipPath>
<clipPath id="clip-1">
<path clip-rule="nonzero" d="M 103 101 L 234 101 L 234 180.558594 L 103 180.558594 Z M 103 101 "/>
</clipPath>
<clipPath id="clip-2">
<rect x="0" y="0" width="340" height="181"/>
</clipPath>
<g id="source-5" clip-path="url(#clip-2)">
<g clip-path="url(#clip-1)">
<path fill-rule="nonzero" fill="rgb(0%, 0%, 0%)" fill-opacity="1" d="M 155.125 259.113281 C 183.3125 259.113281 200.601562 247.503906 209.8125 230.503906 L 211.648438 230.503906 L 214.335938 255.015625 L 233.597656 255.015625 L 233.597656 154.292969 C 233.597656 118.03125 213.621094 101.726562 171.683594 101.726562 C 130.746094 101.726562 113.59375 120.292969 109.070312 147.203125 L 132.582031 149.617188 C 136.273438 131.765625 146.320312 121.429688 171.394531 121.429688 C 198.03125 121.429688 209.933594 131.070312 209.933594 154.292969 L 209.933594 165.902344 L 155.53125 171.71875 C 142.070312 173.128906 131.597656 176.101562 123.65625 180.640625 C 109.921875 188.292969 103.972656 200.617188 103.972656 217.191406 C 103.972656 244.816406 122.960938 259.132812 155.109375 259.132812 Z M 128.214844 215.339844 C 128.214844 201.023438 136.714844 191.675781 160.089844 188.851562 L 209.949219 182.902344 L 209.949219 196.640625 C 209.949219 222.003906 190.265625 239.429688 160.226562 239.429688 C 138.6875 239.429688 128.214844 230.792969 128.214844 215.339844 Z M 128.214844 215.339844 "/>
</g>
</g>
<clipPath id="clip-3">
<path clip-rule="nonzero" d="M 0 180.558594 L 340 180.558594 L 340 340 L 0 340 Z M 0 180.558594 "/>
</clipPath>
<clipPath id="clip-4">
<path clip-rule="nonzero" d="M 103 0.558594 L 239 0.558594 L 239 80 L 103 80 Z M 103 0.558594 "/>
</clipPath>
<clipPath id="clip-5">
<rect x="0" y="0" width="340" height="160"/>
</clipPath>
<g id="source-8" clip-path="url(#clip-5)">
<g clip-path="url(#clip-4)">
<path fill-rule="nonzero" fill="rgb(0%, 0%, 0%)" fill-opacity="1" d="M 154.902344 79.113281 C 182.953125 79.113281 200.089844 66.652344 209.167969 48.515625 L 211.003906 48.515625 L 213.84375 75.425781 L 238.066406 75 L 238.066406 73.300781 C 234.53125 61.824219 233.394531 46.949219 233.394531 29.660156 L 233.394531 -25.726562 C 233.394531 -61.984375 213.417969 -78.289062 171.480469 -78.289062 C 130.816406 -78.289062 113.816406 -59.300781 109.292969 -31.675781 L 128.128906 -29.6875 C 132.242188 -49.234375 143.429688 -60.421875 171.191406 -60.421875 C 197.828125 -60.421875 209.730469 -50.222656 209.730469 -25.707031 L 209.730469 -12.109375 L 155.328125 -7.433594 C 141.863281 -6.292969 130.96875 -3.609375 123.453125 0.640625 C 109.71875 8.15625 103.769531 20.617188 103.769531 37.191406 C 103.769531 64.816406 122.757812 79.132812 154.902344 79.132812 Z M 127.992188 34.625 C 127.992188 19.75 136.492188 9.6875 159.867188 7.289062 L 209.730469 2.324219 L 209.730469 16.640625 C 209.730469 42.988281 190.042969 60.976562 160.003906 60.976562 C 138.464844 60.976562 127.992188 51.488281 127.992188 34.625 "/>
</g>
</g>
<clipPath id="clip-6">
<path clip-rule="nonzero" d="M 0 179 L 340 179 L 340 182 L 0 182 Z M 0 179 "/>
</clipPath>
<clipPath id="clip-7">
<path clip-rule="nonzero" d="M 360 0 L 700 0 L 700 180.558594 L 360 180.558594 Z M 360 0 "/>
</clipPath>
<clipPath id="clip-8">
<path clip-rule="nonzero" d="M 103 101 L 243 101 L 243 180.558594 L 103 180.558594 Z M 103 101 "/>
</clipPath>
<clipPath id="clip-9">
<rect x="0" y="0" width="340" height="181"/>
</clipPath>
<g id="source-11" clip-path="url(#clip-9)">
<g clip-path="url(#clip-8)">
<path fill-rule="nonzero" fill="rgb(0%, 0%, 0%)" fill-opacity="1" d="M 154.769531 259.113281 C 182.683594 259.113281 199.683594 245.804688 208.742188 226.390625 L 210.441406 226.390625 L 213.554688 256.003906 L 242.453125 255.015625 L 242.453125 251.480469 C 235.652344 243.96875 233.238281 229.09375 233.238281 209.695312 L 233.238281 154.308594 C 233.238281 118.046875 213.265625 101.746094 171.324219 101.746094 C 131.085938 101.746094 114.085938 121.160156 109.566406 149.480469 L 123.878906 151.046875 C 128.265625 129.929688 140.589844 117.605469 171.054688 117.605469 C 197.691406 117.605469 209.59375 128.367188 209.59375 154.292969 L 209.59375 169.726562 L 155.191406 173.417969 C 141.730469 174.265625 130.253906 176.816406 123.316406 180.640625 C 109.582031 188.15625 103.632812 200.617188 103.632812 217.191406 C 103.632812 244.816406 122.621094 259.132812 154.769531 259.132812 Z M 127.855469 213.910156 C 127.855469 198.609375 136.355469 187.695312 159.730469 185.726562 L 209.59375 181.765625 L 209.59375 196.640625 C 209.59375 223.839844 189.90625 242.539062 159.867188 242.539062 C 138.328125 242.539062 127.855469 232.339844 127.855469 213.929688 Z M 127.855469 213.910156 "/>
</g>
</g>
<clipPath id="clip-10">
<path clip-rule="nonzero" d="M 360 180.558594 L 700 180.558594 L 700 340 L 360 340 Z M 360 180.558594 "/>
</clipPath>
<clipPath id="clip-11">
<path clip-rule="nonzero" d="M 103 0.558594 L 247 0.558594 L 247 80 L 103 80 Z M 103 0.558594 "/>
</clipPath>
<clipPath id="clip-12">
<rect x="0" y="0" width="340" height="160"/>
</clipPath>
<g id="source-14" clip-path="url(#clip-12)">
<g clip-path="url(#clip-11)">
<path fill-rule="nonzero" fill="rgb(0%, 0%, 0%)" fill-opacity="1" d="M 154.5625 79.113281 C 182.1875 79.113281 199.054688 65.089844 208.113281 44.398438 L 209.8125 44.398438 L 213.078125 76.410156 L 246.941406 75.136719 L 246.941406 69.746094 C 236.605469 65.921875 233.054688 51.335938 233.054688 29.660156 L 233.054688 -25.726562 C 233.054688 -61.984375 213.078125 -78.289062 171.140625 -78.289062 C 131.1875 -78.289062 114.1875 -58.3125 109.804688 -29.414062 L 119.441406 -28.140625 C 124.253906 -51.089844 137.71875 -64.265625 170.867188 -64.265625 C 197.507812 -64.265625 209.40625 -52.925781 209.40625 -25.726562 L 209.40625 -8.300781 L 155.007812 -5.75 C 141.542969 -5.1875 129.640625 -2.910156 123.132812 0.625 C 109.242188 7.984375 103.445312 20.734375 103.445312 37.175781 C 103.445312 64.800781 122.433594 79.113281 154.582031 79.113281 Z M 127.636719 33.214844 C 127.636719 17.351562 136 5.726562 159.511719 4.3125 L 209.371094 1.339844 L 209.371094 16.640625 C 209.371094 44.824219 189.6875 64.238281 159.648438 64.238281 C 138.109375 64.238281 127.636719 53.054688 127.636719 33.214844 Z M 127.636719 33.214844 "/>
</g>
</g>
<clipPath id="clip-13">
<path clip-rule="nonzero" d="M 360 179 L 700 179 L 700 182 L 360 182 Z M 360 179 "/>
</clipPath>
</defs>
<path fill-rule="nonzero" fill="rgb(100%, 100%, 100%)" fill-opacity="1" d="M 0 340 L 340 340 L 340 0 L 0 0 Z M 0 340 "/>
<g clip-path="url(#clip-0)">
<use xlink:href="#source-5"/>
</g>
<g clip-path="url(#clip-3)">
<use xlink:href="#source-8" transform="matrix(1, 0, 0, 1, 0, 180)"/>
</g>
<g clip-path="url(#clip-6)">
<path fill="none" stroke-width="1.7" stroke-linecap="butt" stroke-linejoin="miter" stroke="rgb(100%, 0%, 0%)" stroke-opacity="1" stroke-miterlimit="4" d="M 0 -0.00159375 L 340 -0.00159375 " transform="matrix(1, 0, 0, -1, 0, 180.557)"/>
</g>
<path fill="none" stroke-width="1" stroke-linecap="butt" stroke-linejoin="miter" stroke="rgb(0%, 0%, 0%)" stroke-opacity="1" stroke-miterlimit="4" d="M 0.5 0.5 L 339.5 0.5 L 339.5 339.5 L 0.5 339.5 Z M 0.5 0.5 " transform="matrix(1, 0, 0, -1, 0, 340)"/>
<path fill-rule="nonzero" fill="rgb(100%, 100%, 100%)" fill-opacity="1" d="M 360 340 L 700 340 L 700 0 L 360 0 Z M 360 340 "/>
<g clip-path="url(#clip-7)">
<use xlink:href="#source-11" transform="matrix(1, 0, 0, 1, 360, 0)"/>
</g>
<g clip-path="url(#clip-10)">
<use xlink:href="#source-14" transform="matrix(1, 0, 0, 1, 360, 180)"/>
</g>
<g clip-path="url(#clip-13)">
<path fill="none" stroke-width="1.7" stroke-linecap="butt" stroke-linejoin="miter" stroke="rgb(100%, 0%, 0%)" stroke-opacity="1" stroke-miterlimit="4" d="M 0 -0.00159375 L 340 -0.00159375 " transform="matrix(1, 0, 0, -1, 360, 180.557)"/>
</g>
<path fill="none" stroke-width="1" stroke-linecap="butt" stroke-linejoin="miter" stroke="rgb(0%, 0%, 0%)" stroke-opacity="1" stroke-miterlimit="4" d="M 360.5 0.5 L 699.5 0.5 L 699.5 339.5 L 360.5 339.5 Z M 360.5 0.5 " transform="matrix(1, 0, 0, -1, 0, 340)"/>
</svg>
