<?xml version="1.0" encoding="UTF-8"?>
<svg xmlns="http://www.w3.org/2000/svg" xmlns:xlink="http://www.w3.org/1999/xlink" width="1420" height="345" viewBox="0 0 1420 345">
<defs>
<clipPath id="clip-0">
<path clip-rule="nonzero" d="M 0.757812 2.5 L 340.757812 2.5 L 340.757812 183.058594 L 0.757812 183.058594 Z M 0.757812 2.5 "/>
</clipPath>
<clipPath id="clip-1">
<path clip-rule="nonzero" d="M 109 102 L 239 102 L 239 181.058594 L 109 181.058594 Z M 109 102 "/>
</clipPath>
<clipPath id="clip-2">
<rect x="0" y="0" width="341" height="182"/>
</clipPath>
<g id="source-5" clip-path="url(#clip-2)">
<g clip-path="url(#clip-1)">
<path fill-rule="nonzero" fill="rgb(0%, 0%, 0%)" fill-opacity="1" d="M 109.132812 255.5 L 133.222656 255.5 L 133.222656 175.601562 C 133.222656 144.574219 152.773438 124.464844 180.398438 124.464844 C 203.210938 124.464844 213.972656 136.5 213.972656 162.578125 L 213.972656 255.515625 L 238.0625 255.515625 L 238.0625 157.1875 C 238.0625 121.351562 220.5 102.363281 188.046875 102.363281 C 160.421875 102.363281 143.285156 115.964844 134.496094 134.238281 L 132.796875 134.238281 L 129.398438 106.613281 L 109.132812 106.613281 Z M 109.132812 255.5 "/>
</g>
</g>
<clipPath id="clip-3">
<path clip-rule="nonzero" d="M 0.757812 183.058594 L 340.757812 183.058594 L 340.757812 342.5 L 0.757812 342.5 Z M 0.757812 183.058594 "/>
</clipPath>
<clipPath id="clip-4">
<path clip-rule="nonzero" d="M 104 0.0585938 L 243 0.0585938 L 243 75 L 104 75 Z M 104 0.0585938 "/>
</clipPath>
<clipPath id="clip-5">
<rect x="0" y="0" width="341" height="160"/>
</clipPath>
<g id="source-8" clip-path="url(#clip-5)">
<g clip-path="url(#clip-4)">
<path fill-rule="nonzero" fill="rgb(0%, 0%, 0%)" fill-opacity="1" d="M 104.59375 72.664062 L 104.59375 74.5 L 137.878906 74.5 L 137.878906 72.664062 C 134.769531 61.324219 133.207031 46.601562 133.207031 29.179688 L 133.207031 -5.382812 C 133.207031 -37.546875 151.90625 -58.371094 180.089844 -58.371094 C 203.042969 -58.371094 213.957031 -45.757812 213.957031 -18.421875 L 213.957031 29.179688 C 213.957031 46.601562 212.390625 61.34375 209.417969 72.664062 L 209.417969 74.5 L 242.703125 74.5 L 242.703125 72.664062 C 239.589844 61.324219 238.027344 46.601562 238.027344 29.179688 L 238.027344 -23.8125 C 238.027344 -59.648438 220.464844 -78.636719 188.011719 -78.636719 C 160.386719 -78.636719 143.253906 -64.1875 134.464844 -44.773438 L 132.761719 -44.773438 L 129.363281 -74.8125 L 104.578125 -74.386719 L 104.578125 -72.6875 C 107.550781 -62.351562 109.117188 -49.445312 109.117188 -33.160156 L 109.117188 29.179688 C 109.117188 46.601562 107.550781 61.34375 104.578125 72.664062 Z M 104.59375 72.664062 "/>
</g>
</g>
<clipPath id="clip-6">
<path clip-rule="nonzero" d="M 0.757812 182 L 340.757812 182 L 340.757812 184 L 0.757812 184 Z M 0.757812 182 "/>
</clipPath>
<clipPath id="clip-7">
<path clip-rule="nonzero" d="M 708.257812 2.5 L 1048.257812 2.5 L 1048.257812 183.058594 L 708.257812 183.058594 Z M 708.257812 2.5 "/>
</clipPath>
<clipPath id="clip-8">
<path clip-rule="nonzero" d="M 108 102 L 238 102 L 238 181.058594 L 108 181.058594 Z M 108 102 "/>
</clipPath>
<clipPath id="clip-9">
<rect x="0" y="0" width="341" height="182"/>
</clipPath>
<g id="source-11" clip-path="url(#clip-9)">
<g clip-path="url(#clip-8)">
<path fill-rule="nonzero" fill="rgb(0%, 0%, 0%)" fill-opacity="1" d="M 108.632812 255.5 L 132.722656 255.5 L 132.722656 175.601562 C 132.722656 144.574219 152.273438 124.464844 179.898438 124.464844 C 202.710938 124.464844 213.472656 136.5 213.472656 162.578125 L 213.472656 255.515625 L 237.5625 255.515625 L 237.5625 157.1875 C 237.5625 121.351562 220 102.363281 187.546875 102.363281 C 159.921875 102.363281 142.785156 115.964844 133.996094 134.238281 L 132.296875 134.238281 L 128.898438 106.613281 L 108.632812 106.613281 Z M 108.632812 255.5 "/>
</g>
</g>
<clipPath id="clip-10">
<path clip-rule="nonzero" d="M 708.257812 183.058594 L 1048.257812 183.058594 L 1048.257812 342.5 L 708.257812 342.5 Z M 708.257812 183.058594 "/>
</clipPath>
<clipPath id="clip-11">
<path clip-rule="nonzero" d="M 108 0.0585938 L 238 0.0585938 L 238 75 L 108 75 Z M 108 0.0585938 "/>
</clipPath>
<clipPath id="clip-12">
<rect x="0" y="0" width="341" height="160"/>
</clipPath>
<g id="source-14" clip-path="url(#clip-12)">
<g clip-path="url(#clip-11)">
<path fill-rule="nonzero" fill="rgb(0%, 0%, 0%)" fill-opacity="1" d="M 108.632812 74.5 L 132.722656 74.5 L 132.722656 -5.398438 C 132.722656 -36.425781 152.273438 -56.535156 179.898438 -56.535156 C 202.710938 -56.535156 213.472656 -44.5 213.472656 -18.421875 L 213.472656 74.515625 L 237.5625 74.515625 L 237.5625 -23.8125 C 237.5625 -59.648438 220 -78.636719 187.546875 -78.636719 C 159.921875 -78.636719 142.785156 -65.035156 133.996094 -46.761719 L 132.296875 -46.761719 L 128.898438 -74.386719 L 108.632812 -74.386719 Z M 108.632812 74.5 "/>
</g>
</g>
<clipPath id="clip-13">
<path clip-rule="nonzero" d="M 708.257812 182 L 1048.257812 182 L 1048.257812 184 L 708.257812 184 Z M 708.257812 182 "/>
</clipPath>
<clipPath id="clip-14">
<path clip-rule="nonzero" d="M 1047.257812 2.5 L 1387.257812 2.5 L 1387.257812 183.058594 L 1047.257812 183.058594 Z M 1047.257812 2.5 "/>
</clipPath>
<clipPath id="clip-15">
<path clip-rule="nonzero" d="M 104 102 L 243 102 L 243 181.058594 L 104 181.058594 Z M 104 102 "/>
</clipPath>
<clipPath id="clip-16">
<rect x="0" y="0" width="341" height="182"/>
</clipPath>
<g id="source-17" clip-path="url(#clip-16)">
<g clip-path="url(#clip-15)">
<path fill-rule="nonzero" fill="rgb(0%, 0%, 0%)" fill-opacity="1" d="M 104.09375 253.664062 L 104.09375 255.5 L 137.378906 255.5 L 137.378906 253.664062 C 134.269531 242.324219 132.707031 227.601562 132.707031 210.179688 L 132.707031 175.617188 C 132.707031 143.453125 151.40625 122.628906 179.589844 122.628906 C 202.542969 122.628906 213.457031 135.242188 213.457031 162.578125 L 213.457031 210.179688 C 213.457031 227.601562 211.890625 242.34375 208.917969 253.664062 L 208.917969 255.5 L 242.203125 255.5 L 242.203125 253.664062 C 239.089844 242.324219 237.527344 227.601562 237.527344 210.179688 L 237.527344 157.1875 C 237.527344 121.351562 219.964844 102.363281 187.511719 102.363281 C 159.886719 102.363281 142.753906 116.8125 133.964844 136.226562 L 132.261719 136.226562 L 128.863281 106.1875 L 104.078125 106.613281 L 104.078125 108.3125 C 107.050781 118.648438 108.617188 131.554688 108.617188 147.839844 L 108.617188 210.179688 C 108.617188 227.601562 107.050781 242.34375 104.078125 253.664062 Z M 104.09375 253.664062 "/>
</g>
</g>
<clipPath id="clip-17">
<path clip-rule="nonzero" d="M 1047.257812 183.058594 L 1387.257812 183.058594 L 1387.257812 342.5 L 1047.257812 342.5 Z M 1047.257812 183.058594 "/>
</clipPath>
<clipPath id="clip-18">
<path clip-rule="nonzero" d="M 104 0.0585938 L 243 0.0585938 L 243 75 L 104 75 Z M 104 0.0585938 "/>
</clipPath>
<clipPath id="clip-19">
<rect x="0" y="0" width="341" height="160"/>
</clipPath>
<g id="source-20" clip-path="url(#clip-19)">
<g clip-path="url(#clip-18)">
<path fill-rule="nonzero" fill="rgb(0%, 0%, 0%)" fill-opacity="1" d="M 104.09375 72.664062 L 104.09375 74.5 L 137.378906 74.5 L 137.378906 72.664062 C 134.269531 61.324219 132.707031 46.601562 132.707031 29.179688 L 132.707031 -5.382812 C 132.707031 -37.546875 151.40625 -58.371094 179.589844 -58.371094 C 202.542969 -58.371094 213.457031 -45.757812 213.457031 -18.421875 L 213.457031 29.179688 C 213.457031 46.601562 211.890625 61.34375 208.917969 72.664062 L 208.917969 74.5 L 242.203125 74.5 L 242.203125 72.664062 C 239.089844 61.324219 237.527344 46.601562 237.527344 29.179688 L 237.527344 -23.8125 C 237.527344 -59.648438 219.964844 -78.636719 187.511719 -78.636719 C 159.886719 -78.636719 142.753906 -64.1875 133.964844 -44.773438 L 132.261719 -44.773438 L 128.863281 -74.8125 L 104.078125 -74.386719 L 104.078125 -72.6875 C 107.050781 -62.351562 108.617188 -49.445312 108.617188 -33.160156 L 108.617188 29.179688 C 108.617188 46.601562 107.050781 61.34375 104.078125 72.664062 Z M 104.09375 72.664062 "/>
</g>
</g>
<clipPath id="clip-20">
<path clip-rule="nonzero" d="M 1047.257812 182 L 1387.257812 182 L 1387.257812 184 L 1047.257812 184 Z M 1047.257812 182 "/>
</clipPath>
<clipPath id="clip-21">
<path clip-rule="nonzero" d="M 339.757812 2.5 L 679.757812 2.5 L 679.757812 183.058594 L 339.757812 183.058594 Z M 339.757812 2.5 "/>
</clipPath>
<clipPath id="clip-22">
<path clip-rule="nonzero" d="M 99 102 L 248 102 L 248 181.058594 L 99 181.058594 Z M 99 102 "/>
</clipPath>
<clipPath id="clip-23">
<rect x="0" y="0" width="341" height="182"/>
</clipPath>
<g id="source-23" clip-path="url(#clip-23)">
<g clip-path="url(#clip-22)">
<path fill-rule="nonzero" fill="rgb(0%, 0%, 0%)" fill-opacity="1" d="M 99.917969 251.964844 L 99.917969 255.5 L 142.417969 255.5 L 142.417969 251.964844 C 136.46875 244.3125 133.207031 229.726562 133.207031 210.179688 L 133.207031 175.617188 C 133.207031 142.46875 151.054688 120.792969 179.667969 120.792969 C 203.042969 120.792969 213.957031 134.101562 213.957031 162.578125 L 213.957031 210.179688 C 213.957031 229.726562 210.84375 244.3125 204.742188 251.964844 L 204.742188 255.5 L 247.242188 255.5 L 247.242188 251.964844 C 241.292969 244.3125 238.027344 229.726562 238.027344 210.179688 L 238.027344 157.1875 C 238.027344 121.351562 220.464844 102.363281 188.011719 102.363281 C 160.386719 102.363281 143.253906 117.527344 134.464844 138.0625 L 132.761719 138.0625 L 129.363281 105.628906 L 99.902344 106.613281 L 99.902344 110.148438 C 105.988281 116.949219 109.117188 128.851562 109.117188 147.839844 L 109.117188 210.179688 C 109.117188 229.726562 106.003906 244.3125 99.902344 251.964844 Z M 99.917969 251.964844 "/>
</g>
</g>
<clipPath id="clip-24">
<path clip-rule="nonzero" d="M 339.757812 183.058594 L 679.757812 183.058594 L 679.757812 342.5 L 339.757812 342.5 Z M 339.757812 183.058594 "/>
</clipPath>
<clipPath id="clip-25">
<path clip-rule="nonzero" d="M 95 0.0585938 L 252 0.0585938 L 252 75 L 95 75 Z M 95 0.0585938 "/>
</clipPath>
<clipPath id="clip-26">
<rect x="0" y="0" width="341" height="160"/>
</clipPath>
<g id="source-26" clip-path="url(#clip-26)">
<g clip-path="url(#clip-25)">
<path fill-rule="nonzero" fill="rgb(0%, 0%, 0%)" fill-opacity="1" d="M 95.398438 69.109375 L 95.398438 74.5 L 147.113281 74.5 L 147.113281 69.109375 C 138.050781 65.421875 133.222656 50.972656 133.222656 29.160156 L 133.222656 -5.398438 C 133.222656 -39.6875 150.222656 -61.925781 179.410156 -61.925781 C 202.921875 -61.925781 213.972656 -48.1875 213.972656 -18.4375 L 213.972656 29.160156 C 213.972656 50.972656 209.160156 65.421875 200.238281 69.109375 L 200.238281 74.5 L 251.949219 74.5 L 251.949219 69.109375 C 242.890625 65.421875 238.0625 50.972656 238.0625 29.160156 L 238.0625 -23.828125 C 238.0625 -59.664062 220.5 -78.652344 188.046875 -78.652344 C 160.421875 -78.652344 143.285156 -62.640625 134.496094 -40.964844 L 132.796875 -40.964844 L 129.398438 -75.8125 L 95.398438 -74.402344 L 95.398438 -69.167969 C 104.324219 -65.632812 109.132812 -54.71875 109.132812 -33.179688 L 109.132812 29.160156 C 109.132812 50.972656 104.324219 65.421875 95.398438 69.109375 "/>
</g>
</g>
<clipPath id="clip-27">
<path clip-rule="nonzero" d="M 339.757812 182 L 679.757812 182 L 679.757812 184 L 339.757812 184 Z M 339.757812 182 "/>
</clipPath>
</defs>
<path fill-rule="nonzero" fill="rgb(100%, 100%, 100%)" fill-opacity="1" d="M 0.757812 342.5 L 340.757812 342.5 L 340.757812 2.5 L 0.757812 2.5 Z M 0.757812 342.5 "/>
<g clip-path="url(#clip-0)">
<use xlink:href="#source-5" transform="matrix(1, 0, 0, 1, 0, 2)"/>
</g>
<g clip-path="url(#clip-3)">
<use xlink:href="#source-8" transform="matrix(1, 0, 0, 1, 0, 183)"/>
</g>
<g clip-path="url(#clip-6)">
<path fill="none" stroke-width="1.7" stroke-linecap="butt" stroke-linejoin="miter" stroke="rgb(100%, 0%, 0%)" stroke-opacity="1" stroke-miterlimit="4" d="M -0.0007875 -0.00159375 L 339.999212 -0.00159375 " transform="matrix(1, 0, 0, -1, 0.7586, 183.057)"/>
</g>
<path fill-rule="nonzero" fill="rgb(100%, 100%, 100%)" fill-opacity="1" d="M 708.257812 342.5 L 1048.257812 342.5 L 1048.257812 2.5 L 708.257812 2.5 Z M 708.257812 342.5 "/>
<g clip-path="url(#clip-7)">
<use xlink:href="#source-11" transform="matrix(1, 0, 0, 1, 708, 2)"/>
</g>
<g clip-path="url(#clip-10)">
<use xlink:href="#source-14" transform="matrix(1, 0, 0, 1, 708, 183)"/>
</g>
<g clip-path="url(#clip-13)">
<path fill="none" stroke-width="1.7" stroke-linecap="butt" stroke-linejoin="miter" stroke="rgb(100%, 0%, 0%)" stroke-opacity="1" stroke-miterlimit="4" d="M -0.0006875 -0.00159375 L 339.999312 -0.00159375 " transform="matrix(1, 0, 0, -1, 708.2585, 183.057)"/>
</g>
<path fill-rule="nonzero" fill="rgb(100%, 100%, 100%)" fill-opacity="1" d="M 1047.257812 342.5 L 1387.257812 342.5 L 1387.257812 2.5 L 1047.257812 2.5 Z M 1047.257812 342.5 "/>
<g clip-path="url(#clip-14)">
<use xlink:href="#source-17" transform="matrix(1, 0, 0, 1, 1047, 2)"/>
</g>
<g clip-path="url(#clip-17)">
<use xlink:href="#source-20" transform="matrix(1, 0, 0, 1, 1047, 183)"/>
</g>
<g clip-path="url(#clip-20)">
<path fill="none" stroke-width="1.7" stroke-linecap="butt" stroke-linejoin="miter" stroke="rgb(100%, 0%, 0%)" stroke-opacity="1" stroke-miterlimit="4" d="M -0.0006875 -0.00159375 L 339.999312 -0.00159375 " transform="matrix(1, 0, 0, -1, 1047.2585, 183.057)"/>
</g>
<path fill-rule="nonzero" fill="rgb(100%, 100%, 100%)" fill-opacity="1" d="M 339.757812 342.5 L 679.757812 342.5 L 679.757812 2.5 L 339.757812 2.5 Z M 339.757812 342.5 "/>
<g clip-path="url(#clip-21)">
<use xlink:href="#source-23" transform="matrix(1, 0, 0, 1, 339, 2)"/>
</g>
<g clip-path="url(#clip-24)">
<use xlink:href="#source-26" transform="matrix(1, 0, 0, 1, 339, 183)"/>
</g>
<g clip-path="url(#clip-27)">
<path fill="none" stroke-width="1.7" stroke-linecap="butt" stroke-linejoin="miter" stroke="rgb(100%, 0%, 0%)" stroke-opacity="1" stroke-miterlimit="4" d="M -0.0007875 -0.00159375 L 339.999212 -0.00159375 " transform="matrix(1, 0, 0, -1, 339.7586, 183.057)"/>
</g>
<path fill="none" stroke-width="1" stroke-linecap="butt" stroke-linejoin="miter" stroke="rgb(0%, 0%, 0%)" stroke-opacity="1" stroke-miterlimit="4" d="M 0.5 3 L 679.5 3 L 679.5 342 L 0.5 342 Z M 0.5 3 " transform="matrix(1, 0, 0, -1, 0, 345)"/>
<path fill="none" stroke-width="1" stroke-linecap="butt" stroke-linejoin="miter" stroke="rgb(0%, 0%, 0%)" stroke-opacity="1" stroke-miterlimit="4" d="M 708 3 L 1387 3 L 1387 342 L 708 342 Z M 708 3 " transform="matrix(1, 0, 0, -1, 0, 345)"/>
</svg>
