<?xml version="1.0" encoding="UTF-8"?>
<svg xmlns="http://www.w3.org/2000/svg" xmlns:xlink="http://www.w3.org/1999/xlink" width="1420" height="345" viewBox="0 0 1420 345">
<defs>
<clipPath id="clip-0">
<path clip-rule="nonzero" d="M 0.757812 2.5 L 340.757812 2.5 L 340.757812 183.058594 L 0.757812 183.058594 Z M 0.757812 2.5 "/>
</clipPath>
<clipPath id="clip-1">
<path clip-rule="nonzero" d="M 109 102 L 239 102 L 239 181.058594 L 109 181.058594 Z M 109 102 "/>
</clipPath>
<clipPath id="clip-2">
<rect x="0" y="0" width="341" height="182"/>
</clipPath>
<g id="source-5" clip-path="url(#clip-2)">
<g clip-path="url(#clip-1)">
<path fill-rule="nonzero" fill="rgb(0%, 0%, 0%)" fill-opacity="1" d="M 109.132812 255.5 L 133.222656 255.5 L 133.222656 175.601562 C 133.222656 144.574219 152.773438 124.464844 180.398438 124.464844 C 203.210938 124.464844 213.972656 136.5 213.972656 162.578125 L 213.972656 255.515625 L 238.0625 255.515625 L 238.0625 157.1875 C 238.0625 121.351562 220.5 102.363281 188.046875 102.363281 C 160.421875 102.363281 143.285156 115.964844 134.496094 134.238281 L 132.796875 134.238281 L 129.398438 106.613281 L 109.132812 106.613281 Z M 109.132812 255.5 "/>
</g>
</g>
<clipPath id="clip-3">
<path clip-rule="nonzero" d="M 0.757812 183.058594 L 340.757812 183.058594 L 340.757812 342.5 L 0.757812 342.5 Z M 0.757812 183.058594 "/>
</clipPath>
<clipPath id="clip-4">
<path clip-rule="nonzero" d="M 109 0.0585938 L 239 0.0585938 L 239 75 L 109 75 Z M 109 0.0585938 "/>
</clipPath>
<clipPath id="clip-5">
<rect x="0" y="0" width="341" height="160"/>
</clipPath>
<g id="source-8" clip-path="url(#clip-5)">
<g clip-path="url(#clip-4)">
<path fill-rule="nonzero" fill="rgb(0%, 0%, 0%)" fill-opacity="1" d="M 109.132812 74.5 L 133.222656 74.5 L 133.222656 -5.398438 C 133.222656 -36.425781 152.773438 -56.535156 180.398438 -56.535156 C 203.210938 -56.535156 213.972656 -44.5 213.972656 -18.421875 L 213.972656 74.515625 L 238.0625 74.515625 L 238.0625 -23.8125 C 238.0625 -59.648438 220.5 -78.636719 188.046875 -78.636719 C 160.421875 -78.636719 143.285156 -65.035156 134.496094 -46.761719 L 132.796875 -46.761719 L 129.398438 -74.386719 L 109.132812 -74.386719 Z M 109.132812 74.5 "/>
</g>
</g>
<clipPath id="clip-6">
<path clip-rule="nonzero" d="M 0.757812 182 L 340.757812 182 L 340.757812 184 L 0.757812 184 Z M 0.757812 182 "/>
</clipPath>
<clipPath id="clip-7">
<path clip-rule="nonzero" d="M 339.515625 2.5 L 679.515625 2.5 L 679.515625 183.058594 L 339.515625 183.058594 Z M 339.515625 2.5 "/>
</clipPath>
<clipPath id="clip-8">
<path clip-rule="nonzero" d="M 108 102 L 238 102 L 238 181.058594 L 108 181.058594 Z M 108 102 "/>
</clipPath>
<clipPath id="clip-9">
<rect x="0" y="0" width="341" height="182"/>
</clipPath>
<g id="source-11" clip-path="url(#clip-9)">
<g clip-path="url(#clip-8)">
<path fill-rule="nonzero" fill="rgb(0%, 0%, 0%)" fill-opacity="1" d="M 108.890625 255.5 L 132.980469 255.5 L 132.980469 175.601562 C 132.980469 144.574219 152.53125 124.464844 180.15625 124.464844 C 202.96875 124.464844 213.730469 136.5 213.730469 162.578125 L 213.730469 255.515625 L 237.820312 255.515625 L 237.820312 157.1875 C 237.820312 121.351562 220.257812 102.363281 187.804688 102.363281 C 160.179688 102.363281 143.046875 115.964844 134.257812 134.238281 L 132.554688 134.238281 L 129.15625 106.613281 L 108.890625 106.613281 Z M 108.890625 255.5 "/>
</g>
</g>
<clipPath id="clip-10">
<path clip-rule="nonzero" d="M 339.515625 183.058594 L 679.515625 183.058594 L 679.515625 342.5 L 339.515625 342.5 Z M 339.515625 183.058594 "/>
</clipPath>
<clipPath id="clip-11">
<path clip-rule="nonzero" d="M 108 0.0585938 L 238 0.0585938 L 238 75 L 108 75 Z M 108 0.0585938 "/>
</clipPath>
<clipPath id="clip-12">
<rect x="0" y="0" width="341" height="160"/>
</clipPath>
<g id="source-14" clip-path="url(#clip-12)">
<g clip-path="url(#clip-11)">
<path fill-rule="nonzero" fill="rgb(0%, 0%, 0%)" fill-opacity="1" d="M 108.890625 74.5 L 132.980469 74.5 L 132.980469 -5.398438 C 132.980469 -36.425781 152.53125 -56.535156 180.15625 -56.535156 C 202.96875 -56.535156 213.730469 -44.5 213.730469 -18.421875 L 213.730469 74.515625 L 237.820312 74.515625 L 237.820312 -23.8125 C 237.820312 -59.648438 220.257812 -78.636719 187.804688 -78.636719 C 160.179688 -78.636719 143.046875 -65.035156 134.257812 -46.761719 L 132.554688 -46.761719 L 129.15625 -74.386719 L 108.890625 -74.386719 Z M 108.890625 74.5 "/>
</g>
</g>
<clipPath id="clip-13">
<path clip-rule="nonzero" d="M 339.515625 182 L 679.515625 182 L 679.515625 184 L 339.515625 184 Z M 339.515625 182 "/>
</clipPath>
<clipPath id="clip-14">
<path clip-rule="nonzero" d="M 702.257812 2.5 L 1042.257812 2.5 L 1042.257812 183.058594 L 702.257812 183.058594 Z M 702.257812 2.5 "/>
</clipPath>
<clipPath id="clip-15">
<path clip-rule="nonzero" d="M 108 102 L 238 102 L 238 181.058594 L 108 181.058594 Z M 108 102 "/>
</clipPath>
<clipPath id="clip-16">
<rect x="0" y="0" width="341" height="182"/>
</clipPath>
<g id="source-17" clip-path="url(#clip-16)">
<g clip-path="url(#clip-15)">
<path fill-rule="nonzero" fill="rgb(0%, 0%, 0%)" fill-opacity="1" d="M 108.632812 255.5 L 132.722656 255.5 L 132.722656 175.601562 C 132.722656 144.574219 152.273438 124.464844 179.898438 124.464844 C 202.710938 124.464844 213.472656 136.5 213.472656 162.578125 L 213.472656 255.515625 L 237.5625 255.515625 L 237.5625 157.1875 C 237.5625 121.351562 220 102.363281 187.546875 102.363281 C 159.921875 102.363281 142.785156 115.964844 133.996094 134.238281 L 132.296875 134.238281 L 128.898438 106.613281 L 108.632812 106.613281 Z M 108.632812 255.5 "/>
</g>
</g>
<clipPath id="clip-17">
<path clip-rule="nonzero" d="M 702.257812 183.058594 L 1042.257812 183.058594 L 1042.257812 342.5 L 702.257812 342.5 Z M 702.257812 183.058594 "/>
</clipPath>
<clipPath id="clip-18">
<path clip-rule="nonzero" d="M 104 0.0585938 L 243 0.0585938 L 243 75 L 104 75 Z M 104 0.0585938 "/>
</clipPath>
<clipPath id="clip-19">
<rect x="0" y="0" width="341" height="160"/>
</clipPath>
<g id="source-20" clip-path="url(#clip-19)">
<g clip-path="url(#clip-18)">
<path fill-rule="nonzero" fill="rgb(0%, 0%, 0%)" fill-opacity="1" d="M 104.09375 72.664062 L 104.09375 74.5 L 137.378906 74.5 L 137.378906 72.664062 C 134.269531 61.324219 132.707031 46.601562 132.707031 29.179688 L 132.707031 -5.382812 C 132.707031 -37.546875 151.40625 -58.371094 179.589844 -58.371094 C 202.542969 -58.371094 213.457031 -45.757812 213.457031 -18.421875 L 213.457031 29.179688 C 213.457031 46.601562 211.890625 61.34375 208.917969 72.664062 L 208.917969 74.5 L 242.203125 74.5 L 242.203125 72.664062 C 239.089844 61.324219 237.527344 46.601562 237.527344 29.179688 L 237.527344 -23.8125 C 237.527344 -59.648438 219.964844 -78.636719 187.511719 -78.636719 C 159.886719 -78.636719 142.753906 -64.1875 133.964844 -44.773438 L 132.261719 -44.773438 L 128.863281 -74.8125 L 104.078125 -74.386719 L 104.078125 -72.6875 C 107.050781 -62.351562 108.617188 -49.445312 108.617188 -33.160156 L 108.617188 29.179688 C 108.617188 46.601562 107.050781 61.34375 104.078125 72.664062 Z M 104.09375 72.664062 "/>
</g>
</g>
<clipPath id="clip-20">
<path clip-rule="nonzero" d="M 702.257812 182 L 1042.257812 182 L 1042.257812 184 L 702.257812 184 Z M 702.257812 182 "/>
</clipPath>
<clipPath id="clip-21">
<path clip-rule="nonzero" d="M 1041.257812 2.5 L 1381.257812 2.5 L 1381.257812 183.058594 L 1041.257812 183.058594 Z M 1041.257812 2.5 "/>
</clipPath>
<clipPath id="clip-22">
<path clip-rule="nonzero" d="M 108 102 L 238 102 L 238 181.058594 L 108 181.058594 Z M 108 102 "/>
</clipPath>
<clipPath id="clip-23">
<rect x="0" y="0" width="341" height="182"/>
</clipPath>
<g id="source-23" clip-path="url(#clip-23)">
<g clip-path="url(#clip-22)">
<path fill-rule="nonzero" fill="rgb(0%, 0%, 0%)" fill-opacity="1" d="M 108.632812 255.5 L 132.722656 255.5 L 132.722656 175.601562 C 132.722656 144.574219 152.273438 124.464844 179.898438 124.464844 C 202.710938 124.464844 213.472656 136.5 213.472656 162.578125 L 213.472656 255.515625 L 237.5625 255.515625 L 237.5625 157.1875 C 237.5625 121.351562 220 102.363281 187.546875 102.363281 C 159.921875 102.363281 142.785156 115.964844 133.996094 134.238281 L 132.296875 134.238281 L 128.898438 106.613281 L 108.632812 106.613281 Z M 108.632812 255.5 "/>
</g>
</g>
<clipPath id="clip-24">
<path clip-rule="nonzero" d="M 1041.257812 183.058594 L 1381.257812 183.058594 L 1381.257812 342.5 L 1041.257812 342.5 Z M 1041.257812 183.058594 "/>
</clipPath>
<clipPath id="clip-25">
<path clip-rule="nonzero" d="M 104 0.0585938 L 243 0.0585938 L 243 75 L 104 75 Z M 104 0.0585938 "/>
</clipPath>
<clipPath id="clip-26">
<rect x="0" y="0" width="341" height="160"/>
</clipPath>
<g id="source-26" clip-path="url(#clip-26)">
<g clip-path="url(#clip-25)">
<path fill-rule="nonzero" fill="rgb(0%, 0%, 0%)" fill-opacity="1" d="M 104.09375 72.664062 L 104.09375 74.5 L 137.378906 74.5 L 137.378906 72.664062 C 134.269531 61.324219 132.707031 46.601562 132.707031 29.179688 L 132.707031 -5.382812 C 132.707031 -37.546875 151.40625 -58.371094 179.589844 -58.371094 C 202.542969 -58.371094 213.457031 -45.757812 213.457031 -18.421875 L 213.457031 29.179688 C 213.457031 46.601562 211.890625 61.34375 208.917969 72.664062 L 208.917969 74.5 L 242.203125 74.5 L 242.203125 72.664062 C 239.089844 61.324219 237.527344 46.601562 237.527344 29.179688 L 237.527344 -23.8125 C 237.527344 -59.648438 219.964844 -78.636719 187.511719 -78.636719 C 159.886719 -78.636719 142.753906 -64.1875 133.964844 -44.773438 L 132.261719 -44.773438 L 128.863281 -74.8125 L 104.078125 -74.386719 L 104.078125 -72.6875 C 107.050781 -62.351562 108.617188 -49.445312 108.617188 -33.160156 L 108.617188 29.179688 C 108.617188 46.601562 107.050781 61.34375 104.078125 72.664062 Z M 104.09375 72.664062 "/>
</g>
</g>
<clipPath id="clip-27">
<path clip-rule="nonzero" d="M 1041.257812 182 L 1381.257812 182 L 1381.257812 184 L 1041.257812 184 Z M 1041.257812 182 "/>
</clipPath>
</defs>
<path fill-rule="nonzero" fill="rgb(100%, 100%, 100%)" fill-opacity="1" d="M 0.757812 342.5 L 340.757812 342.5 L 340.757812 2.5 L 0.757812 2.5 Z M 0.757812 342.5 "/>
<g clip-path="url(#clip-0)">
<use xlink:href="#source-5" transform="matrix(1, 0, 0, 1, 0, 2)"/>
</g>
<g clip-path="url(#clip-3)">
<use xlink:href="#source-8" transform="matrix(1, 0, 0, 1, 0, 183)"/>
</g>
<g clip-path="url(#clip-6)">
<path fill="none" stroke-width="1.7" stroke-linecap="butt" stroke-linejoin="miter" stroke="rgb(100%, 0%, 0%)" stroke-opacity="1" stroke-miterlimit="4" d="M -0.0007875 -0.00159375 L 339.999212 -0.00159375 " transform="matrix(1, 0, 0, -1, 0.7586, 183.057)"/>
</g>
<path fill-rule="nonzero" fill="rgb(100%, 100%, 100%)" fill-opacity="1" d="M 339.515625 342.5 L 679.515625 342.5 L 679.515625 2.5 L 339.515625 2.5 Z M 339.515625 342.5 "/>
<g clip-path="url(#clip-7)">
<use xlink:href="#source-11" transform="matrix(1, 0, 0, 1, 339, 2)"/>
</g>
<g clip-path="url(#clip-10)">
<use xlink:href="#source-14" transform="matrix(1, 0, 0, 1, 339, 183)"/>
</g>
<g clip-path="url(#clip-13)">
<path fill="none" stroke-width="1.7" stroke-linecap="butt" stroke-linejoin="miter" stroke="rgb(100%, 0%, 0%)" stroke-opacity="1" stroke-miterlimit="4" d="M -0.001575 -0.00159375 L 339.998425 -0.00159375 " transform="matrix(1, 0, 0, -1, 339.5172, 183.057)"/>
</g>
<path fill="none" stroke-width="1" stroke-linecap="butt" stroke-linejoin="miter" stroke="rgb(0%, 0%, 0%)" stroke-opacity="1" stroke-miterlimit="4" d="M 0.5 3 L 679.5 3 L 679.5 342 L 0.5 342 Z M 0.5 3 " transform="matrix(1, 0, 0, -1, 0, 345)"/>
<path fill-rule="nonzero" fill="rgb(100%, 100%, 100%)" fill-opacity="1" d="M 702.257812 342.5 L 1042.257812 342.5 L 1042.257812 2.5 L 702.257812 2.5 Z M 702.257812 342.5 "/>
<g clip-path="url(#clip-14)">
<use xlink:href="#source-17" transform="matrix(1, 0, 0, 1, 702, 2)"/>
</g>
<g clip-path="url(#clip-17)">
<use xlink:href="#source-20" transform="matrix(1, 0, 0, 1, 702, 183)"/>
</g>
<g clip-path="url(#clip-20)">
<path fill="none" stroke-width="1.7" stroke-linecap="butt" stroke-linejoin="miter" stroke="rgb(100%, 0%, 0%)" stroke-opacity="1" stroke-miterlimit="4" d="M -0.0007875 -0.00159375 L 339.999212 -0.00159375 " transform="matrix(1, 0, 0, -1, 702.2586, 183.057)"/>
</g>
<path fill-rule="nonzero" fill="rgb(100%, 100%, 100%)" fill-opacity="1" d="M 1041.257812 342.5 L 1381.257812 342.5 L 1381.257812 2.5 L 1041.257812 2.5 Z M 1041.257812 342.5 "/>
<g clip-path="url(#clip-21)">
<use xlink:href="#source-23" transform="matrix(1, 0, 0, 1, 1041, 2)"/>
</g>
<g clip-path="url(#clip-24)">
<use xlink:href="#source-26" transform="matrix(1, 0, 0, 1, 1041, 183)"/>
</g>
<g clip-path="url(#clip-27)">
<path fill="none" stroke-width="1.7" stroke-linecap="butt" stroke-linejoin="miter" stroke="rgb(100%, 0%, 0%)" stroke-opacity="1" stroke-miterlimit="4" d="M -0.0006875 -0.00159375 L 339.999312 -0.00159375 " transform="matrix(1, 0, 0, -1, 1041.2585, 183.057)"/>
</g>
<path fill="none" stroke-width="1" stroke-linecap="butt" stroke-linejoin="miter" stroke="rgb(0%, 0%, 0%)" stroke-opacity="1" stroke-miterlimit="4" d="M 702.5 3 L 1380.503906 3 L 1380.503906 342 L 702.5 342 Z M 702.5 3 " transform="matrix(1, 0, 0, -1, 0, 345)"/>
</svg>
